G75*
%MOIN*%
%OFA0B0*%
%FSLAX25Y25*%
%IPPOS*%
%LPD*%
%AMOC8*
5,1,8,0,0,1.08239X$1,22.5*
%
%ADD10C,0.00800*%
%ADD11C,0.01100*%
%ADD12C,0.01000*%
%ADD13C,0.00591*%
%ADD14C,0.00039*%
%ADD15C,0.00100*%
%ADD16C,0.00600*%
D10*
X0076920Y0103994D02*
X0076920Y0106096D01*
X0077621Y0106796D01*
X0078321Y0106796D01*
X0079022Y0106096D01*
X0079022Y0103994D01*
X0081124Y0103994D02*
X0081124Y0106096D01*
X0080423Y0106796D01*
X0079722Y0106796D01*
X0079022Y0106096D01*
X0079722Y0108598D02*
X0079722Y0110700D01*
X0079022Y0111400D01*
X0077621Y0111400D01*
X0076920Y0110700D01*
X0076920Y0108598D01*
X0081124Y0108598D01*
X0082524Y0107500D02*
X0082524Y0112500D01*
X0085024Y0115000D01*
X0090024Y0115000D01*
X0092524Y0112500D01*
X0095024Y0115000D01*
X0100024Y0115000D01*
X0102524Y0112500D01*
X0105024Y0115000D01*
X0110024Y0115000D01*
X0112524Y0112500D01*
X0115024Y0115000D01*
X0120024Y0115000D01*
X0122524Y0112500D01*
X0122524Y0107500D01*
X0120024Y0105000D01*
X0115024Y0105000D01*
X0112524Y0107500D01*
X0110024Y0105000D01*
X0105024Y0105000D01*
X0102524Y0107500D01*
X0100024Y0105000D01*
X0095024Y0105000D01*
X0092524Y0107500D01*
X0090024Y0105000D01*
X0085024Y0105000D01*
X0082524Y0107500D01*
X0079722Y0109999D02*
X0081124Y0111400D01*
X0081124Y0113202D02*
X0076920Y0113202D01*
X0081124Y0116004D01*
X0076920Y0116004D01*
X0076920Y0103994D02*
X0081124Y0103994D01*
X0080024Y0130000D02*
X0075024Y0130000D01*
X0072524Y0132500D01*
X0072524Y0137500D01*
X0075024Y0140000D01*
X0072524Y0142500D01*
X0072524Y0147500D01*
X0075024Y0150000D01*
X0072524Y0152500D01*
X0072524Y0157500D01*
X0075024Y0160000D01*
X0072524Y0162500D01*
X0072524Y0167500D01*
X0075024Y0170000D01*
X0072524Y0172500D01*
X0072524Y0177500D01*
X0075024Y0180000D01*
X0072524Y0182500D01*
X0072524Y0187500D01*
X0075024Y0190000D01*
X0072524Y0192500D01*
X0072524Y0197500D01*
X0075024Y0200000D01*
X0072524Y0202500D01*
X0072524Y0207500D01*
X0075024Y0210000D01*
X0080024Y0210000D01*
X0082524Y0207500D01*
X0082524Y0202500D01*
X0080024Y0200000D01*
X0082524Y0197500D01*
X0082524Y0192500D01*
X0080024Y0190000D01*
X0082524Y0187500D01*
X0082524Y0182500D01*
X0080024Y0180000D01*
X0082524Y0177500D01*
X0082524Y0172500D01*
X0080024Y0170000D01*
X0082524Y0167500D01*
X0082524Y0162500D01*
X0080024Y0160000D01*
X0082524Y0157500D01*
X0082524Y0152500D01*
X0080024Y0150000D01*
X0082524Y0147500D01*
X0082524Y0142500D01*
X0080024Y0140000D01*
X0082524Y0137500D01*
X0082524Y0132500D01*
X0080024Y0130000D01*
X0124420Y0116004D02*
X0124420Y0113202D01*
X0124420Y0114603D02*
X0128624Y0114603D01*
X0128624Y0111400D02*
X0124420Y0111400D01*
X0126522Y0111400D02*
X0126522Y0108598D01*
X0128624Y0108598D02*
X0124420Y0108598D01*
X0124420Y0106796D02*
X0128624Y0106796D01*
X0127222Y0105395D01*
X0128624Y0103994D01*
X0124420Y0103994D01*
X0182524Y0132500D02*
X0182524Y0137500D01*
X0185024Y0140000D01*
X0182524Y0142500D01*
X0182524Y0147500D01*
X0185024Y0150000D01*
X0182524Y0152500D01*
X0182524Y0157500D01*
X0185024Y0160000D01*
X0182524Y0162500D01*
X0182524Y0167500D01*
X0185024Y0170000D01*
X0182524Y0172500D01*
X0182524Y0177500D01*
X0185024Y0180000D01*
X0182524Y0182500D01*
X0182524Y0187500D01*
X0185024Y0190000D01*
X0182524Y0192500D01*
X0182524Y0197500D01*
X0185024Y0200000D01*
X0182524Y0202500D01*
X0182524Y0207500D01*
X0185024Y0210000D01*
X0190024Y0210000D01*
X0192524Y0207500D01*
X0192524Y0202500D01*
X0190024Y0200000D01*
X0192524Y0197500D01*
X0192524Y0192500D01*
X0190024Y0190000D01*
X0192524Y0187500D01*
X0192524Y0182500D01*
X0190024Y0180000D01*
X0192524Y0177500D01*
X0192524Y0172500D01*
X0190024Y0170000D01*
X0192524Y0167500D01*
X0192524Y0162500D01*
X0190024Y0160000D01*
X0192524Y0157500D01*
X0192524Y0152500D01*
X0190024Y0150000D01*
X0192524Y0147500D01*
X0192524Y0142500D01*
X0190024Y0140000D01*
X0192524Y0137500D01*
X0192524Y0132500D01*
X0190024Y0130000D01*
X0185024Y0130000D01*
X0182524Y0132500D01*
X0216972Y0136142D02*
X0216972Y0153858D01*
X0228587Y0153858D01*
X0228587Y0151890D01*
X0236461Y0151890D01*
X0236461Y0153858D01*
X0248075Y0153858D01*
X0248075Y0136142D01*
X0216972Y0136142D01*
X0276622Y0137900D02*
X0276622Y0140702D01*
X0278023Y0142104D01*
X0279424Y0140702D01*
X0279424Y0137900D01*
X0279424Y0140002D02*
X0276622Y0140002D01*
X0282524Y0142500D02*
X0282524Y0137500D01*
X0285024Y0135000D01*
X0282524Y0132500D01*
X0282524Y0127500D01*
X0285024Y0125000D01*
X0290024Y0125000D01*
X0292524Y0127500D01*
X0292524Y0132500D01*
X0290024Y0135000D01*
X0292524Y0137500D01*
X0292524Y0142500D01*
X0290024Y0145000D01*
X0292524Y0147500D01*
X0292524Y0152500D01*
X0290024Y0155000D01*
X0292524Y0157500D01*
X0292524Y0162500D01*
X0290024Y0165000D01*
X0292524Y0167500D01*
X0292524Y0172500D01*
X0290024Y0175000D01*
X0292524Y0177500D01*
X0292524Y0182500D01*
X0290024Y0185000D01*
X0285024Y0185000D01*
X0282524Y0182500D01*
X0282524Y0177500D01*
X0285024Y0175000D01*
X0282524Y0172500D01*
X0282524Y0167500D01*
X0285024Y0165000D01*
X0282524Y0162500D01*
X0282524Y0157500D01*
X0285024Y0155000D01*
X0282524Y0152500D01*
X0282524Y0147500D01*
X0285024Y0145000D01*
X0282524Y0142500D01*
X0280624Y0148994D02*
X0276420Y0148994D01*
X0276420Y0151796D01*
X0276420Y0153598D02*
X0280624Y0156400D01*
X0276420Y0156400D01*
X0277121Y0158202D02*
X0279923Y0158202D01*
X0280624Y0158903D01*
X0280624Y0160304D01*
X0279923Y0161004D01*
X0277121Y0161004D02*
X0276420Y0160304D01*
X0276420Y0158903D01*
X0277121Y0158202D01*
X0276420Y0153598D02*
X0280624Y0153598D01*
X0280624Y0151796D02*
X0280624Y0148994D01*
X0278522Y0148994D02*
X0278522Y0150395D01*
X0278723Y0132104D02*
X0276622Y0132104D01*
X0276622Y0127900D01*
X0278723Y0127900D01*
X0279424Y0128601D01*
X0279424Y0129301D01*
X0278723Y0130002D01*
X0276622Y0130002D01*
X0278723Y0130002D02*
X0279424Y0130702D01*
X0279424Y0131403D01*
X0278723Y0132104D01*
X0281518Y0121604D02*
X0281518Y0117400D01*
X0282919Y0118801D01*
X0284320Y0117400D01*
X0284320Y0121604D01*
X0286122Y0121604D02*
X0286122Y0117400D01*
X0286122Y0119502D02*
X0288924Y0119502D01*
X0288924Y0121604D02*
X0288924Y0117400D01*
X0292127Y0117400D02*
X0292127Y0121604D01*
X0290726Y0121604D02*
X0293528Y0121604D01*
X0280124Y0169494D02*
X0275920Y0169494D01*
X0277321Y0170895D01*
X0275920Y0172296D01*
X0280124Y0172296D01*
X0280124Y0175499D02*
X0275920Y0175499D01*
X0275920Y0174098D02*
X0275920Y0176900D01*
X0275920Y0178702D02*
X0275920Y0180804D01*
X0276621Y0181504D01*
X0278022Y0181504D01*
X0278722Y0180804D01*
X0278722Y0178702D01*
X0278722Y0180103D02*
X0280124Y0181504D01*
X0280124Y0178702D02*
X0275920Y0178702D01*
X0281518Y0187400D02*
X0281518Y0191604D01*
X0283620Y0191604D01*
X0284320Y0190903D01*
X0284320Y0189502D01*
X0283620Y0188801D01*
X0281518Y0188801D01*
X0282919Y0188801D02*
X0284320Y0187400D01*
X0286122Y0187400D02*
X0288924Y0187400D01*
X0290726Y0187400D02*
X0292827Y0187400D01*
X0293528Y0188101D01*
X0293528Y0190903D01*
X0292827Y0191604D01*
X0290726Y0191604D01*
X0290726Y0187400D01*
X0287523Y0189502D02*
X0286122Y0189502D01*
X0286122Y0191604D02*
X0286122Y0187400D01*
X0286122Y0191604D02*
X0288924Y0191604D01*
X0297524Y0194200D02*
X0245524Y0194200D01*
X0245524Y0205000D01*
X0245524Y0215000D02*
X0245524Y0225000D01*
X0245524Y0235000D02*
X0245524Y0245000D01*
X0245524Y0255000D02*
X0245524Y0265000D01*
X0245524Y0275000D02*
X0245524Y0285800D01*
X0297524Y0285800D01*
X0297524Y0194200D01*
X0222524Y0242500D02*
X0222524Y0247500D01*
X0220024Y0250000D01*
X0222524Y0252500D01*
X0222524Y0257500D01*
X0220024Y0260000D01*
X0222524Y0262500D01*
X0222524Y0267500D01*
X0220024Y0270000D01*
X0222524Y0272500D01*
X0222524Y0277500D01*
X0220024Y0280000D01*
X0222524Y0282500D01*
X0222524Y0287500D01*
X0220024Y0290000D01*
X0215024Y0290000D01*
X0212524Y0287500D01*
X0212524Y0282500D01*
X0215024Y0280000D01*
X0212524Y0277500D01*
X0212524Y0272500D01*
X0215024Y0270000D01*
X0212524Y0267500D01*
X0212524Y0262500D01*
X0215024Y0260000D01*
X0212524Y0257500D01*
X0212524Y0252500D01*
X0215024Y0250000D01*
X0212524Y0247500D01*
X0212524Y0242500D01*
X0215024Y0240000D01*
X0220024Y0240000D01*
X0222524Y0242500D01*
X0069296Y0250000D02*
X0069303Y0250570D01*
X0069324Y0251140D01*
X0069359Y0251709D01*
X0069408Y0252277D01*
X0069471Y0252843D01*
X0069547Y0253408D01*
X0069638Y0253971D01*
X0069742Y0254532D01*
X0069860Y0255089D01*
X0069992Y0255644D01*
X0070137Y0256195D01*
X0070296Y0256743D01*
X0070468Y0257286D01*
X0070654Y0257825D01*
X0070852Y0258360D01*
X0071064Y0258889D01*
X0071289Y0259413D01*
X0071526Y0259931D01*
X0071776Y0260444D01*
X0072039Y0260950D01*
X0072314Y0261449D01*
X0072601Y0261942D01*
X0072900Y0262427D01*
X0073211Y0262905D01*
X0073533Y0263375D01*
X0073867Y0263837D01*
X0074212Y0264291D01*
X0074569Y0264736D01*
X0074936Y0265172D01*
X0075313Y0265599D01*
X0075701Y0266017D01*
X0076099Y0266425D01*
X0076507Y0266823D01*
X0076925Y0267211D01*
X0077352Y0267588D01*
X0077788Y0267955D01*
X0078233Y0268312D01*
X0078687Y0268657D01*
X0079149Y0268991D01*
X0079619Y0269313D01*
X0080097Y0269624D01*
X0080582Y0269923D01*
X0081075Y0270210D01*
X0081574Y0270485D01*
X0082080Y0270748D01*
X0082593Y0270998D01*
X0083111Y0271235D01*
X0083635Y0271460D01*
X0084164Y0271672D01*
X0084699Y0271870D01*
X0085238Y0272056D01*
X0085781Y0272228D01*
X0086329Y0272387D01*
X0086880Y0272532D01*
X0087435Y0272664D01*
X0087992Y0272782D01*
X0088553Y0272886D01*
X0089116Y0272977D01*
X0089681Y0273053D01*
X0090247Y0273116D01*
X0090815Y0273165D01*
X0091384Y0273200D01*
X0091954Y0273221D01*
X0092524Y0273228D01*
X0093094Y0273221D01*
X0093664Y0273200D01*
X0094233Y0273165D01*
X0094801Y0273116D01*
X0095367Y0273053D01*
X0095932Y0272977D01*
X0096495Y0272886D01*
X0097056Y0272782D01*
X0097613Y0272664D01*
X0098168Y0272532D01*
X0098719Y0272387D01*
X0099267Y0272228D01*
X0099810Y0272056D01*
X0100349Y0271870D01*
X0100884Y0271672D01*
X0101413Y0271460D01*
X0101937Y0271235D01*
X0102455Y0270998D01*
X0102968Y0270748D01*
X0103474Y0270485D01*
X0103973Y0270210D01*
X0104466Y0269923D01*
X0104951Y0269624D01*
X0105429Y0269313D01*
X0105899Y0268991D01*
X0106361Y0268657D01*
X0106815Y0268312D01*
X0107260Y0267955D01*
X0107696Y0267588D01*
X0108123Y0267211D01*
X0108541Y0266823D01*
X0108949Y0266425D01*
X0109347Y0266017D01*
X0109735Y0265599D01*
X0110112Y0265172D01*
X0110479Y0264736D01*
X0110836Y0264291D01*
X0111181Y0263837D01*
X0111515Y0263375D01*
X0111837Y0262905D01*
X0112148Y0262427D01*
X0112447Y0261942D01*
X0112734Y0261449D01*
X0113009Y0260950D01*
X0113272Y0260444D01*
X0113522Y0259931D01*
X0113759Y0259413D01*
X0113984Y0258889D01*
X0114196Y0258360D01*
X0114394Y0257825D01*
X0114580Y0257286D01*
X0114752Y0256743D01*
X0114911Y0256195D01*
X0115056Y0255644D01*
X0115188Y0255089D01*
X0115306Y0254532D01*
X0115410Y0253971D01*
X0115501Y0253408D01*
X0115577Y0252843D01*
X0115640Y0252277D01*
X0115689Y0251709D01*
X0115724Y0251140D01*
X0115745Y0250570D01*
X0115752Y0250000D01*
X0115745Y0249430D01*
X0115724Y0248860D01*
X0115689Y0248291D01*
X0115640Y0247723D01*
X0115577Y0247157D01*
X0115501Y0246592D01*
X0115410Y0246029D01*
X0115306Y0245468D01*
X0115188Y0244911D01*
X0115056Y0244356D01*
X0114911Y0243805D01*
X0114752Y0243257D01*
X0114580Y0242714D01*
X0114394Y0242175D01*
X0114196Y0241640D01*
X0113984Y0241111D01*
X0113759Y0240587D01*
X0113522Y0240069D01*
X0113272Y0239556D01*
X0113009Y0239050D01*
X0112734Y0238551D01*
X0112447Y0238058D01*
X0112148Y0237573D01*
X0111837Y0237095D01*
X0111515Y0236625D01*
X0111181Y0236163D01*
X0110836Y0235709D01*
X0110479Y0235264D01*
X0110112Y0234828D01*
X0109735Y0234401D01*
X0109347Y0233983D01*
X0108949Y0233575D01*
X0108541Y0233177D01*
X0108123Y0232789D01*
X0107696Y0232412D01*
X0107260Y0232045D01*
X0106815Y0231688D01*
X0106361Y0231343D01*
X0105899Y0231009D01*
X0105429Y0230687D01*
X0104951Y0230376D01*
X0104466Y0230077D01*
X0103973Y0229790D01*
X0103474Y0229515D01*
X0102968Y0229252D01*
X0102455Y0229002D01*
X0101937Y0228765D01*
X0101413Y0228540D01*
X0100884Y0228328D01*
X0100349Y0228130D01*
X0099810Y0227944D01*
X0099267Y0227772D01*
X0098719Y0227613D01*
X0098168Y0227468D01*
X0097613Y0227336D01*
X0097056Y0227218D01*
X0096495Y0227114D01*
X0095932Y0227023D01*
X0095367Y0226947D01*
X0094801Y0226884D01*
X0094233Y0226835D01*
X0093664Y0226800D01*
X0093094Y0226779D01*
X0092524Y0226772D01*
X0091954Y0226779D01*
X0091384Y0226800D01*
X0090815Y0226835D01*
X0090247Y0226884D01*
X0089681Y0226947D01*
X0089116Y0227023D01*
X0088553Y0227114D01*
X0087992Y0227218D01*
X0087435Y0227336D01*
X0086880Y0227468D01*
X0086329Y0227613D01*
X0085781Y0227772D01*
X0085238Y0227944D01*
X0084699Y0228130D01*
X0084164Y0228328D01*
X0083635Y0228540D01*
X0083111Y0228765D01*
X0082593Y0229002D01*
X0082080Y0229252D01*
X0081574Y0229515D01*
X0081075Y0229790D01*
X0080582Y0230077D01*
X0080097Y0230376D01*
X0079619Y0230687D01*
X0079149Y0231009D01*
X0078687Y0231343D01*
X0078233Y0231688D01*
X0077788Y0232045D01*
X0077352Y0232412D01*
X0076925Y0232789D01*
X0076507Y0233177D01*
X0076099Y0233575D01*
X0075701Y0233983D01*
X0075313Y0234401D01*
X0074936Y0234828D01*
X0074569Y0235264D01*
X0074212Y0235709D01*
X0073867Y0236163D01*
X0073533Y0236625D01*
X0073211Y0237095D01*
X0072900Y0237573D01*
X0072601Y0238058D01*
X0072314Y0238551D01*
X0072039Y0239050D01*
X0071776Y0239556D01*
X0071526Y0240069D01*
X0071289Y0240587D01*
X0071064Y0241111D01*
X0070852Y0241640D01*
X0070654Y0242175D01*
X0070468Y0242714D01*
X0070296Y0243257D01*
X0070137Y0243805D01*
X0069992Y0244356D01*
X0069860Y0244911D01*
X0069742Y0245468D01*
X0069638Y0246029D01*
X0069547Y0246592D01*
X0069471Y0247157D01*
X0069408Y0247723D01*
X0069359Y0248291D01*
X0069324Y0248860D01*
X0069303Y0249430D01*
X0069296Y0250000D01*
X0075024Y0280000D02*
X0090024Y0280000D01*
D11*
X0153163Y0270721D02*
X0153163Y0266784D01*
X0154147Y0265800D01*
X0156115Y0265800D01*
X0157100Y0266784D01*
X0159608Y0266784D02*
X0160593Y0265800D01*
X0163545Y0265800D01*
X0163545Y0269737D01*
X0166054Y0269737D02*
X0166054Y0265800D01*
X0166054Y0267768D02*
X0168022Y0269737D01*
X0169006Y0269737D01*
X0171425Y0269737D02*
X0171425Y0265800D01*
X0171425Y0267768D02*
X0173393Y0269737D01*
X0174378Y0269737D01*
X0176796Y0268753D02*
X0177780Y0269737D01*
X0179749Y0269737D01*
X0180733Y0268753D01*
X0180733Y0267768D01*
X0176796Y0267768D01*
X0176796Y0266784D02*
X0176796Y0268753D01*
X0176796Y0266784D02*
X0177780Y0265800D01*
X0179749Y0265800D01*
X0183242Y0265800D02*
X0183242Y0269737D01*
X0186194Y0269737D01*
X0187179Y0268753D01*
X0187179Y0265800D01*
X0190671Y0266784D02*
X0191656Y0265800D01*
X0190671Y0266784D02*
X0190671Y0270721D01*
X0189687Y0269737D02*
X0191656Y0269737D01*
X0186194Y0259237D02*
X0187179Y0258253D01*
X0187179Y0257268D01*
X0183242Y0257268D01*
X0183242Y0256284D02*
X0183242Y0258253D01*
X0184226Y0259237D01*
X0186194Y0259237D01*
X0186194Y0255300D02*
X0184226Y0255300D01*
X0183242Y0256284D01*
X0180733Y0256284D02*
X0179749Y0257268D01*
X0177781Y0257268D01*
X0176796Y0258253D01*
X0177781Y0259237D01*
X0180733Y0259237D01*
X0180733Y0256284D02*
X0179749Y0255300D01*
X0176796Y0255300D01*
X0174288Y0255300D02*
X0174288Y0258253D01*
X0173303Y0259237D01*
X0170351Y0259237D01*
X0170351Y0255300D01*
X0167842Y0257268D02*
X0163905Y0257268D01*
X0163905Y0256284D02*
X0163905Y0258253D01*
X0164890Y0259237D01*
X0166858Y0259237D01*
X0167842Y0258253D01*
X0167842Y0257268D01*
X0166858Y0255300D02*
X0164890Y0255300D01*
X0163905Y0256284D01*
X0161397Y0256284D02*
X0160412Y0255300D01*
X0158444Y0255300D01*
X0157460Y0256284D01*
X0158444Y0258253D02*
X0160412Y0258253D01*
X0161397Y0257268D01*
X0161397Y0256284D01*
X0158444Y0258253D02*
X0157460Y0259237D01*
X0157460Y0260221D01*
X0158444Y0261205D01*
X0160412Y0261205D01*
X0161397Y0260221D01*
X0159608Y0266784D02*
X0159608Y0269737D01*
X0157100Y0270721D02*
X0156115Y0271705D01*
X0154147Y0271705D01*
X0153163Y0270721D01*
X0229569Y0230426D02*
X0229569Y0227473D01*
X0235474Y0227473D01*
X0233505Y0227473D02*
X0233505Y0230426D01*
X0232521Y0231410D01*
X0230553Y0231410D01*
X0229569Y0230426D01*
X0232521Y0233919D02*
X0234489Y0233919D01*
X0235474Y0234903D01*
X0235474Y0236871D01*
X0234489Y0237856D01*
X0232521Y0237856D01*
X0231537Y0236871D01*
X0231537Y0234903D01*
X0232521Y0233919D01*
X0231537Y0240364D02*
X0234489Y0240364D01*
X0235474Y0241349D01*
X0234489Y0242333D01*
X0235474Y0243317D01*
X0234489Y0244301D01*
X0231537Y0244301D01*
X0232521Y0246810D02*
X0231537Y0247794D01*
X0231537Y0249762D01*
X0232521Y0250747D01*
X0233505Y0250747D01*
X0233505Y0246810D01*
X0234489Y0246810D02*
X0232521Y0246810D01*
X0234489Y0246810D02*
X0235474Y0247794D01*
X0235474Y0249762D01*
X0235474Y0253255D02*
X0231537Y0253255D01*
X0233505Y0253255D02*
X0231537Y0255224D01*
X0231537Y0256208D01*
X0134946Y0178221D02*
X0134946Y0174284D01*
X0135931Y0173300D01*
X0138259Y0174284D02*
X0139243Y0173300D01*
X0141212Y0173300D01*
X0142196Y0174284D01*
X0142196Y0176253D01*
X0141212Y0177237D01*
X0139243Y0177237D01*
X0138259Y0176253D01*
X0138259Y0174284D01*
X0135931Y0177237D02*
X0133962Y0177237D01*
X0131453Y0176253D02*
X0130469Y0177237D01*
X0128501Y0177237D01*
X0127517Y0176253D01*
X0127517Y0174284D01*
X0128501Y0173300D01*
X0130469Y0173300D01*
X0131453Y0174284D01*
X0131453Y0176253D01*
X0125008Y0179205D02*
X0125008Y0173300D01*
X0121071Y0173300D02*
X0121071Y0179205D01*
X0123040Y0177237D01*
X0125008Y0179205D01*
X0118652Y0168705D02*
X0116684Y0168705D01*
X0115700Y0167721D01*
X0115700Y0163784D01*
X0116684Y0162800D01*
X0118652Y0162800D01*
X0119637Y0163784D01*
X0122145Y0163784D02*
X0122145Y0165753D01*
X0123130Y0166737D01*
X0125098Y0166737D01*
X0126082Y0165753D01*
X0126082Y0163784D01*
X0125098Y0162800D01*
X0123130Y0162800D01*
X0122145Y0163784D01*
X0119637Y0167721D02*
X0118652Y0168705D01*
X0128591Y0166737D02*
X0128591Y0162800D01*
X0132528Y0162800D02*
X0132528Y0165753D01*
X0131543Y0166737D01*
X0128591Y0166737D01*
X0135036Y0166737D02*
X0137005Y0166737D01*
X0136021Y0167721D02*
X0136021Y0163784D01*
X0137005Y0162800D01*
X0139333Y0162800D02*
X0139333Y0166737D01*
X0139333Y0164768D02*
X0141302Y0166737D01*
X0142286Y0166737D01*
X0144705Y0165753D02*
X0144705Y0163784D01*
X0145689Y0162800D01*
X0147657Y0162800D01*
X0148641Y0163784D01*
X0148641Y0165753D01*
X0147657Y0166737D01*
X0145689Y0166737D01*
X0144705Y0165753D01*
X0151150Y0168705D02*
X0152134Y0168705D01*
X0152134Y0162800D01*
X0151150Y0162800D02*
X0153119Y0162800D01*
X0144705Y0173300D02*
X0144705Y0177237D01*
X0146673Y0177237D02*
X0147657Y0177237D01*
X0146673Y0177237D02*
X0144705Y0175268D01*
X0195586Y0164971D02*
X0195586Y0163987D01*
X0196570Y0163003D01*
X0198539Y0163003D01*
X0199523Y0162018D01*
X0199523Y0161034D01*
X0198539Y0160050D01*
X0196570Y0160050D01*
X0195586Y0161034D01*
X0202032Y0161034D02*
X0203016Y0162018D01*
X0205968Y0162018D01*
X0205968Y0163003D02*
X0205968Y0160050D01*
X0203016Y0160050D01*
X0202032Y0161034D01*
X0203016Y0163987D02*
X0204984Y0163987D01*
X0205968Y0163003D01*
X0208477Y0163003D02*
X0210446Y0163003D01*
X0209461Y0164971D02*
X0209461Y0160050D01*
X0212774Y0161034D02*
X0212774Y0163003D01*
X0213758Y0163987D01*
X0215727Y0163987D01*
X0216711Y0163003D01*
X0216711Y0162018D01*
X0212774Y0162018D01*
X0212774Y0161034D02*
X0213758Y0160050D01*
X0215727Y0160050D01*
X0210446Y0165955D02*
X0209461Y0164971D01*
X0199523Y0164971D02*
X0198539Y0165955D01*
X0196570Y0165955D01*
X0195586Y0164971D01*
X0225665Y0164971D02*
X0225665Y0161034D01*
X0226649Y0160050D01*
X0228618Y0160050D01*
X0229602Y0161034D01*
X0232111Y0160050D02*
X0232111Y0163987D01*
X0234079Y0163987D02*
X0235063Y0163987D01*
X0234079Y0163987D02*
X0232111Y0162018D01*
X0229602Y0164971D02*
X0228618Y0165955D01*
X0226649Y0165955D01*
X0225665Y0164971D01*
X0237482Y0161034D02*
X0238466Y0162018D01*
X0241419Y0162018D01*
X0241419Y0163003D02*
X0241419Y0160050D01*
X0238466Y0160050D01*
X0237482Y0161034D01*
X0238466Y0163987D02*
X0240434Y0163987D01*
X0241419Y0163003D01*
X0243927Y0163003D02*
X0243927Y0161034D01*
X0244912Y0160050D01*
X0247864Y0160050D01*
X0250373Y0160050D02*
X0250373Y0165955D01*
X0247864Y0163987D02*
X0244912Y0163987D01*
X0243927Y0163003D01*
X0250373Y0162018D02*
X0253325Y0163987D01*
X0255744Y0163003D02*
X0256728Y0163987D01*
X0258697Y0163987D01*
X0259681Y0163003D01*
X0259681Y0162018D01*
X0255744Y0162018D01*
X0255744Y0161034D02*
X0255744Y0163003D01*
X0255744Y0161034D02*
X0256728Y0160050D01*
X0258697Y0160050D01*
X0262190Y0160050D02*
X0262190Y0163987D01*
X0264158Y0163987D02*
X0265142Y0163987D01*
X0264158Y0163987D02*
X0262190Y0162018D01*
X0268037Y0161688D02*
X0268037Y0159720D01*
X0269021Y0158736D01*
X0270989Y0158736D01*
X0271974Y0159720D01*
X0271974Y0161688D01*
X0270989Y0162672D01*
X0269021Y0162672D01*
X0268037Y0161688D01*
X0268037Y0165181D02*
X0271974Y0165181D01*
X0270005Y0165181D02*
X0268037Y0167149D01*
X0268037Y0168134D01*
X0253325Y0160050D02*
X0250373Y0162018D01*
X0267053Y0155423D02*
X0270989Y0155423D01*
X0271974Y0156407D01*
X0268037Y0156407D02*
X0268037Y0154439D01*
X0269021Y0151930D02*
X0268037Y0150946D01*
X0268037Y0148977D01*
X0269021Y0147993D01*
X0270989Y0147993D01*
X0271974Y0148977D01*
X0271974Y0150946D01*
X0270989Y0151930D01*
X0269021Y0151930D01*
X0266069Y0145484D02*
X0271974Y0145484D01*
X0271974Y0141548D02*
X0266069Y0141548D01*
X0268037Y0143516D01*
X0266069Y0145484D01*
X0246104Y0131503D02*
X0246104Y0129534D01*
X0245120Y0128550D01*
X0243152Y0128550D01*
X0242168Y0129534D01*
X0242168Y0131503D01*
X0243152Y0132487D01*
X0245120Y0132487D01*
X0246104Y0131503D01*
X0239839Y0132487D02*
X0237871Y0132487D01*
X0238855Y0133471D02*
X0238855Y0129534D01*
X0239839Y0128550D01*
X0235362Y0129534D02*
X0235362Y0131503D01*
X0234378Y0132487D01*
X0232409Y0132487D01*
X0231425Y0131503D01*
X0231425Y0129534D01*
X0232409Y0128550D01*
X0234378Y0128550D01*
X0235362Y0129534D01*
X0228916Y0128550D02*
X0228916Y0131503D01*
X0227932Y0132487D01*
X0225964Y0132487D01*
X0224980Y0131503D01*
X0222471Y0131503D02*
X0221487Y0130518D01*
X0218534Y0130518D01*
X0218534Y0128550D02*
X0218534Y0134455D01*
X0221487Y0134455D01*
X0222471Y0133471D01*
X0222471Y0131503D01*
X0224980Y0134455D02*
X0224980Y0128550D01*
X0119827Y0122503D02*
X0119827Y0121518D01*
X0115890Y0121518D01*
X0115890Y0120534D02*
X0115890Y0122503D01*
X0116874Y0123487D01*
X0118843Y0123487D01*
X0119827Y0122503D01*
X0118843Y0119550D02*
X0116874Y0119550D01*
X0115890Y0120534D01*
X0113562Y0119550D02*
X0111593Y0119550D01*
X0112577Y0119550D02*
X0112577Y0125455D01*
X0111593Y0125455D01*
X0109085Y0125455D02*
X0109085Y0119550D01*
X0106132Y0119550D01*
X0105148Y0120534D01*
X0105148Y0122503D01*
X0106132Y0123487D01*
X0109085Y0123487D01*
X0102639Y0122503D02*
X0102639Y0119550D01*
X0102639Y0122503D02*
X0101655Y0123487D01*
X0098702Y0123487D01*
X0098702Y0119550D01*
X0096194Y0119550D02*
X0093241Y0119550D01*
X0092257Y0120534D01*
X0093241Y0121518D01*
X0096194Y0121518D01*
X0096194Y0122503D02*
X0096194Y0119550D01*
X0096194Y0122503D02*
X0095209Y0123487D01*
X0093241Y0123487D01*
X0089748Y0122503D02*
X0085811Y0122503D01*
X0085811Y0125455D02*
X0085811Y0119550D01*
X0089748Y0119550D02*
X0089748Y0125455D01*
D12*
X0072524Y0130000D02*
X0072524Y0210000D01*
X0192524Y0210000D01*
X0192524Y0130000D01*
X0072524Y0130000D01*
X0122524Y0215000D02*
X0222524Y0215000D01*
X0222524Y0315000D01*
X0122524Y0315000D01*
X0122524Y0215000D01*
D13*
X0111159Y0280346D02*
X0112177Y0281364D01*
X0110967Y0282848D01*
X0111275Y0283446D01*
X0111480Y0284087D01*
X0113385Y0284280D01*
X0113385Y0285720D01*
X0111480Y0285913D01*
X0111275Y0286554D01*
X0110967Y0287152D01*
X0112177Y0288636D01*
X0111159Y0289654D01*
X0109675Y0288443D01*
X0109077Y0288751D01*
X0108437Y0288956D01*
X0108243Y0290861D01*
X0106804Y0290861D01*
X0106610Y0288956D01*
X0105970Y0288751D01*
X0105372Y0288443D01*
X0103888Y0289654D01*
X0102870Y0288636D01*
X0104080Y0287152D01*
X0103772Y0286554D01*
X0103567Y0285913D01*
X0101662Y0285720D01*
X0101662Y0284280D01*
X0103567Y0284087D01*
X0103772Y0283446D01*
X0104080Y0282848D01*
X0102870Y0281364D01*
X0103888Y0280346D01*
X0105372Y0281557D01*
X0105970Y0281249D01*
X0106817Y0283295D01*
X0106439Y0283507D01*
X0106120Y0283801D01*
X0105879Y0284162D01*
X0105729Y0284569D01*
X0105678Y0285000D01*
X0105731Y0285439D01*
X0105887Y0285852D01*
X0106136Y0286217D01*
X0106465Y0286511D01*
X0106855Y0286720D01*
X0107283Y0286829D01*
X0107724Y0286834D01*
X0108154Y0286734D01*
X0108549Y0286534D01*
X0108884Y0286246D01*
X0109141Y0285887D01*
X0109306Y0285477D01*
X0109368Y0285040D01*
X0109325Y0284600D01*
X0109179Y0284184D01*
X0108937Y0283814D01*
X0108615Y0283512D01*
X0108230Y0283295D01*
X0109078Y0281249D01*
X0109675Y0281557D01*
X0111159Y0280346D01*
X0111655Y0280842D02*
X0110551Y0280842D01*
X0109829Y0281431D02*
X0112122Y0281431D01*
X0111642Y0282020D02*
X0108758Y0282020D01*
X0109002Y0281431D02*
X0109432Y0281431D01*
X0108514Y0282609D02*
X0111162Y0282609D01*
X0111147Y0283198D02*
X0108270Y0283198D01*
X0108909Y0283788D02*
X0111384Y0283788D01*
X0113385Y0284377D02*
X0109246Y0284377D01*
X0109361Y0284966D02*
X0113385Y0284966D01*
X0113385Y0285555D02*
X0109275Y0285555D01*
X0108957Y0286144D02*
X0111406Y0286144D01*
X0111183Y0286733D02*
X0108156Y0286733D01*
X0106906Y0286733D02*
X0103865Y0286733D01*
X0103941Y0287322D02*
X0111106Y0287322D01*
X0111586Y0287911D02*
X0103461Y0287911D01*
X0102981Y0288500D02*
X0105303Y0288500D01*
X0105482Y0288500D02*
X0109565Y0288500D01*
X0109745Y0288500D02*
X0112066Y0288500D01*
X0111724Y0289089D02*
X0110467Y0289089D01*
X0108424Y0289089D02*
X0106624Y0289089D01*
X0106684Y0289678D02*
X0108364Y0289678D01*
X0108304Y0290267D02*
X0106744Y0290267D01*
X0106803Y0290856D02*
X0108244Y0290856D01*
X0104580Y0289089D02*
X0103323Y0289089D01*
X0103641Y0286144D02*
X0106086Y0286144D01*
X0105775Y0285555D02*
X0101662Y0285555D01*
X0101662Y0284966D02*
X0105682Y0284966D01*
X0105800Y0284377D02*
X0101662Y0284377D01*
X0103663Y0283788D02*
X0106135Y0283788D01*
X0106777Y0283198D02*
X0103900Y0283198D01*
X0103885Y0282609D02*
X0106533Y0282609D01*
X0106289Y0282020D02*
X0103405Y0282020D01*
X0102925Y0281431D02*
X0105218Y0281431D01*
X0105616Y0281431D02*
X0106045Y0281431D01*
X0104496Y0280842D02*
X0103392Y0280842D01*
D14*
X0209524Y0182228D02*
X0244471Y0182228D01*
X0254524Y0182228D01*
X0254524Y0175394D01*
X0254524Y0169772D01*
X0244066Y0169772D01*
X0244066Y0170928D01*
X0244471Y0170928D01*
X0244471Y0175394D01*
X0248264Y0175394D01*
X0246608Y0172980D01*
X0248116Y0172980D01*
X0249479Y0175051D01*
X0250834Y0172980D01*
X0252395Y0172980D01*
X0250749Y0175394D01*
X0254524Y0175394D01*
X0250749Y0175394D01*
X0250289Y0176067D01*
X0252305Y0179015D01*
X0250798Y0179015D01*
X0249520Y0177058D01*
X0248251Y0179015D01*
X0246698Y0179015D01*
X0248714Y0176049D01*
X0248264Y0175394D01*
X0244471Y0175394D01*
X0244471Y0181072D01*
X0210680Y0181072D01*
X0210680Y0170928D01*
X0244066Y0170928D01*
X0244066Y0169772D01*
X0209524Y0169772D01*
X0209524Y0182228D01*
X0209524Y0182203D02*
X0254524Y0182203D01*
X0254524Y0182165D02*
X0209524Y0182165D01*
X0209524Y0182127D02*
X0254524Y0182127D01*
X0254524Y0182089D02*
X0209524Y0182089D01*
X0209524Y0182051D02*
X0254524Y0182051D01*
X0254524Y0182013D02*
X0209524Y0182013D01*
X0209524Y0181975D02*
X0254524Y0181975D01*
X0254524Y0181937D02*
X0209524Y0181937D01*
X0209524Y0181900D02*
X0254524Y0181900D01*
X0254524Y0181862D02*
X0209524Y0181862D01*
X0209524Y0181824D02*
X0254524Y0181824D01*
X0254524Y0181786D02*
X0209524Y0181786D01*
X0209524Y0181748D02*
X0254524Y0181748D01*
X0254524Y0181710D02*
X0209524Y0181710D01*
X0209524Y0181672D02*
X0254524Y0181672D01*
X0254524Y0181634D02*
X0209524Y0181634D01*
X0209524Y0181597D02*
X0254524Y0181597D01*
X0254524Y0181559D02*
X0209524Y0181559D01*
X0209524Y0181521D02*
X0254524Y0181521D01*
X0254524Y0181483D02*
X0209524Y0181483D01*
X0209524Y0181445D02*
X0254524Y0181445D01*
X0254524Y0181407D02*
X0209524Y0181407D01*
X0209524Y0181369D02*
X0254524Y0181369D01*
X0254524Y0181331D02*
X0209524Y0181331D01*
X0209524Y0181293D02*
X0254524Y0181293D01*
X0254524Y0181256D02*
X0209524Y0181256D01*
X0209524Y0181218D02*
X0254524Y0181218D01*
X0254524Y0181180D02*
X0209524Y0181180D01*
X0209524Y0181142D02*
X0254524Y0181142D01*
X0254524Y0181104D02*
X0209524Y0181104D01*
X0209524Y0181066D02*
X0210680Y0181066D01*
X0210680Y0181028D02*
X0209524Y0181028D01*
X0209524Y0180990D02*
X0210680Y0180990D01*
X0210680Y0180953D02*
X0209524Y0180953D01*
X0209524Y0180915D02*
X0210680Y0180915D01*
X0210680Y0180877D02*
X0209524Y0180877D01*
X0209524Y0180839D02*
X0210680Y0180839D01*
X0210680Y0180801D02*
X0209524Y0180801D01*
X0209524Y0180763D02*
X0210680Y0180763D01*
X0210680Y0180725D02*
X0209524Y0180725D01*
X0209524Y0180687D02*
X0210680Y0180687D01*
X0210680Y0180649D02*
X0209524Y0180649D01*
X0209524Y0180612D02*
X0210680Y0180612D01*
X0210680Y0180574D02*
X0209524Y0180574D01*
X0209524Y0180536D02*
X0210680Y0180536D01*
X0210680Y0180498D02*
X0209524Y0180498D01*
X0209524Y0180460D02*
X0210680Y0180460D01*
X0210680Y0180422D02*
X0209524Y0180422D01*
X0209524Y0180384D02*
X0210680Y0180384D01*
X0210680Y0180346D02*
X0209524Y0180346D01*
X0209524Y0180309D02*
X0210680Y0180309D01*
X0210680Y0180271D02*
X0209524Y0180271D01*
X0209524Y0180233D02*
X0210680Y0180233D01*
X0210680Y0180195D02*
X0209524Y0180195D01*
X0209524Y0180157D02*
X0210680Y0180157D01*
X0210680Y0180119D02*
X0209524Y0180119D01*
X0209524Y0180081D02*
X0210680Y0180081D01*
X0210680Y0180043D02*
X0209524Y0180043D01*
X0209524Y0180006D02*
X0210680Y0180006D01*
X0210680Y0179968D02*
X0209524Y0179968D01*
X0209524Y0179930D02*
X0210680Y0179930D01*
X0210680Y0179892D02*
X0209524Y0179892D01*
X0209524Y0179854D02*
X0210680Y0179854D01*
X0210680Y0179816D02*
X0209524Y0179816D01*
X0209524Y0179778D02*
X0210680Y0179778D01*
X0210680Y0179740D02*
X0209524Y0179740D01*
X0209524Y0179702D02*
X0210680Y0179702D01*
X0210680Y0179665D02*
X0209524Y0179665D01*
X0209524Y0179627D02*
X0210680Y0179627D01*
X0210680Y0179589D02*
X0209524Y0179589D01*
X0209524Y0179551D02*
X0210680Y0179551D01*
X0210680Y0179513D02*
X0209524Y0179513D01*
X0209524Y0179475D02*
X0210680Y0179475D01*
X0210680Y0179437D02*
X0209524Y0179437D01*
X0209524Y0179399D02*
X0210680Y0179399D01*
X0210680Y0179362D02*
X0209524Y0179362D01*
X0209524Y0179324D02*
X0210680Y0179324D01*
X0210680Y0179286D02*
X0209524Y0179286D01*
X0209524Y0179248D02*
X0210680Y0179248D01*
X0210680Y0179210D02*
X0209524Y0179210D01*
X0209524Y0179172D02*
X0210680Y0179172D01*
X0210680Y0179134D02*
X0209524Y0179134D01*
X0209524Y0179096D02*
X0210680Y0179096D01*
X0210680Y0179058D02*
X0209524Y0179058D01*
X0209524Y0179021D02*
X0210680Y0179021D01*
X0210680Y0178983D02*
X0209524Y0178983D01*
X0209524Y0178945D02*
X0210680Y0178945D01*
X0210680Y0178907D02*
X0209524Y0178907D01*
X0209524Y0178869D02*
X0210680Y0178869D01*
X0210680Y0178831D02*
X0209524Y0178831D01*
X0209524Y0178793D02*
X0210680Y0178793D01*
X0210680Y0178755D02*
X0209524Y0178755D01*
X0209524Y0178718D02*
X0210680Y0178718D01*
X0210680Y0178680D02*
X0209524Y0178680D01*
X0209524Y0178642D02*
X0210680Y0178642D01*
X0210680Y0178604D02*
X0209524Y0178604D01*
X0209524Y0178566D02*
X0210680Y0178566D01*
X0210680Y0178528D02*
X0209524Y0178528D01*
X0209524Y0178490D02*
X0210680Y0178490D01*
X0210680Y0178452D02*
X0209524Y0178452D01*
X0209524Y0178414D02*
X0210680Y0178414D01*
X0210680Y0178377D02*
X0209524Y0178377D01*
X0209524Y0178339D02*
X0210680Y0178339D01*
X0210680Y0178301D02*
X0209524Y0178301D01*
X0209524Y0178263D02*
X0210680Y0178263D01*
X0210680Y0178225D02*
X0209524Y0178225D01*
X0209524Y0178187D02*
X0210680Y0178187D01*
X0210680Y0178149D02*
X0209524Y0178149D01*
X0209524Y0178111D02*
X0210680Y0178111D01*
X0210680Y0178074D02*
X0209524Y0178074D01*
X0209524Y0178036D02*
X0210680Y0178036D01*
X0210680Y0177998D02*
X0209524Y0177998D01*
X0209524Y0177960D02*
X0210680Y0177960D01*
X0210680Y0177922D02*
X0209524Y0177922D01*
X0209524Y0177884D02*
X0210680Y0177884D01*
X0210680Y0177846D02*
X0209524Y0177846D01*
X0209524Y0177808D02*
X0210680Y0177808D01*
X0210680Y0177771D02*
X0209524Y0177771D01*
X0209524Y0177733D02*
X0210680Y0177733D01*
X0210680Y0177695D02*
X0209524Y0177695D01*
X0209524Y0177657D02*
X0210680Y0177657D01*
X0210680Y0177619D02*
X0209524Y0177619D01*
X0209524Y0177581D02*
X0210680Y0177581D01*
X0210680Y0177543D02*
X0209524Y0177543D01*
X0209524Y0177505D02*
X0210680Y0177505D01*
X0210680Y0177467D02*
X0209524Y0177467D01*
X0209524Y0177430D02*
X0210680Y0177430D01*
X0210680Y0177392D02*
X0209524Y0177392D01*
X0209524Y0177354D02*
X0210680Y0177354D01*
X0210680Y0177316D02*
X0209524Y0177316D01*
X0209524Y0177278D02*
X0210680Y0177278D01*
X0210680Y0177240D02*
X0209524Y0177240D01*
X0209524Y0177202D02*
X0210680Y0177202D01*
X0210680Y0177164D02*
X0209524Y0177164D01*
X0209524Y0177127D02*
X0210680Y0177127D01*
X0210680Y0177089D02*
X0209524Y0177089D01*
X0209524Y0177051D02*
X0210680Y0177051D01*
X0210680Y0177013D02*
X0209524Y0177013D01*
X0209524Y0176975D02*
X0210680Y0176975D01*
X0210680Y0176937D02*
X0209524Y0176937D01*
X0209524Y0176899D02*
X0210680Y0176899D01*
X0210680Y0176861D02*
X0209524Y0176861D01*
X0209524Y0176823D02*
X0210680Y0176823D01*
X0210680Y0176786D02*
X0209524Y0176786D01*
X0209524Y0176748D02*
X0210680Y0176748D01*
X0210680Y0176710D02*
X0209524Y0176710D01*
X0209524Y0176672D02*
X0210680Y0176672D01*
X0210680Y0176634D02*
X0209524Y0176634D01*
X0209524Y0176596D02*
X0210680Y0176596D01*
X0210680Y0176558D02*
X0209524Y0176558D01*
X0209524Y0176520D02*
X0210680Y0176520D01*
X0210680Y0176483D02*
X0209524Y0176483D01*
X0209524Y0176445D02*
X0210680Y0176445D01*
X0210680Y0176407D02*
X0209524Y0176407D01*
X0209524Y0176369D02*
X0210680Y0176369D01*
X0210680Y0176331D02*
X0209524Y0176331D01*
X0209524Y0176293D02*
X0210680Y0176293D01*
X0210680Y0176255D02*
X0209524Y0176255D01*
X0209524Y0176217D02*
X0210680Y0176217D01*
X0210680Y0176179D02*
X0209524Y0176179D01*
X0209524Y0176142D02*
X0210680Y0176142D01*
X0210680Y0176104D02*
X0209524Y0176104D01*
X0209524Y0176066D02*
X0210680Y0176066D01*
X0210680Y0176028D02*
X0209524Y0176028D01*
X0209524Y0175990D02*
X0210680Y0175990D01*
X0210680Y0175952D02*
X0209524Y0175952D01*
X0209524Y0175914D02*
X0210680Y0175914D01*
X0210680Y0175876D02*
X0209524Y0175876D01*
X0209524Y0175839D02*
X0210680Y0175839D01*
X0210680Y0175801D02*
X0209524Y0175801D01*
X0209524Y0175763D02*
X0210680Y0175763D01*
X0210680Y0175725D02*
X0209524Y0175725D01*
X0209524Y0175687D02*
X0210680Y0175687D01*
X0210680Y0175649D02*
X0209524Y0175649D01*
X0209524Y0175611D02*
X0210680Y0175611D01*
X0210680Y0175573D02*
X0209524Y0175573D01*
X0209524Y0175536D02*
X0210680Y0175536D01*
X0210680Y0175498D02*
X0209524Y0175498D01*
X0209524Y0175460D02*
X0210680Y0175460D01*
X0210680Y0175422D02*
X0209524Y0175422D01*
X0209524Y0175384D02*
X0210680Y0175384D01*
X0210680Y0175346D02*
X0209524Y0175346D01*
X0209524Y0175308D02*
X0210680Y0175308D01*
X0210680Y0175270D02*
X0209524Y0175270D01*
X0209524Y0175232D02*
X0210680Y0175232D01*
X0210680Y0175195D02*
X0209524Y0175195D01*
X0209524Y0175157D02*
X0210680Y0175157D01*
X0210680Y0175119D02*
X0209524Y0175119D01*
X0209524Y0175081D02*
X0210680Y0175081D01*
X0210680Y0175043D02*
X0209524Y0175043D01*
X0209524Y0175005D02*
X0210680Y0175005D01*
X0210680Y0174967D02*
X0209524Y0174967D01*
X0209524Y0174929D02*
X0210680Y0174929D01*
X0210680Y0174892D02*
X0209524Y0174892D01*
X0209524Y0174854D02*
X0210680Y0174854D01*
X0210680Y0174816D02*
X0209524Y0174816D01*
X0209524Y0174778D02*
X0210680Y0174778D01*
X0210680Y0174740D02*
X0209524Y0174740D01*
X0209524Y0174702D02*
X0210680Y0174702D01*
X0210680Y0174664D02*
X0209524Y0174664D01*
X0209524Y0174626D02*
X0210680Y0174626D01*
X0210680Y0174588D02*
X0209524Y0174588D01*
X0209524Y0174551D02*
X0210680Y0174551D01*
X0210680Y0174513D02*
X0209524Y0174513D01*
X0209524Y0174475D02*
X0210680Y0174475D01*
X0210680Y0174437D02*
X0209524Y0174437D01*
X0209524Y0174399D02*
X0210680Y0174399D01*
X0210680Y0174361D02*
X0209524Y0174361D01*
X0209524Y0174323D02*
X0210680Y0174323D01*
X0210680Y0174285D02*
X0209524Y0174285D01*
X0209524Y0174248D02*
X0210680Y0174248D01*
X0210680Y0174210D02*
X0209524Y0174210D01*
X0209524Y0174172D02*
X0210680Y0174172D01*
X0210680Y0174134D02*
X0209524Y0174134D01*
X0209524Y0174096D02*
X0210680Y0174096D01*
X0210680Y0174058D02*
X0209524Y0174058D01*
X0209524Y0174020D02*
X0210680Y0174020D01*
X0210680Y0173982D02*
X0209524Y0173982D01*
X0209524Y0173944D02*
X0210680Y0173944D01*
X0210680Y0173907D02*
X0209524Y0173907D01*
X0209524Y0173869D02*
X0210680Y0173869D01*
X0210680Y0173831D02*
X0209524Y0173831D01*
X0209524Y0173793D02*
X0210680Y0173793D01*
X0210680Y0173755D02*
X0209524Y0173755D01*
X0209524Y0173717D02*
X0210680Y0173717D01*
X0210680Y0173679D02*
X0209524Y0173679D01*
X0209524Y0173641D02*
X0210680Y0173641D01*
X0210680Y0173604D02*
X0209524Y0173604D01*
X0209524Y0173566D02*
X0210680Y0173566D01*
X0210680Y0173528D02*
X0209524Y0173528D01*
X0209524Y0173490D02*
X0210680Y0173490D01*
X0210680Y0173452D02*
X0209524Y0173452D01*
X0209524Y0173414D02*
X0210680Y0173414D01*
X0210680Y0173376D02*
X0209524Y0173376D01*
X0209524Y0173338D02*
X0210680Y0173338D01*
X0210680Y0173301D02*
X0209524Y0173301D01*
X0209524Y0173263D02*
X0210680Y0173263D01*
X0210680Y0173225D02*
X0209524Y0173225D01*
X0209524Y0173187D02*
X0210680Y0173187D01*
X0210680Y0173149D02*
X0209524Y0173149D01*
X0209524Y0173111D02*
X0210680Y0173111D01*
X0210680Y0173073D02*
X0209524Y0173073D01*
X0209524Y0173035D02*
X0210680Y0173035D01*
X0210680Y0172997D02*
X0209524Y0172997D01*
X0209524Y0172960D02*
X0210680Y0172960D01*
X0210680Y0172922D02*
X0209524Y0172922D01*
X0209524Y0172884D02*
X0210680Y0172884D01*
X0210680Y0172846D02*
X0209524Y0172846D01*
X0209524Y0172808D02*
X0210680Y0172808D01*
X0210680Y0172770D02*
X0209524Y0172770D01*
X0209524Y0172732D02*
X0210680Y0172732D01*
X0210680Y0172694D02*
X0209524Y0172694D01*
X0209524Y0172657D02*
X0210680Y0172657D01*
X0210680Y0172619D02*
X0209524Y0172619D01*
X0209524Y0172581D02*
X0210680Y0172581D01*
X0210680Y0172543D02*
X0209524Y0172543D01*
X0209524Y0172505D02*
X0210680Y0172505D01*
X0210680Y0172467D02*
X0209524Y0172467D01*
X0209524Y0172429D02*
X0210680Y0172429D01*
X0210680Y0172391D02*
X0209524Y0172391D01*
X0209524Y0172353D02*
X0210680Y0172353D01*
X0210680Y0172316D02*
X0209524Y0172316D01*
X0209524Y0172278D02*
X0210680Y0172278D01*
X0210680Y0172240D02*
X0209524Y0172240D01*
X0209524Y0172202D02*
X0210680Y0172202D01*
X0210680Y0172164D02*
X0209524Y0172164D01*
X0209524Y0172126D02*
X0210680Y0172126D01*
X0210680Y0172088D02*
X0209524Y0172088D01*
X0209524Y0172050D02*
X0210680Y0172050D01*
X0210680Y0172013D02*
X0209524Y0172013D01*
X0209524Y0171975D02*
X0210680Y0171975D01*
X0210680Y0171937D02*
X0209524Y0171937D01*
X0209524Y0171899D02*
X0210680Y0171899D01*
X0210680Y0171861D02*
X0209524Y0171861D01*
X0209524Y0171823D02*
X0210680Y0171823D01*
X0210680Y0171785D02*
X0209524Y0171785D01*
X0209524Y0171747D02*
X0210680Y0171747D01*
X0210680Y0171709D02*
X0209524Y0171709D01*
X0209524Y0171672D02*
X0210680Y0171672D01*
X0210680Y0171634D02*
X0209524Y0171634D01*
X0209524Y0171596D02*
X0210680Y0171596D01*
X0210680Y0171558D02*
X0209524Y0171558D01*
X0209524Y0171520D02*
X0210680Y0171520D01*
X0210680Y0171482D02*
X0209524Y0171482D01*
X0209524Y0171444D02*
X0210680Y0171444D01*
X0210680Y0171406D02*
X0209524Y0171406D01*
X0209524Y0171369D02*
X0210680Y0171369D01*
X0210680Y0171331D02*
X0209524Y0171331D01*
X0209524Y0171293D02*
X0210680Y0171293D01*
X0210680Y0171255D02*
X0209524Y0171255D01*
X0209524Y0171217D02*
X0210680Y0171217D01*
X0210680Y0171179D02*
X0209524Y0171179D01*
X0209524Y0171141D02*
X0210680Y0171141D01*
X0210680Y0171103D02*
X0209524Y0171103D01*
X0209524Y0171066D02*
X0210680Y0171066D01*
X0210680Y0171028D02*
X0209524Y0171028D01*
X0209524Y0170990D02*
X0210680Y0170990D01*
X0210680Y0170952D02*
X0209524Y0170952D01*
X0209524Y0170914D02*
X0244066Y0170914D01*
X0254524Y0170914D01*
X0254524Y0170952D02*
X0244471Y0170952D01*
X0244471Y0170990D02*
X0254524Y0170990D01*
X0254524Y0171028D02*
X0244471Y0171028D01*
X0244471Y0171066D02*
X0254524Y0171066D01*
X0254524Y0171103D02*
X0244471Y0171103D01*
X0244471Y0171141D02*
X0254524Y0171141D01*
X0254524Y0171179D02*
X0244471Y0171179D01*
X0244471Y0171217D02*
X0254524Y0171217D01*
X0254524Y0171255D02*
X0244471Y0171255D01*
X0244471Y0171293D02*
X0254524Y0171293D01*
X0254524Y0171331D02*
X0244471Y0171331D01*
X0244471Y0171369D02*
X0254524Y0171369D01*
X0254524Y0171406D02*
X0244471Y0171406D01*
X0244471Y0171444D02*
X0254524Y0171444D01*
X0254524Y0171482D02*
X0244471Y0171482D01*
X0244471Y0171520D02*
X0254524Y0171520D01*
X0254524Y0171558D02*
X0244471Y0171558D01*
X0244471Y0171596D02*
X0254524Y0171596D01*
X0254524Y0171634D02*
X0244471Y0171634D01*
X0244471Y0171672D02*
X0254524Y0171672D01*
X0254524Y0171709D02*
X0244471Y0171709D01*
X0244471Y0171747D02*
X0254524Y0171747D01*
X0254524Y0171785D02*
X0244471Y0171785D01*
X0244471Y0171823D02*
X0254524Y0171823D01*
X0254524Y0171861D02*
X0244471Y0171861D01*
X0244471Y0171899D02*
X0254524Y0171899D01*
X0254524Y0171937D02*
X0244471Y0171937D01*
X0244471Y0171975D02*
X0254524Y0171975D01*
X0254524Y0172013D02*
X0244471Y0172013D01*
X0244471Y0172050D02*
X0254524Y0172050D01*
X0254524Y0172088D02*
X0244471Y0172088D01*
X0244471Y0172126D02*
X0254524Y0172126D01*
X0254524Y0172164D02*
X0244471Y0172164D01*
X0244471Y0172202D02*
X0254524Y0172202D01*
X0254524Y0172240D02*
X0244471Y0172240D01*
X0244471Y0172278D02*
X0254524Y0172278D01*
X0254524Y0172316D02*
X0244471Y0172316D01*
X0244471Y0172353D02*
X0254524Y0172353D01*
X0254524Y0172391D02*
X0244471Y0172391D01*
X0244471Y0172429D02*
X0254524Y0172429D01*
X0254524Y0172467D02*
X0244471Y0172467D01*
X0244471Y0172505D02*
X0254524Y0172505D01*
X0254524Y0172543D02*
X0244471Y0172543D01*
X0244471Y0172581D02*
X0254524Y0172581D01*
X0254524Y0172619D02*
X0244471Y0172619D01*
X0244471Y0172657D02*
X0254524Y0172657D01*
X0254524Y0172694D02*
X0244471Y0172694D01*
X0244471Y0172732D02*
X0254524Y0172732D01*
X0254524Y0172770D02*
X0244471Y0172770D01*
X0244471Y0172808D02*
X0254524Y0172808D01*
X0254524Y0172846D02*
X0244471Y0172846D01*
X0244471Y0172884D02*
X0254524Y0172884D01*
X0254524Y0172922D02*
X0244471Y0172922D01*
X0244471Y0172960D02*
X0254524Y0172960D01*
X0254524Y0172997D02*
X0252384Y0172997D01*
X0252358Y0173035D02*
X0254524Y0173035D01*
X0254524Y0173073D02*
X0252332Y0173073D01*
X0252306Y0173111D02*
X0254524Y0173111D01*
X0254524Y0173149D02*
X0252280Y0173149D01*
X0252254Y0173187D02*
X0254524Y0173187D01*
X0254524Y0173225D02*
X0252229Y0173225D01*
X0252203Y0173263D02*
X0254524Y0173263D01*
X0254524Y0173301D02*
X0252177Y0173301D01*
X0252151Y0173338D02*
X0254524Y0173338D01*
X0254524Y0173376D02*
X0252125Y0173376D01*
X0252099Y0173414D02*
X0254524Y0173414D01*
X0254524Y0173452D02*
X0252073Y0173452D01*
X0252048Y0173490D02*
X0254524Y0173490D01*
X0254524Y0173528D02*
X0252022Y0173528D01*
X0251996Y0173566D02*
X0254524Y0173566D01*
X0254524Y0173604D02*
X0251970Y0173604D01*
X0251944Y0173641D02*
X0254524Y0173641D01*
X0254524Y0173679D02*
X0251918Y0173679D01*
X0251893Y0173717D02*
X0254524Y0173717D01*
X0254524Y0173755D02*
X0251867Y0173755D01*
X0251841Y0173793D02*
X0254524Y0173793D01*
X0254524Y0173831D02*
X0251815Y0173831D01*
X0251789Y0173869D02*
X0254524Y0173869D01*
X0254524Y0173907D02*
X0251763Y0173907D01*
X0251738Y0173944D02*
X0254524Y0173944D01*
X0254524Y0173982D02*
X0251712Y0173982D01*
X0251686Y0174020D02*
X0254524Y0174020D01*
X0254524Y0174058D02*
X0251660Y0174058D01*
X0251634Y0174096D02*
X0254524Y0174096D01*
X0254524Y0174134D02*
X0251608Y0174134D01*
X0251583Y0174172D02*
X0254524Y0174172D01*
X0254524Y0174210D02*
X0251557Y0174210D01*
X0251531Y0174248D02*
X0254524Y0174248D01*
X0254524Y0174285D02*
X0251505Y0174285D01*
X0251479Y0174323D02*
X0254524Y0174323D01*
X0254524Y0174361D02*
X0251453Y0174361D01*
X0251427Y0174399D02*
X0254524Y0174399D01*
X0254524Y0174437D02*
X0251402Y0174437D01*
X0251376Y0174475D02*
X0254524Y0174475D01*
X0254524Y0174513D02*
X0251350Y0174513D01*
X0251324Y0174551D02*
X0254524Y0174551D01*
X0254524Y0174588D02*
X0251298Y0174588D01*
X0251272Y0174626D02*
X0254524Y0174626D01*
X0254524Y0174664D02*
X0251247Y0174664D01*
X0251221Y0174702D02*
X0254524Y0174702D01*
X0254524Y0174740D02*
X0251195Y0174740D01*
X0251169Y0174778D02*
X0254524Y0174778D01*
X0254524Y0174816D02*
X0251143Y0174816D01*
X0251117Y0174854D02*
X0254524Y0174854D01*
X0254524Y0174892D02*
X0251092Y0174892D01*
X0251066Y0174929D02*
X0254524Y0174929D01*
X0254524Y0174967D02*
X0251040Y0174967D01*
X0251014Y0175005D02*
X0254524Y0175005D01*
X0254524Y0175043D02*
X0250988Y0175043D01*
X0250962Y0175081D02*
X0254524Y0175081D01*
X0254524Y0175119D02*
X0250937Y0175119D01*
X0250911Y0175157D02*
X0254524Y0175157D01*
X0254524Y0175195D02*
X0250885Y0175195D01*
X0250859Y0175232D02*
X0254524Y0175232D01*
X0254524Y0175270D02*
X0250833Y0175270D01*
X0250807Y0175308D02*
X0254524Y0175308D01*
X0254524Y0175346D02*
X0250781Y0175346D01*
X0250756Y0175384D02*
X0254524Y0175384D01*
X0254524Y0175422D02*
X0250730Y0175422D01*
X0250704Y0175460D02*
X0254524Y0175460D01*
X0254524Y0175498D02*
X0250678Y0175498D01*
X0250652Y0175536D02*
X0254524Y0175536D01*
X0254524Y0175573D02*
X0250626Y0175573D01*
X0250600Y0175611D02*
X0254524Y0175611D01*
X0254524Y0175649D02*
X0250575Y0175649D01*
X0250549Y0175687D02*
X0254524Y0175687D01*
X0254524Y0175725D02*
X0250523Y0175725D01*
X0250497Y0175763D02*
X0254524Y0175763D01*
X0254524Y0175801D02*
X0250471Y0175801D01*
X0250445Y0175839D02*
X0254524Y0175839D01*
X0254524Y0175876D02*
X0250420Y0175876D01*
X0250394Y0175914D02*
X0254524Y0175914D01*
X0254524Y0175952D02*
X0250368Y0175952D01*
X0250342Y0175990D02*
X0254524Y0175990D01*
X0254524Y0176028D02*
X0250316Y0176028D01*
X0250290Y0176066D02*
X0254524Y0176066D01*
X0254524Y0176104D02*
X0250314Y0176104D01*
X0250340Y0176142D02*
X0254524Y0176142D01*
X0254524Y0176179D02*
X0250366Y0176179D01*
X0250392Y0176217D02*
X0254524Y0176217D01*
X0254524Y0176255D02*
X0250418Y0176255D01*
X0250443Y0176293D02*
X0254524Y0176293D01*
X0254524Y0176331D02*
X0250469Y0176331D01*
X0250495Y0176369D02*
X0254524Y0176369D01*
X0254524Y0176407D02*
X0250521Y0176407D01*
X0250547Y0176445D02*
X0254524Y0176445D01*
X0254524Y0176483D02*
X0250573Y0176483D01*
X0250599Y0176520D02*
X0254524Y0176520D01*
X0254524Y0176558D02*
X0250625Y0176558D01*
X0250651Y0176596D02*
X0254524Y0176596D01*
X0254524Y0176634D02*
X0250677Y0176634D01*
X0250703Y0176672D02*
X0254524Y0176672D01*
X0254524Y0176710D02*
X0250728Y0176710D01*
X0250754Y0176748D02*
X0254524Y0176748D01*
X0254524Y0176786D02*
X0250780Y0176786D01*
X0250806Y0176823D02*
X0254524Y0176823D01*
X0254524Y0176861D02*
X0250832Y0176861D01*
X0250858Y0176899D02*
X0254524Y0176899D01*
X0254524Y0176937D02*
X0250884Y0176937D01*
X0250910Y0176975D02*
X0254524Y0176975D01*
X0254524Y0177013D02*
X0250936Y0177013D01*
X0250962Y0177051D02*
X0254524Y0177051D01*
X0254524Y0177089D02*
X0250988Y0177089D01*
X0251013Y0177127D02*
X0254524Y0177127D01*
X0254524Y0177164D02*
X0251039Y0177164D01*
X0251065Y0177202D02*
X0254524Y0177202D01*
X0254524Y0177240D02*
X0251091Y0177240D01*
X0251117Y0177278D02*
X0254524Y0177278D01*
X0254524Y0177316D02*
X0251143Y0177316D01*
X0251169Y0177354D02*
X0254524Y0177354D01*
X0254524Y0177392D02*
X0251195Y0177392D01*
X0251221Y0177430D02*
X0254524Y0177430D01*
X0254524Y0177467D02*
X0251247Y0177467D01*
X0251273Y0177505D02*
X0254524Y0177505D01*
X0254524Y0177543D02*
X0251298Y0177543D01*
X0251324Y0177581D02*
X0254524Y0177581D01*
X0254524Y0177619D02*
X0251350Y0177619D01*
X0251376Y0177657D02*
X0254524Y0177657D01*
X0254524Y0177695D02*
X0251402Y0177695D01*
X0251428Y0177733D02*
X0254524Y0177733D01*
X0254524Y0177771D02*
X0251454Y0177771D01*
X0251480Y0177808D02*
X0254524Y0177808D01*
X0254524Y0177846D02*
X0251506Y0177846D01*
X0251532Y0177884D02*
X0254524Y0177884D01*
X0254524Y0177922D02*
X0251558Y0177922D01*
X0251583Y0177960D02*
X0254524Y0177960D01*
X0254524Y0177998D02*
X0251609Y0177998D01*
X0251635Y0178036D02*
X0254524Y0178036D01*
X0254524Y0178074D02*
X0251661Y0178074D01*
X0251687Y0178111D02*
X0254524Y0178111D01*
X0254524Y0178149D02*
X0251713Y0178149D01*
X0251739Y0178187D02*
X0254524Y0178187D01*
X0254524Y0178225D02*
X0251765Y0178225D01*
X0251791Y0178263D02*
X0254524Y0178263D01*
X0254524Y0178301D02*
X0251817Y0178301D01*
X0251843Y0178339D02*
X0254524Y0178339D01*
X0254524Y0178377D02*
X0251868Y0178377D01*
X0251894Y0178414D02*
X0254524Y0178414D01*
X0254524Y0178452D02*
X0251920Y0178452D01*
X0251946Y0178490D02*
X0254524Y0178490D01*
X0254524Y0178528D02*
X0251972Y0178528D01*
X0251998Y0178566D02*
X0254524Y0178566D01*
X0254524Y0178604D02*
X0252024Y0178604D01*
X0252050Y0178642D02*
X0254524Y0178642D01*
X0254524Y0178680D02*
X0252076Y0178680D01*
X0252102Y0178718D02*
X0254524Y0178718D01*
X0254524Y0178755D02*
X0252128Y0178755D01*
X0252153Y0178793D02*
X0254524Y0178793D01*
X0254524Y0178831D02*
X0252179Y0178831D01*
X0252205Y0178869D02*
X0254524Y0178869D01*
X0254524Y0178907D02*
X0252231Y0178907D01*
X0252257Y0178945D02*
X0254524Y0178945D01*
X0254524Y0178983D02*
X0252283Y0178983D01*
X0250777Y0178983D02*
X0248272Y0178983D01*
X0248296Y0178945D02*
X0250752Y0178945D01*
X0250727Y0178907D02*
X0248321Y0178907D01*
X0248345Y0178869D02*
X0250702Y0178869D01*
X0250678Y0178831D02*
X0248370Y0178831D01*
X0248394Y0178793D02*
X0250653Y0178793D01*
X0250628Y0178755D02*
X0248419Y0178755D01*
X0248443Y0178718D02*
X0250603Y0178718D01*
X0250579Y0178680D02*
X0248468Y0178680D01*
X0248493Y0178642D02*
X0250554Y0178642D01*
X0250529Y0178604D02*
X0248517Y0178604D01*
X0248542Y0178566D02*
X0250504Y0178566D01*
X0250480Y0178528D02*
X0248566Y0178528D01*
X0248591Y0178490D02*
X0250455Y0178490D01*
X0250430Y0178452D02*
X0248615Y0178452D01*
X0248640Y0178414D02*
X0250406Y0178414D01*
X0250381Y0178377D02*
X0248664Y0178377D01*
X0248689Y0178339D02*
X0250356Y0178339D01*
X0250331Y0178301D02*
X0248714Y0178301D01*
X0248738Y0178263D02*
X0250307Y0178263D01*
X0250282Y0178225D02*
X0248763Y0178225D01*
X0248787Y0178187D02*
X0250257Y0178187D01*
X0250232Y0178149D02*
X0248812Y0178149D01*
X0248836Y0178111D02*
X0250208Y0178111D01*
X0250183Y0178074D02*
X0248861Y0178074D01*
X0248885Y0178036D02*
X0250158Y0178036D01*
X0250134Y0177998D02*
X0248910Y0177998D01*
X0248935Y0177960D02*
X0250109Y0177960D01*
X0250084Y0177922D02*
X0248959Y0177922D01*
X0248984Y0177884D02*
X0250059Y0177884D01*
X0250035Y0177846D02*
X0249008Y0177846D01*
X0249033Y0177808D02*
X0250010Y0177808D01*
X0249985Y0177771D02*
X0249057Y0177771D01*
X0249082Y0177733D02*
X0249960Y0177733D01*
X0249936Y0177695D02*
X0249107Y0177695D01*
X0249131Y0177657D02*
X0249911Y0177657D01*
X0249886Y0177619D02*
X0249156Y0177619D01*
X0249180Y0177581D02*
X0249861Y0177581D01*
X0249837Y0177543D02*
X0249205Y0177543D01*
X0249229Y0177505D02*
X0249812Y0177505D01*
X0249787Y0177467D02*
X0249254Y0177467D01*
X0249278Y0177430D02*
X0249763Y0177430D01*
X0249738Y0177392D02*
X0249303Y0177392D01*
X0249328Y0177354D02*
X0249713Y0177354D01*
X0249688Y0177316D02*
X0249352Y0177316D01*
X0249377Y0177278D02*
X0249664Y0177278D01*
X0249639Y0177240D02*
X0249401Y0177240D01*
X0249426Y0177202D02*
X0249614Y0177202D01*
X0249589Y0177164D02*
X0249450Y0177164D01*
X0249475Y0177127D02*
X0249565Y0177127D01*
X0249540Y0177089D02*
X0249499Y0177089D01*
X0248471Y0176407D02*
X0244471Y0176407D01*
X0244471Y0176445D02*
X0248445Y0176445D01*
X0248420Y0176483D02*
X0244471Y0176483D01*
X0244471Y0176520D02*
X0248394Y0176520D01*
X0248368Y0176558D02*
X0244471Y0176558D01*
X0244471Y0176596D02*
X0248342Y0176596D01*
X0248317Y0176634D02*
X0244471Y0176634D01*
X0244471Y0176672D02*
X0248291Y0176672D01*
X0248265Y0176710D02*
X0244471Y0176710D01*
X0244471Y0176748D02*
X0248239Y0176748D01*
X0248214Y0176786D02*
X0244471Y0176786D01*
X0244471Y0176823D02*
X0248188Y0176823D01*
X0248162Y0176861D02*
X0244471Y0176861D01*
X0244471Y0176899D02*
X0248136Y0176899D01*
X0248111Y0176937D02*
X0244471Y0176937D01*
X0244471Y0176975D02*
X0248085Y0176975D01*
X0248059Y0177013D02*
X0244471Y0177013D01*
X0244471Y0177051D02*
X0248033Y0177051D01*
X0248008Y0177089D02*
X0244471Y0177089D01*
X0244471Y0177127D02*
X0247982Y0177127D01*
X0247956Y0177164D02*
X0244471Y0177164D01*
X0244471Y0177202D02*
X0247930Y0177202D01*
X0247905Y0177240D02*
X0244471Y0177240D01*
X0244471Y0177278D02*
X0247879Y0177278D01*
X0247853Y0177316D02*
X0244471Y0177316D01*
X0244471Y0177354D02*
X0247827Y0177354D01*
X0247802Y0177392D02*
X0244471Y0177392D01*
X0244471Y0177430D02*
X0247776Y0177430D01*
X0247750Y0177467D02*
X0244471Y0177467D01*
X0244471Y0177505D02*
X0247724Y0177505D01*
X0247699Y0177543D02*
X0244471Y0177543D01*
X0244471Y0177581D02*
X0247673Y0177581D01*
X0247647Y0177619D02*
X0244471Y0177619D01*
X0244471Y0177657D02*
X0247621Y0177657D01*
X0247596Y0177695D02*
X0244471Y0177695D01*
X0244471Y0177733D02*
X0247570Y0177733D01*
X0247544Y0177771D02*
X0244471Y0177771D01*
X0244471Y0177808D02*
X0247518Y0177808D01*
X0247493Y0177846D02*
X0244471Y0177846D01*
X0244471Y0177884D02*
X0247467Y0177884D01*
X0247441Y0177922D02*
X0244471Y0177922D01*
X0244471Y0177960D02*
X0247415Y0177960D01*
X0247390Y0177998D02*
X0244471Y0177998D01*
X0244471Y0178036D02*
X0247364Y0178036D01*
X0247338Y0178074D02*
X0244471Y0178074D01*
X0244471Y0178111D02*
X0247312Y0178111D01*
X0247287Y0178149D02*
X0244471Y0178149D01*
X0244471Y0178187D02*
X0247261Y0178187D01*
X0247235Y0178225D02*
X0244471Y0178225D01*
X0244471Y0178263D02*
X0247209Y0178263D01*
X0247184Y0178301D02*
X0244471Y0178301D01*
X0244471Y0178339D02*
X0247158Y0178339D01*
X0247132Y0178377D02*
X0244471Y0178377D01*
X0244471Y0178414D02*
X0247106Y0178414D01*
X0247081Y0178452D02*
X0244471Y0178452D01*
X0244471Y0178490D02*
X0247055Y0178490D01*
X0247029Y0178528D02*
X0244471Y0178528D01*
X0244471Y0178566D02*
X0247003Y0178566D01*
X0246978Y0178604D02*
X0244471Y0178604D01*
X0244471Y0178642D02*
X0246952Y0178642D01*
X0246926Y0178680D02*
X0244471Y0178680D01*
X0244471Y0178718D02*
X0246900Y0178718D01*
X0246875Y0178755D02*
X0244471Y0178755D01*
X0244471Y0178793D02*
X0246849Y0178793D01*
X0246823Y0178831D02*
X0244471Y0178831D01*
X0244471Y0178869D02*
X0246797Y0178869D01*
X0246772Y0178907D02*
X0244471Y0178907D01*
X0244471Y0178945D02*
X0246746Y0178945D01*
X0246720Y0178983D02*
X0244471Y0178983D01*
X0244471Y0179021D02*
X0254524Y0179021D01*
X0254524Y0179058D02*
X0244471Y0179058D01*
X0244471Y0179096D02*
X0254524Y0179096D01*
X0254524Y0179134D02*
X0244471Y0179134D01*
X0244471Y0179172D02*
X0254524Y0179172D01*
X0254524Y0179210D02*
X0244471Y0179210D01*
X0244471Y0179248D02*
X0254524Y0179248D01*
X0254524Y0179286D02*
X0244471Y0179286D01*
X0244471Y0179324D02*
X0254524Y0179324D01*
X0254524Y0179362D02*
X0244471Y0179362D01*
X0244471Y0179399D02*
X0254524Y0179399D01*
X0254524Y0179437D02*
X0244471Y0179437D01*
X0244471Y0179475D02*
X0254524Y0179475D01*
X0254524Y0179513D02*
X0244471Y0179513D01*
X0244471Y0179551D02*
X0254524Y0179551D01*
X0254524Y0179589D02*
X0244471Y0179589D01*
X0244471Y0179627D02*
X0254524Y0179627D01*
X0254524Y0179665D02*
X0244471Y0179665D01*
X0244471Y0179702D02*
X0254524Y0179702D01*
X0254524Y0179740D02*
X0244471Y0179740D01*
X0244471Y0179778D02*
X0254524Y0179778D01*
X0254524Y0179816D02*
X0244471Y0179816D01*
X0244471Y0179854D02*
X0254524Y0179854D01*
X0254524Y0179892D02*
X0244471Y0179892D01*
X0244471Y0179930D02*
X0254524Y0179930D01*
X0254524Y0179968D02*
X0244471Y0179968D01*
X0244471Y0180006D02*
X0254524Y0180006D01*
X0254524Y0180043D02*
X0244471Y0180043D01*
X0244471Y0180081D02*
X0254524Y0180081D01*
X0254524Y0180119D02*
X0244471Y0180119D01*
X0244471Y0180157D02*
X0254524Y0180157D01*
X0254524Y0180195D02*
X0244471Y0180195D01*
X0244471Y0180233D02*
X0254524Y0180233D01*
X0254524Y0180271D02*
X0244471Y0180271D01*
X0244471Y0180309D02*
X0254524Y0180309D01*
X0254524Y0180346D02*
X0244471Y0180346D01*
X0244471Y0180384D02*
X0254524Y0180384D01*
X0254524Y0180422D02*
X0244471Y0180422D01*
X0244471Y0180460D02*
X0254524Y0180460D01*
X0254524Y0180498D02*
X0244471Y0180498D01*
X0244471Y0180536D02*
X0254524Y0180536D01*
X0254524Y0180574D02*
X0244471Y0180574D01*
X0244471Y0180612D02*
X0254524Y0180612D01*
X0254524Y0180649D02*
X0244471Y0180649D01*
X0244471Y0180687D02*
X0254524Y0180687D01*
X0254524Y0180725D02*
X0244471Y0180725D01*
X0244471Y0180763D02*
X0254524Y0180763D01*
X0254524Y0180801D02*
X0244471Y0180801D01*
X0244471Y0180839D02*
X0254524Y0180839D01*
X0254524Y0180877D02*
X0244471Y0180877D01*
X0244471Y0180915D02*
X0254524Y0180915D01*
X0254524Y0180953D02*
X0244471Y0180953D01*
X0244471Y0180990D02*
X0254524Y0180990D01*
X0254524Y0181028D02*
X0244471Y0181028D01*
X0244471Y0181066D02*
X0254524Y0181066D01*
X0248497Y0176369D02*
X0244471Y0176369D01*
X0244471Y0176331D02*
X0248523Y0176331D01*
X0248548Y0176293D02*
X0244471Y0176293D01*
X0244471Y0176255D02*
X0248574Y0176255D01*
X0248600Y0176217D02*
X0244471Y0176217D01*
X0244471Y0176179D02*
X0248626Y0176179D01*
X0248652Y0176142D02*
X0244471Y0176142D01*
X0244471Y0176104D02*
X0248677Y0176104D01*
X0248703Y0176066D02*
X0244471Y0176066D01*
X0244471Y0176028D02*
X0248699Y0176028D01*
X0248673Y0175990D02*
X0244471Y0175990D01*
X0244471Y0175952D02*
X0248647Y0175952D01*
X0248621Y0175914D02*
X0244471Y0175914D01*
X0244471Y0175876D02*
X0248595Y0175876D01*
X0248569Y0175839D02*
X0244471Y0175839D01*
X0244471Y0175801D02*
X0248543Y0175801D01*
X0248517Y0175763D02*
X0244471Y0175763D01*
X0244471Y0175725D02*
X0248491Y0175725D01*
X0248465Y0175687D02*
X0244471Y0175687D01*
X0244471Y0175649D02*
X0248439Y0175649D01*
X0248413Y0175611D02*
X0244471Y0175611D01*
X0244471Y0175573D02*
X0248388Y0175573D01*
X0248362Y0175536D02*
X0244471Y0175536D01*
X0244471Y0175498D02*
X0248336Y0175498D01*
X0248310Y0175460D02*
X0244471Y0175460D01*
X0244471Y0175422D02*
X0248284Y0175422D01*
X0248258Y0175384D02*
X0244471Y0175384D01*
X0244471Y0175346D02*
X0248232Y0175346D01*
X0248206Y0175308D02*
X0244471Y0175308D01*
X0244471Y0175270D02*
X0248180Y0175270D01*
X0248154Y0175232D02*
X0244471Y0175232D01*
X0244471Y0175195D02*
X0248128Y0175195D01*
X0248102Y0175157D02*
X0244471Y0175157D01*
X0244471Y0175119D02*
X0248076Y0175119D01*
X0248050Y0175081D02*
X0244471Y0175081D01*
X0244471Y0175043D02*
X0248024Y0175043D01*
X0247998Y0175005D02*
X0244471Y0175005D01*
X0244471Y0174967D02*
X0247972Y0174967D01*
X0247946Y0174929D02*
X0244471Y0174929D01*
X0244471Y0174892D02*
X0247920Y0174892D01*
X0247894Y0174854D02*
X0244471Y0174854D01*
X0244471Y0174816D02*
X0247868Y0174816D01*
X0247842Y0174778D02*
X0244471Y0174778D01*
X0244471Y0174740D02*
X0247816Y0174740D01*
X0247790Y0174702D02*
X0244471Y0174702D01*
X0244471Y0174664D02*
X0247764Y0174664D01*
X0247738Y0174626D02*
X0244471Y0174626D01*
X0244471Y0174588D02*
X0247712Y0174588D01*
X0247686Y0174551D02*
X0244471Y0174551D01*
X0244471Y0174513D02*
X0247660Y0174513D01*
X0247634Y0174475D02*
X0244471Y0174475D01*
X0244471Y0174437D02*
X0247608Y0174437D01*
X0247582Y0174399D02*
X0244471Y0174399D01*
X0244471Y0174361D02*
X0247556Y0174361D01*
X0247530Y0174323D02*
X0244471Y0174323D01*
X0244471Y0174285D02*
X0247504Y0174285D01*
X0247478Y0174248D02*
X0244471Y0174248D01*
X0244471Y0174210D02*
X0247452Y0174210D01*
X0247426Y0174172D02*
X0244471Y0174172D01*
X0244471Y0174134D02*
X0247400Y0174134D01*
X0247374Y0174096D02*
X0244471Y0174096D01*
X0244471Y0174058D02*
X0247348Y0174058D01*
X0247322Y0174020D02*
X0244471Y0174020D01*
X0244471Y0173982D02*
X0247296Y0173982D01*
X0247270Y0173944D02*
X0244471Y0173944D01*
X0244471Y0173907D02*
X0247244Y0173907D01*
X0247218Y0173869D02*
X0244471Y0173869D01*
X0244471Y0173831D02*
X0247192Y0173831D01*
X0247166Y0173793D02*
X0244471Y0173793D01*
X0244471Y0173755D02*
X0247140Y0173755D01*
X0247114Y0173717D02*
X0244471Y0173717D01*
X0244471Y0173679D02*
X0247088Y0173679D01*
X0247062Y0173641D02*
X0244471Y0173641D01*
X0244471Y0173604D02*
X0247036Y0173604D01*
X0247010Y0173566D02*
X0244471Y0173566D01*
X0244471Y0173528D02*
X0246984Y0173528D01*
X0246958Y0173490D02*
X0244471Y0173490D01*
X0244471Y0173452D02*
X0246932Y0173452D01*
X0246906Y0173414D02*
X0244471Y0173414D01*
X0244471Y0173376D02*
X0246880Y0173376D01*
X0246854Y0173338D02*
X0244471Y0173338D01*
X0244471Y0173301D02*
X0246828Y0173301D01*
X0246802Y0173263D02*
X0244471Y0173263D01*
X0244471Y0173225D02*
X0246776Y0173225D01*
X0246750Y0173187D02*
X0244471Y0173187D01*
X0244471Y0173149D02*
X0246724Y0173149D01*
X0246698Y0173111D02*
X0244471Y0173111D01*
X0244471Y0173073D02*
X0246672Y0173073D01*
X0246646Y0173035D02*
X0244471Y0173035D01*
X0244471Y0172997D02*
X0246620Y0172997D01*
X0248127Y0172997D02*
X0250823Y0172997D01*
X0250798Y0173035D02*
X0248152Y0173035D01*
X0248177Y0173073D02*
X0250773Y0173073D01*
X0250748Y0173111D02*
X0248202Y0173111D01*
X0248227Y0173149D02*
X0250723Y0173149D01*
X0250699Y0173187D02*
X0248252Y0173187D01*
X0248277Y0173225D02*
X0250674Y0173225D01*
X0250649Y0173263D02*
X0248301Y0173263D01*
X0248326Y0173301D02*
X0250624Y0173301D01*
X0250599Y0173338D02*
X0248351Y0173338D01*
X0248376Y0173376D02*
X0250575Y0173376D01*
X0250550Y0173414D02*
X0248401Y0173414D01*
X0248426Y0173452D02*
X0250525Y0173452D01*
X0250500Y0173490D02*
X0248451Y0173490D01*
X0248476Y0173528D02*
X0250476Y0173528D01*
X0250451Y0173566D02*
X0248501Y0173566D01*
X0248526Y0173604D02*
X0250426Y0173604D01*
X0250401Y0173641D02*
X0248551Y0173641D01*
X0248576Y0173679D02*
X0250376Y0173679D01*
X0250352Y0173717D02*
X0248601Y0173717D01*
X0248626Y0173755D02*
X0250327Y0173755D01*
X0250302Y0173793D02*
X0248651Y0173793D01*
X0248676Y0173831D02*
X0250277Y0173831D01*
X0250252Y0173869D02*
X0248701Y0173869D01*
X0248726Y0173907D02*
X0250228Y0173907D01*
X0250203Y0173944D02*
X0248751Y0173944D01*
X0248776Y0173982D02*
X0250178Y0173982D01*
X0250153Y0174020D02*
X0248801Y0174020D01*
X0248825Y0174058D02*
X0250128Y0174058D01*
X0250104Y0174096D02*
X0248850Y0174096D01*
X0248875Y0174134D02*
X0250079Y0174134D01*
X0250054Y0174172D02*
X0248900Y0174172D01*
X0248925Y0174210D02*
X0250029Y0174210D01*
X0250005Y0174248D02*
X0248950Y0174248D01*
X0248975Y0174285D02*
X0249980Y0174285D01*
X0249955Y0174323D02*
X0249000Y0174323D01*
X0249025Y0174361D02*
X0249930Y0174361D01*
X0249905Y0174399D02*
X0249050Y0174399D01*
X0249075Y0174437D02*
X0249881Y0174437D01*
X0249856Y0174475D02*
X0249100Y0174475D01*
X0249125Y0174513D02*
X0249831Y0174513D01*
X0249806Y0174551D02*
X0249150Y0174551D01*
X0249175Y0174588D02*
X0249781Y0174588D01*
X0249757Y0174626D02*
X0249200Y0174626D01*
X0249225Y0174664D02*
X0249732Y0174664D01*
X0249707Y0174702D02*
X0249250Y0174702D01*
X0249275Y0174740D02*
X0249682Y0174740D01*
X0249658Y0174778D02*
X0249300Y0174778D01*
X0249325Y0174816D02*
X0249633Y0174816D01*
X0249608Y0174854D02*
X0249349Y0174854D01*
X0249374Y0174892D02*
X0249583Y0174892D01*
X0249558Y0174929D02*
X0249399Y0174929D01*
X0249424Y0174967D02*
X0249534Y0174967D01*
X0249509Y0175005D02*
X0249449Y0175005D01*
X0249474Y0175043D02*
X0249484Y0175043D01*
X0254524Y0170876D02*
X0244066Y0170876D01*
X0209524Y0170876D01*
X0209524Y0170838D02*
X0244066Y0170838D01*
X0254524Y0170838D01*
X0254524Y0170800D02*
X0244066Y0170800D01*
X0209524Y0170800D01*
X0209524Y0170762D02*
X0244066Y0170762D01*
X0254524Y0170762D01*
X0254524Y0170725D02*
X0244066Y0170725D01*
X0209524Y0170725D01*
X0209524Y0170687D02*
X0244066Y0170687D01*
X0254524Y0170687D01*
X0254524Y0170649D02*
X0244066Y0170649D01*
X0209524Y0170649D01*
X0209524Y0170611D02*
X0244066Y0170611D01*
X0254524Y0170611D01*
X0254524Y0170573D02*
X0244066Y0170573D01*
X0209524Y0170573D01*
X0209524Y0170535D02*
X0244066Y0170535D01*
X0254524Y0170535D01*
X0254524Y0170497D02*
X0244066Y0170497D01*
X0209524Y0170497D01*
X0209524Y0170459D02*
X0244066Y0170459D01*
X0254524Y0170459D01*
X0254524Y0170422D02*
X0244066Y0170422D01*
X0209524Y0170422D01*
X0209524Y0170384D02*
X0244066Y0170384D01*
X0254524Y0170384D01*
X0254524Y0170346D02*
X0244066Y0170346D01*
X0209524Y0170346D01*
X0209524Y0170308D02*
X0244066Y0170308D01*
X0254524Y0170308D01*
X0254524Y0170270D02*
X0244066Y0170270D01*
X0209524Y0170270D01*
X0209524Y0170232D02*
X0244066Y0170232D01*
X0254524Y0170232D01*
X0254524Y0170194D02*
X0244066Y0170194D01*
X0209524Y0170194D01*
X0209524Y0170156D02*
X0244066Y0170156D01*
X0254524Y0170156D01*
X0254524Y0170118D02*
X0244066Y0170118D01*
X0209524Y0170118D01*
X0209524Y0170081D02*
X0244066Y0170081D01*
X0254524Y0170081D01*
X0254524Y0170043D02*
X0244066Y0170043D01*
X0209524Y0170043D01*
X0209524Y0170005D02*
X0244066Y0170005D01*
X0254524Y0170005D01*
X0254524Y0169967D02*
X0244066Y0169967D01*
X0209524Y0169967D01*
X0209524Y0169929D02*
X0244066Y0169929D01*
X0254524Y0169929D01*
X0254524Y0169891D02*
X0244066Y0169891D01*
X0209524Y0169891D01*
X0209524Y0169853D02*
X0244066Y0169853D01*
X0254524Y0169853D01*
X0254524Y0169815D02*
X0244066Y0169815D01*
X0209524Y0169815D01*
X0209524Y0169778D02*
X0244066Y0169778D01*
X0254524Y0169778D01*
X0242779Y0172980D02*
X0240209Y0176455D01*
X0241193Y0177480D01*
X0239639Y0177480D01*
X0241064Y0179015D01*
X0242666Y0179015D01*
X0241193Y0177480D01*
X0239639Y0177480D01*
X0238616Y0176378D01*
X0238616Y0177480D01*
X0237289Y0177480D01*
X0237289Y0179015D01*
X0238616Y0179015D01*
X0238616Y0177480D01*
X0237289Y0177480D01*
X0237289Y0172980D01*
X0238616Y0172980D01*
X0238616Y0174826D01*
X0239314Y0175550D01*
X0241186Y0172980D01*
X0242779Y0172980D01*
X0242766Y0172997D02*
X0241173Y0172997D01*
X0241146Y0173035D02*
X0242738Y0173035D01*
X0242710Y0173073D02*
X0241118Y0173073D01*
X0241090Y0173111D02*
X0242682Y0173111D01*
X0242654Y0173149D02*
X0241063Y0173149D01*
X0241035Y0173187D02*
X0242626Y0173187D01*
X0242598Y0173225D02*
X0241008Y0173225D01*
X0240980Y0173263D02*
X0242570Y0173263D01*
X0242542Y0173301D02*
X0240952Y0173301D01*
X0240925Y0173338D02*
X0242514Y0173338D01*
X0242486Y0173376D02*
X0240897Y0173376D01*
X0240870Y0173414D02*
X0242458Y0173414D01*
X0242430Y0173452D02*
X0240842Y0173452D01*
X0240814Y0173490D02*
X0242402Y0173490D01*
X0242374Y0173528D02*
X0240787Y0173528D01*
X0240759Y0173566D02*
X0242346Y0173566D01*
X0242318Y0173604D02*
X0240732Y0173604D01*
X0240704Y0173641D02*
X0242290Y0173641D01*
X0242262Y0173679D02*
X0240676Y0173679D01*
X0240649Y0173717D02*
X0242234Y0173717D01*
X0242206Y0173755D02*
X0240621Y0173755D01*
X0240594Y0173793D02*
X0242178Y0173793D01*
X0242150Y0173831D02*
X0240566Y0173831D01*
X0240538Y0173869D02*
X0242122Y0173869D01*
X0242094Y0173907D02*
X0240511Y0173907D01*
X0240483Y0173944D02*
X0242066Y0173944D01*
X0242038Y0173982D02*
X0240456Y0173982D01*
X0240428Y0174020D02*
X0242010Y0174020D01*
X0241982Y0174058D02*
X0240401Y0174058D01*
X0240373Y0174096D02*
X0241954Y0174096D01*
X0241926Y0174134D02*
X0240345Y0174134D01*
X0240318Y0174172D02*
X0241898Y0174172D01*
X0241869Y0174210D02*
X0240290Y0174210D01*
X0240263Y0174248D02*
X0241841Y0174248D01*
X0241813Y0174285D02*
X0240235Y0174285D01*
X0240207Y0174323D02*
X0241785Y0174323D01*
X0241757Y0174361D02*
X0240180Y0174361D01*
X0240152Y0174399D02*
X0241729Y0174399D01*
X0241701Y0174437D02*
X0240125Y0174437D01*
X0240097Y0174475D02*
X0241673Y0174475D01*
X0241645Y0174513D02*
X0240069Y0174513D01*
X0240042Y0174551D02*
X0241617Y0174551D01*
X0241589Y0174588D02*
X0240014Y0174588D01*
X0239987Y0174626D02*
X0241561Y0174626D01*
X0241533Y0174664D02*
X0239959Y0174664D01*
X0239931Y0174702D02*
X0241505Y0174702D01*
X0241477Y0174740D02*
X0239904Y0174740D01*
X0239876Y0174778D02*
X0241449Y0174778D01*
X0241421Y0174816D02*
X0239849Y0174816D01*
X0239821Y0174854D02*
X0241393Y0174854D01*
X0241365Y0174892D02*
X0239793Y0174892D01*
X0239766Y0174929D02*
X0241337Y0174929D01*
X0241309Y0174967D02*
X0239738Y0174967D01*
X0239711Y0175005D02*
X0241281Y0175005D01*
X0241253Y0175043D02*
X0239683Y0175043D01*
X0239655Y0175081D02*
X0241225Y0175081D01*
X0241197Y0175119D02*
X0239628Y0175119D01*
X0239600Y0175157D02*
X0241169Y0175157D01*
X0241141Y0175195D02*
X0239573Y0175195D01*
X0239545Y0175232D02*
X0241113Y0175232D01*
X0241085Y0175270D02*
X0239517Y0175270D01*
X0239490Y0175308D02*
X0241057Y0175308D01*
X0241029Y0175346D02*
X0239462Y0175346D01*
X0239435Y0175384D02*
X0241001Y0175384D01*
X0240973Y0175422D02*
X0239407Y0175422D01*
X0239379Y0175460D02*
X0240945Y0175460D01*
X0240917Y0175498D02*
X0239352Y0175498D01*
X0239324Y0175536D02*
X0240889Y0175536D01*
X0240861Y0175573D02*
X0237289Y0175573D01*
X0237289Y0175536D02*
X0239300Y0175536D01*
X0239263Y0175498D02*
X0237289Y0175498D01*
X0237289Y0175460D02*
X0239227Y0175460D01*
X0239190Y0175422D02*
X0237289Y0175422D01*
X0237289Y0175384D02*
X0239154Y0175384D01*
X0239117Y0175346D02*
X0237289Y0175346D01*
X0237289Y0175308D02*
X0239081Y0175308D01*
X0239044Y0175270D02*
X0237289Y0175270D01*
X0237289Y0175232D02*
X0239008Y0175232D01*
X0238971Y0175195D02*
X0237289Y0175195D01*
X0237289Y0175157D02*
X0238935Y0175157D01*
X0238898Y0175119D02*
X0237289Y0175119D01*
X0237289Y0175081D02*
X0238862Y0175081D01*
X0238826Y0175043D02*
X0237289Y0175043D01*
X0237289Y0175005D02*
X0238789Y0175005D01*
X0238753Y0174967D02*
X0237289Y0174967D01*
X0237289Y0174929D02*
X0238716Y0174929D01*
X0238680Y0174892D02*
X0237289Y0174892D01*
X0237289Y0174854D02*
X0238643Y0174854D01*
X0238616Y0174816D02*
X0237289Y0174816D01*
X0237289Y0174778D02*
X0238616Y0174778D01*
X0238616Y0174740D02*
X0237289Y0174740D01*
X0237289Y0174702D02*
X0238616Y0174702D01*
X0238616Y0174664D02*
X0237289Y0174664D01*
X0237289Y0174626D02*
X0238616Y0174626D01*
X0238616Y0174588D02*
X0237289Y0174588D01*
X0237289Y0174551D02*
X0238616Y0174551D01*
X0238616Y0174513D02*
X0237289Y0174513D01*
X0237289Y0174475D02*
X0238616Y0174475D01*
X0238616Y0174437D02*
X0237289Y0174437D01*
X0237289Y0174399D02*
X0238616Y0174399D01*
X0238616Y0174361D02*
X0237289Y0174361D01*
X0237289Y0174323D02*
X0238616Y0174323D01*
X0238616Y0174285D02*
X0237289Y0174285D01*
X0237289Y0174248D02*
X0238616Y0174248D01*
X0238616Y0174210D02*
X0237289Y0174210D01*
X0237289Y0174172D02*
X0238616Y0174172D01*
X0238616Y0174134D02*
X0237289Y0174134D01*
X0237289Y0174096D02*
X0238616Y0174096D01*
X0238616Y0174058D02*
X0237289Y0174058D01*
X0237289Y0174020D02*
X0238616Y0174020D01*
X0238616Y0173982D02*
X0237289Y0173982D01*
X0237289Y0173944D02*
X0238616Y0173944D01*
X0238616Y0173907D02*
X0237289Y0173907D01*
X0237289Y0173869D02*
X0238616Y0173869D01*
X0238616Y0173831D02*
X0237289Y0173831D01*
X0237289Y0173793D02*
X0238616Y0173793D01*
X0238616Y0173755D02*
X0237289Y0173755D01*
X0237289Y0173717D02*
X0238616Y0173717D01*
X0238616Y0173679D02*
X0237289Y0173679D01*
X0237289Y0173641D02*
X0238616Y0173641D01*
X0238616Y0173604D02*
X0237289Y0173604D01*
X0237289Y0173566D02*
X0238616Y0173566D01*
X0238616Y0173528D02*
X0237289Y0173528D01*
X0237289Y0173490D02*
X0238616Y0173490D01*
X0238616Y0173452D02*
X0237289Y0173452D01*
X0237289Y0173414D02*
X0238616Y0173414D01*
X0238616Y0173376D02*
X0237289Y0173376D01*
X0237289Y0173338D02*
X0238616Y0173338D01*
X0238616Y0173301D02*
X0237289Y0173301D01*
X0237289Y0173263D02*
X0238616Y0173263D01*
X0238616Y0173225D02*
X0237289Y0173225D01*
X0237289Y0173187D02*
X0238616Y0173187D01*
X0238616Y0173149D02*
X0237289Y0173149D01*
X0237289Y0173111D02*
X0238616Y0173111D01*
X0238616Y0173073D02*
X0237289Y0173073D01*
X0237289Y0173035D02*
X0238616Y0173035D01*
X0238616Y0172997D02*
X0237289Y0172997D01*
X0236267Y0172980D02*
X0234791Y0175136D01*
X0235315Y0175413D01*
X0235727Y0175811D01*
X0235997Y0176340D01*
X0236087Y0177003D01*
X0236087Y0177022D01*
X0236050Y0177465D01*
X0236046Y0177480D01*
X0234561Y0177480D01*
X0234467Y0177602D01*
X0234137Y0177764D01*
X0233698Y0177818D01*
X0232379Y0177818D01*
X0232379Y0177480D01*
X0231052Y0177480D01*
X0231052Y0179015D01*
X0233810Y0179015D01*
X0234320Y0178982D01*
X0234769Y0178884D01*
X0235159Y0178719D01*
X0235489Y0178488D01*
X0235751Y0178199D01*
X0235938Y0177858D01*
X0236046Y0177480D01*
X0234561Y0177480D01*
X0234674Y0177332D01*
X0234742Y0176954D01*
X0234742Y0176941D01*
X0234677Y0176593D01*
X0234481Y0176320D01*
X0234160Y0176145D01*
X0233725Y0176085D01*
X0232379Y0176085D01*
X0232379Y0177480D01*
X0231052Y0177480D01*
X0231052Y0172980D01*
X0232379Y0172980D01*
X0232379Y0174911D01*
X0233423Y0174911D01*
X0234715Y0172980D01*
X0236267Y0172980D01*
X0236256Y0172997D02*
X0234703Y0172997D01*
X0234678Y0173035D02*
X0236230Y0173035D01*
X0236204Y0173073D02*
X0234653Y0173073D01*
X0234627Y0173111D02*
X0236178Y0173111D01*
X0236152Y0173149D02*
X0234602Y0173149D01*
X0234577Y0173187D02*
X0236126Y0173187D01*
X0236100Y0173225D02*
X0234551Y0173225D01*
X0234526Y0173263D02*
X0236074Y0173263D01*
X0236048Y0173301D02*
X0234501Y0173301D01*
X0234475Y0173338D02*
X0236022Y0173338D01*
X0235996Y0173376D02*
X0234450Y0173376D01*
X0234424Y0173414D02*
X0235970Y0173414D01*
X0235944Y0173452D02*
X0234399Y0173452D01*
X0234374Y0173490D02*
X0235918Y0173490D01*
X0235892Y0173528D02*
X0234348Y0173528D01*
X0234323Y0173566D02*
X0235866Y0173566D01*
X0235840Y0173604D02*
X0234298Y0173604D01*
X0234272Y0173641D02*
X0235815Y0173641D01*
X0235789Y0173679D02*
X0234247Y0173679D01*
X0234222Y0173717D02*
X0235763Y0173717D01*
X0235737Y0173755D02*
X0234196Y0173755D01*
X0234171Y0173793D02*
X0235711Y0173793D01*
X0235685Y0173831D02*
X0234146Y0173831D01*
X0234120Y0173869D02*
X0235659Y0173869D01*
X0235633Y0173907D02*
X0234095Y0173907D01*
X0234070Y0173944D02*
X0235607Y0173944D01*
X0235581Y0173982D02*
X0234044Y0173982D01*
X0234019Y0174020D02*
X0235555Y0174020D01*
X0235529Y0174058D02*
X0233994Y0174058D01*
X0233968Y0174096D02*
X0235503Y0174096D01*
X0235477Y0174134D02*
X0233943Y0174134D01*
X0233918Y0174172D02*
X0235451Y0174172D01*
X0235425Y0174210D02*
X0233892Y0174210D01*
X0233867Y0174248D02*
X0235400Y0174248D01*
X0235374Y0174285D02*
X0233842Y0174285D01*
X0233816Y0174323D02*
X0235348Y0174323D01*
X0235322Y0174361D02*
X0233791Y0174361D01*
X0233766Y0174399D02*
X0235296Y0174399D01*
X0235270Y0174437D02*
X0233740Y0174437D01*
X0233715Y0174475D02*
X0235244Y0174475D01*
X0235218Y0174513D02*
X0233690Y0174513D01*
X0233664Y0174551D02*
X0235192Y0174551D01*
X0235166Y0174588D02*
X0233639Y0174588D01*
X0233614Y0174626D02*
X0235140Y0174626D01*
X0235114Y0174664D02*
X0233588Y0174664D01*
X0233563Y0174702D02*
X0235088Y0174702D01*
X0235062Y0174740D02*
X0233538Y0174740D01*
X0233512Y0174778D02*
X0235036Y0174778D01*
X0235010Y0174816D02*
X0233487Y0174816D01*
X0233461Y0174854D02*
X0234984Y0174854D01*
X0234959Y0174892D02*
X0233436Y0174892D01*
X0232379Y0174892D02*
X0231052Y0174892D01*
X0231052Y0174929D02*
X0234933Y0174929D01*
X0234907Y0174967D02*
X0231052Y0174967D01*
X0231052Y0175005D02*
X0234881Y0175005D01*
X0234855Y0175043D02*
X0231052Y0175043D01*
X0231052Y0175081D02*
X0234829Y0175081D01*
X0234803Y0175119D02*
X0231052Y0175119D01*
X0231052Y0175157D02*
X0234830Y0175157D01*
X0234902Y0175195D02*
X0231052Y0175195D01*
X0231052Y0175232D02*
X0234973Y0175232D01*
X0235045Y0175270D02*
X0231052Y0175270D01*
X0231052Y0175308D02*
X0235117Y0175308D01*
X0235188Y0175346D02*
X0231052Y0175346D01*
X0231052Y0175384D02*
X0235260Y0175384D01*
X0235324Y0175422D02*
X0231052Y0175422D01*
X0231052Y0175460D02*
X0235363Y0175460D01*
X0235402Y0175498D02*
X0231052Y0175498D01*
X0231052Y0175536D02*
X0235442Y0175536D01*
X0235481Y0175573D02*
X0231052Y0175573D01*
X0231052Y0175611D02*
X0235520Y0175611D01*
X0235559Y0175649D02*
X0231052Y0175649D01*
X0231052Y0175687D02*
X0235599Y0175687D01*
X0235638Y0175725D02*
X0231052Y0175725D01*
X0231052Y0175763D02*
X0235677Y0175763D01*
X0235716Y0175801D02*
X0231052Y0175801D01*
X0231052Y0175839D02*
X0235741Y0175839D01*
X0235760Y0175876D02*
X0231052Y0175876D01*
X0231052Y0175914D02*
X0235780Y0175914D01*
X0235799Y0175952D02*
X0231052Y0175952D01*
X0231052Y0175990D02*
X0235818Y0175990D01*
X0235838Y0176028D02*
X0231052Y0176028D01*
X0231052Y0176066D02*
X0235857Y0176066D01*
X0235876Y0176104D02*
X0233858Y0176104D01*
X0234135Y0176142D02*
X0235896Y0176142D01*
X0235915Y0176179D02*
X0234223Y0176179D01*
X0234293Y0176217D02*
X0235934Y0176217D01*
X0235954Y0176255D02*
X0234363Y0176255D01*
X0234432Y0176293D02*
X0235973Y0176293D01*
X0235992Y0176331D02*
X0234489Y0176331D01*
X0234516Y0176369D02*
X0236001Y0176369D01*
X0236006Y0176407D02*
X0234543Y0176407D01*
X0234571Y0176445D02*
X0236011Y0176445D01*
X0236016Y0176483D02*
X0234598Y0176483D01*
X0234625Y0176520D02*
X0236021Y0176520D01*
X0236026Y0176558D02*
X0234652Y0176558D01*
X0234678Y0176596D02*
X0236032Y0176596D01*
X0236037Y0176634D02*
X0234685Y0176634D01*
X0234692Y0176672D02*
X0236042Y0176672D01*
X0236047Y0176710D02*
X0234699Y0176710D01*
X0234706Y0176748D02*
X0236052Y0176748D01*
X0236057Y0176786D02*
X0234713Y0176786D01*
X0234720Y0176823D02*
X0236063Y0176823D01*
X0236068Y0176861D02*
X0234727Y0176861D01*
X0234734Y0176899D02*
X0236073Y0176899D01*
X0236078Y0176937D02*
X0234741Y0176937D01*
X0234738Y0176975D02*
X0236083Y0176975D01*
X0236087Y0177013D02*
X0234731Y0177013D01*
X0234724Y0177051D02*
X0236085Y0177051D01*
X0236082Y0177089D02*
X0234717Y0177089D01*
X0234711Y0177127D02*
X0236078Y0177127D01*
X0236075Y0177164D02*
X0234704Y0177164D01*
X0234697Y0177202D02*
X0236072Y0177202D01*
X0236069Y0177240D02*
X0234690Y0177240D01*
X0234683Y0177278D02*
X0236066Y0177278D01*
X0236063Y0177316D02*
X0234677Y0177316D01*
X0234657Y0177354D02*
X0236059Y0177354D01*
X0236056Y0177392D02*
X0234628Y0177392D01*
X0234599Y0177430D02*
X0236053Y0177430D01*
X0236049Y0177467D02*
X0234570Y0177467D01*
X0234541Y0177505D02*
X0236038Y0177505D01*
X0236028Y0177543D02*
X0234512Y0177543D01*
X0234483Y0177581D02*
X0236017Y0177581D01*
X0236006Y0177619D02*
X0234432Y0177619D01*
X0234355Y0177657D02*
X0235995Y0177657D01*
X0235984Y0177695D02*
X0234278Y0177695D01*
X0234201Y0177733D02*
X0235974Y0177733D01*
X0235963Y0177771D02*
X0234084Y0177771D01*
X0233776Y0177808D02*
X0235952Y0177808D01*
X0235941Y0177846D02*
X0231052Y0177846D01*
X0231052Y0177808D02*
X0232379Y0177808D01*
X0232379Y0177771D02*
X0231052Y0177771D01*
X0231052Y0177733D02*
X0232379Y0177733D01*
X0232379Y0177695D02*
X0231052Y0177695D01*
X0231052Y0177657D02*
X0232379Y0177657D01*
X0232379Y0177619D02*
X0231052Y0177619D01*
X0231052Y0177581D02*
X0232379Y0177581D01*
X0232379Y0177543D02*
X0231052Y0177543D01*
X0231052Y0177505D02*
X0232379Y0177505D01*
X0232379Y0177467D02*
X0231052Y0177467D01*
X0231052Y0177430D02*
X0232379Y0177430D01*
X0232379Y0177392D02*
X0231052Y0177392D01*
X0231052Y0177354D02*
X0232379Y0177354D01*
X0232379Y0177316D02*
X0231052Y0177316D01*
X0231052Y0177278D02*
X0232379Y0177278D01*
X0232379Y0177240D02*
X0231052Y0177240D01*
X0231052Y0177202D02*
X0232379Y0177202D01*
X0232379Y0177164D02*
X0231052Y0177164D01*
X0231052Y0177127D02*
X0232379Y0177127D01*
X0232379Y0177089D02*
X0231052Y0177089D01*
X0231052Y0177051D02*
X0232379Y0177051D01*
X0232379Y0177013D02*
X0231052Y0177013D01*
X0231052Y0176975D02*
X0232379Y0176975D01*
X0232379Y0176937D02*
X0231052Y0176937D01*
X0231052Y0176899D02*
X0232379Y0176899D01*
X0232379Y0176861D02*
X0231052Y0176861D01*
X0231052Y0176823D02*
X0232379Y0176823D01*
X0232379Y0176786D02*
X0231052Y0176786D01*
X0231052Y0176748D02*
X0232379Y0176748D01*
X0232379Y0176710D02*
X0231052Y0176710D01*
X0231052Y0176672D02*
X0232379Y0176672D01*
X0232379Y0176634D02*
X0231052Y0176634D01*
X0231052Y0176596D02*
X0232379Y0176596D01*
X0232379Y0176558D02*
X0231052Y0176558D01*
X0231052Y0176520D02*
X0232379Y0176520D01*
X0232379Y0176483D02*
X0231052Y0176483D01*
X0231052Y0176445D02*
X0232379Y0176445D01*
X0232379Y0176407D02*
X0231052Y0176407D01*
X0231052Y0176369D02*
X0232379Y0176369D01*
X0232379Y0176331D02*
X0231052Y0176331D01*
X0231052Y0176293D02*
X0232379Y0176293D01*
X0232379Y0176255D02*
X0231052Y0176255D01*
X0231052Y0176217D02*
X0232379Y0176217D01*
X0232379Y0176179D02*
X0231052Y0176179D01*
X0231052Y0176142D02*
X0232379Y0176142D01*
X0232379Y0176104D02*
X0231052Y0176104D01*
X0231052Y0174854D02*
X0232379Y0174854D01*
X0232379Y0174816D02*
X0231052Y0174816D01*
X0231052Y0174778D02*
X0232379Y0174778D01*
X0232379Y0174740D02*
X0231052Y0174740D01*
X0231052Y0174702D02*
X0232379Y0174702D01*
X0232379Y0174664D02*
X0231052Y0174664D01*
X0231052Y0174626D02*
X0232379Y0174626D01*
X0232379Y0174588D02*
X0231052Y0174588D01*
X0231052Y0174551D02*
X0232379Y0174551D01*
X0232379Y0174513D02*
X0231052Y0174513D01*
X0231052Y0174475D02*
X0232379Y0174475D01*
X0232379Y0174437D02*
X0231052Y0174437D01*
X0231052Y0174399D02*
X0232379Y0174399D01*
X0232379Y0174361D02*
X0231052Y0174361D01*
X0231052Y0174323D02*
X0232379Y0174323D01*
X0232379Y0174285D02*
X0231052Y0174285D01*
X0231052Y0174248D02*
X0232379Y0174248D01*
X0232379Y0174210D02*
X0231052Y0174210D01*
X0231052Y0174172D02*
X0232379Y0174172D01*
X0232379Y0174134D02*
X0231052Y0174134D01*
X0231052Y0174096D02*
X0232379Y0174096D01*
X0232379Y0174058D02*
X0231052Y0174058D01*
X0231052Y0174020D02*
X0232379Y0174020D01*
X0232379Y0173982D02*
X0231052Y0173982D01*
X0231052Y0173944D02*
X0232379Y0173944D01*
X0232379Y0173907D02*
X0231052Y0173907D01*
X0231052Y0173869D02*
X0232379Y0173869D01*
X0232379Y0173831D02*
X0231052Y0173831D01*
X0231052Y0173793D02*
X0232379Y0173793D01*
X0232379Y0173755D02*
X0231052Y0173755D01*
X0231052Y0173717D02*
X0232379Y0173717D01*
X0232379Y0173679D02*
X0231052Y0173679D01*
X0231052Y0173641D02*
X0232379Y0173641D01*
X0232379Y0173604D02*
X0231052Y0173604D01*
X0231052Y0173566D02*
X0232379Y0173566D01*
X0232379Y0173528D02*
X0231052Y0173528D01*
X0231052Y0173490D02*
X0232379Y0173490D01*
X0232379Y0173452D02*
X0231052Y0173452D01*
X0231052Y0173414D02*
X0232379Y0173414D01*
X0232379Y0173376D02*
X0231052Y0173376D01*
X0231052Y0173338D02*
X0232379Y0173338D01*
X0232379Y0173301D02*
X0231052Y0173301D01*
X0231052Y0173263D02*
X0232379Y0173263D01*
X0232379Y0173225D02*
X0231052Y0173225D01*
X0231052Y0173187D02*
X0232379Y0173187D01*
X0232379Y0173149D02*
X0231052Y0173149D01*
X0231052Y0173111D02*
X0232379Y0173111D01*
X0232379Y0173073D02*
X0231052Y0173073D01*
X0231052Y0173035D02*
X0232379Y0173035D01*
X0232379Y0172997D02*
X0231052Y0172997D01*
X0230120Y0172980D02*
X0228205Y0177480D01*
X0225636Y0177480D01*
X0226309Y0179060D01*
X0227533Y0179060D01*
X0228205Y0177480D01*
X0225636Y0177480D01*
X0223721Y0172980D01*
X0225076Y0172980D01*
X0226903Y0177462D01*
X0228730Y0172980D01*
X0230120Y0172980D01*
X0230113Y0172997D02*
X0228723Y0172997D01*
X0228707Y0173035D02*
X0230097Y0173035D01*
X0230081Y0173073D02*
X0228692Y0173073D01*
X0228676Y0173111D02*
X0230065Y0173111D01*
X0230048Y0173149D02*
X0228661Y0173149D01*
X0228645Y0173187D02*
X0230032Y0173187D01*
X0230016Y0173225D02*
X0228630Y0173225D01*
X0228615Y0173263D02*
X0230000Y0173263D01*
X0229984Y0173301D02*
X0228599Y0173301D01*
X0228584Y0173338D02*
X0229968Y0173338D01*
X0229952Y0173376D02*
X0228568Y0173376D01*
X0228553Y0173414D02*
X0229936Y0173414D01*
X0229919Y0173452D02*
X0228537Y0173452D01*
X0228522Y0173490D02*
X0229903Y0173490D01*
X0229887Y0173528D02*
X0228507Y0173528D01*
X0228491Y0173566D02*
X0229871Y0173566D01*
X0229855Y0173604D02*
X0228476Y0173604D01*
X0228460Y0173641D02*
X0229839Y0173641D01*
X0229823Y0173679D02*
X0228445Y0173679D01*
X0228429Y0173717D02*
X0229807Y0173717D01*
X0229790Y0173755D02*
X0228414Y0173755D01*
X0228398Y0173793D02*
X0229774Y0173793D01*
X0229758Y0173831D02*
X0228383Y0173831D01*
X0228368Y0173869D02*
X0229742Y0173869D01*
X0229726Y0173907D02*
X0228352Y0173907D01*
X0228337Y0173944D02*
X0229710Y0173944D01*
X0229694Y0173982D02*
X0228321Y0173982D01*
X0228306Y0174020D02*
X0229678Y0174020D01*
X0229661Y0174058D02*
X0228290Y0174058D01*
X0228275Y0174096D02*
X0229645Y0174096D01*
X0229629Y0174134D02*
X0228259Y0174134D01*
X0228244Y0174172D02*
X0229613Y0174172D01*
X0229597Y0174210D02*
X0228229Y0174210D01*
X0228213Y0174248D02*
X0229581Y0174248D01*
X0229565Y0174285D02*
X0228198Y0174285D01*
X0228182Y0174323D02*
X0229549Y0174323D01*
X0229532Y0174361D02*
X0228167Y0174361D01*
X0228151Y0174399D02*
X0229516Y0174399D01*
X0229500Y0174437D02*
X0228136Y0174437D01*
X0228120Y0174475D02*
X0229484Y0174475D01*
X0229468Y0174513D02*
X0228105Y0174513D01*
X0228090Y0174551D02*
X0229452Y0174551D01*
X0229436Y0174588D02*
X0228074Y0174588D01*
X0228059Y0174626D02*
X0229420Y0174626D01*
X0229403Y0174664D02*
X0228043Y0174664D01*
X0228028Y0174702D02*
X0229387Y0174702D01*
X0229371Y0174740D02*
X0228012Y0174740D01*
X0227997Y0174778D02*
X0229355Y0174778D01*
X0229339Y0174816D02*
X0227982Y0174816D01*
X0227966Y0174854D02*
X0229323Y0174854D01*
X0229307Y0174892D02*
X0227951Y0174892D01*
X0227935Y0174929D02*
X0229291Y0174929D01*
X0229274Y0174967D02*
X0227920Y0174967D01*
X0227904Y0175005D02*
X0229258Y0175005D01*
X0229242Y0175043D02*
X0227889Y0175043D01*
X0227873Y0175081D02*
X0229226Y0175081D01*
X0229210Y0175119D02*
X0227858Y0175119D01*
X0227843Y0175157D02*
X0229194Y0175157D01*
X0229178Y0175195D02*
X0227827Y0175195D01*
X0227812Y0175232D02*
X0229162Y0175232D01*
X0229145Y0175270D02*
X0227796Y0175270D01*
X0227781Y0175308D02*
X0229129Y0175308D01*
X0229113Y0175346D02*
X0227765Y0175346D01*
X0227750Y0175384D02*
X0229097Y0175384D01*
X0229081Y0175422D02*
X0227734Y0175422D01*
X0227719Y0175460D02*
X0229065Y0175460D01*
X0229049Y0175498D02*
X0227704Y0175498D01*
X0227688Y0175536D02*
X0229033Y0175536D01*
X0229016Y0175573D02*
X0227673Y0175573D01*
X0227657Y0175611D02*
X0229000Y0175611D01*
X0228984Y0175649D02*
X0227642Y0175649D01*
X0227626Y0175687D02*
X0228968Y0175687D01*
X0228952Y0175725D02*
X0227611Y0175725D01*
X0227595Y0175763D02*
X0228936Y0175763D01*
X0228920Y0175801D02*
X0227580Y0175801D01*
X0227565Y0175839D02*
X0228904Y0175839D01*
X0228887Y0175876D02*
X0227549Y0175876D01*
X0227534Y0175914D02*
X0228871Y0175914D01*
X0228855Y0175952D02*
X0227518Y0175952D01*
X0227503Y0175990D02*
X0228839Y0175990D01*
X0228823Y0176028D02*
X0227487Y0176028D01*
X0227472Y0176066D02*
X0228807Y0176066D01*
X0228791Y0176104D02*
X0227456Y0176104D01*
X0227441Y0176142D02*
X0228775Y0176142D01*
X0228758Y0176179D02*
X0227426Y0176179D01*
X0227410Y0176217D02*
X0228742Y0176217D01*
X0228726Y0176255D02*
X0227395Y0176255D01*
X0227379Y0176293D02*
X0228710Y0176293D01*
X0228694Y0176331D02*
X0227364Y0176331D01*
X0227348Y0176369D02*
X0228678Y0176369D01*
X0228662Y0176407D02*
X0227333Y0176407D01*
X0227318Y0176445D02*
X0228646Y0176445D01*
X0228629Y0176483D02*
X0227302Y0176483D01*
X0227287Y0176520D02*
X0228613Y0176520D01*
X0228597Y0176558D02*
X0227271Y0176558D01*
X0227256Y0176596D02*
X0228581Y0176596D01*
X0228565Y0176634D02*
X0227240Y0176634D01*
X0227225Y0176672D02*
X0228549Y0176672D01*
X0228533Y0176710D02*
X0227209Y0176710D01*
X0227194Y0176748D02*
X0228517Y0176748D01*
X0228500Y0176786D02*
X0227179Y0176786D01*
X0227163Y0176823D02*
X0228484Y0176823D01*
X0228468Y0176861D02*
X0227148Y0176861D01*
X0227132Y0176899D02*
X0228452Y0176899D01*
X0228436Y0176937D02*
X0227117Y0176937D01*
X0227101Y0176975D02*
X0228420Y0176975D01*
X0228404Y0177013D02*
X0227086Y0177013D01*
X0227070Y0177051D02*
X0228388Y0177051D01*
X0228371Y0177089D02*
X0227055Y0177089D01*
X0227040Y0177127D02*
X0228355Y0177127D01*
X0228339Y0177164D02*
X0227024Y0177164D01*
X0227009Y0177202D02*
X0228323Y0177202D01*
X0228307Y0177240D02*
X0226993Y0177240D01*
X0226978Y0177278D02*
X0228291Y0177278D01*
X0228275Y0177316D02*
X0226962Y0177316D01*
X0226947Y0177354D02*
X0228259Y0177354D01*
X0228242Y0177392D02*
X0226931Y0177392D01*
X0226916Y0177430D02*
X0228226Y0177430D01*
X0228210Y0177467D02*
X0225630Y0177467D01*
X0225614Y0177430D02*
X0226889Y0177430D01*
X0226874Y0177392D02*
X0225598Y0177392D01*
X0225582Y0177354D02*
X0226858Y0177354D01*
X0226843Y0177316D02*
X0225566Y0177316D01*
X0225550Y0177278D02*
X0226827Y0177278D01*
X0226812Y0177240D02*
X0225534Y0177240D01*
X0225518Y0177202D02*
X0226797Y0177202D01*
X0226781Y0177164D02*
X0225502Y0177164D01*
X0225485Y0177127D02*
X0226766Y0177127D01*
X0226750Y0177089D02*
X0225469Y0177089D01*
X0225453Y0177051D02*
X0226735Y0177051D01*
X0226719Y0177013D02*
X0225437Y0177013D01*
X0225421Y0176975D02*
X0226704Y0176975D01*
X0226688Y0176937D02*
X0225405Y0176937D01*
X0225389Y0176899D02*
X0226673Y0176899D01*
X0226658Y0176861D02*
X0225373Y0176861D01*
X0225356Y0176823D02*
X0226642Y0176823D01*
X0226627Y0176786D02*
X0225340Y0176786D01*
X0225324Y0176748D02*
X0226611Y0176748D01*
X0226596Y0176710D02*
X0225308Y0176710D01*
X0225292Y0176672D02*
X0226580Y0176672D01*
X0226565Y0176634D02*
X0225276Y0176634D01*
X0225260Y0176596D02*
X0226549Y0176596D01*
X0226534Y0176558D02*
X0225244Y0176558D01*
X0225227Y0176520D02*
X0226519Y0176520D01*
X0226503Y0176483D02*
X0225211Y0176483D01*
X0225195Y0176445D02*
X0226488Y0176445D01*
X0226472Y0176407D02*
X0225179Y0176407D01*
X0225163Y0176369D02*
X0226457Y0176369D01*
X0226441Y0176331D02*
X0225147Y0176331D01*
X0225131Y0176293D02*
X0226426Y0176293D01*
X0226411Y0176255D02*
X0225115Y0176255D01*
X0225099Y0176217D02*
X0226395Y0176217D01*
X0226380Y0176179D02*
X0225082Y0176179D01*
X0225066Y0176142D02*
X0226364Y0176142D01*
X0226349Y0176104D02*
X0225050Y0176104D01*
X0225034Y0176066D02*
X0226333Y0176066D01*
X0226318Y0176028D02*
X0225018Y0176028D01*
X0225002Y0175990D02*
X0226302Y0175990D01*
X0226287Y0175952D02*
X0224986Y0175952D01*
X0224970Y0175914D02*
X0226272Y0175914D01*
X0226256Y0175876D02*
X0224953Y0175876D01*
X0224937Y0175839D02*
X0226241Y0175839D01*
X0226225Y0175801D02*
X0224921Y0175801D01*
X0224905Y0175763D02*
X0226210Y0175763D01*
X0226194Y0175725D02*
X0224889Y0175725D01*
X0224873Y0175687D02*
X0226179Y0175687D01*
X0226163Y0175649D02*
X0224857Y0175649D01*
X0224841Y0175611D02*
X0226148Y0175611D01*
X0226133Y0175573D02*
X0224824Y0175573D01*
X0224808Y0175536D02*
X0226117Y0175536D01*
X0226102Y0175498D02*
X0224792Y0175498D01*
X0224776Y0175460D02*
X0226086Y0175460D01*
X0226071Y0175422D02*
X0224760Y0175422D01*
X0224744Y0175384D02*
X0226055Y0175384D01*
X0226040Y0175346D02*
X0224728Y0175346D01*
X0224712Y0175308D02*
X0226024Y0175308D01*
X0226009Y0175270D02*
X0224696Y0175270D01*
X0224679Y0175232D02*
X0225994Y0175232D01*
X0225978Y0175195D02*
X0224663Y0175195D01*
X0224647Y0175157D02*
X0225963Y0175157D01*
X0225947Y0175119D02*
X0224631Y0175119D01*
X0224615Y0175081D02*
X0225932Y0175081D01*
X0225916Y0175043D02*
X0224599Y0175043D01*
X0224583Y0175005D02*
X0225901Y0175005D01*
X0225885Y0174967D02*
X0224567Y0174967D01*
X0224550Y0174929D02*
X0225870Y0174929D01*
X0225855Y0174892D02*
X0224534Y0174892D01*
X0224518Y0174854D02*
X0225839Y0174854D01*
X0225824Y0174816D02*
X0224502Y0174816D01*
X0224486Y0174778D02*
X0225808Y0174778D01*
X0225793Y0174740D02*
X0224470Y0174740D01*
X0224454Y0174702D02*
X0225777Y0174702D01*
X0225762Y0174664D02*
X0224438Y0174664D01*
X0224422Y0174626D02*
X0225747Y0174626D01*
X0225731Y0174588D02*
X0224405Y0174588D01*
X0224389Y0174551D02*
X0225716Y0174551D01*
X0225700Y0174513D02*
X0224373Y0174513D01*
X0224357Y0174475D02*
X0225685Y0174475D01*
X0225669Y0174437D02*
X0224341Y0174437D01*
X0224325Y0174399D02*
X0225654Y0174399D01*
X0225638Y0174361D02*
X0224309Y0174361D01*
X0224293Y0174323D02*
X0225623Y0174323D01*
X0225608Y0174285D02*
X0224276Y0174285D01*
X0224260Y0174248D02*
X0225592Y0174248D01*
X0225577Y0174210D02*
X0224244Y0174210D01*
X0224228Y0174172D02*
X0225561Y0174172D01*
X0225546Y0174134D02*
X0224212Y0174134D01*
X0224196Y0174096D02*
X0225530Y0174096D01*
X0225515Y0174058D02*
X0224180Y0174058D01*
X0224164Y0174020D02*
X0225499Y0174020D01*
X0225484Y0173982D02*
X0224147Y0173982D01*
X0224131Y0173944D02*
X0225469Y0173944D01*
X0225453Y0173907D02*
X0224115Y0173907D01*
X0224099Y0173869D02*
X0225438Y0173869D01*
X0225422Y0173831D02*
X0224083Y0173831D01*
X0224067Y0173793D02*
X0225407Y0173793D01*
X0225391Y0173755D02*
X0224051Y0173755D01*
X0224035Y0173717D02*
X0225376Y0173717D01*
X0225360Y0173679D02*
X0224019Y0173679D01*
X0224002Y0173641D02*
X0225345Y0173641D01*
X0225330Y0173604D02*
X0223986Y0173604D01*
X0223970Y0173566D02*
X0225314Y0173566D01*
X0225299Y0173528D02*
X0223954Y0173528D01*
X0223938Y0173490D02*
X0225283Y0173490D01*
X0225268Y0173452D02*
X0223922Y0173452D01*
X0223906Y0173414D02*
X0225252Y0173414D01*
X0225237Y0173376D02*
X0223890Y0173376D01*
X0223873Y0173338D02*
X0225222Y0173338D01*
X0225206Y0173301D02*
X0223857Y0173301D01*
X0223841Y0173263D02*
X0225191Y0173263D01*
X0225175Y0173225D02*
X0223825Y0173225D01*
X0223809Y0173187D02*
X0225160Y0173187D01*
X0225144Y0173149D02*
X0223793Y0173149D01*
X0223777Y0173111D02*
X0225129Y0173111D01*
X0225113Y0173073D02*
X0223761Y0173073D01*
X0223744Y0173035D02*
X0225098Y0173035D01*
X0225083Y0172997D02*
X0223728Y0172997D01*
X0222327Y0175195D02*
X0218479Y0175195D01*
X0218479Y0175232D02*
X0222386Y0175232D01*
X0222444Y0175270D02*
X0218479Y0175270D01*
X0218479Y0175308D02*
X0222502Y0175308D01*
X0222542Y0175334D02*
X0222839Y0175635D01*
X0223064Y0176000D01*
X0223206Y0176429D01*
X0223253Y0176923D01*
X0223258Y0176913D01*
X0223258Y0176931D01*
X0223218Y0177377D01*
X0223188Y0177480D01*
X0221703Y0177480D01*
X0221624Y0177584D01*
X0221284Y0177760D01*
X0220837Y0177818D01*
X0219811Y0177818D01*
X0219811Y0177480D01*
X0218479Y0177480D01*
X0218479Y0179024D01*
X0220945Y0179024D01*
X0221461Y0178984D01*
X0221917Y0178871D01*
X0222311Y0178687D01*
X0222641Y0178444D01*
X0222906Y0178140D01*
X0223100Y0177782D01*
X0223188Y0177480D01*
X0221703Y0177480D01*
X0221841Y0177298D01*
X0221912Y0176905D01*
X0221912Y0176887D01*
X0221844Y0176530D01*
X0221638Y0176234D01*
X0221306Y0176037D01*
X0220864Y0175973D01*
X0219811Y0175973D01*
X0219811Y0177480D01*
X0218479Y0177480D01*
X0218479Y0172990D01*
X0219806Y0172990D01*
X0219806Y0174798D01*
X0220814Y0174798D01*
X0221306Y0174833D01*
X0221768Y0174934D01*
X0222184Y0175102D01*
X0222542Y0175334D01*
X0222554Y0175346D02*
X0218479Y0175346D01*
X0218479Y0175384D02*
X0222591Y0175384D01*
X0222629Y0175422D02*
X0218479Y0175422D01*
X0218479Y0175460D02*
X0222666Y0175460D01*
X0222703Y0175498D02*
X0218479Y0175498D01*
X0218479Y0175536D02*
X0222741Y0175536D01*
X0222778Y0175573D02*
X0218479Y0175573D01*
X0218479Y0175611D02*
X0222815Y0175611D01*
X0222847Y0175649D02*
X0218479Y0175649D01*
X0218479Y0175687D02*
X0222871Y0175687D01*
X0222894Y0175725D02*
X0218479Y0175725D01*
X0218479Y0175763D02*
X0222918Y0175763D01*
X0222941Y0175801D02*
X0218479Y0175801D01*
X0218479Y0175839D02*
X0222964Y0175839D01*
X0222988Y0175876D02*
X0218479Y0175876D01*
X0218479Y0175914D02*
X0223011Y0175914D01*
X0223035Y0175952D02*
X0218479Y0175952D01*
X0218479Y0175990D02*
X0219811Y0175990D01*
X0219811Y0176028D02*
X0218479Y0176028D01*
X0218479Y0176066D02*
X0219811Y0176066D01*
X0219811Y0176104D02*
X0218479Y0176104D01*
X0218479Y0176142D02*
X0219811Y0176142D01*
X0219811Y0176179D02*
X0218479Y0176179D01*
X0218479Y0176217D02*
X0219811Y0176217D01*
X0219811Y0176255D02*
X0218479Y0176255D01*
X0218479Y0176293D02*
X0219811Y0176293D01*
X0219811Y0176331D02*
X0218479Y0176331D01*
X0218479Y0176369D02*
X0219811Y0176369D01*
X0219811Y0176407D02*
X0218479Y0176407D01*
X0218479Y0176445D02*
X0219811Y0176445D01*
X0219811Y0176483D02*
X0218479Y0176483D01*
X0218479Y0176520D02*
X0219811Y0176520D01*
X0219811Y0176558D02*
X0218479Y0176558D01*
X0218479Y0176596D02*
X0219811Y0176596D01*
X0219811Y0176634D02*
X0218479Y0176634D01*
X0218479Y0176672D02*
X0219811Y0176672D01*
X0219811Y0176710D02*
X0218479Y0176710D01*
X0218479Y0176748D02*
X0219811Y0176748D01*
X0219811Y0176786D02*
X0218479Y0176786D01*
X0218479Y0176823D02*
X0219811Y0176823D01*
X0219811Y0176861D02*
X0218479Y0176861D01*
X0218479Y0176899D02*
X0219811Y0176899D01*
X0219811Y0176937D02*
X0218479Y0176937D01*
X0218479Y0176975D02*
X0219811Y0176975D01*
X0219811Y0177013D02*
X0218479Y0177013D01*
X0218479Y0177051D02*
X0219811Y0177051D01*
X0219811Y0177089D02*
X0218479Y0177089D01*
X0218479Y0177127D02*
X0219811Y0177127D01*
X0219811Y0177164D02*
X0218479Y0177164D01*
X0218479Y0177202D02*
X0219811Y0177202D01*
X0219811Y0177240D02*
X0218479Y0177240D01*
X0218479Y0177278D02*
X0219811Y0177278D01*
X0219811Y0177316D02*
X0218479Y0177316D01*
X0218479Y0177354D02*
X0219811Y0177354D01*
X0219811Y0177392D02*
X0218479Y0177392D01*
X0218479Y0177430D02*
X0219811Y0177430D01*
X0219811Y0177467D02*
X0218479Y0177467D01*
X0218479Y0177505D02*
X0219811Y0177505D01*
X0219811Y0177543D02*
X0218479Y0177543D01*
X0218479Y0177581D02*
X0219811Y0177581D01*
X0219811Y0177619D02*
X0218479Y0177619D01*
X0218479Y0177657D02*
X0219811Y0177657D01*
X0219811Y0177695D02*
X0218479Y0177695D01*
X0218479Y0177733D02*
X0219811Y0177733D01*
X0219811Y0177771D02*
X0218479Y0177771D01*
X0218479Y0177808D02*
X0219811Y0177808D01*
X0220911Y0177808D02*
X0223086Y0177808D01*
X0223103Y0177771D02*
X0221203Y0177771D01*
X0221337Y0177733D02*
X0223114Y0177733D01*
X0223126Y0177695D02*
X0221410Y0177695D01*
X0221483Y0177657D02*
X0223137Y0177657D01*
X0223148Y0177619D02*
X0221557Y0177619D01*
X0221626Y0177581D02*
X0223159Y0177581D01*
X0223170Y0177543D02*
X0221655Y0177543D01*
X0221684Y0177505D02*
X0223181Y0177505D01*
X0223192Y0177467D02*
X0221712Y0177467D01*
X0221741Y0177430D02*
X0223202Y0177430D01*
X0223213Y0177392D02*
X0221770Y0177392D01*
X0221798Y0177354D02*
X0223220Y0177354D01*
X0223223Y0177316D02*
X0221827Y0177316D01*
X0221844Y0177278D02*
X0223227Y0177278D01*
X0223230Y0177240D02*
X0221851Y0177240D01*
X0221858Y0177202D02*
X0223233Y0177202D01*
X0223237Y0177164D02*
X0221865Y0177164D01*
X0221872Y0177127D02*
X0223240Y0177127D01*
X0223244Y0177089D02*
X0221879Y0177089D01*
X0221886Y0177051D02*
X0223247Y0177051D01*
X0223250Y0177013D02*
X0221892Y0177013D01*
X0221899Y0176975D02*
X0223254Y0176975D01*
X0223257Y0176937D02*
X0221906Y0176937D01*
X0221912Y0176899D02*
X0223251Y0176899D01*
X0223247Y0176861D02*
X0221907Y0176861D01*
X0221900Y0176823D02*
X0223244Y0176823D01*
X0223240Y0176786D02*
X0221893Y0176786D01*
X0221886Y0176748D02*
X0223236Y0176748D01*
X0223233Y0176710D02*
X0221878Y0176710D01*
X0221871Y0176672D02*
X0223229Y0176672D01*
X0223225Y0176634D02*
X0221864Y0176634D01*
X0221857Y0176596D02*
X0223222Y0176596D01*
X0223218Y0176558D02*
X0221850Y0176558D01*
X0221837Y0176520D02*
X0223214Y0176520D01*
X0223211Y0176483D02*
X0221811Y0176483D01*
X0221785Y0176445D02*
X0223207Y0176445D01*
X0223198Y0176407D02*
X0221758Y0176407D01*
X0221732Y0176369D02*
X0223186Y0176369D01*
X0223173Y0176331D02*
X0221705Y0176331D01*
X0221679Y0176293D02*
X0223161Y0176293D01*
X0223148Y0176255D02*
X0221652Y0176255D01*
X0221610Y0176217D02*
X0223136Y0176217D01*
X0223123Y0176179D02*
X0221546Y0176179D01*
X0221482Y0176142D02*
X0223111Y0176142D01*
X0223098Y0176104D02*
X0221418Y0176104D01*
X0221354Y0176066D02*
X0223086Y0176066D01*
X0223073Y0176028D02*
X0221241Y0176028D01*
X0220981Y0175990D02*
X0223058Y0175990D01*
X0222269Y0175157D02*
X0218479Y0175157D01*
X0218479Y0175119D02*
X0222210Y0175119D01*
X0222133Y0175081D02*
X0218479Y0175081D01*
X0218479Y0175043D02*
X0222039Y0175043D01*
X0221945Y0175005D02*
X0218479Y0175005D01*
X0218479Y0174967D02*
X0221852Y0174967D01*
X0221749Y0174929D02*
X0218479Y0174929D01*
X0218479Y0174892D02*
X0221576Y0174892D01*
X0221403Y0174854D02*
X0218479Y0174854D01*
X0218479Y0174816D02*
X0221064Y0174816D01*
X0219806Y0174778D02*
X0218479Y0174778D01*
X0218479Y0174740D02*
X0219806Y0174740D01*
X0219806Y0174702D02*
X0218479Y0174702D01*
X0218479Y0174664D02*
X0219806Y0174664D01*
X0219806Y0174626D02*
X0218479Y0174626D01*
X0218479Y0174588D02*
X0219806Y0174588D01*
X0219806Y0174551D02*
X0218479Y0174551D01*
X0218479Y0174513D02*
X0219806Y0174513D01*
X0219806Y0174475D02*
X0218479Y0174475D01*
X0218479Y0174437D02*
X0219806Y0174437D01*
X0219806Y0174399D02*
X0218479Y0174399D01*
X0218479Y0174361D02*
X0219806Y0174361D01*
X0219806Y0174323D02*
X0218479Y0174323D01*
X0218479Y0174285D02*
X0219806Y0174285D01*
X0219806Y0174248D02*
X0218479Y0174248D01*
X0218479Y0174210D02*
X0219806Y0174210D01*
X0219806Y0174172D02*
X0218479Y0174172D01*
X0218479Y0174134D02*
X0219806Y0174134D01*
X0219806Y0174096D02*
X0218479Y0174096D01*
X0218479Y0174058D02*
X0219806Y0174058D01*
X0219806Y0174020D02*
X0218479Y0174020D01*
X0218479Y0173982D02*
X0219806Y0173982D01*
X0219806Y0173944D02*
X0218479Y0173944D01*
X0218479Y0173907D02*
X0219806Y0173907D01*
X0219806Y0173869D02*
X0218479Y0173869D01*
X0218479Y0173831D02*
X0219806Y0173831D01*
X0219806Y0173793D02*
X0218479Y0173793D01*
X0218479Y0173755D02*
X0219806Y0173755D01*
X0219806Y0173717D02*
X0218479Y0173717D01*
X0218479Y0173679D02*
X0219806Y0173679D01*
X0219806Y0173641D02*
X0218479Y0173641D01*
X0218479Y0173604D02*
X0219806Y0173604D01*
X0219806Y0173566D02*
X0218479Y0173566D01*
X0218479Y0173528D02*
X0219806Y0173528D01*
X0219806Y0173490D02*
X0218479Y0173490D01*
X0218479Y0173452D02*
X0219806Y0173452D01*
X0219806Y0173414D02*
X0218479Y0173414D01*
X0218479Y0173376D02*
X0219806Y0173376D01*
X0219806Y0173338D02*
X0218479Y0173338D01*
X0218479Y0173301D02*
X0219806Y0173301D01*
X0219806Y0173263D02*
X0218479Y0173263D01*
X0218479Y0173225D02*
X0219806Y0173225D01*
X0219806Y0173187D02*
X0218479Y0173187D01*
X0218479Y0173149D02*
X0219806Y0173149D01*
X0219806Y0173111D02*
X0218479Y0173111D01*
X0218479Y0173073D02*
X0219806Y0173073D01*
X0219806Y0173035D02*
X0218479Y0173035D01*
X0218479Y0172997D02*
X0219806Y0172997D01*
X0217165Y0173952D02*
X0217286Y0174327D01*
X0217327Y0174749D01*
X0217327Y0174785D01*
X0217296Y0175153D01*
X0217201Y0175465D01*
X0217044Y0175730D01*
X0216827Y0175959D01*
X0216224Y0176320D01*
X0215405Y0176590D01*
X0214762Y0176770D01*
X0214361Y0176931D01*
X0214159Y0177125D01*
X0214105Y0177381D01*
X0214105Y0177399D01*
X0214123Y0177480D01*
X0212810Y0177480D01*
X0212791Y0177278D01*
X0214126Y0177278D01*
X0214118Y0177316D02*
X0212794Y0177316D01*
X0212798Y0177354D02*
X0214110Y0177354D01*
X0214105Y0177392D02*
X0212801Y0177392D01*
X0212805Y0177430D02*
X0214112Y0177430D01*
X0214120Y0177467D02*
X0212808Y0177467D01*
X0212810Y0177480D02*
X0214123Y0177480D01*
X0214153Y0177605D01*
X0214298Y0177773D01*
X0214541Y0177887D01*
X0214879Y0177926D01*
X0215266Y0177886D01*
X0215653Y0177769D01*
X0216177Y0177480D01*
X0216445Y0177332D01*
X0216546Y0177480D01*
X0216177Y0177480D01*
X0216546Y0177480D01*
X0217133Y0178331D01*
X0216644Y0178659D01*
X0216112Y0178898D01*
X0215529Y0179046D01*
X0214892Y0179096D01*
X0214447Y0179063D01*
X0214042Y0178966D01*
X0213682Y0178808D01*
X0213376Y0178597D01*
X0213129Y0178333D01*
X0212944Y0178025D01*
X0212828Y0177673D01*
X0212810Y0177480D01*
X0212812Y0177505D02*
X0214129Y0177505D01*
X0214138Y0177543D02*
X0212816Y0177543D01*
X0212819Y0177581D02*
X0214147Y0177581D01*
X0214165Y0177619D02*
X0212823Y0177619D01*
X0212827Y0177657D02*
X0214198Y0177657D01*
X0214230Y0177695D02*
X0212835Y0177695D01*
X0212848Y0177733D02*
X0214263Y0177733D01*
X0214296Y0177771D02*
X0212860Y0177771D01*
X0212872Y0177808D02*
X0214374Y0177808D01*
X0214455Y0177846D02*
X0212885Y0177846D01*
X0212897Y0177884D02*
X0214536Y0177884D01*
X0214845Y0177922D02*
X0212910Y0177922D01*
X0212922Y0177960D02*
X0216877Y0177960D01*
X0216851Y0177922D02*
X0214917Y0177922D01*
X0215272Y0177884D02*
X0216825Y0177884D01*
X0216799Y0177846D02*
X0215396Y0177846D01*
X0215521Y0177808D02*
X0216773Y0177808D01*
X0216747Y0177771D02*
X0215646Y0177771D01*
X0215718Y0177733D02*
X0216721Y0177733D01*
X0216695Y0177695D02*
X0215786Y0177695D01*
X0215855Y0177657D02*
X0216668Y0177657D01*
X0216642Y0177619D02*
X0215924Y0177619D01*
X0215993Y0177581D02*
X0216616Y0177581D01*
X0216590Y0177543D02*
X0216061Y0177543D01*
X0216130Y0177505D02*
X0216564Y0177505D01*
X0216538Y0177467D02*
X0216199Y0177467D01*
X0216268Y0177430D02*
X0216512Y0177430D01*
X0216486Y0177392D02*
X0216336Y0177392D01*
X0216405Y0177354D02*
X0216460Y0177354D01*
X0216903Y0177998D02*
X0212935Y0177998D01*
X0212950Y0178036D02*
X0216930Y0178036D01*
X0216956Y0178074D02*
X0212973Y0178074D01*
X0212996Y0178111D02*
X0216982Y0178111D01*
X0217008Y0178149D02*
X0213019Y0178149D01*
X0213041Y0178187D02*
X0217034Y0178187D01*
X0217060Y0178225D02*
X0213064Y0178225D01*
X0213087Y0178263D02*
X0217086Y0178263D01*
X0217112Y0178301D02*
X0213110Y0178301D01*
X0213135Y0178339D02*
X0217122Y0178339D01*
X0217065Y0178377D02*
X0213170Y0178377D01*
X0213206Y0178414D02*
X0217008Y0178414D01*
X0216952Y0178452D02*
X0213241Y0178452D01*
X0213276Y0178490D02*
X0216895Y0178490D01*
X0216839Y0178528D02*
X0213312Y0178528D01*
X0213347Y0178566D02*
X0216782Y0178566D01*
X0216726Y0178604D02*
X0213386Y0178604D01*
X0213441Y0178642D02*
X0216669Y0178642D01*
X0216597Y0178680D02*
X0213496Y0178680D01*
X0213551Y0178718D02*
X0216513Y0178718D01*
X0216429Y0178755D02*
X0213606Y0178755D01*
X0213660Y0178793D02*
X0216344Y0178793D01*
X0216260Y0178831D02*
X0213735Y0178831D01*
X0213821Y0178869D02*
X0216176Y0178869D01*
X0216076Y0178907D02*
X0213908Y0178907D01*
X0213994Y0178945D02*
X0215927Y0178945D01*
X0215778Y0178983D02*
X0214113Y0178983D01*
X0214270Y0179021D02*
X0215629Y0179021D01*
X0215370Y0179058D02*
X0214428Y0179058D01*
X0214134Y0177240D02*
X0212792Y0177240D01*
X0212791Y0177260D02*
X0212827Y0176849D01*
X0212935Y0176509D01*
X0213106Y0176231D01*
X0213335Y0176005D01*
X0213965Y0175662D01*
X0214798Y0175410D01*
X0215414Y0175230D01*
X0215788Y0175059D01*
X0215968Y0174875D01*
X0216017Y0174645D01*
X0216017Y0174627D01*
X0215960Y0174388D01*
X0215788Y0174209D01*
X0215513Y0174095D01*
X0215144Y0174056D01*
X0214647Y0174106D01*
X0214190Y0174254D01*
X0213760Y0174487D01*
X0213340Y0174790D01*
X0212557Y0173849D01*
X0213129Y0173420D01*
X0213763Y0173120D01*
X0214433Y0172941D01*
X0215117Y0172881D01*
X0215587Y0172912D01*
X0216013Y0173008D01*
X0216388Y0173160D01*
X0216710Y0173367D01*
X0216970Y0173633D01*
X0217165Y0173952D01*
X0217160Y0173944D02*
X0212636Y0173944D01*
X0212605Y0173907D02*
X0217137Y0173907D01*
X0217113Y0173869D02*
X0212573Y0173869D01*
X0212581Y0173831D02*
X0217090Y0173831D01*
X0217067Y0173793D02*
X0212631Y0173793D01*
X0212682Y0173755D02*
X0217044Y0173755D01*
X0217021Y0173717D02*
X0212733Y0173717D01*
X0212783Y0173679D02*
X0216998Y0173679D01*
X0216975Y0173641D02*
X0212834Y0173641D01*
X0212885Y0173604D02*
X0216941Y0173604D01*
X0216904Y0173566D02*
X0212935Y0173566D01*
X0212986Y0173528D02*
X0216867Y0173528D01*
X0216830Y0173490D02*
X0213036Y0173490D01*
X0213087Y0173452D02*
X0216793Y0173452D01*
X0216756Y0173414D02*
X0213142Y0173414D01*
X0213222Y0173376D02*
X0216719Y0173376D01*
X0216665Y0173338D02*
X0213302Y0173338D01*
X0213382Y0173301D02*
X0216606Y0173301D01*
X0216547Y0173263D02*
X0213462Y0173263D01*
X0213542Y0173225D02*
X0216488Y0173225D01*
X0216429Y0173187D02*
X0213622Y0173187D01*
X0213702Y0173149D02*
X0216360Y0173149D01*
X0216267Y0173111D02*
X0213796Y0173111D01*
X0213938Y0173073D02*
X0216174Y0173073D01*
X0216081Y0173035D02*
X0214081Y0173035D01*
X0214223Y0172997D02*
X0215968Y0172997D01*
X0215798Y0172960D02*
X0214365Y0172960D01*
X0214659Y0172922D02*
X0215628Y0172922D01*
X0215152Y0172884D02*
X0215091Y0172884D01*
X0215123Y0174058D02*
X0212731Y0174058D01*
X0212762Y0174096D02*
X0214746Y0174096D01*
X0214561Y0174134D02*
X0212794Y0174134D01*
X0212825Y0174172D02*
X0214444Y0174172D01*
X0214327Y0174210D02*
X0212857Y0174210D01*
X0212888Y0174248D02*
X0214210Y0174248D01*
X0214132Y0174285D02*
X0212920Y0174285D01*
X0212951Y0174323D02*
X0214062Y0174323D01*
X0213992Y0174361D02*
X0212983Y0174361D01*
X0213015Y0174399D02*
X0213922Y0174399D01*
X0213851Y0174437D02*
X0213046Y0174437D01*
X0213078Y0174475D02*
X0213781Y0174475D01*
X0213723Y0174513D02*
X0213109Y0174513D01*
X0213141Y0174551D02*
X0213671Y0174551D01*
X0213618Y0174588D02*
X0213172Y0174588D01*
X0213204Y0174626D02*
X0213566Y0174626D01*
X0213513Y0174664D02*
X0213235Y0174664D01*
X0213267Y0174702D02*
X0213461Y0174702D01*
X0213408Y0174740D02*
X0213298Y0174740D01*
X0213330Y0174778D02*
X0213356Y0174778D01*
X0212699Y0174020D02*
X0217187Y0174020D01*
X0217174Y0173982D02*
X0212668Y0173982D01*
X0213641Y0175839D02*
X0216942Y0175839D01*
X0216906Y0175876D02*
X0213571Y0175876D01*
X0213501Y0175914D02*
X0216870Y0175914D01*
X0216834Y0175952D02*
X0213431Y0175952D01*
X0213362Y0175990D02*
X0216776Y0175990D01*
X0216712Y0176028D02*
X0213311Y0176028D01*
X0213273Y0176066D02*
X0216649Y0176066D01*
X0216586Y0176104D02*
X0213235Y0176104D01*
X0213197Y0176142D02*
X0216522Y0176142D01*
X0216459Y0176179D02*
X0213158Y0176179D01*
X0213120Y0176217D02*
X0216395Y0176217D01*
X0216332Y0176255D02*
X0213091Y0176255D01*
X0213068Y0176293D02*
X0216268Y0176293D01*
X0216189Y0176331D02*
X0213044Y0176331D01*
X0213021Y0176369D02*
X0216074Y0176369D01*
X0215959Y0176407D02*
X0212997Y0176407D01*
X0212974Y0176445D02*
X0215844Y0176445D01*
X0215730Y0176483D02*
X0212951Y0176483D01*
X0212931Y0176520D02*
X0215615Y0176520D01*
X0215500Y0176558D02*
X0212919Y0176558D01*
X0212907Y0176596D02*
X0215381Y0176596D01*
X0215246Y0176634D02*
X0212895Y0176634D01*
X0212883Y0176672D02*
X0215110Y0176672D01*
X0214975Y0176710D02*
X0212871Y0176710D01*
X0212859Y0176748D02*
X0214840Y0176748D01*
X0214722Y0176786D02*
X0212847Y0176786D01*
X0212835Y0176823D02*
X0214628Y0176823D01*
X0214535Y0176861D02*
X0212826Y0176861D01*
X0212823Y0176899D02*
X0214441Y0176899D01*
X0214355Y0176937D02*
X0212819Y0176937D01*
X0212816Y0176975D02*
X0214316Y0176975D01*
X0214276Y0177013D02*
X0212813Y0177013D01*
X0212809Y0177051D02*
X0214236Y0177051D01*
X0214197Y0177089D02*
X0212806Y0177089D01*
X0212802Y0177127D02*
X0214158Y0177127D01*
X0214150Y0177164D02*
X0212799Y0177164D01*
X0212796Y0177202D02*
X0214142Y0177202D01*
X0212791Y0177260D02*
X0212791Y0177278D01*
X0213711Y0175801D02*
X0216978Y0175801D01*
X0217014Y0175763D02*
X0213780Y0175763D01*
X0213850Y0175725D02*
X0217047Y0175725D01*
X0217070Y0175687D02*
X0213920Y0175687D01*
X0214009Y0175649D02*
X0217092Y0175649D01*
X0217114Y0175611D02*
X0214134Y0175611D01*
X0214259Y0175573D02*
X0217137Y0175573D01*
X0217159Y0175536D02*
X0214385Y0175536D01*
X0214510Y0175498D02*
X0217181Y0175498D01*
X0217202Y0175460D02*
X0214635Y0175460D01*
X0214760Y0175422D02*
X0217214Y0175422D01*
X0217225Y0175384D02*
X0214888Y0175384D01*
X0215018Y0175346D02*
X0217237Y0175346D01*
X0217248Y0175308D02*
X0215148Y0175308D01*
X0215278Y0175270D02*
X0217260Y0175270D01*
X0217272Y0175232D02*
X0215407Y0175232D01*
X0215493Y0175195D02*
X0217283Y0175195D01*
X0217295Y0175157D02*
X0215575Y0175157D01*
X0215658Y0175119D02*
X0217299Y0175119D01*
X0217302Y0175081D02*
X0215741Y0175081D01*
X0215804Y0175043D02*
X0217305Y0175043D01*
X0217308Y0175005D02*
X0215841Y0175005D01*
X0215878Y0174967D02*
X0217311Y0174967D01*
X0217314Y0174929D02*
X0215915Y0174929D01*
X0215951Y0174892D02*
X0217318Y0174892D01*
X0217321Y0174854D02*
X0215972Y0174854D01*
X0215980Y0174816D02*
X0217324Y0174816D01*
X0217327Y0174778D02*
X0215989Y0174778D01*
X0215997Y0174740D02*
X0217326Y0174740D01*
X0217322Y0174702D02*
X0216005Y0174702D01*
X0216013Y0174664D02*
X0217318Y0174664D01*
X0217315Y0174626D02*
X0216017Y0174626D01*
X0216008Y0174588D02*
X0217311Y0174588D01*
X0217308Y0174551D02*
X0215999Y0174551D01*
X0215990Y0174513D02*
X0217304Y0174513D01*
X0217300Y0174475D02*
X0215980Y0174475D01*
X0215971Y0174437D02*
X0217297Y0174437D01*
X0217293Y0174399D02*
X0215962Y0174399D01*
X0215934Y0174361D02*
X0217289Y0174361D01*
X0217285Y0174323D02*
X0215897Y0174323D01*
X0215861Y0174285D02*
X0217273Y0174285D01*
X0217260Y0174248D02*
X0215825Y0174248D01*
X0215788Y0174210D02*
X0217248Y0174210D01*
X0217236Y0174172D02*
X0215698Y0174172D01*
X0215606Y0174134D02*
X0217223Y0174134D01*
X0217211Y0174096D02*
X0215514Y0174096D01*
X0215164Y0174058D02*
X0217199Y0174058D01*
X0218479Y0177846D02*
X0223065Y0177846D01*
X0223045Y0177884D02*
X0218479Y0177884D01*
X0218479Y0177922D02*
X0223024Y0177922D01*
X0223004Y0177960D02*
X0218479Y0177960D01*
X0218479Y0177998D02*
X0222983Y0177998D01*
X0222962Y0178036D02*
X0218479Y0178036D01*
X0218479Y0178074D02*
X0222942Y0178074D01*
X0222921Y0178111D02*
X0218479Y0178111D01*
X0218479Y0178149D02*
X0222898Y0178149D01*
X0222865Y0178187D02*
X0218479Y0178187D01*
X0218479Y0178225D02*
X0222832Y0178225D01*
X0222799Y0178263D02*
X0218479Y0178263D01*
X0218479Y0178301D02*
X0222765Y0178301D01*
X0222732Y0178339D02*
X0218479Y0178339D01*
X0218479Y0178377D02*
X0222699Y0178377D01*
X0222666Y0178414D02*
X0218479Y0178414D01*
X0218479Y0178452D02*
X0222629Y0178452D01*
X0222578Y0178490D02*
X0218479Y0178490D01*
X0218479Y0178528D02*
X0222527Y0178528D01*
X0222475Y0178566D02*
X0218479Y0178566D01*
X0218479Y0178604D02*
X0222424Y0178604D01*
X0222373Y0178642D02*
X0218479Y0178642D01*
X0218479Y0178680D02*
X0222322Y0178680D01*
X0222247Y0178718D02*
X0218479Y0178718D01*
X0218479Y0178755D02*
X0222165Y0178755D01*
X0222084Y0178793D02*
X0218479Y0178793D01*
X0218479Y0178831D02*
X0222002Y0178831D01*
X0221921Y0178869D02*
X0218479Y0178869D01*
X0218479Y0178907D02*
X0221772Y0178907D01*
X0221620Y0178945D02*
X0218479Y0178945D01*
X0218479Y0178983D02*
X0221468Y0178983D01*
X0220989Y0179021D02*
X0218479Y0179021D01*
X0225647Y0177505D02*
X0228194Y0177505D01*
X0228178Y0177543D02*
X0225663Y0177543D01*
X0225679Y0177581D02*
X0228162Y0177581D01*
X0228146Y0177619D02*
X0225695Y0177619D01*
X0225711Y0177657D02*
X0228130Y0177657D01*
X0228114Y0177695D02*
X0225727Y0177695D01*
X0225743Y0177733D02*
X0228097Y0177733D01*
X0228081Y0177771D02*
X0225760Y0177771D01*
X0225776Y0177808D02*
X0228065Y0177808D01*
X0228049Y0177846D02*
X0225792Y0177846D01*
X0225808Y0177884D02*
X0228033Y0177884D01*
X0228017Y0177922D02*
X0225824Y0177922D01*
X0225840Y0177960D02*
X0228001Y0177960D01*
X0227985Y0177998D02*
X0225856Y0177998D01*
X0225872Y0178036D02*
X0227968Y0178036D01*
X0227952Y0178074D02*
X0225889Y0178074D01*
X0225905Y0178111D02*
X0227936Y0178111D01*
X0227920Y0178149D02*
X0225921Y0178149D01*
X0225937Y0178187D02*
X0227904Y0178187D01*
X0227888Y0178225D02*
X0225953Y0178225D01*
X0225969Y0178263D02*
X0227872Y0178263D01*
X0227856Y0178301D02*
X0225985Y0178301D01*
X0226002Y0178339D02*
X0227840Y0178339D01*
X0227823Y0178377D02*
X0226018Y0178377D01*
X0226034Y0178414D02*
X0227807Y0178414D01*
X0227791Y0178452D02*
X0226050Y0178452D01*
X0226066Y0178490D02*
X0227775Y0178490D01*
X0227759Y0178528D02*
X0226082Y0178528D01*
X0226098Y0178566D02*
X0227743Y0178566D01*
X0227727Y0178604D02*
X0226114Y0178604D01*
X0226131Y0178642D02*
X0227711Y0178642D01*
X0227694Y0178680D02*
X0226147Y0178680D01*
X0226163Y0178718D02*
X0227678Y0178718D01*
X0227662Y0178755D02*
X0226179Y0178755D01*
X0226195Y0178793D02*
X0227646Y0178793D01*
X0227630Y0178831D02*
X0226211Y0178831D01*
X0226227Y0178869D02*
X0227614Y0178869D01*
X0227598Y0178907D02*
X0226243Y0178907D01*
X0226260Y0178945D02*
X0227582Y0178945D01*
X0227566Y0178983D02*
X0226276Y0178983D01*
X0226292Y0179021D02*
X0227549Y0179021D01*
X0227533Y0179058D02*
X0226308Y0179058D01*
X0231052Y0178983D02*
X0234309Y0178983D01*
X0234489Y0178945D02*
X0231052Y0178945D01*
X0231052Y0178907D02*
X0234662Y0178907D01*
X0234803Y0178869D02*
X0231052Y0178869D01*
X0231052Y0178831D02*
X0234893Y0178831D01*
X0234983Y0178793D02*
X0231052Y0178793D01*
X0231052Y0178755D02*
X0235072Y0178755D01*
X0235161Y0178718D02*
X0231052Y0178718D01*
X0231052Y0178680D02*
X0235215Y0178680D01*
X0235269Y0178642D02*
X0231052Y0178642D01*
X0231052Y0178604D02*
X0235323Y0178604D01*
X0235378Y0178566D02*
X0231052Y0178566D01*
X0231052Y0178528D02*
X0235432Y0178528D01*
X0235486Y0178490D02*
X0231052Y0178490D01*
X0231052Y0178452D02*
X0235521Y0178452D01*
X0235556Y0178414D02*
X0231052Y0178414D01*
X0231052Y0178377D02*
X0235590Y0178377D01*
X0235624Y0178339D02*
X0231052Y0178339D01*
X0231052Y0178301D02*
X0235659Y0178301D01*
X0235693Y0178263D02*
X0231052Y0178263D01*
X0231052Y0178225D02*
X0235727Y0178225D01*
X0235758Y0178187D02*
X0231052Y0178187D01*
X0231052Y0178149D02*
X0235778Y0178149D01*
X0235799Y0178111D02*
X0231052Y0178111D01*
X0231052Y0178074D02*
X0235820Y0178074D01*
X0235841Y0178036D02*
X0231052Y0178036D01*
X0231052Y0177998D02*
X0235861Y0177998D01*
X0235882Y0177960D02*
X0231052Y0177960D01*
X0231052Y0177922D02*
X0235903Y0177922D01*
X0235924Y0177884D02*
X0231052Y0177884D01*
X0237289Y0177884D02*
X0238616Y0177884D01*
X0238616Y0177846D02*
X0237289Y0177846D01*
X0237289Y0177808D02*
X0238616Y0177808D01*
X0238616Y0177771D02*
X0237289Y0177771D01*
X0237289Y0177733D02*
X0238616Y0177733D01*
X0238616Y0177695D02*
X0237289Y0177695D01*
X0237289Y0177657D02*
X0238616Y0177657D01*
X0238616Y0177619D02*
X0237289Y0177619D01*
X0237289Y0177581D02*
X0238616Y0177581D01*
X0238616Y0177543D02*
X0237289Y0177543D01*
X0237289Y0177505D02*
X0238616Y0177505D01*
X0238616Y0177467D02*
X0237289Y0177467D01*
X0237289Y0177430D02*
X0238616Y0177430D01*
X0238616Y0177392D02*
X0237289Y0177392D01*
X0237289Y0177354D02*
X0238616Y0177354D01*
X0238616Y0177316D02*
X0237289Y0177316D01*
X0237289Y0177278D02*
X0238616Y0177278D01*
X0238616Y0177240D02*
X0237289Y0177240D01*
X0237289Y0177202D02*
X0238616Y0177202D01*
X0238616Y0177164D02*
X0237289Y0177164D01*
X0237289Y0177127D02*
X0238616Y0177127D01*
X0238616Y0177089D02*
X0237289Y0177089D01*
X0237289Y0177051D02*
X0238616Y0177051D01*
X0238616Y0177013D02*
X0237289Y0177013D01*
X0237289Y0176975D02*
X0238616Y0176975D01*
X0238616Y0176937D02*
X0237289Y0176937D01*
X0237289Y0176899D02*
X0238616Y0176899D01*
X0238616Y0176861D02*
X0237289Y0176861D01*
X0237289Y0176823D02*
X0238616Y0176823D01*
X0238616Y0176786D02*
X0237289Y0176786D01*
X0237289Y0176748D02*
X0238616Y0176748D01*
X0238616Y0176710D02*
X0237289Y0176710D01*
X0237289Y0176672D02*
X0238616Y0176672D01*
X0238616Y0176634D02*
X0237289Y0176634D01*
X0237289Y0176596D02*
X0238616Y0176596D01*
X0238616Y0176558D02*
X0237289Y0176558D01*
X0237289Y0176520D02*
X0238616Y0176520D01*
X0238616Y0176483D02*
X0237289Y0176483D01*
X0237289Y0176445D02*
X0238616Y0176445D01*
X0238616Y0176407D02*
X0237289Y0176407D01*
X0237289Y0176369D02*
X0240272Y0176369D01*
X0240244Y0176407D02*
X0238643Y0176407D01*
X0238678Y0176445D02*
X0240216Y0176445D01*
X0240236Y0176483D02*
X0238713Y0176483D01*
X0238748Y0176520D02*
X0240272Y0176520D01*
X0240309Y0176558D02*
X0238783Y0176558D01*
X0238819Y0176596D02*
X0240345Y0176596D01*
X0240381Y0176634D02*
X0238854Y0176634D01*
X0238889Y0176672D02*
X0240418Y0176672D01*
X0240454Y0176710D02*
X0238924Y0176710D01*
X0238959Y0176748D02*
X0240490Y0176748D01*
X0240527Y0176786D02*
X0238994Y0176786D01*
X0239030Y0176823D02*
X0240563Y0176823D01*
X0240599Y0176861D02*
X0239065Y0176861D01*
X0239100Y0176899D02*
X0240636Y0176899D01*
X0240672Y0176937D02*
X0239135Y0176937D01*
X0239170Y0176975D02*
X0240709Y0176975D01*
X0240745Y0177013D02*
X0239205Y0177013D01*
X0239241Y0177051D02*
X0240781Y0177051D01*
X0240818Y0177089D02*
X0239276Y0177089D01*
X0239311Y0177127D02*
X0240854Y0177127D01*
X0240890Y0177164D02*
X0239346Y0177164D01*
X0239381Y0177202D02*
X0240927Y0177202D01*
X0240963Y0177240D02*
X0239416Y0177240D01*
X0239452Y0177278D02*
X0240999Y0177278D01*
X0241036Y0177316D02*
X0239487Y0177316D01*
X0239522Y0177354D02*
X0241072Y0177354D01*
X0241108Y0177392D02*
X0239557Y0177392D01*
X0239592Y0177430D02*
X0241145Y0177430D01*
X0241181Y0177467D02*
X0239627Y0177467D01*
X0239663Y0177505D02*
X0241217Y0177505D01*
X0241254Y0177543D02*
X0239698Y0177543D01*
X0239733Y0177581D02*
X0241290Y0177581D01*
X0241326Y0177619D02*
X0239768Y0177619D01*
X0239803Y0177657D02*
X0241363Y0177657D01*
X0241399Y0177695D02*
X0239838Y0177695D01*
X0239874Y0177733D02*
X0241436Y0177733D01*
X0241472Y0177771D02*
X0239909Y0177771D01*
X0239944Y0177808D02*
X0241508Y0177808D01*
X0241545Y0177846D02*
X0239979Y0177846D01*
X0240014Y0177884D02*
X0241581Y0177884D01*
X0241617Y0177922D02*
X0240049Y0177922D01*
X0240085Y0177960D02*
X0241654Y0177960D01*
X0241690Y0177998D02*
X0240120Y0177998D01*
X0240155Y0178036D02*
X0241726Y0178036D01*
X0241763Y0178074D02*
X0240190Y0178074D01*
X0240225Y0178111D02*
X0241799Y0178111D01*
X0241835Y0178149D02*
X0240260Y0178149D01*
X0240296Y0178187D02*
X0241872Y0178187D01*
X0241908Y0178225D02*
X0240331Y0178225D01*
X0240366Y0178263D02*
X0241944Y0178263D01*
X0241981Y0178301D02*
X0240401Y0178301D01*
X0240436Y0178339D02*
X0242017Y0178339D01*
X0242053Y0178377D02*
X0240471Y0178377D01*
X0240507Y0178414D02*
X0242090Y0178414D01*
X0242126Y0178452D02*
X0240542Y0178452D01*
X0240577Y0178490D02*
X0242163Y0178490D01*
X0242199Y0178528D02*
X0240612Y0178528D01*
X0240647Y0178566D02*
X0242235Y0178566D01*
X0242272Y0178604D02*
X0240682Y0178604D01*
X0240718Y0178642D02*
X0242308Y0178642D01*
X0242344Y0178680D02*
X0240753Y0178680D01*
X0240788Y0178718D02*
X0242381Y0178718D01*
X0242417Y0178755D02*
X0240823Y0178755D01*
X0240858Y0178793D02*
X0242453Y0178793D01*
X0242490Y0178831D02*
X0240893Y0178831D01*
X0240929Y0178869D02*
X0242526Y0178869D01*
X0242562Y0178907D02*
X0240964Y0178907D01*
X0240999Y0178945D02*
X0242599Y0178945D01*
X0242635Y0178983D02*
X0241034Y0178983D01*
X0238616Y0178983D02*
X0237289Y0178983D01*
X0237289Y0178945D02*
X0238616Y0178945D01*
X0238616Y0178907D02*
X0237289Y0178907D01*
X0237289Y0178869D02*
X0238616Y0178869D01*
X0238616Y0178831D02*
X0237289Y0178831D01*
X0237289Y0178793D02*
X0238616Y0178793D01*
X0238616Y0178755D02*
X0237289Y0178755D01*
X0237289Y0178718D02*
X0238616Y0178718D01*
X0238616Y0178680D02*
X0237289Y0178680D01*
X0237289Y0178642D02*
X0238616Y0178642D01*
X0238616Y0178604D02*
X0237289Y0178604D01*
X0237289Y0178566D02*
X0238616Y0178566D01*
X0238616Y0178528D02*
X0237289Y0178528D01*
X0237289Y0178490D02*
X0238616Y0178490D01*
X0238616Y0178452D02*
X0237289Y0178452D01*
X0237289Y0178414D02*
X0238616Y0178414D01*
X0238616Y0178377D02*
X0237289Y0178377D01*
X0237289Y0178339D02*
X0238616Y0178339D01*
X0238616Y0178301D02*
X0237289Y0178301D01*
X0237289Y0178263D02*
X0238616Y0178263D01*
X0238616Y0178225D02*
X0237289Y0178225D01*
X0237289Y0178187D02*
X0238616Y0178187D01*
X0238616Y0178149D02*
X0237289Y0178149D01*
X0237289Y0178111D02*
X0238616Y0178111D01*
X0238616Y0178074D02*
X0237289Y0178074D01*
X0237289Y0178036D02*
X0238616Y0178036D01*
X0238616Y0177998D02*
X0237289Y0177998D01*
X0237289Y0177960D02*
X0238616Y0177960D01*
X0238616Y0177922D02*
X0237289Y0177922D01*
X0237289Y0176331D02*
X0240300Y0176331D01*
X0240328Y0176293D02*
X0237289Y0176293D01*
X0237289Y0176255D02*
X0240356Y0176255D01*
X0240385Y0176217D02*
X0237289Y0176217D01*
X0237289Y0176179D02*
X0240413Y0176179D01*
X0240441Y0176142D02*
X0237289Y0176142D01*
X0237289Y0176104D02*
X0240469Y0176104D01*
X0240497Y0176066D02*
X0237289Y0176066D01*
X0237289Y0176028D02*
X0240525Y0176028D01*
X0240553Y0175990D02*
X0237289Y0175990D01*
X0237289Y0175952D02*
X0240581Y0175952D01*
X0240609Y0175914D02*
X0237289Y0175914D01*
X0237289Y0175876D02*
X0240637Y0175876D01*
X0240665Y0175839D02*
X0237289Y0175839D01*
X0237289Y0175801D02*
X0240693Y0175801D01*
X0240721Y0175763D02*
X0237289Y0175763D01*
X0237289Y0175725D02*
X0240749Y0175725D01*
X0240777Y0175687D02*
X0237289Y0175687D01*
X0237289Y0175649D02*
X0240805Y0175649D01*
X0240833Y0175611D02*
X0237289Y0175611D01*
D15*
X0090333Y0279671D02*
X0089793Y0280391D01*
X0089794Y0280390D02*
X0090027Y0280571D01*
X0090255Y0280757D01*
X0090479Y0280949D01*
X0090698Y0281146D01*
X0090912Y0281348D01*
X0091121Y0281556D01*
X0091324Y0281769D01*
X0091523Y0281986D01*
X0091716Y0282209D01*
X0091904Y0282436D01*
X0092086Y0282667D01*
X0092263Y0282903D01*
X0092433Y0283144D01*
X0092598Y0283388D01*
X0092756Y0283636D01*
X0092909Y0283888D01*
X0093055Y0284144D01*
X0093195Y0284403D01*
X0093329Y0284666D01*
X0093456Y0284931D01*
X0093577Y0285200D01*
X0093691Y0285472D01*
X0093798Y0285746D01*
X0093899Y0286023D01*
X0093993Y0286302D01*
X0094080Y0286584D01*
X0094160Y0286867D01*
X0094233Y0287153D01*
X0094299Y0287440D01*
X0094358Y0287729D01*
X0094410Y0288019D01*
X0094455Y0288310D01*
X0094493Y0288602D01*
X0094523Y0288895D01*
X0094547Y0289189D01*
X0094563Y0289483D01*
X0094572Y0289777D01*
X0094574Y0290072D01*
X0094568Y0290367D01*
X0094556Y0290661D01*
X0094536Y0290955D01*
X0094509Y0291248D01*
X0094475Y0291541D01*
X0094434Y0291833D01*
X0094385Y0292123D01*
X0094330Y0292413D01*
X0094268Y0292700D01*
X0094198Y0292987D01*
X0094121Y0293271D01*
X0094038Y0293554D01*
X0093948Y0293834D01*
X0093851Y0294112D01*
X0093747Y0294388D01*
X0093636Y0294661D01*
X0093519Y0294931D01*
X0093395Y0295199D01*
X0093265Y0295463D01*
X0093128Y0295724D01*
X0092985Y0295981D01*
X0092835Y0296235D01*
X0092680Y0296486D01*
X0092518Y0296732D01*
X0092351Y0296974D01*
X0092177Y0297212D01*
X0091998Y0297446D01*
X0091813Y0297676D01*
X0091623Y0297900D01*
X0091427Y0298121D01*
X0091226Y0298336D01*
X0091019Y0298546D01*
X0090808Y0298751D01*
X0090591Y0298951D01*
X0090370Y0299146D01*
X0090144Y0299335D01*
X0089914Y0299518D01*
X0089679Y0299696D01*
X0089439Y0299868D01*
X0089196Y0300034D01*
X0088949Y0300194D01*
X0088698Y0300348D01*
X0088443Y0300496D01*
X0088184Y0300638D01*
X0087923Y0300773D01*
X0087658Y0300902D01*
X0087390Y0301024D01*
X0087119Y0301140D01*
X0086845Y0301249D01*
X0086569Y0301351D01*
X0086290Y0301446D01*
X0086009Y0301535D01*
X0085726Y0301617D01*
X0085441Y0301692D01*
X0085154Y0301759D01*
X0084866Y0301820D01*
X0084576Y0301874D01*
X0084285Y0301921D01*
X0083993Y0301960D01*
X0083701Y0301992D01*
X0083407Y0302018D01*
X0083113Y0302036D01*
X0082819Y0302046D01*
X0082524Y0302050D01*
X0082229Y0302046D01*
X0081935Y0302036D01*
X0081641Y0302018D01*
X0081347Y0301992D01*
X0081055Y0301960D01*
X0080763Y0301921D01*
X0080472Y0301874D01*
X0080182Y0301820D01*
X0079894Y0301759D01*
X0079607Y0301692D01*
X0079322Y0301617D01*
X0079039Y0301535D01*
X0078758Y0301446D01*
X0078479Y0301351D01*
X0078203Y0301249D01*
X0077929Y0301140D01*
X0077658Y0301024D01*
X0077390Y0300902D01*
X0077125Y0300773D01*
X0076864Y0300638D01*
X0076605Y0300496D01*
X0076350Y0300348D01*
X0076099Y0300194D01*
X0075852Y0300034D01*
X0075609Y0299868D01*
X0075369Y0299696D01*
X0075134Y0299518D01*
X0074904Y0299335D01*
X0074678Y0299146D01*
X0074457Y0298951D01*
X0074240Y0298751D01*
X0074029Y0298546D01*
X0073822Y0298336D01*
X0073621Y0298121D01*
X0073425Y0297900D01*
X0073235Y0297676D01*
X0073050Y0297446D01*
X0072871Y0297212D01*
X0072697Y0296974D01*
X0072530Y0296732D01*
X0072368Y0296486D01*
X0072213Y0296235D01*
X0072063Y0295981D01*
X0071920Y0295724D01*
X0071783Y0295463D01*
X0071653Y0295199D01*
X0071529Y0294931D01*
X0071412Y0294661D01*
X0071301Y0294388D01*
X0071197Y0294112D01*
X0071100Y0293834D01*
X0071010Y0293554D01*
X0070927Y0293271D01*
X0070850Y0292987D01*
X0070780Y0292700D01*
X0070718Y0292413D01*
X0070663Y0292123D01*
X0070614Y0291833D01*
X0070573Y0291541D01*
X0070539Y0291248D01*
X0070512Y0290955D01*
X0070492Y0290661D01*
X0070480Y0290367D01*
X0070474Y0290072D01*
X0070476Y0289777D01*
X0070485Y0289483D01*
X0070501Y0289189D01*
X0070525Y0288895D01*
X0070555Y0288602D01*
X0070593Y0288310D01*
X0070638Y0288019D01*
X0070690Y0287729D01*
X0070749Y0287440D01*
X0070815Y0287153D01*
X0070888Y0286867D01*
X0070968Y0286584D01*
X0071055Y0286302D01*
X0071149Y0286023D01*
X0071250Y0285746D01*
X0071357Y0285472D01*
X0071471Y0285200D01*
X0071592Y0284931D01*
X0071719Y0284666D01*
X0071853Y0284403D01*
X0071993Y0284144D01*
X0072139Y0283888D01*
X0072292Y0283636D01*
X0072450Y0283388D01*
X0072615Y0283144D01*
X0072785Y0282903D01*
X0072962Y0282667D01*
X0073144Y0282436D01*
X0073332Y0282209D01*
X0073525Y0281986D01*
X0073724Y0281769D01*
X0073927Y0281556D01*
X0074136Y0281348D01*
X0074350Y0281146D01*
X0074569Y0280949D01*
X0074793Y0280757D01*
X0075021Y0280571D01*
X0075254Y0280390D01*
X0074715Y0279671D01*
X0074714Y0279670D01*
X0074464Y0279864D01*
X0074218Y0280064D01*
X0073978Y0280270D01*
X0073743Y0280482D01*
X0073513Y0280700D01*
X0073288Y0280923D01*
X0073069Y0281151D01*
X0072855Y0281385D01*
X0072647Y0281624D01*
X0072445Y0281868D01*
X0072250Y0282117D01*
X0072060Y0282371D01*
X0071877Y0282629D01*
X0071700Y0282891D01*
X0071529Y0283158D01*
X0071365Y0283429D01*
X0071208Y0283704D01*
X0071057Y0283982D01*
X0070913Y0284265D01*
X0070777Y0284550D01*
X0070647Y0284839D01*
X0070524Y0285131D01*
X0070409Y0285426D01*
X0070301Y0285723D01*
X0070200Y0286024D01*
X0070106Y0286326D01*
X0070020Y0286631D01*
X0069941Y0286938D01*
X0069870Y0287246D01*
X0069807Y0287556D01*
X0069751Y0287868D01*
X0069702Y0288181D01*
X0069662Y0288495D01*
X0069629Y0288810D01*
X0069604Y0289126D01*
X0069586Y0289442D01*
X0069576Y0289758D01*
X0069574Y0290075D01*
X0069580Y0290392D01*
X0069593Y0290708D01*
X0069615Y0291024D01*
X0069643Y0291339D01*
X0069680Y0291654D01*
X0069724Y0291967D01*
X0069776Y0292280D01*
X0069836Y0292591D01*
X0069903Y0292900D01*
X0069978Y0293208D01*
X0070060Y0293514D01*
X0070149Y0293817D01*
X0070246Y0294119D01*
X0070351Y0294418D01*
X0070463Y0294714D01*
X0070581Y0295008D01*
X0070707Y0295298D01*
X0070840Y0295585D01*
X0070981Y0295870D01*
X0071128Y0296150D01*
X0071281Y0296427D01*
X0071442Y0296700D01*
X0071609Y0296969D01*
X0071783Y0297234D01*
X0071963Y0297494D01*
X0072149Y0297750D01*
X0072342Y0298001D01*
X0072540Y0298248D01*
X0072745Y0298490D01*
X0072955Y0298726D01*
X0073172Y0298958D01*
X0073394Y0299183D01*
X0073621Y0299404D01*
X0073853Y0299619D01*
X0074091Y0299828D01*
X0074334Y0300031D01*
X0074582Y0300229D01*
X0074834Y0300420D01*
X0075091Y0300605D01*
X0075353Y0300783D01*
X0075619Y0300955D01*
X0075888Y0301121D01*
X0076162Y0301280D01*
X0076440Y0301432D01*
X0076721Y0301577D01*
X0077006Y0301716D01*
X0077294Y0301847D01*
X0077586Y0301971D01*
X0077880Y0302089D01*
X0078177Y0302199D01*
X0078476Y0302301D01*
X0078778Y0302396D01*
X0079082Y0302484D01*
X0079389Y0302565D01*
X0079697Y0302638D01*
X0080007Y0302703D01*
X0080318Y0302761D01*
X0080631Y0302811D01*
X0080945Y0302853D01*
X0081259Y0302888D01*
X0081575Y0302915D01*
X0081891Y0302935D01*
X0082207Y0302946D01*
X0082524Y0302950D01*
X0082841Y0302946D01*
X0083157Y0302935D01*
X0083473Y0302915D01*
X0083789Y0302888D01*
X0084103Y0302853D01*
X0084417Y0302811D01*
X0084730Y0302761D01*
X0085041Y0302703D01*
X0085351Y0302638D01*
X0085659Y0302565D01*
X0085966Y0302484D01*
X0086270Y0302396D01*
X0086572Y0302301D01*
X0086871Y0302199D01*
X0087168Y0302089D01*
X0087462Y0301971D01*
X0087754Y0301847D01*
X0088042Y0301716D01*
X0088327Y0301577D01*
X0088608Y0301432D01*
X0088886Y0301280D01*
X0089160Y0301121D01*
X0089429Y0300955D01*
X0089695Y0300783D01*
X0089957Y0300605D01*
X0090214Y0300420D01*
X0090466Y0300229D01*
X0090714Y0300031D01*
X0090957Y0299828D01*
X0091195Y0299619D01*
X0091427Y0299404D01*
X0091654Y0299183D01*
X0091876Y0298958D01*
X0092093Y0298726D01*
X0092303Y0298490D01*
X0092508Y0298248D01*
X0092706Y0298001D01*
X0092899Y0297750D01*
X0093085Y0297494D01*
X0093265Y0297234D01*
X0093439Y0296969D01*
X0093606Y0296700D01*
X0093767Y0296427D01*
X0093920Y0296150D01*
X0094067Y0295870D01*
X0094208Y0295585D01*
X0094341Y0295298D01*
X0094467Y0295008D01*
X0094585Y0294714D01*
X0094697Y0294418D01*
X0094802Y0294119D01*
X0094899Y0293817D01*
X0094988Y0293514D01*
X0095070Y0293208D01*
X0095145Y0292900D01*
X0095212Y0292591D01*
X0095272Y0292280D01*
X0095324Y0291967D01*
X0095368Y0291654D01*
X0095405Y0291339D01*
X0095433Y0291024D01*
X0095455Y0290708D01*
X0095468Y0290392D01*
X0095474Y0290075D01*
X0095472Y0289758D01*
X0095462Y0289442D01*
X0095444Y0289126D01*
X0095419Y0288810D01*
X0095386Y0288495D01*
X0095346Y0288181D01*
X0095297Y0287868D01*
X0095241Y0287556D01*
X0095178Y0287246D01*
X0095107Y0286938D01*
X0095028Y0286631D01*
X0094942Y0286326D01*
X0094848Y0286024D01*
X0094747Y0285723D01*
X0094639Y0285426D01*
X0094524Y0285131D01*
X0094401Y0284839D01*
X0094271Y0284550D01*
X0094135Y0284265D01*
X0093991Y0283982D01*
X0093840Y0283704D01*
X0093683Y0283429D01*
X0093519Y0283158D01*
X0093348Y0282891D01*
X0093171Y0282629D01*
X0092988Y0282371D01*
X0092798Y0282117D01*
X0092603Y0281868D01*
X0092401Y0281624D01*
X0092193Y0281385D01*
X0091979Y0281151D01*
X0091760Y0280923D01*
X0091535Y0280700D01*
X0091305Y0280482D01*
X0091070Y0280270D01*
X0090830Y0280064D01*
X0090584Y0279864D01*
X0090334Y0279670D01*
X0090278Y0279745D01*
X0090526Y0279938D01*
X0090770Y0280137D01*
X0091008Y0280341D01*
X0091242Y0280551D01*
X0091470Y0280767D01*
X0091693Y0280989D01*
X0091911Y0281216D01*
X0092123Y0281448D01*
X0092329Y0281685D01*
X0092530Y0281927D01*
X0092724Y0282175D01*
X0092912Y0282426D01*
X0093094Y0282683D01*
X0093270Y0282943D01*
X0093439Y0283208D01*
X0093602Y0283477D01*
X0093758Y0283750D01*
X0093908Y0284026D01*
X0094050Y0284306D01*
X0094186Y0284590D01*
X0094315Y0284877D01*
X0094437Y0285167D01*
X0094551Y0285459D01*
X0094659Y0285755D01*
X0094759Y0286053D01*
X0094852Y0286353D01*
X0094937Y0286656D01*
X0095015Y0286960D01*
X0095086Y0287266D01*
X0095149Y0287574D01*
X0095205Y0287884D01*
X0095253Y0288194D01*
X0095293Y0288506D01*
X0095326Y0288819D01*
X0095351Y0289132D01*
X0095368Y0289446D01*
X0095378Y0289760D01*
X0095380Y0290075D01*
X0095374Y0290389D01*
X0095361Y0290703D01*
X0095340Y0291017D01*
X0095311Y0291330D01*
X0095275Y0291642D01*
X0095231Y0291953D01*
X0095179Y0292263D01*
X0095120Y0292572D01*
X0095053Y0292879D01*
X0094979Y0293185D01*
X0094898Y0293488D01*
X0094809Y0293790D01*
X0094712Y0294089D01*
X0094609Y0294386D01*
X0094498Y0294680D01*
X0094380Y0294971D01*
X0094255Y0295260D01*
X0094123Y0295545D01*
X0093984Y0295827D01*
X0093838Y0296105D01*
X0093685Y0296380D01*
X0093526Y0296651D01*
X0093360Y0296918D01*
X0093187Y0297181D01*
X0093009Y0297440D01*
X0092824Y0297694D01*
X0092632Y0297943D01*
X0092435Y0298188D01*
X0092232Y0298428D01*
X0092023Y0298663D01*
X0091808Y0298893D01*
X0091588Y0299117D01*
X0091363Y0299336D01*
X0091132Y0299549D01*
X0090896Y0299757D01*
X0090654Y0299959D01*
X0090409Y0300154D01*
X0090158Y0300344D01*
X0089903Y0300528D01*
X0089643Y0300705D01*
X0089379Y0300876D01*
X0089111Y0301040D01*
X0088839Y0301198D01*
X0088564Y0301349D01*
X0088284Y0301493D01*
X0088002Y0301631D01*
X0087716Y0301761D01*
X0087427Y0301885D01*
X0087134Y0302001D01*
X0086840Y0302110D01*
X0086542Y0302212D01*
X0086243Y0302306D01*
X0085940Y0302394D01*
X0085636Y0302474D01*
X0085331Y0302546D01*
X0085023Y0302611D01*
X0084714Y0302668D01*
X0084403Y0302718D01*
X0084092Y0302760D01*
X0083779Y0302795D01*
X0083466Y0302821D01*
X0083152Y0302841D01*
X0082838Y0302852D01*
X0082524Y0302856D01*
X0082210Y0302852D01*
X0081896Y0302841D01*
X0081582Y0302821D01*
X0081269Y0302795D01*
X0080956Y0302760D01*
X0080645Y0302718D01*
X0080334Y0302668D01*
X0080025Y0302611D01*
X0079717Y0302546D01*
X0079412Y0302474D01*
X0079108Y0302394D01*
X0078805Y0302306D01*
X0078506Y0302212D01*
X0078208Y0302110D01*
X0077914Y0302001D01*
X0077621Y0301885D01*
X0077332Y0301761D01*
X0077046Y0301631D01*
X0076764Y0301493D01*
X0076484Y0301349D01*
X0076209Y0301198D01*
X0075937Y0301040D01*
X0075669Y0300876D01*
X0075405Y0300705D01*
X0075145Y0300528D01*
X0074890Y0300344D01*
X0074639Y0300154D01*
X0074394Y0299959D01*
X0074152Y0299757D01*
X0073916Y0299549D01*
X0073685Y0299336D01*
X0073460Y0299117D01*
X0073240Y0298893D01*
X0073025Y0298663D01*
X0072816Y0298428D01*
X0072613Y0298188D01*
X0072416Y0297943D01*
X0072224Y0297694D01*
X0072039Y0297440D01*
X0071861Y0297181D01*
X0071688Y0296918D01*
X0071522Y0296651D01*
X0071363Y0296380D01*
X0071210Y0296105D01*
X0071064Y0295827D01*
X0070925Y0295545D01*
X0070793Y0295260D01*
X0070668Y0294971D01*
X0070550Y0294680D01*
X0070439Y0294386D01*
X0070336Y0294089D01*
X0070239Y0293790D01*
X0070150Y0293488D01*
X0070069Y0293185D01*
X0069995Y0292879D01*
X0069928Y0292572D01*
X0069869Y0292263D01*
X0069817Y0291953D01*
X0069773Y0291642D01*
X0069737Y0291330D01*
X0069708Y0291017D01*
X0069687Y0290703D01*
X0069674Y0290389D01*
X0069668Y0290075D01*
X0069670Y0289760D01*
X0069680Y0289446D01*
X0069697Y0289132D01*
X0069722Y0288819D01*
X0069755Y0288506D01*
X0069795Y0288194D01*
X0069843Y0287884D01*
X0069899Y0287574D01*
X0069962Y0287266D01*
X0070033Y0286960D01*
X0070111Y0286656D01*
X0070196Y0286353D01*
X0070289Y0286053D01*
X0070389Y0285755D01*
X0070497Y0285459D01*
X0070611Y0285167D01*
X0070733Y0284877D01*
X0070862Y0284590D01*
X0070998Y0284306D01*
X0071140Y0284026D01*
X0071290Y0283750D01*
X0071446Y0283477D01*
X0071609Y0283208D01*
X0071778Y0282943D01*
X0071954Y0282683D01*
X0072136Y0282426D01*
X0072324Y0282175D01*
X0072518Y0281927D01*
X0072719Y0281685D01*
X0072925Y0281448D01*
X0073137Y0281216D01*
X0073355Y0280989D01*
X0073578Y0280767D01*
X0073806Y0280551D01*
X0074040Y0280341D01*
X0074278Y0280137D01*
X0074522Y0279938D01*
X0074770Y0279745D01*
X0074827Y0279820D01*
X0074580Y0280012D01*
X0074338Y0280209D01*
X0074101Y0280412D01*
X0073870Y0280621D01*
X0073643Y0280835D01*
X0073421Y0281055D01*
X0073205Y0281280D01*
X0072995Y0281511D01*
X0072790Y0281746D01*
X0072591Y0281987D01*
X0072398Y0282232D01*
X0072212Y0282482D01*
X0072031Y0282736D01*
X0071856Y0282995D01*
X0071688Y0283258D01*
X0071527Y0283525D01*
X0071372Y0283796D01*
X0071223Y0284070D01*
X0071082Y0284348D01*
X0070947Y0284630D01*
X0070819Y0284914D01*
X0070698Y0285202D01*
X0070584Y0285493D01*
X0070478Y0285786D01*
X0070378Y0286082D01*
X0070286Y0286380D01*
X0070201Y0286680D01*
X0070124Y0286983D01*
X0070054Y0287287D01*
X0069991Y0287592D01*
X0069936Y0287899D01*
X0069888Y0288208D01*
X0069848Y0288517D01*
X0069816Y0288828D01*
X0069791Y0289139D01*
X0069774Y0289450D01*
X0069764Y0289762D01*
X0069762Y0290074D01*
X0069768Y0290386D01*
X0069781Y0290698D01*
X0069802Y0291009D01*
X0069830Y0291320D01*
X0069867Y0291630D01*
X0069910Y0291939D01*
X0069961Y0292247D01*
X0070020Y0292554D01*
X0070086Y0292858D01*
X0070160Y0293162D01*
X0070241Y0293463D01*
X0070329Y0293762D01*
X0070425Y0294059D01*
X0070528Y0294354D01*
X0070638Y0294646D01*
X0070755Y0294935D01*
X0070879Y0295222D01*
X0071010Y0295505D01*
X0071148Y0295785D01*
X0071293Y0296061D01*
X0071445Y0296334D01*
X0071603Y0296603D01*
X0071768Y0296868D01*
X0071939Y0297129D01*
X0072116Y0297385D01*
X0072300Y0297638D01*
X0072490Y0297885D01*
X0072685Y0298128D01*
X0072887Y0298367D01*
X0073095Y0298600D01*
X0073308Y0298828D01*
X0073526Y0299050D01*
X0073750Y0299268D01*
X0073979Y0299479D01*
X0074214Y0299685D01*
X0074453Y0299886D01*
X0074697Y0300080D01*
X0074946Y0300268D01*
X0075199Y0300451D01*
X0075457Y0300627D01*
X0075719Y0300796D01*
X0075985Y0300959D01*
X0076255Y0301116D01*
X0076529Y0301266D01*
X0076806Y0301409D01*
X0077086Y0301546D01*
X0077370Y0301675D01*
X0077657Y0301798D01*
X0077947Y0301913D01*
X0078240Y0302021D01*
X0078535Y0302123D01*
X0078833Y0302217D01*
X0079133Y0302303D01*
X0079434Y0302382D01*
X0079738Y0302454D01*
X0080043Y0302519D01*
X0080350Y0302576D01*
X0080658Y0302625D01*
X0080968Y0302667D01*
X0081278Y0302701D01*
X0081589Y0302728D01*
X0081900Y0302747D01*
X0082212Y0302758D01*
X0082524Y0302762D01*
X0082836Y0302758D01*
X0083148Y0302747D01*
X0083459Y0302728D01*
X0083770Y0302701D01*
X0084080Y0302667D01*
X0084390Y0302625D01*
X0084698Y0302576D01*
X0085005Y0302519D01*
X0085310Y0302454D01*
X0085614Y0302382D01*
X0085915Y0302303D01*
X0086215Y0302217D01*
X0086513Y0302123D01*
X0086808Y0302021D01*
X0087101Y0301913D01*
X0087391Y0301798D01*
X0087678Y0301675D01*
X0087962Y0301546D01*
X0088242Y0301409D01*
X0088519Y0301266D01*
X0088793Y0301116D01*
X0089063Y0300959D01*
X0089329Y0300796D01*
X0089591Y0300627D01*
X0089849Y0300451D01*
X0090102Y0300268D01*
X0090351Y0300080D01*
X0090595Y0299886D01*
X0090834Y0299685D01*
X0091069Y0299479D01*
X0091298Y0299268D01*
X0091522Y0299050D01*
X0091740Y0298828D01*
X0091953Y0298600D01*
X0092161Y0298367D01*
X0092363Y0298128D01*
X0092558Y0297885D01*
X0092748Y0297638D01*
X0092932Y0297385D01*
X0093109Y0297129D01*
X0093280Y0296868D01*
X0093445Y0296603D01*
X0093603Y0296334D01*
X0093755Y0296061D01*
X0093900Y0295785D01*
X0094038Y0295505D01*
X0094169Y0295222D01*
X0094293Y0294935D01*
X0094410Y0294646D01*
X0094520Y0294354D01*
X0094623Y0294059D01*
X0094719Y0293762D01*
X0094807Y0293463D01*
X0094888Y0293162D01*
X0094962Y0292858D01*
X0095028Y0292554D01*
X0095087Y0292247D01*
X0095138Y0291939D01*
X0095181Y0291630D01*
X0095218Y0291320D01*
X0095246Y0291009D01*
X0095267Y0290698D01*
X0095280Y0290386D01*
X0095286Y0290074D01*
X0095284Y0289762D01*
X0095274Y0289450D01*
X0095257Y0289139D01*
X0095232Y0288828D01*
X0095200Y0288517D01*
X0095160Y0288208D01*
X0095112Y0287899D01*
X0095057Y0287592D01*
X0094994Y0287287D01*
X0094924Y0286983D01*
X0094847Y0286680D01*
X0094762Y0286380D01*
X0094670Y0286082D01*
X0094570Y0285786D01*
X0094464Y0285493D01*
X0094350Y0285202D01*
X0094229Y0284914D01*
X0094101Y0284630D01*
X0093966Y0284348D01*
X0093825Y0284070D01*
X0093676Y0283796D01*
X0093521Y0283525D01*
X0093360Y0283258D01*
X0093192Y0282995D01*
X0093017Y0282736D01*
X0092836Y0282482D01*
X0092650Y0282232D01*
X0092457Y0281987D01*
X0092258Y0281746D01*
X0092053Y0281511D01*
X0091843Y0281280D01*
X0091627Y0281055D01*
X0091405Y0280835D01*
X0091178Y0280621D01*
X0090947Y0280412D01*
X0090710Y0280209D01*
X0090468Y0280012D01*
X0090221Y0279820D01*
X0090165Y0279896D01*
X0090410Y0280086D01*
X0090650Y0280281D01*
X0090885Y0280483D01*
X0091115Y0280690D01*
X0091340Y0280903D01*
X0091560Y0281121D01*
X0091774Y0281345D01*
X0091983Y0281574D01*
X0092186Y0281807D01*
X0092384Y0282046D01*
X0092575Y0282289D01*
X0092761Y0282538D01*
X0092940Y0282790D01*
X0093113Y0283047D01*
X0093280Y0283308D01*
X0093441Y0283573D01*
X0093594Y0283842D01*
X0093742Y0284114D01*
X0093882Y0284390D01*
X0094016Y0284670D01*
X0094143Y0284952D01*
X0094263Y0285238D01*
X0094376Y0285526D01*
X0094482Y0285817D01*
X0094580Y0286111D01*
X0094672Y0286407D01*
X0094756Y0286705D01*
X0094833Y0287005D01*
X0094902Y0287307D01*
X0094965Y0287610D01*
X0095019Y0287915D01*
X0095067Y0288221D01*
X0095106Y0288529D01*
X0095138Y0288837D01*
X0095163Y0289145D01*
X0095180Y0289455D01*
X0095190Y0289764D01*
X0095192Y0290074D01*
X0095186Y0290384D01*
X0095173Y0290693D01*
X0095152Y0291002D01*
X0095124Y0291311D01*
X0095088Y0291618D01*
X0095045Y0291925D01*
X0094994Y0292231D01*
X0094936Y0292535D01*
X0094870Y0292838D01*
X0094797Y0293139D01*
X0094717Y0293438D01*
X0094629Y0293735D01*
X0094534Y0294030D01*
X0094432Y0294322D01*
X0094323Y0294612D01*
X0094206Y0294899D01*
X0094083Y0295183D01*
X0093953Y0295464D01*
X0093816Y0295742D01*
X0093672Y0296016D01*
X0093522Y0296287D01*
X0093365Y0296554D01*
X0093201Y0296817D01*
X0093031Y0297076D01*
X0092855Y0297331D01*
X0092673Y0297582D01*
X0092484Y0297827D01*
X0092290Y0298069D01*
X0092090Y0298305D01*
X0091884Y0298536D01*
X0091672Y0298763D01*
X0091455Y0298984D01*
X0091233Y0299199D01*
X0091006Y0299410D01*
X0090773Y0299614D01*
X0090535Y0299813D01*
X0090293Y0300006D01*
X0090046Y0300193D01*
X0089795Y0300374D01*
X0089539Y0300548D01*
X0089279Y0300717D01*
X0089015Y0300879D01*
X0088747Y0301034D01*
X0088475Y0301183D01*
X0088200Y0301325D01*
X0087921Y0301461D01*
X0087640Y0301589D01*
X0087355Y0301711D01*
X0087067Y0301825D01*
X0086776Y0301933D01*
X0086483Y0302033D01*
X0086188Y0302127D01*
X0085890Y0302213D01*
X0085591Y0302291D01*
X0085289Y0302362D01*
X0084986Y0302426D01*
X0084682Y0302483D01*
X0084376Y0302532D01*
X0084069Y0302573D01*
X0083761Y0302607D01*
X0083452Y0302634D01*
X0083143Y0302653D01*
X0082834Y0302664D01*
X0082524Y0302668D01*
X0082214Y0302664D01*
X0081905Y0302653D01*
X0081596Y0302634D01*
X0081287Y0302607D01*
X0080979Y0302573D01*
X0080672Y0302532D01*
X0080366Y0302483D01*
X0080062Y0302426D01*
X0079759Y0302362D01*
X0079457Y0302291D01*
X0079158Y0302213D01*
X0078860Y0302127D01*
X0078565Y0302033D01*
X0078272Y0301933D01*
X0077981Y0301825D01*
X0077693Y0301711D01*
X0077408Y0301589D01*
X0077127Y0301461D01*
X0076848Y0301325D01*
X0076573Y0301183D01*
X0076301Y0301034D01*
X0076033Y0300879D01*
X0075769Y0300717D01*
X0075509Y0300548D01*
X0075253Y0300374D01*
X0075002Y0300193D01*
X0074755Y0300006D01*
X0074513Y0299813D01*
X0074275Y0299614D01*
X0074042Y0299410D01*
X0073815Y0299199D01*
X0073593Y0298984D01*
X0073376Y0298763D01*
X0073164Y0298536D01*
X0072958Y0298305D01*
X0072758Y0298069D01*
X0072564Y0297827D01*
X0072375Y0297582D01*
X0072193Y0297331D01*
X0072017Y0297076D01*
X0071847Y0296817D01*
X0071683Y0296554D01*
X0071526Y0296287D01*
X0071376Y0296016D01*
X0071232Y0295742D01*
X0071095Y0295464D01*
X0070965Y0295183D01*
X0070842Y0294899D01*
X0070725Y0294612D01*
X0070616Y0294322D01*
X0070514Y0294030D01*
X0070419Y0293735D01*
X0070331Y0293438D01*
X0070251Y0293139D01*
X0070178Y0292838D01*
X0070112Y0292535D01*
X0070054Y0292231D01*
X0070003Y0291925D01*
X0069960Y0291618D01*
X0069924Y0291311D01*
X0069896Y0291002D01*
X0069875Y0290693D01*
X0069862Y0290384D01*
X0069856Y0290074D01*
X0069858Y0289764D01*
X0069868Y0289455D01*
X0069885Y0289145D01*
X0069910Y0288837D01*
X0069942Y0288529D01*
X0069981Y0288221D01*
X0070029Y0287915D01*
X0070083Y0287610D01*
X0070146Y0287307D01*
X0070215Y0287005D01*
X0070292Y0286705D01*
X0070376Y0286407D01*
X0070468Y0286111D01*
X0070566Y0285817D01*
X0070672Y0285526D01*
X0070785Y0285238D01*
X0070905Y0284952D01*
X0071032Y0284670D01*
X0071166Y0284390D01*
X0071306Y0284114D01*
X0071454Y0283842D01*
X0071607Y0283573D01*
X0071768Y0283308D01*
X0071935Y0283047D01*
X0072108Y0282790D01*
X0072287Y0282538D01*
X0072473Y0282289D01*
X0072664Y0282046D01*
X0072862Y0281807D01*
X0073065Y0281574D01*
X0073274Y0281345D01*
X0073488Y0281121D01*
X0073708Y0280903D01*
X0073933Y0280690D01*
X0074163Y0280483D01*
X0074398Y0280281D01*
X0074638Y0280086D01*
X0074883Y0279896D01*
X0074940Y0279971D01*
X0074697Y0280159D01*
X0074458Y0280354D01*
X0074225Y0280554D01*
X0073997Y0280759D01*
X0073773Y0280971D01*
X0073555Y0281187D01*
X0073342Y0281409D01*
X0073135Y0281636D01*
X0072933Y0281868D01*
X0072737Y0282105D01*
X0072547Y0282347D01*
X0072363Y0282593D01*
X0072185Y0282844D01*
X0072013Y0283099D01*
X0071848Y0283358D01*
X0071688Y0283621D01*
X0071536Y0283888D01*
X0071389Y0284158D01*
X0071250Y0284432D01*
X0071117Y0284709D01*
X0070991Y0284990D01*
X0070872Y0285273D01*
X0070760Y0285560D01*
X0070655Y0285849D01*
X0070557Y0286140D01*
X0070466Y0286434D01*
X0070383Y0286730D01*
X0070306Y0287027D01*
X0070237Y0287327D01*
X0070176Y0287628D01*
X0070121Y0287931D01*
X0070075Y0288235D01*
X0070035Y0288540D01*
X0070003Y0288845D01*
X0069979Y0289152D01*
X0069962Y0289459D01*
X0069952Y0289766D01*
X0069950Y0290074D01*
X0069956Y0290381D01*
X0069969Y0290688D01*
X0069989Y0290995D01*
X0070018Y0291301D01*
X0070053Y0291607D01*
X0070096Y0291911D01*
X0070147Y0292214D01*
X0070204Y0292516D01*
X0070270Y0292817D01*
X0070342Y0293116D01*
X0070422Y0293412D01*
X0070509Y0293707D01*
X0070603Y0294000D01*
X0070705Y0294290D01*
X0070813Y0294578D01*
X0070928Y0294863D01*
X0071051Y0295145D01*
X0071180Y0295424D01*
X0071316Y0295700D01*
X0071459Y0295972D01*
X0071608Y0296241D01*
X0071764Y0296506D01*
X0071926Y0296767D01*
X0072095Y0297024D01*
X0072270Y0297277D01*
X0072451Y0297525D01*
X0072638Y0297769D01*
X0072831Y0298009D01*
X0073029Y0298243D01*
X0073234Y0298473D01*
X0073444Y0298698D01*
X0073659Y0298917D01*
X0073880Y0299131D01*
X0074105Y0299340D01*
X0074336Y0299543D01*
X0074572Y0299740D01*
X0074813Y0299932D01*
X0075058Y0300117D01*
X0075307Y0300297D01*
X0075561Y0300470D01*
X0075819Y0300637D01*
X0076081Y0300798D01*
X0076347Y0300952D01*
X0076617Y0301100D01*
X0076890Y0301241D01*
X0077167Y0301376D01*
X0077446Y0301503D01*
X0077729Y0301624D01*
X0078015Y0301738D01*
X0078303Y0301844D01*
X0078594Y0301944D01*
X0078887Y0302037D01*
X0079183Y0302122D01*
X0079480Y0302200D01*
X0079779Y0302271D01*
X0080080Y0302334D01*
X0080382Y0302390D01*
X0080686Y0302439D01*
X0080991Y0302480D01*
X0081296Y0302514D01*
X0081602Y0302540D01*
X0081909Y0302559D01*
X0082217Y0302570D01*
X0082524Y0302574D01*
X0082831Y0302570D01*
X0083139Y0302559D01*
X0083446Y0302540D01*
X0083752Y0302514D01*
X0084057Y0302480D01*
X0084362Y0302439D01*
X0084666Y0302390D01*
X0084968Y0302334D01*
X0085269Y0302271D01*
X0085568Y0302200D01*
X0085865Y0302122D01*
X0086161Y0302037D01*
X0086454Y0301944D01*
X0086745Y0301844D01*
X0087033Y0301738D01*
X0087319Y0301624D01*
X0087602Y0301503D01*
X0087881Y0301376D01*
X0088158Y0301241D01*
X0088431Y0301100D01*
X0088701Y0300952D01*
X0088967Y0300798D01*
X0089229Y0300637D01*
X0089487Y0300470D01*
X0089741Y0300297D01*
X0089990Y0300117D01*
X0090235Y0299932D01*
X0090476Y0299740D01*
X0090712Y0299543D01*
X0090943Y0299340D01*
X0091168Y0299131D01*
X0091389Y0298917D01*
X0091604Y0298698D01*
X0091814Y0298473D01*
X0092019Y0298243D01*
X0092217Y0298009D01*
X0092410Y0297769D01*
X0092597Y0297525D01*
X0092778Y0297277D01*
X0092953Y0297024D01*
X0093122Y0296767D01*
X0093284Y0296506D01*
X0093440Y0296241D01*
X0093589Y0295972D01*
X0093732Y0295700D01*
X0093868Y0295424D01*
X0093997Y0295145D01*
X0094120Y0294863D01*
X0094235Y0294578D01*
X0094343Y0294290D01*
X0094445Y0294000D01*
X0094539Y0293707D01*
X0094626Y0293412D01*
X0094706Y0293116D01*
X0094778Y0292817D01*
X0094844Y0292516D01*
X0094901Y0292214D01*
X0094952Y0291911D01*
X0094995Y0291607D01*
X0095030Y0291301D01*
X0095059Y0290995D01*
X0095079Y0290688D01*
X0095092Y0290381D01*
X0095098Y0290074D01*
X0095096Y0289766D01*
X0095086Y0289459D01*
X0095069Y0289152D01*
X0095045Y0288845D01*
X0095013Y0288540D01*
X0094973Y0288235D01*
X0094927Y0287931D01*
X0094872Y0287628D01*
X0094811Y0287327D01*
X0094742Y0287027D01*
X0094665Y0286730D01*
X0094582Y0286434D01*
X0094491Y0286140D01*
X0094393Y0285849D01*
X0094288Y0285560D01*
X0094176Y0285273D01*
X0094057Y0284990D01*
X0093931Y0284709D01*
X0093798Y0284432D01*
X0093659Y0284158D01*
X0093512Y0283888D01*
X0093360Y0283621D01*
X0093200Y0283358D01*
X0093035Y0283099D01*
X0092863Y0282844D01*
X0092685Y0282593D01*
X0092501Y0282347D01*
X0092311Y0282105D01*
X0092115Y0281868D01*
X0091913Y0281636D01*
X0091706Y0281409D01*
X0091493Y0281187D01*
X0091275Y0280971D01*
X0091051Y0280759D01*
X0090823Y0280554D01*
X0090590Y0280354D01*
X0090351Y0280159D01*
X0090108Y0279971D01*
X0090052Y0280046D01*
X0090293Y0280233D01*
X0090530Y0280426D01*
X0090761Y0280625D01*
X0090988Y0280829D01*
X0091210Y0281038D01*
X0091426Y0281253D01*
X0091637Y0281474D01*
X0091843Y0281699D01*
X0092043Y0281929D01*
X0092238Y0282165D01*
X0092426Y0282404D01*
X0092609Y0282649D01*
X0092786Y0282898D01*
X0092956Y0283151D01*
X0093121Y0283408D01*
X0093279Y0283669D01*
X0093430Y0283934D01*
X0093575Y0284202D01*
X0093714Y0284474D01*
X0093846Y0284749D01*
X0093971Y0285028D01*
X0094089Y0285309D01*
X0094200Y0285593D01*
X0094304Y0285880D01*
X0094402Y0286169D01*
X0094492Y0286461D01*
X0094575Y0286754D01*
X0094650Y0287050D01*
X0094719Y0287347D01*
X0094780Y0287646D01*
X0094834Y0287947D01*
X0094880Y0288248D01*
X0094920Y0288551D01*
X0094951Y0288854D01*
X0094976Y0289159D01*
X0094992Y0289463D01*
X0095002Y0289768D01*
X0095004Y0290073D01*
X0094998Y0290378D01*
X0094985Y0290683D01*
X0094965Y0290988D01*
X0094937Y0291292D01*
X0094902Y0291595D01*
X0094859Y0291897D01*
X0094809Y0292198D01*
X0094752Y0292498D01*
X0094687Y0292796D01*
X0094615Y0293092D01*
X0094536Y0293387D01*
X0094449Y0293680D01*
X0094356Y0293970D01*
X0094255Y0294258D01*
X0094147Y0294544D01*
X0094033Y0294827D01*
X0093911Y0295107D01*
X0093783Y0295384D01*
X0093648Y0295657D01*
X0093507Y0295927D01*
X0093358Y0296194D01*
X0093204Y0296457D01*
X0093043Y0296716D01*
X0092875Y0296972D01*
X0092702Y0297223D01*
X0092522Y0297469D01*
X0092336Y0297711D01*
X0092145Y0297949D01*
X0091948Y0298182D01*
X0091745Y0298410D01*
X0091536Y0298633D01*
X0091323Y0298851D01*
X0091104Y0299063D01*
X0090880Y0299270D01*
X0090650Y0299472D01*
X0090416Y0299668D01*
X0090178Y0299858D01*
X0089934Y0300042D01*
X0089687Y0300220D01*
X0089435Y0300392D01*
X0089178Y0300558D01*
X0088918Y0300717D01*
X0088654Y0300871D01*
X0088387Y0301017D01*
X0088116Y0301157D01*
X0087841Y0301291D01*
X0087564Y0301417D01*
X0087283Y0301537D01*
X0086999Y0301650D01*
X0086713Y0301756D01*
X0086425Y0301855D01*
X0086134Y0301947D01*
X0085840Y0302031D01*
X0085545Y0302109D01*
X0085248Y0302179D01*
X0084950Y0302242D01*
X0084650Y0302298D01*
X0084348Y0302346D01*
X0084046Y0302387D01*
X0083743Y0302420D01*
X0083439Y0302446D01*
X0083134Y0302465D01*
X0082829Y0302476D01*
X0082524Y0302480D01*
X0082219Y0302476D01*
X0081914Y0302465D01*
X0081609Y0302446D01*
X0081305Y0302420D01*
X0081002Y0302387D01*
X0080700Y0302346D01*
X0080398Y0302298D01*
X0080098Y0302242D01*
X0079800Y0302179D01*
X0079503Y0302109D01*
X0079208Y0302031D01*
X0078914Y0301947D01*
X0078623Y0301855D01*
X0078335Y0301756D01*
X0078049Y0301650D01*
X0077765Y0301537D01*
X0077484Y0301417D01*
X0077207Y0301291D01*
X0076932Y0301157D01*
X0076661Y0301017D01*
X0076394Y0300871D01*
X0076130Y0300717D01*
X0075870Y0300558D01*
X0075613Y0300392D01*
X0075361Y0300220D01*
X0075114Y0300042D01*
X0074870Y0299858D01*
X0074632Y0299668D01*
X0074398Y0299472D01*
X0074168Y0299270D01*
X0073944Y0299063D01*
X0073725Y0298851D01*
X0073512Y0298633D01*
X0073303Y0298410D01*
X0073100Y0298182D01*
X0072903Y0297949D01*
X0072712Y0297711D01*
X0072526Y0297469D01*
X0072346Y0297223D01*
X0072173Y0296972D01*
X0072005Y0296716D01*
X0071844Y0296457D01*
X0071690Y0296194D01*
X0071541Y0295927D01*
X0071400Y0295657D01*
X0071265Y0295384D01*
X0071137Y0295107D01*
X0071015Y0294827D01*
X0070901Y0294544D01*
X0070793Y0294258D01*
X0070692Y0293970D01*
X0070599Y0293680D01*
X0070512Y0293387D01*
X0070433Y0293092D01*
X0070361Y0292796D01*
X0070296Y0292498D01*
X0070239Y0292198D01*
X0070189Y0291897D01*
X0070146Y0291595D01*
X0070111Y0291292D01*
X0070083Y0290988D01*
X0070063Y0290683D01*
X0070050Y0290378D01*
X0070044Y0290073D01*
X0070046Y0289768D01*
X0070056Y0289463D01*
X0070072Y0289159D01*
X0070097Y0288854D01*
X0070128Y0288551D01*
X0070168Y0288248D01*
X0070214Y0287947D01*
X0070268Y0287646D01*
X0070329Y0287347D01*
X0070398Y0287050D01*
X0070473Y0286754D01*
X0070556Y0286461D01*
X0070646Y0286169D01*
X0070744Y0285880D01*
X0070848Y0285593D01*
X0070959Y0285309D01*
X0071077Y0285028D01*
X0071202Y0284749D01*
X0071334Y0284474D01*
X0071473Y0284202D01*
X0071618Y0283934D01*
X0071769Y0283669D01*
X0071927Y0283408D01*
X0072092Y0283151D01*
X0072262Y0282898D01*
X0072439Y0282649D01*
X0072622Y0282404D01*
X0072810Y0282165D01*
X0073005Y0281929D01*
X0073205Y0281699D01*
X0073411Y0281474D01*
X0073622Y0281253D01*
X0073838Y0281038D01*
X0074060Y0280829D01*
X0074287Y0280625D01*
X0074518Y0280426D01*
X0074755Y0280233D01*
X0074996Y0280046D01*
X0075052Y0280121D01*
X0074813Y0280307D01*
X0074578Y0280498D01*
X0074349Y0280695D01*
X0074124Y0280898D01*
X0073903Y0281106D01*
X0073689Y0281320D01*
X0073479Y0281538D01*
X0073275Y0281762D01*
X0073076Y0281990D01*
X0072883Y0282224D01*
X0072696Y0282462D01*
X0072515Y0282704D01*
X0072339Y0282951D01*
X0072170Y0283202D01*
X0072007Y0283458D01*
X0071850Y0283717D01*
X0071700Y0283980D01*
X0071556Y0284246D01*
X0071418Y0284516D01*
X0071287Y0284789D01*
X0071163Y0285065D01*
X0071046Y0285345D01*
X0070936Y0285627D01*
X0070832Y0285911D01*
X0070736Y0286198D01*
X0070646Y0286488D01*
X0070564Y0286779D01*
X0070489Y0287072D01*
X0070421Y0287368D01*
X0070360Y0287664D01*
X0070307Y0287962D01*
X0070261Y0288262D01*
X0070222Y0288562D01*
X0070190Y0288863D01*
X0070166Y0289165D01*
X0070149Y0289468D01*
X0070140Y0289770D01*
X0070138Y0290073D01*
X0070144Y0290376D01*
X0070157Y0290678D01*
X0070177Y0290981D01*
X0070205Y0291282D01*
X0070240Y0291583D01*
X0070282Y0291883D01*
X0070332Y0292182D01*
X0070389Y0292479D01*
X0070453Y0292775D01*
X0070524Y0293069D01*
X0070603Y0293362D01*
X0070689Y0293652D01*
X0070782Y0293941D01*
X0070881Y0294226D01*
X0070988Y0294510D01*
X0071102Y0294790D01*
X0071222Y0295068D01*
X0071350Y0295343D01*
X0071484Y0295615D01*
X0071624Y0295883D01*
X0071771Y0296148D01*
X0071925Y0296409D01*
X0072085Y0296666D01*
X0072251Y0296919D01*
X0072423Y0297168D01*
X0072601Y0297413D01*
X0072786Y0297654D01*
X0072976Y0297889D01*
X0073171Y0298120D01*
X0073373Y0298347D01*
X0073579Y0298568D01*
X0073792Y0298784D01*
X0074009Y0298995D01*
X0074231Y0299200D01*
X0074459Y0299400D01*
X0074691Y0299595D01*
X0074928Y0299783D01*
X0075170Y0299966D01*
X0075415Y0300143D01*
X0075666Y0300314D01*
X0075920Y0300478D01*
X0076178Y0300637D01*
X0076440Y0300789D01*
X0076705Y0300934D01*
X0076974Y0301073D01*
X0077247Y0301206D01*
X0077522Y0301331D01*
X0077801Y0301450D01*
X0078082Y0301562D01*
X0078366Y0301667D01*
X0078653Y0301766D01*
X0078942Y0301857D01*
X0079233Y0301941D01*
X0079526Y0302018D01*
X0079820Y0302087D01*
X0080117Y0302150D01*
X0080414Y0302205D01*
X0080713Y0302253D01*
X0081013Y0302294D01*
X0081315Y0302327D01*
X0081616Y0302353D01*
X0081919Y0302371D01*
X0082221Y0302382D01*
X0082524Y0302386D01*
X0082827Y0302382D01*
X0083129Y0302371D01*
X0083432Y0302353D01*
X0083733Y0302327D01*
X0084035Y0302294D01*
X0084335Y0302253D01*
X0084634Y0302205D01*
X0084931Y0302150D01*
X0085228Y0302087D01*
X0085522Y0302018D01*
X0085815Y0301941D01*
X0086106Y0301857D01*
X0086395Y0301766D01*
X0086682Y0301667D01*
X0086966Y0301562D01*
X0087247Y0301450D01*
X0087526Y0301331D01*
X0087801Y0301206D01*
X0088074Y0301073D01*
X0088343Y0300934D01*
X0088608Y0300789D01*
X0088870Y0300637D01*
X0089128Y0300478D01*
X0089382Y0300314D01*
X0089633Y0300143D01*
X0089878Y0299966D01*
X0090120Y0299783D01*
X0090357Y0299595D01*
X0090589Y0299400D01*
X0090817Y0299200D01*
X0091039Y0298995D01*
X0091256Y0298784D01*
X0091469Y0298568D01*
X0091675Y0298347D01*
X0091877Y0298120D01*
X0092072Y0297889D01*
X0092262Y0297654D01*
X0092447Y0297413D01*
X0092625Y0297168D01*
X0092797Y0296919D01*
X0092963Y0296666D01*
X0093123Y0296409D01*
X0093277Y0296148D01*
X0093424Y0295883D01*
X0093564Y0295615D01*
X0093698Y0295343D01*
X0093826Y0295068D01*
X0093946Y0294790D01*
X0094060Y0294510D01*
X0094167Y0294226D01*
X0094266Y0293941D01*
X0094359Y0293652D01*
X0094445Y0293362D01*
X0094524Y0293069D01*
X0094595Y0292775D01*
X0094659Y0292479D01*
X0094716Y0292182D01*
X0094766Y0291883D01*
X0094808Y0291583D01*
X0094843Y0291282D01*
X0094871Y0290981D01*
X0094891Y0290678D01*
X0094904Y0290376D01*
X0094910Y0290073D01*
X0094908Y0289770D01*
X0094899Y0289468D01*
X0094882Y0289165D01*
X0094858Y0288863D01*
X0094826Y0288562D01*
X0094787Y0288262D01*
X0094741Y0287962D01*
X0094688Y0287664D01*
X0094627Y0287368D01*
X0094559Y0287072D01*
X0094484Y0286779D01*
X0094402Y0286488D01*
X0094312Y0286198D01*
X0094216Y0285911D01*
X0094112Y0285627D01*
X0094002Y0285345D01*
X0093885Y0285065D01*
X0093761Y0284789D01*
X0093630Y0284516D01*
X0093492Y0284246D01*
X0093348Y0283980D01*
X0093198Y0283717D01*
X0093041Y0283458D01*
X0092878Y0283202D01*
X0092709Y0282951D01*
X0092533Y0282704D01*
X0092352Y0282462D01*
X0092165Y0282224D01*
X0091972Y0281990D01*
X0091773Y0281762D01*
X0091569Y0281538D01*
X0091359Y0281320D01*
X0091145Y0281106D01*
X0090924Y0280898D01*
X0090699Y0280695D01*
X0090470Y0280498D01*
X0090235Y0280307D01*
X0089996Y0280121D01*
X0089939Y0280196D01*
X0090177Y0280381D01*
X0090409Y0280571D01*
X0090638Y0280766D01*
X0090861Y0280967D01*
X0091079Y0281174D01*
X0091293Y0281386D01*
X0091501Y0281603D01*
X0091703Y0281825D01*
X0091900Y0282052D01*
X0092092Y0282283D01*
X0092278Y0282519D01*
X0092458Y0282760D01*
X0092632Y0283005D01*
X0092800Y0283254D01*
X0092962Y0283508D01*
X0093117Y0283765D01*
X0093266Y0284026D01*
X0093409Y0284290D01*
X0093546Y0284558D01*
X0093675Y0284829D01*
X0093798Y0285103D01*
X0093915Y0285380D01*
X0094024Y0285660D01*
X0094127Y0285943D01*
X0094223Y0286227D01*
X0094311Y0286515D01*
X0094393Y0286804D01*
X0094468Y0287095D01*
X0094535Y0287388D01*
X0094596Y0287682D01*
X0094649Y0287978D01*
X0094694Y0288275D01*
X0094733Y0288573D01*
X0094764Y0288872D01*
X0094788Y0289172D01*
X0094805Y0289472D01*
X0094814Y0289772D01*
X0094816Y0290073D01*
X0094810Y0290373D01*
X0094798Y0290674D01*
X0094777Y0290973D01*
X0094750Y0291273D01*
X0094715Y0291571D01*
X0094673Y0291869D01*
X0094624Y0292165D01*
X0094567Y0292460D01*
X0094503Y0292754D01*
X0094433Y0293046D01*
X0094355Y0293336D01*
X0094269Y0293625D01*
X0094177Y0293911D01*
X0094078Y0294195D01*
X0093972Y0294476D01*
X0093859Y0294754D01*
X0093740Y0295030D01*
X0093613Y0295303D01*
X0093480Y0295572D01*
X0093341Y0295838D01*
X0093195Y0296101D01*
X0093043Y0296360D01*
X0092884Y0296616D01*
X0092719Y0296867D01*
X0092548Y0297114D01*
X0092371Y0297357D01*
X0092188Y0297596D01*
X0092000Y0297830D01*
X0091806Y0298059D01*
X0091606Y0298283D01*
X0091401Y0298503D01*
X0091190Y0298717D01*
X0090974Y0298927D01*
X0090754Y0299131D01*
X0090528Y0299329D01*
X0090297Y0299522D01*
X0090062Y0299709D01*
X0089823Y0299891D01*
X0089579Y0300066D01*
X0089330Y0300236D01*
X0089078Y0300399D01*
X0088822Y0300556D01*
X0088562Y0300707D01*
X0088298Y0300851D01*
X0088031Y0300989D01*
X0087761Y0301121D01*
X0087488Y0301245D01*
X0087211Y0301363D01*
X0086932Y0301474D01*
X0086650Y0301579D01*
X0086366Y0301676D01*
X0086079Y0301767D01*
X0085790Y0301850D01*
X0085500Y0301926D01*
X0085207Y0301996D01*
X0084913Y0302058D01*
X0084618Y0302112D01*
X0084321Y0302160D01*
X0084023Y0302200D01*
X0083724Y0302233D01*
X0083425Y0302259D01*
X0083125Y0302277D01*
X0082825Y0302288D01*
X0082524Y0302292D01*
X0082223Y0302288D01*
X0081923Y0302277D01*
X0081623Y0302259D01*
X0081324Y0302233D01*
X0081025Y0302200D01*
X0080727Y0302160D01*
X0080430Y0302112D01*
X0080135Y0302058D01*
X0079841Y0301996D01*
X0079548Y0301926D01*
X0079258Y0301850D01*
X0078969Y0301767D01*
X0078682Y0301676D01*
X0078398Y0301579D01*
X0078116Y0301474D01*
X0077837Y0301363D01*
X0077560Y0301245D01*
X0077287Y0301121D01*
X0077017Y0300989D01*
X0076750Y0300851D01*
X0076486Y0300707D01*
X0076226Y0300556D01*
X0075970Y0300399D01*
X0075718Y0300236D01*
X0075469Y0300066D01*
X0075225Y0299891D01*
X0074986Y0299709D01*
X0074751Y0299522D01*
X0074520Y0299329D01*
X0074294Y0299131D01*
X0074074Y0298927D01*
X0073858Y0298717D01*
X0073647Y0298503D01*
X0073442Y0298283D01*
X0073242Y0298059D01*
X0073048Y0297830D01*
X0072860Y0297596D01*
X0072677Y0297357D01*
X0072500Y0297114D01*
X0072329Y0296867D01*
X0072164Y0296616D01*
X0072005Y0296360D01*
X0071853Y0296101D01*
X0071707Y0295838D01*
X0071568Y0295572D01*
X0071435Y0295303D01*
X0071308Y0295030D01*
X0071189Y0294754D01*
X0071076Y0294476D01*
X0070970Y0294195D01*
X0070871Y0293911D01*
X0070779Y0293625D01*
X0070693Y0293336D01*
X0070615Y0293046D01*
X0070545Y0292754D01*
X0070481Y0292460D01*
X0070424Y0292165D01*
X0070375Y0291869D01*
X0070333Y0291571D01*
X0070298Y0291273D01*
X0070271Y0290973D01*
X0070250Y0290674D01*
X0070238Y0290373D01*
X0070232Y0290073D01*
X0070234Y0289772D01*
X0070243Y0289472D01*
X0070260Y0289172D01*
X0070284Y0288872D01*
X0070315Y0288573D01*
X0070354Y0288275D01*
X0070399Y0287978D01*
X0070452Y0287682D01*
X0070513Y0287388D01*
X0070580Y0287095D01*
X0070655Y0286804D01*
X0070737Y0286515D01*
X0070825Y0286227D01*
X0070921Y0285943D01*
X0071024Y0285660D01*
X0071133Y0285380D01*
X0071250Y0285103D01*
X0071373Y0284829D01*
X0071502Y0284558D01*
X0071639Y0284290D01*
X0071782Y0284026D01*
X0071931Y0283765D01*
X0072086Y0283508D01*
X0072248Y0283254D01*
X0072416Y0283005D01*
X0072590Y0282760D01*
X0072770Y0282519D01*
X0072956Y0282283D01*
X0073148Y0282052D01*
X0073345Y0281825D01*
X0073547Y0281603D01*
X0073755Y0281386D01*
X0073969Y0281174D01*
X0074187Y0280967D01*
X0074410Y0280766D01*
X0074639Y0280571D01*
X0074871Y0280381D01*
X0075109Y0280196D01*
X0075165Y0280272D01*
X0074930Y0280454D01*
X0074699Y0280643D01*
X0074472Y0280837D01*
X0074250Y0281037D01*
X0074034Y0281242D01*
X0073822Y0281452D01*
X0073616Y0281667D01*
X0073415Y0281887D01*
X0073219Y0282113D01*
X0073029Y0282342D01*
X0072845Y0282577D01*
X0072666Y0282816D01*
X0072493Y0283059D01*
X0072327Y0283306D01*
X0072166Y0283558D01*
X0072012Y0283813D01*
X0071864Y0284072D01*
X0071722Y0284334D01*
X0071587Y0284600D01*
X0071458Y0284869D01*
X0071336Y0285141D01*
X0071220Y0285416D01*
X0071111Y0285694D01*
X0071010Y0285974D01*
X0070915Y0286257D01*
X0070827Y0286542D01*
X0070746Y0286829D01*
X0070671Y0287117D01*
X0070605Y0287408D01*
X0070545Y0287700D01*
X0070492Y0287994D01*
X0070447Y0288289D01*
X0070408Y0288584D01*
X0070377Y0288881D01*
X0070354Y0289178D01*
X0070337Y0289476D01*
X0070328Y0289774D01*
X0070326Y0290072D01*
X0070332Y0290371D01*
X0070344Y0290669D01*
X0070364Y0290966D01*
X0070392Y0291263D01*
X0070426Y0291559D01*
X0070468Y0291855D01*
X0070517Y0292149D01*
X0070573Y0292442D01*
X0070636Y0292733D01*
X0070707Y0293023D01*
X0070784Y0293311D01*
X0070868Y0293597D01*
X0070960Y0293881D01*
X0071058Y0294163D01*
X0071163Y0294442D01*
X0071275Y0294718D01*
X0071394Y0294992D01*
X0071519Y0295262D01*
X0071651Y0295530D01*
X0071790Y0295794D01*
X0071935Y0296055D01*
X0072086Y0296312D01*
X0072243Y0296565D01*
X0072407Y0296814D01*
X0072577Y0297060D01*
X0072752Y0297301D01*
X0072934Y0297538D01*
X0073121Y0297770D01*
X0073313Y0297997D01*
X0073512Y0298220D01*
X0073715Y0298438D01*
X0073924Y0298651D01*
X0074138Y0298859D01*
X0074358Y0299061D01*
X0074581Y0299258D01*
X0074810Y0299449D01*
X0075044Y0299635D01*
X0075281Y0299815D01*
X0075523Y0299989D01*
X0075770Y0300157D01*
X0076020Y0300319D01*
X0076274Y0300475D01*
X0076532Y0300625D01*
X0076794Y0300768D01*
X0077059Y0300905D01*
X0077327Y0301036D01*
X0077598Y0301159D01*
X0077873Y0301276D01*
X0078150Y0301387D01*
X0078430Y0301490D01*
X0078712Y0301587D01*
X0078996Y0301677D01*
X0079283Y0301759D01*
X0079571Y0301835D01*
X0079861Y0301904D01*
X0080153Y0301965D01*
X0080446Y0302020D01*
X0080741Y0302067D01*
X0081036Y0302107D01*
X0081333Y0302140D01*
X0081630Y0302165D01*
X0081928Y0302183D01*
X0082226Y0302194D01*
X0082524Y0302198D01*
X0082822Y0302194D01*
X0083120Y0302183D01*
X0083418Y0302165D01*
X0083715Y0302140D01*
X0084012Y0302107D01*
X0084307Y0302067D01*
X0084602Y0302020D01*
X0084895Y0301965D01*
X0085187Y0301904D01*
X0085477Y0301835D01*
X0085765Y0301759D01*
X0086052Y0301677D01*
X0086336Y0301587D01*
X0086618Y0301490D01*
X0086898Y0301387D01*
X0087175Y0301276D01*
X0087450Y0301159D01*
X0087721Y0301036D01*
X0087989Y0300905D01*
X0088254Y0300768D01*
X0088516Y0300625D01*
X0088774Y0300475D01*
X0089028Y0300319D01*
X0089278Y0300157D01*
X0089525Y0299989D01*
X0089767Y0299815D01*
X0090004Y0299635D01*
X0090238Y0299449D01*
X0090467Y0299258D01*
X0090690Y0299061D01*
X0090910Y0298859D01*
X0091124Y0298651D01*
X0091333Y0298438D01*
X0091536Y0298220D01*
X0091735Y0297997D01*
X0091927Y0297770D01*
X0092114Y0297538D01*
X0092296Y0297301D01*
X0092471Y0297060D01*
X0092641Y0296814D01*
X0092805Y0296565D01*
X0092962Y0296312D01*
X0093113Y0296055D01*
X0093258Y0295794D01*
X0093397Y0295530D01*
X0093529Y0295262D01*
X0093654Y0294992D01*
X0093773Y0294718D01*
X0093885Y0294442D01*
X0093990Y0294163D01*
X0094088Y0293881D01*
X0094180Y0293597D01*
X0094264Y0293311D01*
X0094341Y0293023D01*
X0094412Y0292733D01*
X0094475Y0292442D01*
X0094531Y0292149D01*
X0094580Y0291855D01*
X0094622Y0291559D01*
X0094656Y0291263D01*
X0094684Y0290966D01*
X0094704Y0290669D01*
X0094716Y0290371D01*
X0094722Y0290072D01*
X0094720Y0289774D01*
X0094711Y0289476D01*
X0094694Y0289178D01*
X0094671Y0288881D01*
X0094640Y0288584D01*
X0094601Y0288289D01*
X0094556Y0287994D01*
X0094503Y0287700D01*
X0094443Y0287408D01*
X0094377Y0287117D01*
X0094302Y0286829D01*
X0094221Y0286542D01*
X0094133Y0286257D01*
X0094038Y0285974D01*
X0093937Y0285694D01*
X0093828Y0285416D01*
X0093712Y0285141D01*
X0093590Y0284869D01*
X0093461Y0284600D01*
X0093326Y0284334D01*
X0093184Y0284072D01*
X0093036Y0283813D01*
X0092882Y0283558D01*
X0092721Y0283306D01*
X0092555Y0283059D01*
X0092382Y0282816D01*
X0092203Y0282577D01*
X0092019Y0282342D01*
X0091829Y0282113D01*
X0091633Y0281887D01*
X0091432Y0281667D01*
X0091226Y0281452D01*
X0091014Y0281242D01*
X0090798Y0281037D01*
X0090576Y0280837D01*
X0090349Y0280643D01*
X0090118Y0280454D01*
X0089883Y0280272D01*
X0089826Y0280347D01*
X0090060Y0280528D01*
X0090289Y0280715D01*
X0090514Y0280908D01*
X0090734Y0281106D01*
X0090949Y0281309D01*
X0091159Y0281518D01*
X0091364Y0281732D01*
X0091563Y0281950D01*
X0091757Y0282174D01*
X0091946Y0282402D01*
X0092129Y0282634D01*
X0092306Y0282871D01*
X0092477Y0283113D01*
X0092643Y0283358D01*
X0092802Y0283607D01*
X0092955Y0283861D01*
X0093102Y0284117D01*
X0093243Y0284378D01*
X0093377Y0284642D01*
X0093505Y0284909D01*
X0093626Y0285179D01*
X0093741Y0285451D01*
X0093849Y0285727D01*
X0093950Y0286005D01*
X0094044Y0286286D01*
X0094131Y0286568D01*
X0094212Y0286853D01*
X0094285Y0287140D01*
X0094352Y0287428D01*
X0094411Y0287718D01*
X0094463Y0288010D01*
X0094508Y0288302D01*
X0094546Y0288596D01*
X0094577Y0288890D01*
X0094601Y0289185D01*
X0094617Y0289480D01*
X0094626Y0289776D01*
X0094628Y0290072D01*
X0094622Y0290368D01*
X0094610Y0290664D01*
X0094590Y0290959D01*
X0094563Y0291254D01*
X0094529Y0291548D01*
X0094487Y0291841D01*
X0094439Y0292133D01*
X0094383Y0292423D01*
X0094320Y0292712D01*
X0094250Y0293000D01*
X0094173Y0293286D01*
X0094090Y0293570D01*
X0093999Y0293851D01*
X0093901Y0294131D01*
X0093797Y0294408D01*
X0093686Y0294682D01*
X0093568Y0294953D01*
X0093444Y0295222D01*
X0093313Y0295487D01*
X0093175Y0295749D01*
X0093032Y0296008D01*
X0092882Y0296263D01*
X0092725Y0296515D01*
X0092563Y0296762D01*
X0092395Y0297005D01*
X0092220Y0297245D01*
X0092040Y0297480D01*
X0091855Y0297710D01*
X0091663Y0297936D01*
X0091467Y0298157D01*
X0091265Y0298373D01*
X0091057Y0298584D01*
X0090845Y0298790D01*
X0090627Y0298991D01*
X0090405Y0299187D01*
X0090178Y0299377D01*
X0089947Y0299561D01*
X0089711Y0299739D01*
X0089471Y0299912D01*
X0089226Y0300079D01*
X0088978Y0300240D01*
X0088725Y0300395D01*
X0088469Y0300543D01*
X0088210Y0300685D01*
X0087947Y0300821D01*
X0087681Y0300951D01*
X0087412Y0301073D01*
X0087139Y0301190D01*
X0086864Y0301299D01*
X0086587Y0301402D01*
X0086307Y0301498D01*
X0086025Y0301587D01*
X0085740Y0301669D01*
X0085454Y0301744D01*
X0085166Y0301812D01*
X0084877Y0301873D01*
X0084586Y0301927D01*
X0084293Y0301974D01*
X0084000Y0302014D01*
X0083706Y0302046D01*
X0083411Y0302071D01*
X0083116Y0302090D01*
X0082820Y0302100D01*
X0082524Y0302104D01*
X0082228Y0302100D01*
X0081932Y0302090D01*
X0081637Y0302071D01*
X0081342Y0302046D01*
X0081048Y0302014D01*
X0080755Y0301974D01*
X0080462Y0301927D01*
X0080171Y0301873D01*
X0079882Y0301812D01*
X0079594Y0301744D01*
X0079308Y0301669D01*
X0079023Y0301587D01*
X0078741Y0301498D01*
X0078461Y0301402D01*
X0078184Y0301299D01*
X0077909Y0301190D01*
X0077636Y0301073D01*
X0077367Y0300951D01*
X0077101Y0300821D01*
X0076838Y0300685D01*
X0076579Y0300543D01*
X0076323Y0300395D01*
X0076070Y0300240D01*
X0075822Y0300079D01*
X0075577Y0299912D01*
X0075337Y0299739D01*
X0075101Y0299561D01*
X0074870Y0299377D01*
X0074643Y0299187D01*
X0074421Y0298991D01*
X0074203Y0298790D01*
X0073991Y0298584D01*
X0073783Y0298373D01*
X0073581Y0298157D01*
X0073385Y0297936D01*
X0073193Y0297710D01*
X0073008Y0297480D01*
X0072828Y0297245D01*
X0072653Y0297005D01*
X0072485Y0296762D01*
X0072323Y0296515D01*
X0072166Y0296263D01*
X0072016Y0296008D01*
X0071873Y0295749D01*
X0071735Y0295487D01*
X0071604Y0295222D01*
X0071480Y0294953D01*
X0071362Y0294682D01*
X0071251Y0294408D01*
X0071147Y0294131D01*
X0071049Y0293851D01*
X0070958Y0293570D01*
X0070875Y0293286D01*
X0070798Y0293000D01*
X0070728Y0292712D01*
X0070665Y0292423D01*
X0070609Y0292133D01*
X0070561Y0291841D01*
X0070519Y0291548D01*
X0070485Y0291254D01*
X0070458Y0290959D01*
X0070438Y0290664D01*
X0070426Y0290368D01*
X0070420Y0290072D01*
X0070422Y0289776D01*
X0070431Y0289480D01*
X0070447Y0289185D01*
X0070471Y0288890D01*
X0070502Y0288596D01*
X0070540Y0288302D01*
X0070585Y0288010D01*
X0070637Y0287718D01*
X0070696Y0287428D01*
X0070763Y0287140D01*
X0070836Y0286853D01*
X0070917Y0286568D01*
X0071004Y0286286D01*
X0071098Y0286005D01*
X0071199Y0285727D01*
X0071307Y0285451D01*
X0071422Y0285179D01*
X0071543Y0284909D01*
X0071671Y0284642D01*
X0071805Y0284378D01*
X0071946Y0284117D01*
X0072093Y0283861D01*
X0072246Y0283607D01*
X0072405Y0283358D01*
X0072571Y0283113D01*
X0072742Y0282871D01*
X0072919Y0282634D01*
X0073102Y0282402D01*
X0073291Y0282174D01*
X0073485Y0281950D01*
X0073684Y0281732D01*
X0073889Y0281518D01*
X0074099Y0281309D01*
X0074314Y0281106D01*
X0074534Y0280908D01*
X0074759Y0280715D01*
X0074988Y0280528D01*
X0075222Y0280347D01*
D16*
X0072524Y0290000D02*
X0072527Y0290245D01*
X0072536Y0290491D01*
X0072551Y0290736D01*
X0072572Y0290980D01*
X0072599Y0291224D01*
X0072632Y0291467D01*
X0072671Y0291710D01*
X0072716Y0291951D01*
X0072767Y0292191D01*
X0072824Y0292430D01*
X0072886Y0292667D01*
X0072955Y0292903D01*
X0073029Y0293137D01*
X0073109Y0293369D01*
X0073194Y0293599D01*
X0073285Y0293827D01*
X0073382Y0294052D01*
X0073484Y0294276D01*
X0073592Y0294496D01*
X0073705Y0294714D01*
X0073823Y0294929D01*
X0073947Y0295141D01*
X0074075Y0295350D01*
X0074209Y0295556D01*
X0074348Y0295758D01*
X0074492Y0295957D01*
X0074641Y0296152D01*
X0074794Y0296344D01*
X0074952Y0296532D01*
X0075114Y0296716D01*
X0075282Y0296895D01*
X0075453Y0297071D01*
X0075629Y0297242D01*
X0075808Y0297410D01*
X0075992Y0297572D01*
X0076180Y0297730D01*
X0076372Y0297883D01*
X0076567Y0298032D01*
X0076766Y0298176D01*
X0076968Y0298315D01*
X0077174Y0298449D01*
X0077383Y0298577D01*
X0077595Y0298701D01*
X0077810Y0298819D01*
X0078028Y0298932D01*
X0078248Y0299040D01*
X0078472Y0299142D01*
X0078697Y0299239D01*
X0078925Y0299330D01*
X0079155Y0299415D01*
X0079387Y0299495D01*
X0079621Y0299569D01*
X0079857Y0299638D01*
X0080094Y0299700D01*
X0080333Y0299757D01*
X0080573Y0299808D01*
X0080814Y0299853D01*
X0081057Y0299892D01*
X0081300Y0299925D01*
X0081544Y0299952D01*
X0081788Y0299973D01*
X0082033Y0299988D01*
X0082279Y0299997D01*
X0082524Y0300000D01*
X0082769Y0299997D01*
X0083015Y0299988D01*
X0083260Y0299973D01*
X0083504Y0299952D01*
X0083748Y0299925D01*
X0083991Y0299892D01*
X0084234Y0299853D01*
X0084475Y0299808D01*
X0084715Y0299757D01*
X0084954Y0299700D01*
X0085191Y0299638D01*
X0085427Y0299569D01*
X0085661Y0299495D01*
X0085893Y0299415D01*
X0086123Y0299330D01*
X0086351Y0299239D01*
X0086576Y0299142D01*
X0086800Y0299040D01*
X0087020Y0298932D01*
X0087238Y0298819D01*
X0087453Y0298701D01*
X0087665Y0298577D01*
X0087874Y0298449D01*
X0088080Y0298315D01*
X0088282Y0298176D01*
X0088481Y0298032D01*
X0088676Y0297883D01*
X0088868Y0297730D01*
X0089056Y0297572D01*
X0089240Y0297410D01*
X0089419Y0297242D01*
X0089595Y0297071D01*
X0089766Y0296895D01*
X0089934Y0296716D01*
X0090096Y0296532D01*
X0090254Y0296344D01*
X0090407Y0296152D01*
X0090556Y0295957D01*
X0090700Y0295758D01*
X0090839Y0295556D01*
X0090973Y0295350D01*
X0091101Y0295141D01*
X0091225Y0294929D01*
X0091343Y0294714D01*
X0091456Y0294496D01*
X0091564Y0294276D01*
X0091666Y0294052D01*
X0091763Y0293827D01*
X0091854Y0293599D01*
X0091939Y0293369D01*
X0092019Y0293137D01*
X0092093Y0292903D01*
X0092162Y0292667D01*
X0092224Y0292430D01*
X0092281Y0292191D01*
X0092332Y0291951D01*
X0092377Y0291710D01*
X0092416Y0291467D01*
X0092449Y0291224D01*
X0092476Y0290980D01*
X0092497Y0290736D01*
X0092512Y0290491D01*
X0092521Y0290245D01*
X0092524Y0290000D01*
X0092521Y0289755D01*
X0092512Y0289509D01*
X0092497Y0289264D01*
X0092476Y0289020D01*
X0092449Y0288776D01*
X0092416Y0288533D01*
X0092377Y0288290D01*
X0092332Y0288049D01*
X0092281Y0287809D01*
X0092224Y0287570D01*
X0092162Y0287333D01*
X0092093Y0287097D01*
X0092019Y0286863D01*
X0091939Y0286631D01*
X0091854Y0286401D01*
X0091763Y0286173D01*
X0091666Y0285948D01*
X0091564Y0285724D01*
X0091456Y0285504D01*
X0091343Y0285286D01*
X0091225Y0285071D01*
X0091101Y0284859D01*
X0090973Y0284650D01*
X0090839Y0284444D01*
X0090700Y0284242D01*
X0090556Y0284043D01*
X0090407Y0283848D01*
X0090254Y0283656D01*
X0090096Y0283468D01*
X0089934Y0283284D01*
X0089766Y0283105D01*
X0089595Y0282929D01*
X0089419Y0282758D01*
X0089240Y0282590D01*
X0089056Y0282428D01*
X0088868Y0282270D01*
X0088676Y0282117D01*
X0088481Y0281968D01*
X0088282Y0281824D01*
X0088080Y0281685D01*
X0087874Y0281551D01*
X0087665Y0281423D01*
X0087453Y0281299D01*
X0087238Y0281181D01*
X0087020Y0281068D01*
X0086800Y0280960D01*
X0086576Y0280858D01*
X0086351Y0280761D01*
X0086123Y0280670D01*
X0085893Y0280585D01*
X0085661Y0280505D01*
X0085427Y0280431D01*
X0085191Y0280362D01*
X0084954Y0280300D01*
X0084715Y0280243D01*
X0084475Y0280192D01*
X0084234Y0280147D01*
X0083991Y0280108D01*
X0083748Y0280075D01*
X0083504Y0280048D01*
X0083260Y0280027D01*
X0083015Y0280012D01*
X0082769Y0280003D01*
X0082524Y0280000D01*
X0082279Y0280003D01*
X0082033Y0280012D01*
X0081788Y0280027D01*
X0081544Y0280048D01*
X0081300Y0280075D01*
X0081057Y0280108D01*
X0080814Y0280147D01*
X0080573Y0280192D01*
X0080333Y0280243D01*
X0080094Y0280300D01*
X0079857Y0280362D01*
X0079621Y0280431D01*
X0079387Y0280505D01*
X0079155Y0280585D01*
X0078925Y0280670D01*
X0078697Y0280761D01*
X0078472Y0280858D01*
X0078248Y0280960D01*
X0078028Y0281068D01*
X0077810Y0281181D01*
X0077595Y0281299D01*
X0077383Y0281423D01*
X0077174Y0281551D01*
X0076968Y0281685D01*
X0076766Y0281824D01*
X0076567Y0281968D01*
X0076372Y0282117D01*
X0076180Y0282270D01*
X0075992Y0282428D01*
X0075808Y0282590D01*
X0075629Y0282758D01*
X0075453Y0282929D01*
X0075282Y0283105D01*
X0075114Y0283284D01*
X0074952Y0283468D01*
X0074794Y0283656D01*
X0074641Y0283848D01*
X0074492Y0284043D01*
X0074348Y0284242D01*
X0074209Y0284444D01*
X0074075Y0284650D01*
X0073947Y0284859D01*
X0073823Y0285071D01*
X0073705Y0285286D01*
X0073592Y0285504D01*
X0073484Y0285724D01*
X0073382Y0285948D01*
X0073285Y0286173D01*
X0073194Y0286401D01*
X0073109Y0286631D01*
X0073029Y0286863D01*
X0072955Y0287097D01*
X0072886Y0287333D01*
X0072824Y0287570D01*
X0072767Y0287809D01*
X0072716Y0288049D01*
X0072671Y0288290D01*
X0072632Y0288533D01*
X0072599Y0288776D01*
X0072572Y0289020D01*
X0072551Y0289264D01*
X0072536Y0289509D01*
X0072527Y0289755D01*
X0072524Y0290000D01*
M02*
