G75*
%MOIN*%
%OFA0B0*%
%FSLAX25Y25*%
%IPPOS*%
%LPD*%
%AMOC8*
5,1,8,0,0,1.08239X$1,22.5*
%
%ADD10C,0.00800*%
%ADD11C,0.01100*%
%ADD12C,0.01000*%
%ADD13C,0.00591*%
%ADD14C,0.00039*%
%ADD15C,0.00100*%
%ADD16C,0.00600*%
D10*
X0076920Y0103994D02*
X0076920Y0106096D01*
X0077621Y0106796D01*
X0078321Y0106796D01*
X0079022Y0106096D01*
X0079022Y0103994D01*
X0081124Y0103994D02*
X0081124Y0106096D01*
X0080423Y0106796D01*
X0079722Y0106796D01*
X0079022Y0106096D01*
X0079722Y0108598D02*
X0079722Y0110700D01*
X0079022Y0111400D01*
X0077621Y0111400D01*
X0076920Y0110700D01*
X0076920Y0108598D01*
X0081124Y0108598D01*
X0082524Y0107500D02*
X0082524Y0112500D01*
X0085024Y0115000D01*
X0090024Y0115000D01*
X0092524Y0112500D01*
X0095024Y0115000D01*
X0100024Y0115000D01*
X0102524Y0112500D01*
X0105024Y0115000D01*
X0110024Y0115000D01*
X0112524Y0112500D01*
X0115024Y0115000D01*
X0120024Y0115000D01*
X0122524Y0112500D01*
X0122524Y0107500D01*
X0120024Y0105000D01*
X0115024Y0105000D01*
X0112524Y0107500D01*
X0110024Y0105000D01*
X0105024Y0105000D01*
X0102524Y0107500D01*
X0100024Y0105000D01*
X0095024Y0105000D01*
X0092524Y0107500D01*
X0090024Y0105000D01*
X0085024Y0105000D01*
X0082524Y0107500D01*
X0079722Y0109999D02*
X0081124Y0111400D01*
X0081124Y0113202D02*
X0076920Y0113202D01*
X0081124Y0116004D01*
X0076920Y0116004D01*
X0076920Y0103994D02*
X0081124Y0103994D01*
X0080024Y0130000D02*
X0075024Y0130000D01*
X0072524Y0132500D01*
X0072524Y0137500D01*
X0075024Y0140000D01*
X0072524Y0142500D01*
X0072524Y0147500D01*
X0075024Y0150000D01*
X0072524Y0152500D01*
X0072524Y0157500D01*
X0075024Y0160000D01*
X0072524Y0162500D01*
X0072524Y0167500D01*
X0075024Y0170000D01*
X0072524Y0172500D01*
X0072524Y0177500D01*
X0075024Y0180000D01*
X0072524Y0182500D01*
X0072524Y0187500D01*
X0075024Y0190000D01*
X0072524Y0192500D01*
X0072524Y0197500D01*
X0075024Y0200000D01*
X0072524Y0202500D01*
X0072524Y0207500D01*
X0075024Y0210000D01*
X0080024Y0210000D01*
X0082524Y0207500D01*
X0082524Y0202500D01*
X0080024Y0200000D01*
X0082524Y0197500D01*
X0082524Y0192500D01*
X0080024Y0190000D01*
X0082524Y0187500D01*
X0082524Y0182500D01*
X0080024Y0180000D01*
X0082524Y0177500D01*
X0082524Y0172500D01*
X0080024Y0170000D01*
X0082524Y0167500D01*
X0082524Y0162500D01*
X0080024Y0160000D01*
X0082524Y0157500D01*
X0082524Y0152500D01*
X0080024Y0150000D01*
X0082524Y0147500D01*
X0082524Y0142500D01*
X0080024Y0140000D01*
X0082524Y0137500D01*
X0082524Y0132500D01*
X0080024Y0130000D01*
X0124420Y0116004D02*
X0124420Y0113202D01*
X0124420Y0114603D02*
X0128624Y0114603D01*
X0128624Y0111400D02*
X0124420Y0111400D01*
X0126522Y0111400D02*
X0126522Y0108598D01*
X0128624Y0108598D02*
X0124420Y0108598D01*
X0124420Y0106796D02*
X0128624Y0106796D01*
X0127222Y0105395D01*
X0128624Y0103994D01*
X0124420Y0103994D01*
X0182524Y0132500D02*
X0182524Y0137500D01*
X0185024Y0140000D01*
X0182524Y0142500D01*
X0182524Y0147500D01*
X0185024Y0150000D01*
X0182524Y0152500D01*
X0182524Y0157500D01*
X0185024Y0160000D01*
X0182524Y0162500D01*
X0182524Y0167500D01*
X0185024Y0170000D01*
X0182524Y0172500D01*
X0182524Y0177500D01*
X0185024Y0180000D01*
X0182524Y0182500D01*
X0182524Y0187500D01*
X0185024Y0190000D01*
X0182524Y0192500D01*
X0182524Y0197500D01*
X0185024Y0200000D01*
X0182524Y0202500D01*
X0182524Y0207500D01*
X0185024Y0210000D01*
X0190024Y0210000D01*
X0192524Y0207500D01*
X0192524Y0202500D01*
X0190024Y0200000D01*
X0192524Y0197500D01*
X0192524Y0192500D01*
X0190024Y0190000D01*
X0192524Y0187500D01*
X0192524Y0182500D01*
X0190024Y0180000D01*
X0192524Y0177500D01*
X0192524Y0172500D01*
X0190024Y0170000D01*
X0192524Y0167500D01*
X0192524Y0162500D01*
X0190024Y0160000D01*
X0192524Y0157500D01*
X0192524Y0152500D01*
X0190024Y0150000D01*
X0192524Y0147500D01*
X0192524Y0142500D01*
X0190024Y0140000D01*
X0192524Y0137500D01*
X0192524Y0132500D01*
X0190024Y0130000D01*
X0185024Y0130000D01*
X0182524Y0132500D01*
X0195909Y0141142D02*
X0203587Y0141142D01*
X0203587Y0143110D01*
X0211461Y0143110D01*
X0211461Y0141142D01*
X0219138Y0141142D01*
X0219138Y0158858D01*
X0195909Y0158858D01*
X0195909Y0141142D01*
X0216920Y0123504D02*
X0219722Y0120702D01*
X0219022Y0121403D02*
X0221124Y0123504D01*
X0222524Y0122500D02*
X0225024Y0125000D01*
X0230024Y0125000D01*
X0232524Y0122500D01*
X0235024Y0125000D01*
X0240024Y0125000D01*
X0242524Y0122500D01*
X0245024Y0125000D01*
X0250024Y0125000D01*
X0252524Y0122500D01*
X0255024Y0125000D01*
X0260024Y0125000D01*
X0262524Y0122500D01*
X0265024Y0125000D01*
X0270024Y0125000D01*
X0272524Y0122500D01*
X0275024Y0125000D01*
X0280024Y0125000D01*
X0282524Y0122500D01*
X0282524Y0117500D01*
X0280024Y0115000D01*
X0275024Y0115000D01*
X0272524Y0117500D01*
X0270024Y0115000D01*
X0265024Y0115000D01*
X0262524Y0117500D01*
X0260024Y0115000D01*
X0255024Y0115000D01*
X0252524Y0117500D01*
X0250024Y0115000D01*
X0245024Y0115000D01*
X0242524Y0117500D01*
X0240024Y0115000D01*
X0235024Y0115000D01*
X0232524Y0117500D01*
X0230024Y0115000D01*
X0225024Y0115000D01*
X0222524Y0117500D01*
X0222524Y0122500D01*
X0221124Y0120702D02*
X0216920Y0120702D01*
X0221124Y0118900D02*
X0221124Y0116098D01*
X0216920Y0116098D01*
X0217621Y0114296D02*
X0216920Y0113596D01*
X0216920Y0111494D01*
X0221124Y0111494D01*
X0221124Y0113596D01*
X0220423Y0114296D01*
X0219722Y0114296D01*
X0219022Y0113596D01*
X0219022Y0111494D01*
X0219022Y0113596D02*
X0218321Y0114296D01*
X0217621Y0114296D01*
X0226972Y0141142D02*
X0238587Y0141142D01*
X0238587Y0143110D01*
X0246461Y0143110D01*
X0246461Y0141142D01*
X0258075Y0141142D01*
X0258075Y0158858D01*
X0226972Y0158858D01*
X0226972Y0141142D01*
X0276622Y0140702D02*
X0276622Y0137900D01*
X0276622Y0140002D02*
X0279424Y0140002D01*
X0279424Y0140702D02*
X0279424Y0137900D01*
X0279424Y0140702D02*
X0278023Y0142104D01*
X0276622Y0140702D01*
X0282524Y0142500D02*
X0282524Y0137500D01*
X0285024Y0135000D01*
X0282524Y0132500D01*
X0282524Y0127500D01*
X0285024Y0125000D01*
X0290024Y0125000D01*
X0292524Y0127500D01*
X0292524Y0132500D01*
X0290024Y0135000D01*
X0292524Y0137500D01*
X0292524Y0142500D01*
X0290024Y0145000D01*
X0292524Y0147500D01*
X0292524Y0152500D01*
X0290024Y0155000D01*
X0292524Y0157500D01*
X0292524Y0162500D01*
X0290024Y0165000D01*
X0292524Y0167500D01*
X0292524Y0172500D01*
X0290024Y0175000D01*
X0292524Y0177500D01*
X0292524Y0182500D01*
X0290024Y0185000D01*
X0285024Y0185000D01*
X0282524Y0182500D01*
X0282524Y0177500D01*
X0285024Y0175000D01*
X0282524Y0172500D01*
X0282524Y0167500D01*
X0285024Y0165000D01*
X0282524Y0162500D01*
X0282524Y0157500D01*
X0285024Y0155000D01*
X0282524Y0152500D01*
X0282524Y0147500D01*
X0285024Y0145000D01*
X0282524Y0142500D01*
X0280624Y0148994D02*
X0276420Y0148994D01*
X0276420Y0151796D01*
X0276420Y0153598D02*
X0280624Y0156400D01*
X0276420Y0156400D01*
X0277121Y0158202D02*
X0279923Y0158202D01*
X0280624Y0158903D01*
X0280624Y0160304D01*
X0279923Y0161004D01*
X0277121Y0161004D02*
X0276420Y0160304D01*
X0276420Y0158903D01*
X0277121Y0158202D01*
X0276420Y0153598D02*
X0280624Y0153598D01*
X0280624Y0151796D02*
X0280624Y0148994D01*
X0278522Y0148994D02*
X0278522Y0150395D01*
X0278723Y0132104D02*
X0276622Y0132104D01*
X0276622Y0127900D01*
X0278723Y0127900D01*
X0279424Y0128601D01*
X0279424Y0129301D01*
X0278723Y0130002D01*
X0276622Y0130002D01*
X0278723Y0130002D02*
X0279424Y0130702D01*
X0279424Y0131403D01*
X0278723Y0132104D01*
X0284621Y0123004D02*
X0283920Y0122304D01*
X0283920Y0120202D01*
X0288124Y0120202D01*
X0288124Y0122304D01*
X0287423Y0123004D01*
X0284621Y0123004D01*
X0283920Y0118400D02*
X0283920Y0115598D01*
X0288124Y0115598D01*
X0288124Y0118400D01*
X0289518Y0118900D02*
X0290919Y0120301D01*
X0292320Y0118900D01*
X0292320Y0123104D01*
X0294122Y0123104D02*
X0294122Y0118900D01*
X0294122Y0121002D02*
X0296924Y0121002D01*
X0296924Y0123104D02*
X0296924Y0118900D01*
X0300127Y0118900D02*
X0300127Y0123104D01*
X0298726Y0123104D02*
X0301528Y0123104D01*
X0289518Y0123104D02*
X0289518Y0118900D01*
X0286022Y0116999D02*
X0286022Y0115598D01*
X0286022Y0113796D02*
X0286722Y0113096D01*
X0286722Y0110994D01*
X0286722Y0112395D02*
X0288124Y0113796D01*
X0286022Y0113796D02*
X0284621Y0113796D01*
X0283920Y0113096D01*
X0283920Y0110994D01*
X0288124Y0110994D01*
X0280124Y0169494D02*
X0275920Y0169494D01*
X0277321Y0170895D01*
X0275920Y0172296D01*
X0280124Y0172296D01*
X0280124Y0175499D02*
X0275920Y0175499D01*
X0275920Y0174098D02*
X0275920Y0176900D01*
X0275920Y0178702D02*
X0275920Y0180804D01*
X0276621Y0181504D01*
X0278022Y0181504D01*
X0278722Y0180804D01*
X0278722Y0178702D01*
X0278722Y0180103D02*
X0280124Y0181504D01*
X0280124Y0178702D02*
X0275920Y0178702D01*
X0289018Y0186900D02*
X0289018Y0191104D01*
X0291120Y0191104D01*
X0291820Y0190403D01*
X0291820Y0189002D01*
X0291120Y0188301D01*
X0289018Y0188301D01*
X0290419Y0188301D02*
X0291820Y0186900D01*
X0293622Y0186900D02*
X0296424Y0186900D01*
X0298226Y0186900D02*
X0300327Y0186900D01*
X0301028Y0187601D01*
X0301028Y0190403D01*
X0300327Y0191104D01*
X0298226Y0191104D01*
X0298226Y0186900D01*
X0295023Y0189002D02*
X0293622Y0189002D01*
X0293622Y0191104D02*
X0293622Y0186900D01*
X0293622Y0191104D02*
X0296424Y0191104D01*
X0297524Y0194200D02*
X0245524Y0194200D01*
X0245524Y0205000D01*
X0245524Y0215000D02*
X0245524Y0225000D01*
X0245524Y0235000D02*
X0245524Y0245000D01*
X0245524Y0255000D02*
X0245524Y0265000D01*
X0245524Y0275000D02*
X0245524Y0285800D01*
X0297524Y0285800D01*
X0297524Y0194200D01*
X0222524Y0242500D02*
X0222524Y0247500D01*
X0220024Y0250000D01*
X0222524Y0252500D01*
X0222524Y0257500D01*
X0220024Y0260000D01*
X0222524Y0262500D01*
X0222524Y0267500D01*
X0220024Y0270000D01*
X0222524Y0272500D01*
X0222524Y0277500D01*
X0220024Y0280000D01*
X0222524Y0282500D01*
X0222524Y0287500D01*
X0220024Y0290000D01*
X0215024Y0290000D01*
X0212524Y0287500D01*
X0212524Y0282500D01*
X0215024Y0280000D01*
X0212524Y0277500D01*
X0212524Y0272500D01*
X0215024Y0270000D01*
X0212524Y0267500D01*
X0212524Y0262500D01*
X0215024Y0260000D01*
X0212524Y0257500D01*
X0212524Y0252500D01*
X0215024Y0250000D01*
X0212524Y0247500D01*
X0212524Y0242500D01*
X0215024Y0240000D01*
X0220024Y0240000D01*
X0222524Y0242500D01*
X0069296Y0250000D02*
X0069303Y0250570D01*
X0069324Y0251140D01*
X0069359Y0251709D01*
X0069408Y0252277D01*
X0069471Y0252843D01*
X0069547Y0253408D01*
X0069638Y0253971D01*
X0069742Y0254532D01*
X0069860Y0255089D01*
X0069992Y0255644D01*
X0070137Y0256195D01*
X0070296Y0256743D01*
X0070468Y0257286D01*
X0070654Y0257825D01*
X0070852Y0258360D01*
X0071064Y0258889D01*
X0071289Y0259413D01*
X0071526Y0259931D01*
X0071776Y0260444D01*
X0072039Y0260950D01*
X0072314Y0261449D01*
X0072601Y0261942D01*
X0072900Y0262427D01*
X0073211Y0262905D01*
X0073533Y0263375D01*
X0073867Y0263837D01*
X0074212Y0264291D01*
X0074569Y0264736D01*
X0074936Y0265172D01*
X0075313Y0265599D01*
X0075701Y0266017D01*
X0076099Y0266425D01*
X0076507Y0266823D01*
X0076925Y0267211D01*
X0077352Y0267588D01*
X0077788Y0267955D01*
X0078233Y0268312D01*
X0078687Y0268657D01*
X0079149Y0268991D01*
X0079619Y0269313D01*
X0080097Y0269624D01*
X0080582Y0269923D01*
X0081075Y0270210D01*
X0081574Y0270485D01*
X0082080Y0270748D01*
X0082593Y0270998D01*
X0083111Y0271235D01*
X0083635Y0271460D01*
X0084164Y0271672D01*
X0084699Y0271870D01*
X0085238Y0272056D01*
X0085781Y0272228D01*
X0086329Y0272387D01*
X0086880Y0272532D01*
X0087435Y0272664D01*
X0087992Y0272782D01*
X0088553Y0272886D01*
X0089116Y0272977D01*
X0089681Y0273053D01*
X0090247Y0273116D01*
X0090815Y0273165D01*
X0091384Y0273200D01*
X0091954Y0273221D01*
X0092524Y0273228D01*
X0093094Y0273221D01*
X0093664Y0273200D01*
X0094233Y0273165D01*
X0094801Y0273116D01*
X0095367Y0273053D01*
X0095932Y0272977D01*
X0096495Y0272886D01*
X0097056Y0272782D01*
X0097613Y0272664D01*
X0098168Y0272532D01*
X0098719Y0272387D01*
X0099267Y0272228D01*
X0099810Y0272056D01*
X0100349Y0271870D01*
X0100884Y0271672D01*
X0101413Y0271460D01*
X0101937Y0271235D01*
X0102455Y0270998D01*
X0102968Y0270748D01*
X0103474Y0270485D01*
X0103973Y0270210D01*
X0104466Y0269923D01*
X0104951Y0269624D01*
X0105429Y0269313D01*
X0105899Y0268991D01*
X0106361Y0268657D01*
X0106815Y0268312D01*
X0107260Y0267955D01*
X0107696Y0267588D01*
X0108123Y0267211D01*
X0108541Y0266823D01*
X0108949Y0266425D01*
X0109347Y0266017D01*
X0109735Y0265599D01*
X0110112Y0265172D01*
X0110479Y0264736D01*
X0110836Y0264291D01*
X0111181Y0263837D01*
X0111515Y0263375D01*
X0111837Y0262905D01*
X0112148Y0262427D01*
X0112447Y0261942D01*
X0112734Y0261449D01*
X0113009Y0260950D01*
X0113272Y0260444D01*
X0113522Y0259931D01*
X0113759Y0259413D01*
X0113984Y0258889D01*
X0114196Y0258360D01*
X0114394Y0257825D01*
X0114580Y0257286D01*
X0114752Y0256743D01*
X0114911Y0256195D01*
X0115056Y0255644D01*
X0115188Y0255089D01*
X0115306Y0254532D01*
X0115410Y0253971D01*
X0115501Y0253408D01*
X0115577Y0252843D01*
X0115640Y0252277D01*
X0115689Y0251709D01*
X0115724Y0251140D01*
X0115745Y0250570D01*
X0115752Y0250000D01*
X0115745Y0249430D01*
X0115724Y0248860D01*
X0115689Y0248291D01*
X0115640Y0247723D01*
X0115577Y0247157D01*
X0115501Y0246592D01*
X0115410Y0246029D01*
X0115306Y0245468D01*
X0115188Y0244911D01*
X0115056Y0244356D01*
X0114911Y0243805D01*
X0114752Y0243257D01*
X0114580Y0242714D01*
X0114394Y0242175D01*
X0114196Y0241640D01*
X0113984Y0241111D01*
X0113759Y0240587D01*
X0113522Y0240069D01*
X0113272Y0239556D01*
X0113009Y0239050D01*
X0112734Y0238551D01*
X0112447Y0238058D01*
X0112148Y0237573D01*
X0111837Y0237095D01*
X0111515Y0236625D01*
X0111181Y0236163D01*
X0110836Y0235709D01*
X0110479Y0235264D01*
X0110112Y0234828D01*
X0109735Y0234401D01*
X0109347Y0233983D01*
X0108949Y0233575D01*
X0108541Y0233177D01*
X0108123Y0232789D01*
X0107696Y0232412D01*
X0107260Y0232045D01*
X0106815Y0231688D01*
X0106361Y0231343D01*
X0105899Y0231009D01*
X0105429Y0230687D01*
X0104951Y0230376D01*
X0104466Y0230077D01*
X0103973Y0229790D01*
X0103474Y0229515D01*
X0102968Y0229252D01*
X0102455Y0229002D01*
X0101937Y0228765D01*
X0101413Y0228540D01*
X0100884Y0228328D01*
X0100349Y0228130D01*
X0099810Y0227944D01*
X0099267Y0227772D01*
X0098719Y0227613D01*
X0098168Y0227468D01*
X0097613Y0227336D01*
X0097056Y0227218D01*
X0096495Y0227114D01*
X0095932Y0227023D01*
X0095367Y0226947D01*
X0094801Y0226884D01*
X0094233Y0226835D01*
X0093664Y0226800D01*
X0093094Y0226779D01*
X0092524Y0226772D01*
X0091954Y0226779D01*
X0091384Y0226800D01*
X0090815Y0226835D01*
X0090247Y0226884D01*
X0089681Y0226947D01*
X0089116Y0227023D01*
X0088553Y0227114D01*
X0087992Y0227218D01*
X0087435Y0227336D01*
X0086880Y0227468D01*
X0086329Y0227613D01*
X0085781Y0227772D01*
X0085238Y0227944D01*
X0084699Y0228130D01*
X0084164Y0228328D01*
X0083635Y0228540D01*
X0083111Y0228765D01*
X0082593Y0229002D01*
X0082080Y0229252D01*
X0081574Y0229515D01*
X0081075Y0229790D01*
X0080582Y0230077D01*
X0080097Y0230376D01*
X0079619Y0230687D01*
X0079149Y0231009D01*
X0078687Y0231343D01*
X0078233Y0231688D01*
X0077788Y0232045D01*
X0077352Y0232412D01*
X0076925Y0232789D01*
X0076507Y0233177D01*
X0076099Y0233575D01*
X0075701Y0233983D01*
X0075313Y0234401D01*
X0074936Y0234828D01*
X0074569Y0235264D01*
X0074212Y0235709D01*
X0073867Y0236163D01*
X0073533Y0236625D01*
X0073211Y0237095D01*
X0072900Y0237573D01*
X0072601Y0238058D01*
X0072314Y0238551D01*
X0072039Y0239050D01*
X0071776Y0239556D01*
X0071526Y0240069D01*
X0071289Y0240587D01*
X0071064Y0241111D01*
X0070852Y0241640D01*
X0070654Y0242175D01*
X0070468Y0242714D01*
X0070296Y0243257D01*
X0070137Y0243805D01*
X0069992Y0244356D01*
X0069860Y0244911D01*
X0069742Y0245468D01*
X0069638Y0246029D01*
X0069547Y0246592D01*
X0069471Y0247157D01*
X0069408Y0247723D01*
X0069359Y0248291D01*
X0069324Y0248860D01*
X0069303Y0249430D01*
X0069296Y0250000D01*
X0075024Y0280000D02*
X0090024Y0280000D01*
D11*
X0153163Y0270721D02*
X0153163Y0266784D01*
X0154147Y0265800D01*
X0156115Y0265800D01*
X0157100Y0266784D01*
X0159608Y0266784D02*
X0160593Y0265800D01*
X0163545Y0265800D01*
X0163545Y0269737D01*
X0166054Y0269737D02*
X0166054Y0265800D01*
X0166054Y0267768D02*
X0168022Y0269737D01*
X0169006Y0269737D01*
X0171425Y0269737D02*
X0171425Y0265800D01*
X0171425Y0267768D02*
X0173393Y0269737D01*
X0174378Y0269737D01*
X0176796Y0268753D02*
X0177780Y0269737D01*
X0179749Y0269737D01*
X0180733Y0268753D01*
X0180733Y0267768D01*
X0176796Y0267768D01*
X0176796Y0266784D02*
X0176796Y0268753D01*
X0176796Y0266784D02*
X0177780Y0265800D01*
X0179749Y0265800D01*
X0183242Y0265800D02*
X0183242Y0269737D01*
X0186194Y0269737D01*
X0187179Y0268753D01*
X0187179Y0265800D01*
X0190671Y0266784D02*
X0191656Y0265800D01*
X0190671Y0266784D02*
X0190671Y0270721D01*
X0189687Y0269737D02*
X0191656Y0269737D01*
X0186194Y0259237D02*
X0187179Y0258253D01*
X0187179Y0257268D01*
X0183242Y0257268D01*
X0183242Y0256284D02*
X0183242Y0258253D01*
X0184226Y0259237D01*
X0186194Y0259237D01*
X0186194Y0255300D02*
X0184226Y0255300D01*
X0183242Y0256284D01*
X0180733Y0256284D02*
X0179749Y0257268D01*
X0177781Y0257268D01*
X0176796Y0258253D01*
X0177781Y0259237D01*
X0180733Y0259237D01*
X0180733Y0256284D02*
X0179749Y0255300D01*
X0176796Y0255300D01*
X0174288Y0255300D02*
X0174288Y0258253D01*
X0173303Y0259237D01*
X0170351Y0259237D01*
X0170351Y0255300D01*
X0167842Y0257268D02*
X0163905Y0257268D01*
X0163905Y0256284D02*
X0163905Y0258253D01*
X0164890Y0259237D01*
X0166858Y0259237D01*
X0167842Y0258253D01*
X0167842Y0257268D01*
X0166858Y0255300D02*
X0164890Y0255300D01*
X0163905Y0256284D01*
X0161397Y0256284D02*
X0160412Y0255300D01*
X0158444Y0255300D01*
X0157460Y0256284D01*
X0158444Y0258253D02*
X0160412Y0258253D01*
X0161397Y0257268D01*
X0161397Y0256284D01*
X0158444Y0258253D02*
X0157460Y0259237D01*
X0157460Y0260221D01*
X0158444Y0261205D01*
X0160412Y0261205D01*
X0161397Y0260221D01*
X0159608Y0266784D02*
X0159608Y0269737D01*
X0157100Y0270721D02*
X0156115Y0271705D01*
X0154147Y0271705D01*
X0153163Y0270721D01*
X0229569Y0230426D02*
X0229569Y0227473D01*
X0235474Y0227473D01*
X0233505Y0227473D02*
X0233505Y0230426D01*
X0232521Y0231410D01*
X0230553Y0231410D01*
X0229569Y0230426D01*
X0232521Y0233919D02*
X0234489Y0233919D01*
X0235474Y0234903D01*
X0235474Y0236871D01*
X0234489Y0237856D01*
X0232521Y0237856D01*
X0231537Y0236871D01*
X0231537Y0234903D01*
X0232521Y0233919D01*
X0231537Y0240364D02*
X0234489Y0240364D01*
X0235474Y0241349D01*
X0234489Y0242333D01*
X0235474Y0243317D01*
X0234489Y0244301D01*
X0231537Y0244301D01*
X0232521Y0246810D02*
X0231537Y0247794D01*
X0231537Y0249762D01*
X0232521Y0250747D01*
X0233505Y0250747D01*
X0233505Y0246810D01*
X0234489Y0246810D02*
X0232521Y0246810D01*
X0234489Y0246810D02*
X0235474Y0247794D01*
X0235474Y0249762D01*
X0235474Y0253255D02*
X0231537Y0253255D01*
X0233505Y0253255D02*
X0231537Y0255224D01*
X0231537Y0256208D01*
X0230618Y0185455D02*
X0228649Y0185455D01*
X0227665Y0184471D01*
X0227665Y0180534D01*
X0228649Y0179550D01*
X0230618Y0179550D01*
X0231602Y0180534D01*
X0234111Y0179550D02*
X0234111Y0183487D01*
X0236079Y0183487D02*
X0234111Y0181518D01*
X0236079Y0183487D02*
X0237063Y0183487D01*
X0240466Y0183487D02*
X0242434Y0183487D01*
X0243419Y0182503D01*
X0243419Y0179550D01*
X0240466Y0179550D01*
X0239482Y0180534D01*
X0240466Y0181518D01*
X0243419Y0181518D01*
X0245927Y0180534D02*
X0246912Y0179550D01*
X0249864Y0179550D01*
X0252373Y0179550D02*
X0252373Y0185455D01*
X0249864Y0183487D02*
X0246912Y0183487D01*
X0245927Y0182503D01*
X0245927Y0180534D01*
X0252373Y0181518D02*
X0255325Y0179550D01*
X0257744Y0180534D02*
X0257744Y0182503D01*
X0258728Y0183487D01*
X0260697Y0183487D01*
X0261681Y0182503D01*
X0261681Y0181518D01*
X0257744Y0181518D01*
X0257744Y0180534D02*
X0258728Y0179550D01*
X0260697Y0179550D01*
X0264190Y0179550D02*
X0264190Y0183487D01*
X0266158Y0183487D02*
X0264190Y0181518D01*
X0266158Y0183487D02*
X0267142Y0183487D01*
X0255325Y0183487D02*
X0252373Y0181518D01*
X0268037Y0168134D02*
X0268037Y0167149D01*
X0270005Y0165181D01*
X0268037Y0165181D02*
X0271974Y0165181D01*
X0270989Y0162672D02*
X0269021Y0162672D01*
X0268037Y0161688D01*
X0268037Y0159720D01*
X0269021Y0158736D01*
X0270989Y0158736D01*
X0271974Y0159720D01*
X0271974Y0161688D01*
X0270989Y0162672D01*
X0271974Y0156407D02*
X0270989Y0155423D01*
X0267053Y0155423D01*
X0268037Y0154439D02*
X0268037Y0156407D01*
X0269021Y0151930D02*
X0268037Y0150946D01*
X0268037Y0148977D01*
X0269021Y0147993D01*
X0270989Y0147993D01*
X0271974Y0148977D01*
X0271974Y0150946D01*
X0270989Y0151930D01*
X0269021Y0151930D01*
X0266069Y0145484D02*
X0271974Y0145484D01*
X0271974Y0141548D02*
X0266069Y0141548D01*
X0268037Y0143516D01*
X0266069Y0145484D01*
X0258280Y0134455D02*
X0258280Y0128550D01*
X0257296Y0128550D02*
X0259265Y0128550D01*
X0261593Y0129534D02*
X0262577Y0130518D01*
X0265530Y0130518D01*
X0265530Y0131503D02*
X0265530Y0128550D01*
X0262577Y0128550D01*
X0261593Y0129534D01*
X0262577Y0132487D02*
X0264546Y0132487D01*
X0265530Y0131503D01*
X0268039Y0132487D02*
X0268039Y0129534D01*
X0269023Y0128550D01*
X0271976Y0128550D01*
X0271976Y0127566D02*
X0270991Y0126582D01*
X0270007Y0126582D01*
X0271976Y0127566D02*
X0271976Y0132487D01*
X0258280Y0134455D02*
X0257296Y0134455D01*
X0254788Y0131503D02*
X0254788Y0129534D01*
X0253803Y0128550D01*
X0250851Y0128550D01*
X0250851Y0126582D02*
X0250851Y0132487D01*
X0253803Y0132487D01*
X0254788Y0131503D01*
X0248342Y0132487D02*
X0245390Y0132487D01*
X0244405Y0131503D01*
X0245390Y0130518D01*
X0247358Y0130518D01*
X0248342Y0129534D01*
X0247358Y0128550D01*
X0244405Y0128550D01*
X0242077Y0128550D02*
X0240108Y0128550D01*
X0241093Y0128550D02*
X0241093Y0132487D01*
X0240108Y0132487D01*
X0241093Y0134455D02*
X0241093Y0135439D01*
X0237600Y0133471D02*
X0236615Y0134455D01*
X0233663Y0134455D01*
X0233663Y0128550D01*
X0236615Y0128550D01*
X0237600Y0129534D01*
X0237600Y0133471D01*
X0238916Y0161550D02*
X0238916Y0164503D01*
X0237932Y0165487D01*
X0235964Y0165487D01*
X0234980Y0164503D01*
X0232471Y0164503D02*
X0232471Y0166471D01*
X0231487Y0167455D01*
X0228534Y0167455D01*
X0228534Y0161550D01*
X0228534Y0163518D02*
X0231487Y0163518D01*
X0232471Y0164503D01*
X0234980Y0167455D02*
X0234980Y0161550D01*
X0241425Y0162534D02*
X0242409Y0161550D01*
X0244378Y0161550D01*
X0245362Y0162534D01*
X0245362Y0164503D01*
X0244378Y0165487D01*
X0242409Y0165487D01*
X0241425Y0164503D01*
X0241425Y0162534D01*
X0247871Y0165487D02*
X0249839Y0165487D01*
X0248855Y0166471D02*
X0248855Y0162534D01*
X0249839Y0161550D01*
X0252168Y0162534D02*
X0253152Y0161550D01*
X0255120Y0161550D01*
X0256104Y0162534D01*
X0256104Y0164503D01*
X0255120Y0165487D01*
X0253152Y0165487D01*
X0252168Y0164503D01*
X0252168Y0162534D01*
X0231602Y0184471D02*
X0230618Y0185455D01*
X0218711Y0182503D02*
X0218711Y0181518D01*
X0214774Y0181518D01*
X0214774Y0180534D02*
X0214774Y0182503D01*
X0215758Y0183487D01*
X0217727Y0183487D01*
X0218711Y0182503D01*
X0217727Y0179550D02*
X0215758Y0179550D01*
X0214774Y0180534D01*
X0212446Y0182503D02*
X0210477Y0182503D01*
X0211461Y0184471D02*
X0211461Y0179550D01*
X0207968Y0179550D02*
X0207968Y0182503D01*
X0206984Y0183487D01*
X0205016Y0183487D01*
X0205016Y0181518D02*
X0207968Y0181518D01*
X0207968Y0179550D02*
X0205016Y0179550D01*
X0204032Y0180534D01*
X0205016Y0181518D01*
X0201523Y0181518D02*
X0201523Y0180534D01*
X0200539Y0179550D01*
X0198570Y0179550D01*
X0197586Y0180534D01*
X0198570Y0182503D02*
X0200539Y0182503D01*
X0201523Y0181518D01*
X0201523Y0184471D02*
X0200539Y0185455D01*
X0198570Y0185455D01*
X0197586Y0184471D01*
X0197586Y0183487D01*
X0198570Y0182503D01*
X0211461Y0184471D02*
X0212446Y0185455D01*
X0207409Y0166471D02*
X0207409Y0162534D01*
X0208393Y0161550D01*
X0210722Y0161550D02*
X0210722Y0165487D01*
X0213675Y0165487D01*
X0214659Y0164503D01*
X0214659Y0161550D01*
X0208393Y0165487D02*
X0206425Y0165487D01*
X0203916Y0165487D02*
X0202932Y0164503D01*
X0199980Y0164503D01*
X0199980Y0167455D02*
X0199980Y0161550D01*
X0202932Y0161550D01*
X0203916Y0162534D01*
X0203916Y0163518D01*
X0202932Y0164503D01*
X0203916Y0165487D02*
X0203916Y0166471D01*
X0202932Y0167455D01*
X0199980Y0167455D01*
X0153119Y0162800D02*
X0151150Y0162800D01*
X0152134Y0162800D02*
X0152134Y0168705D01*
X0151150Y0168705D01*
X0148641Y0165753D02*
X0147657Y0166737D01*
X0145689Y0166737D01*
X0144705Y0165753D01*
X0144705Y0163784D01*
X0145689Y0162800D01*
X0147657Y0162800D01*
X0148641Y0163784D01*
X0148641Y0165753D01*
X0142286Y0166737D02*
X0141302Y0166737D01*
X0139333Y0164768D01*
X0139333Y0162800D02*
X0139333Y0166737D01*
X0137005Y0166737D02*
X0135036Y0166737D01*
X0136021Y0167721D02*
X0136021Y0163784D01*
X0137005Y0162800D01*
X0132528Y0162800D02*
X0132528Y0165753D01*
X0131543Y0166737D01*
X0128591Y0166737D01*
X0128591Y0162800D01*
X0126082Y0163784D02*
X0126082Y0165753D01*
X0125098Y0166737D01*
X0123130Y0166737D01*
X0122145Y0165753D01*
X0122145Y0163784D01*
X0123130Y0162800D01*
X0125098Y0162800D01*
X0126082Y0163784D01*
X0119637Y0163784D02*
X0118652Y0162800D01*
X0116684Y0162800D01*
X0115700Y0163784D01*
X0115700Y0167721D01*
X0116684Y0168705D01*
X0118652Y0168705D01*
X0119637Y0167721D01*
X0121071Y0173300D02*
X0121071Y0179205D01*
X0123040Y0177237D01*
X0125008Y0179205D01*
X0125008Y0173300D01*
X0127517Y0174284D02*
X0128501Y0173300D01*
X0130469Y0173300D01*
X0131453Y0174284D01*
X0131453Y0176253D01*
X0130469Y0177237D01*
X0128501Y0177237D01*
X0127517Y0176253D01*
X0127517Y0174284D01*
X0133962Y0177237D02*
X0135931Y0177237D01*
X0134946Y0178221D02*
X0134946Y0174284D01*
X0135931Y0173300D01*
X0138259Y0174284D02*
X0139243Y0173300D01*
X0141212Y0173300D01*
X0142196Y0174284D01*
X0142196Y0176253D01*
X0141212Y0177237D01*
X0139243Y0177237D01*
X0138259Y0176253D01*
X0138259Y0174284D01*
X0144705Y0173300D02*
X0144705Y0177237D01*
X0146673Y0177237D02*
X0147657Y0177237D01*
X0146673Y0177237D02*
X0144705Y0175268D01*
X0118843Y0123487D02*
X0116874Y0123487D01*
X0115890Y0122503D01*
X0115890Y0120534D01*
X0116874Y0119550D01*
X0118843Y0119550D01*
X0119827Y0121518D02*
X0115890Y0121518D01*
X0113562Y0119550D02*
X0111593Y0119550D01*
X0112577Y0119550D02*
X0112577Y0125455D01*
X0111593Y0125455D01*
X0109085Y0125455D02*
X0109085Y0119550D01*
X0106132Y0119550D01*
X0105148Y0120534D01*
X0105148Y0122503D01*
X0106132Y0123487D01*
X0109085Y0123487D01*
X0102639Y0122503D02*
X0102639Y0119550D01*
X0102639Y0122503D02*
X0101655Y0123487D01*
X0098702Y0123487D01*
X0098702Y0119550D01*
X0096194Y0119550D02*
X0093241Y0119550D01*
X0092257Y0120534D01*
X0093241Y0121518D01*
X0096194Y0121518D01*
X0096194Y0122503D02*
X0096194Y0119550D01*
X0096194Y0122503D02*
X0095209Y0123487D01*
X0093241Y0123487D01*
X0089748Y0122503D02*
X0085811Y0122503D01*
X0085811Y0125455D02*
X0085811Y0119550D01*
X0089748Y0119550D02*
X0089748Y0125455D01*
X0118843Y0123487D02*
X0119827Y0122503D01*
X0119827Y0121518D01*
D12*
X0072524Y0130000D02*
X0072524Y0210000D01*
X0192524Y0210000D01*
X0192524Y0130000D01*
X0072524Y0130000D01*
X0122524Y0215000D02*
X0222524Y0215000D01*
X0222524Y0315000D01*
X0122524Y0315000D01*
X0122524Y0215000D01*
D13*
X0111159Y0280346D02*
X0112177Y0281364D01*
X0110967Y0282848D01*
X0111275Y0283446D01*
X0111480Y0284087D01*
X0113385Y0284280D01*
X0113385Y0285720D01*
X0111480Y0285913D01*
X0111275Y0286554D01*
X0110967Y0287152D01*
X0112177Y0288636D01*
X0111159Y0289654D01*
X0109675Y0288443D01*
X0109077Y0288751D01*
X0108437Y0288956D01*
X0108243Y0290861D01*
X0106804Y0290861D01*
X0106610Y0288956D01*
X0105970Y0288751D01*
X0105372Y0288443D01*
X0103888Y0289654D01*
X0102870Y0288636D01*
X0104080Y0287152D01*
X0103772Y0286554D01*
X0103567Y0285913D01*
X0101662Y0285720D01*
X0101662Y0284280D01*
X0103567Y0284087D01*
X0103772Y0283446D01*
X0104080Y0282848D01*
X0102870Y0281364D01*
X0103888Y0280346D01*
X0105372Y0281557D01*
X0105970Y0281249D01*
X0106817Y0283295D01*
X0106439Y0283507D01*
X0106120Y0283801D01*
X0105879Y0284162D01*
X0105729Y0284569D01*
X0105678Y0285000D01*
X0105731Y0285439D01*
X0105887Y0285852D01*
X0106136Y0286217D01*
X0106465Y0286511D01*
X0106855Y0286720D01*
X0107283Y0286829D01*
X0107724Y0286834D01*
X0108154Y0286734D01*
X0108549Y0286534D01*
X0108884Y0286246D01*
X0109141Y0285887D01*
X0109306Y0285477D01*
X0109368Y0285040D01*
X0109325Y0284600D01*
X0109179Y0284184D01*
X0108937Y0283814D01*
X0108615Y0283512D01*
X0108230Y0283295D01*
X0109078Y0281249D01*
X0109675Y0281557D01*
X0111159Y0280346D01*
X0111655Y0280842D02*
X0110551Y0280842D01*
X0109829Y0281431D02*
X0112122Y0281431D01*
X0111642Y0282020D02*
X0108758Y0282020D01*
X0109002Y0281431D02*
X0109432Y0281431D01*
X0108514Y0282609D02*
X0111162Y0282609D01*
X0111147Y0283198D02*
X0108270Y0283198D01*
X0108909Y0283788D02*
X0111384Y0283788D01*
X0113385Y0284377D02*
X0109246Y0284377D01*
X0109361Y0284966D02*
X0113385Y0284966D01*
X0113385Y0285555D02*
X0109275Y0285555D01*
X0108957Y0286144D02*
X0111406Y0286144D01*
X0111183Y0286733D02*
X0108156Y0286733D01*
X0106906Y0286733D02*
X0103865Y0286733D01*
X0103941Y0287322D02*
X0111106Y0287322D01*
X0111586Y0287911D02*
X0103461Y0287911D01*
X0102981Y0288500D02*
X0105303Y0288500D01*
X0105482Y0288500D02*
X0109565Y0288500D01*
X0109745Y0288500D02*
X0112066Y0288500D01*
X0111724Y0289089D02*
X0110467Y0289089D01*
X0108424Y0289089D02*
X0106624Y0289089D01*
X0106684Y0289678D02*
X0108364Y0289678D01*
X0108304Y0290267D02*
X0106744Y0290267D01*
X0106803Y0290856D02*
X0108244Y0290856D01*
X0104580Y0289089D02*
X0103323Y0289089D01*
X0103641Y0286144D02*
X0106086Y0286144D01*
X0105775Y0285555D02*
X0101662Y0285555D01*
X0101662Y0284966D02*
X0105682Y0284966D01*
X0105800Y0284377D02*
X0101662Y0284377D01*
X0103663Y0283788D02*
X0106135Y0283788D01*
X0106777Y0283198D02*
X0103900Y0283198D01*
X0103885Y0282609D02*
X0106533Y0282609D01*
X0106289Y0282020D02*
X0103405Y0282020D01*
X0102925Y0281431D02*
X0105218Y0281431D01*
X0105616Y0281431D02*
X0106045Y0281431D01*
X0104496Y0280842D02*
X0103392Y0280842D01*
D14*
X0197024Y0201728D02*
X0231971Y0201728D01*
X0242024Y0201728D01*
X0242024Y0194894D01*
X0242024Y0189272D01*
X0231566Y0189272D01*
X0231566Y0190428D01*
X0231971Y0190428D01*
X0231971Y0194894D01*
X0235764Y0194894D01*
X0234108Y0192480D01*
X0235616Y0192480D01*
X0236979Y0194551D01*
X0238334Y0192480D01*
X0239895Y0192480D01*
X0238249Y0194894D01*
X0242024Y0194894D01*
X0238249Y0194894D01*
X0237789Y0195567D01*
X0239805Y0198515D01*
X0238298Y0198515D01*
X0237020Y0196558D01*
X0235751Y0198515D01*
X0234198Y0198515D01*
X0236214Y0195549D01*
X0235764Y0194894D01*
X0231971Y0194894D01*
X0231971Y0200572D01*
X0198180Y0200572D01*
X0198180Y0190428D01*
X0231566Y0190428D01*
X0231566Y0189272D01*
X0197024Y0189272D01*
X0197024Y0201728D01*
X0197024Y0201712D02*
X0242024Y0201712D01*
X0242024Y0201674D02*
X0197024Y0201674D01*
X0197024Y0201636D02*
X0242024Y0201636D01*
X0242024Y0201598D02*
X0197024Y0201598D01*
X0197024Y0201560D02*
X0242024Y0201560D01*
X0242024Y0201522D02*
X0197024Y0201522D01*
X0197024Y0201484D02*
X0242024Y0201484D01*
X0242024Y0201446D02*
X0197024Y0201446D01*
X0197024Y0201409D02*
X0242024Y0201409D01*
X0242024Y0201371D02*
X0197024Y0201371D01*
X0197024Y0201333D02*
X0242024Y0201333D01*
X0242024Y0201295D02*
X0197024Y0201295D01*
X0197024Y0201257D02*
X0242024Y0201257D01*
X0242024Y0201219D02*
X0197024Y0201219D01*
X0197024Y0201181D02*
X0242024Y0201181D01*
X0242024Y0201143D02*
X0197024Y0201143D01*
X0197024Y0201105D02*
X0242024Y0201105D01*
X0242024Y0201068D02*
X0197024Y0201068D01*
X0197024Y0201030D02*
X0242024Y0201030D01*
X0242024Y0200992D02*
X0197024Y0200992D01*
X0197024Y0200954D02*
X0242024Y0200954D01*
X0242024Y0200916D02*
X0197024Y0200916D01*
X0197024Y0200878D02*
X0242024Y0200878D01*
X0242024Y0200840D02*
X0197024Y0200840D01*
X0197024Y0200802D02*
X0242024Y0200802D01*
X0242024Y0200765D02*
X0197024Y0200765D01*
X0197024Y0200727D02*
X0242024Y0200727D01*
X0242024Y0200689D02*
X0197024Y0200689D01*
X0197024Y0200651D02*
X0242024Y0200651D01*
X0242024Y0200613D02*
X0197024Y0200613D01*
X0197024Y0200575D02*
X0242024Y0200575D01*
X0242024Y0200537D02*
X0231971Y0200537D01*
X0231971Y0200499D02*
X0242024Y0200499D01*
X0242024Y0200461D02*
X0231971Y0200461D01*
X0231971Y0200424D02*
X0242024Y0200424D01*
X0242024Y0200386D02*
X0231971Y0200386D01*
X0231971Y0200348D02*
X0242024Y0200348D01*
X0242024Y0200310D02*
X0231971Y0200310D01*
X0231971Y0200272D02*
X0242024Y0200272D01*
X0242024Y0200234D02*
X0231971Y0200234D01*
X0231971Y0200196D02*
X0242024Y0200196D01*
X0242024Y0200158D02*
X0231971Y0200158D01*
X0231971Y0200121D02*
X0242024Y0200121D01*
X0242024Y0200083D02*
X0231971Y0200083D01*
X0231971Y0200045D02*
X0242024Y0200045D01*
X0242024Y0200007D02*
X0231971Y0200007D01*
X0231971Y0199969D02*
X0242024Y0199969D01*
X0242024Y0199931D02*
X0231971Y0199931D01*
X0231971Y0199893D02*
X0242024Y0199893D01*
X0242024Y0199855D02*
X0231971Y0199855D01*
X0231971Y0199817D02*
X0242024Y0199817D01*
X0242024Y0199780D02*
X0231971Y0199780D01*
X0231971Y0199742D02*
X0242024Y0199742D01*
X0242024Y0199704D02*
X0231971Y0199704D01*
X0231971Y0199666D02*
X0242024Y0199666D01*
X0242024Y0199628D02*
X0231971Y0199628D01*
X0231971Y0199590D02*
X0242024Y0199590D01*
X0242024Y0199552D02*
X0231971Y0199552D01*
X0231971Y0199514D02*
X0242024Y0199514D01*
X0242024Y0199477D02*
X0231971Y0199477D01*
X0231971Y0199439D02*
X0242024Y0199439D01*
X0242024Y0199401D02*
X0231971Y0199401D01*
X0231971Y0199363D02*
X0242024Y0199363D01*
X0242024Y0199325D02*
X0231971Y0199325D01*
X0231971Y0199287D02*
X0242024Y0199287D01*
X0242024Y0199249D02*
X0231971Y0199249D01*
X0231971Y0199211D02*
X0242024Y0199211D01*
X0242024Y0199173D02*
X0231971Y0199173D01*
X0231971Y0199136D02*
X0242024Y0199136D01*
X0242024Y0199098D02*
X0231971Y0199098D01*
X0231971Y0199060D02*
X0242024Y0199060D01*
X0242024Y0199022D02*
X0231971Y0199022D01*
X0231971Y0198984D02*
X0242024Y0198984D01*
X0242024Y0198946D02*
X0231971Y0198946D01*
X0231971Y0198908D02*
X0242024Y0198908D01*
X0242024Y0198870D02*
X0231971Y0198870D01*
X0231971Y0198833D02*
X0242024Y0198833D01*
X0242024Y0198795D02*
X0231971Y0198795D01*
X0231971Y0198757D02*
X0242024Y0198757D01*
X0242024Y0198719D02*
X0231971Y0198719D01*
X0231971Y0198681D02*
X0242024Y0198681D01*
X0242024Y0198643D02*
X0231971Y0198643D01*
X0231971Y0198605D02*
X0242024Y0198605D01*
X0242024Y0198567D02*
X0231971Y0198567D01*
X0231971Y0198530D02*
X0242024Y0198530D01*
X0242024Y0198492D02*
X0239789Y0198492D01*
X0239763Y0198454D02*
X0242024Y0198454D01*
X0242024Y0198416D02*
X0239737Y0198416D01*
X0239711Y0198378D02*
X0242024Y0198378D01*
X0242024Y0198340D02*
X0239686Y0198340D01*
X0239660Y0198302D02*
X0242024Y0198302D01*
X0242024Y0198264D02*
X0239634Y0198264D01*
X0239608Y0198226D02*
X0242024Y0198226D01*
X0242024Y0198189D02*
X0239582Y0198189D01*
X0239556Y0198151D02*
X0242024Y0198151D01*
X0242024Y0198113D02*
X0239530Y0198113D01*
X0239504Y0198075D02*
X0242024Y0198075D01*
X0242024Y0198037D02*
X0239478Y0198037D01*
X0239452Y0197999D02*
X0242024Y0197999D01*
X0242024Y0197961D02*
X0239426Y0197961D01*
X0239401Y0197923D02*
X0242024Y0197923D01*
X0242024Y0197886D02*
X0239375Y0197886D01*
X0239349Y0197848D02*
X0242024Y0197848D01*
X0242024Y0197810D02*
X0239323Y0197810D01*
X0239297Y0197772D02*
X0242024Y0197772D01*
X0242024Y0197734D02*
X0239271Y0197734D01*
X0239245Y0197696D02*
X0242024Y0197696D01*
X0242024Y0197658D02*
X0239219Y0197658D01*
X0239193Y0197620D02*
X0242024Y0197620D01*
X0242024Y0197582D02*
X0239167Y0197582D01*
X0239141Y0197545D02*
X0242024Y0197545D01*
X0242024Y0197507D02*
X0239115Y0197507D01*
X0239090Y0197469D02*
X0242024Y0197469D01*
X0242024Y0197431D02*
X0239064Y0197431D01*
X0239038Y0197393D02*
X0242024Y0197393D01*
X0242024Y0197355D02*
X0239012Y0197355D01*
X0238986Y0197317D02*
X0242024Y0197317D01*
X0242024Y0197279D02*
X0238960Y0197279D01*
X0238934Y0197242D02*
X0242024Y0197242D01*
X0242024Y0197204D02*
X0238908Y0197204D01*
X0238882Y0197166D02*
X0242024Y0197166D01*
X0242024Y0197128D02*
X0238856Y0197128D01*
X0238830Y0197090D02*
X0242024Y0197090D01*
X0242024Y0197052D02*
X0238805Y0197052D01*
X0238779Y0197014D02*
X0242024Y0197014D01*
X0242024Y0196976D02*
X0238753Y0196976D01*
X0238727Y0196938D02*
X0242024Y0196938D01*
X0242024Y0196901D02*
X0238701Y0196901D01*
X0238675Y0196863D02*
X0242024Y0196863D01*
X0242024Y0196825D02*
X0238649Y0196825D01*
X0238623Y0196787D02*
X0242024Y0196787D01*
X0242024Y0196749D02*
X0238597Y0196749D01*
X0238571Y0196711D02*
X0242024Y0196711D01*
X0242024Y0196673D02*
X0238545Y0196673D01*
X0238520Y0196635D02*
X0242024Y0196635D01*
X0242024Y0196598D02*
X0238494Y0196598D01*
X0238468Y0196560D02*
X0242024Y0196560D01*
X0242024Y0196522D02*
X0238442Y0196522D01*
X0238416Y0196484D02*
X0242024Y0196484D01*
X0242024Y0196446D02*
X0238390Y0196446D01*
X0238364Y0196408D02*
X0242024Y0196408D01*
X0242024Y0196370D02*
X0238338Y0196370D01*
X0238312Y0196332D02*
X0242024Y0196332D01*
X0242024Y0196295D02*
X0238286Y0196295D01*
X0238260Y0196257D02*
X0242024Y0196257D01*
X0242024Y0196219D02*
X0238235Y0196219D01*
X0238209Y0196181D02*
X0242024Y0196181D01*
X0242024Y0196143D02*
X0238183Y0196143D01*
X0238157Y0196105D02*
X0242024Y0196105D01*
X0242024Y0196067D02*
X0238131Y0196067D01*
X0238105Y0196029D02*
X0242024Y0196029D01*
X0242024Y0195991D02*
X0238079Y0195991D01*
X0238053Y0195954D02*
X0242024Y0195954D01*
X0242024Y0195916D02*
X0238027Y0195916D01*
X0238001Y0195878D02*
X0242024Y0195878D01*
X0242024Y0195840D02*
X0237975Y0195840D01*
X0237950Y0195802D02*
X0242024Y0195802D01*
X0242024Y0195764D02*
X0237924Y0195764D01*
X0237898Y0195726D02*
X0242024Y0195726D01*
X0242024Y0195688D02*
X0237872Y0195688D01*
X0237846Y0195651D02*
X0242024Y0195651D01*
X0242024Y0195613D02*
X0237820Y0195613D01*
X0237794Y0195575D02*
X0242024Y0195575D01*
X0242024Y0195537D02*
X0237810Y0195537D01*
X0237836Y0195499D02*
X0242024Y0195499D01*
X0242024Y0195461D02*
X0237862Y0195461D01*
X0237888Y0195423D02*
X0242024Y0195423D01*
X0242024Y0195385D02*
X0237913Y0195385D01*
X0237939Y0195347D02*
X0242024Y0195347D01*
X0242024Y0195310D02*
X0237965Y0195310D01*
X0237991Y0195272D02*
X0242024Y0195272D01*
X0242024Y0195234D02*
X0238017Y0195234D01*
X0238043Y0195196D02*
X0242024Y0195196D01*
X0242024Y0195158D02*
X0238069Y0195158D01*
X0238094Y0195120D02*
X0242024Y0195120D01*
X0242024Y0195082D02*
X0238120Y0195082D01*
X0238146Y0195044D02*
X0242024Y0195044D01*
X0242024Y0195007D02*
X0238172Y0195007D01*
X0238198Y0194969D02*
X0242024Y0194969D01*
X0242024Y0194931D02*
X0238224Y0194931D01*
X0238250Y0194893D02*
X0242024Y0194893D01*
X0242024Y0194855D02*
X0238275Y0194855D01*
X0238301Y0194817D02*
X0242024Y0194817D01*
X0242024Y0194779D02*
X0238327Y0194779D01*
X0238353Y0194741D02*
X0242024Y0194741D01*
X0242024Y0194703D02*
X0238379Y0194703D01*
X0238405Y0194666D02*
X0242024Y0194666D01*
X0242024Y0194628D02*
X0238430Y0194628D01*
X0238456Y0194590D02*
X0242024Y0194590D01*
X0242024Y0194552D02*
X0238482Y0194552D01*
X0238508Y0194514D02*
X0242024Y0194514D01*
X0242024Y0194476D02*
X0238534Y0194476D01*
X0238560Y0194438D02*
X0242024Y0194438D01*
X0242024Y0194400D02*
X0238585Y0194400D01*
X0238611Y0194363D02*
X0242024Y0194363D01*
X0242024Y0194325D02*
X0238637Y0194325D01*
X0238663Y0194287D02*
X0242024Y0194287D01*
X0242024Y0194249D02*
X0238689Y0194249D01*
X0238715Y0194211D02*
X0242024Y0194211D01*
X0242024Y0194173D02*
X0238741Y0194173D01*
X0238766Y0194135D02*
X0242024Y0194135D01*
X0242024Y0194097D02*
X0238792Y0194097D01*
X0238818Y0194060D02*
X0242024Y0194060D01*
X0242024Y0194022D02*
X0238844Y0194022D01*
X0238870Y0193984D02*
X0242024Y0193984D01*
X0242024Y0193946D02*
X0238896Y0193946D01*
X0238921Y0193908D02*
X0242024Y0193908D01*
X0242024Y0193870D02*
X0238947Y0193870D01*
X0238973Y0193832D02*
X0242024Y0193832D01*
X0242024Y0193794D02*
X0238999Y0193794D01*
X0239025Y0193756D02*
X0242024Y0193756D01*
X0242024Y0193719D02*
X0239051Y0193719D01*
X0239076Y0193681D02*
X0242024Y0193681D01*
X0242024Y0193643D02*
X0239102Y0193643D01*
X0239128Y0193605D02*
X0242024Y0193605D01*
X0242024Y0193567D02*
X0239154Y0193567D01*
X0239180Y0193529D02*
X0242024Y0193529D01*
X0242024Y0193491D02*
X0239206Y0193491D01*
X0239231Y0193453D02*
X0242024Y0193453D01*
X0242024Y0193416D02*
X0239257Y0193416D01*
X0239283Y0193378D02*
X0242024Y0193378D01*
X0242024Y0193340D02*
X0239309Y0193340D01*
X0239335Y0193302D02*
X0242024Y0193302D01*
X0242024Y0193264D02*
X0239361Y0193264D01*
X0239387Y0193226D02*
X0242024Y0193226D01*
X0242024Y0193188D02*
X0239412Y0193188D01*
X0239438Y0193150D02*
X0242024Y0193150D01*
X0242024Y0193112D02*
X0239464Y0193112D01*
X0239490Y0193075D02*
X0242024Y0193075D01*
X0242024Y0193037D02*
X0239516Y0193037D01*
X0239542Y0192999D02*
X0242024Y0192999D01*
X0242024Y0192961D02*
X0239567Y0192961D01*
X0239593Y0192923D02*
X0242024Y0192923D01*
X0242024Y0192885D02*
X0239619Y0192885D01*
X0239645Y0192847D02*
X0242024Y0192847D01*
X0242024Y0192809D02*
X0239671Y0192809D01*
X0239697Y0192772D02*
X0242024Y0192772D01*
X0242024Y0192734D02*
X0239722Y0192734D01*
X0239748Y0192696D02*
X0242024Y0192696D01*
X0242024Y0192658D02*
X0239774Y0192658D01*
X0239800Y0192620D02*
X0242024Y0192620D01*
X0242024Y0192582D02*
X0239826Y0192582D01*
X0239852Y0192544D02*
X0242024Y0192544D01*
X0242024Y0192506D02*
X0239877Y0192506D01*
X0238317Y0192506D02*
X0235633Y0192506D01*
X0235658Y0192544D02*
X0238292Y0192544D01*
X0238267Y0192582D02*
X0235683Y0192582D01*
X0235708Y0192620D02*
X0238242Y0192620D01*
X0238218Y0192658D02*
X0235732Y0192658D01*
X0235757Y0192696D02*
X0238193Y0192696D01*
X0238168Y0192734D02*
X0235782Y0192734D01*
X0235807Y0192772D02*
X0238143Y0192772D01*
X0238118Y0192809D02*
X0235832Y0192809D01*
X0235857Y0192847D02*
X0238094Y0192847D01*
X0238069Y0192885D02*
X0235882Y0192885D01*
X0235907Y0192923D02*
X0238044Y0192923D01*
X0238019Y0192961D02*
X0235932Y0192961D01*
X0235957Y0192999D02*
X0237994Y0192999D01*
X0237970Y0193037D02*
X0235982Y0193037D01*
X0236007Y0193075D02*
X0237945Y0193075D01*
X0237920Y0193112D02*
X0236032Y0193112D01*
X0236057Y0193150D02*
X0237895Y0193150D01*
X0237871Y0193188D02*
X0236082Y0193188D01*
X0236107Y0193226D02*
X0237846Y0193226D01*
X0237821Y0193264D02*
X0236132Y0193264D01*
X0236157Y0193302D02*
X0237796Y0193302D01*
X0237771Y0193340D02*
X0236182Y0193340D01*
X0236207Y0193378D02*
X0237747Y0193378D01*
X0237722Y0193416D02*
X0236232Y0193416D01*
X0236256Y0193453D02*
X0237697Y0193453D01*
X0237672Y0193491D02*
X0236281Y0193491D01*
X0236306Y0193529D02*
X0237647Y0193529D01*
X0237623Y0193567D02*
X0236331Y0193567D01*
X0236356Y0193605D02*
X0237598Y0193605D01*
X0237573Y0193643D02*
X0236381Y0193643D01*
X0236406Y0193681D02*
X0237548Y0193681D01*
X0237523Y0193719D02*
X0236431Y0193719D01*
X0236456Y0193756D02*
X0237499Y0193756D01*
X0237474Y0193794D02*
X0236481Y0193794D01*
X0236506Y0193832D02*
X0237449Y0193832D01*
X0237424Y0193870D02*
X0236531Y0193870D01*
X0236556Y0193908D02*
X0237400Y0193908D01*
X0237375Y0193946D02*
X0236581Y0193946D01*
X0236606Y0193984D02*
X0237350Y0193984D01*
X0237325Y0194022D02*
X0236631Y0194022D01*
X0236656Y0194060D02*
X0237300Y0194060D01*
X0237276Y0194097D02*
X0236681Y0194097D01*
X0236706Y0194135D02*
X0237251Y0194135D01*
X0237226Y0194173D02*
X0236731Y0194173D01*
X0236756Y0194211D02*
X0237201Y0194211D01*
X0237176Y0194249D02*
X0236780Y0194249D01*
X0236805Y0194287D02*
X0237152Y0194287D01*
X0237127Y0194325D02*
X0236830Y0194325D01*
X0236855Y0194363D02*
X0237102Y0194363D01*
X0237077Y0194400D02*
X0236880Y0194400D01*
X0236905Y0194438D02*
X0237053Y0194438D01*
X0237028Y0194476D02*
X0236930Y0194476D01*
X0236955Y0194514D02*
X0237003Y0194514D01*
X0235972Y0195196D02*
X0231971Y0195196D01*
X0231971Y0195234D02*
X0235998Y0195234D01*
X0236024Y0195272D02*
X0231971Y0195272D01*
X0231971Y0195310D02*
X0236050Y0195310D01*
X0236076Y0195347D02*
X0231971Y0195347D01*
X0231971Y0195385D02*
X0236102Y0195385D01*
X0236128Y0195423D02*
X0231971Y0195423D01*
X0231971Y0195461D02*
X0236153Y0195461D01*
X0236179Y0195499D02*
X0231971Y0195499D01*
X0231971Y0195537D02*
X0236205Y0195537D01*
X0236197Y0195575D02*
X0231971Y0195575D01*
X0231971Y0195613D02*
X0236171Y0195613D01*
X0236145Y0195651D02*
X0231971Y0195651D01*
X0231971Y0195688D02*
X0236120Y0195688D01*
X0236094Y0195726D02*
X0231971Y0195726D01*
X0231971Y0195764D02*
X0236068Y0195764D01*
X0236042Y0195802D02*
X0231971Y0195802D01*
X0231971Y0195840D02*
X0236017Y0195840D01*
X0235991Y0195878D02*
X0231971Y0195878D01*
X0231971Y0195916D02*
X0235965Y0195916D01*
X0235939Y0195954D02*
X0231971Y0195954D01*
X0231971Y0195991D02*
X0235914Y0195991D01*
X0235888Y0196029D02*
X0231971Y0196029D01*
X0231971Y0196067D02*
X0235862Y0196067D01*
X0235836Y0196105D02*
X0231971Y0196105D01*
X0231971Y0196143D02*
X0235811Y0196143D01*
X0235785Y0196181D02*
X0231971Y0196181D01*
X0231971Y0196219D02*
X0235759Y0196219D01*
X0235733Y0196257D02*
X0231971Y0196257D01*
X0231971Y0196295D02*
X0235708Y0196295D01*
X0235682Y0196332D02*
X0231971Y0196332D01*
X0231971Y0196370D02*
X0235656Y0196370D01*
X0235630Y0196408D02*
X0231971Y0196408D01*
X0231971Y0196446D02*
X0235605Y0196446D01*
X0235579Y0196484D02*
X0231971Y0196484D01*
X0231971Y0196522D02*
X0235553Y0196522D01*
X0235527Y0196560D02*
X0231971Y0196560D01*
X0231971Y0196598D02*
X0235502Y0196598D01*
X0235476Y0196635D02*
X0231971Y0196635D01*
X0231971Y0196673D02*
X0235450Y0196673D01*
X0235424Y0196711D02*
X0231971Y0196711D01*
X0231971Y0196749D02*
X0235399Y0196749D01*
X0235373Y0196787D02*
X0231971Y0196787D01*
X0231971Y0196825D02*
X0235347Y0196825D01*
X0235321Y0196863D02*
X0231971Y0196863D01*
X0231971Y0196901D02*
X0235296Y0196901D01*
X0235270Y0196938D02*
X0231971Y0196938D01*
X0231971Y0196976D02*
X0235244Y0196976D01*
X0235218Y0197014D02*
X0231971Y0197014D01*
X0231971Y0197052D02*
X0235193Y0197052D01*
X0235167Y0197090D02*
X0231971Y0197090D01*
X0231971Y0197128D02*
X0235141Y0197128D01*
X0235115Y0197166D02*
X0231971Y0197166D01*
X0231971Y0197204D02*
X0235090Y0197204D01*
X0235064Y0197242D02*
X0231971Y0197242D01*
X0231971Y0197279D02*
X0235038Y0197279D01*
X0235012Y0197317D02*
X0231971Y0197317D01*
X0231971Y0197355D02*
X0234987Y0197355D01*
X0234961Y0197393D02*
X0231971Y0197393D01*
X0231971Y0197431D02*
X0234935Y0197431D01*
X0234909Y0197469D02*
X0231971Y0197469D01*
X0231971Y0197507D02*
X0234884Y0197507D01*
X0234858Y0197545D02*
X0231971Y0197545D01*
X0231971Y0197582D02*
X0234832Y0197582D01*
X0234806Y0197620D02*
X0231971Y0197620D01*
X0231971Y0197658D02*
X0234781Y0197658D01*
X0234755Y0197696D02*
X0231971Y0197696D01*
X0231971Y0197734D02*
X0234729Y0197734D01*
X0234703Y0197772D02*
X0231971Y0197772D01*
X0231971Y0197810D02*
X0234678Y0197810D01*
X0234652Y0197848D02*
X0231971Y0197848D01*
X0231971Y0197886D02*
X0234626Y0197886D01*
X0234600Y0197923D02*
X0231971Y0197923D01*
X0231971Y0197961D02*
X0234575Y0197961D01*
X0234549Y0197999D02*
X0231971Y0197999D01*
X0231971Y0198037D02*
X0234523Y0198037D01*
X0234497Y0198075D02*
X0231971Y0198075D01*
X0231971Y0198113D02*
X0234472Y0198113D01*
X0234446Y0198151D02*
X0231971Y0198151D01*
X0231971Y0198189D02*
X0234420Y0198189D01*
X0234394Y0198226D02*
X0231971Y0198226D01*
X0231971Y0198264D02*
X0234369Y0198264D01*
X0234343Y0198302D02*
X0231971Y0198302D01*
X0231971Y0198340D02*
X0234317Y0198340D01*
X0234291Y0198378D02*
X0231971Y0198378D01*
X0231971Y0198416D02*
X0234266Y0198416D01*
X0234240Y0198454D02*
X0231971Y0198454D01*
X0231971Y0198492D02*
X0234214Y0198492D01*
X0235766Y0198492D02*
X0238282Y0198492D01*
X0238258Y0198454D02*
X0235790Y0198454D01*
X0235815Y0198416D02*
X0238233Y0198416D01*
X0238208Y0198378D02*
X0235839Y0198378D01*
X0235864Y0198340D02*
X0238183Y0198340D01*
X0238159Y0198302D02*
X0235889Y0198302D01*
X0235913Y0198264D02*
X0238134Y0198264D01*
X0238109Y0198226D02*
X0235938Y0198226D01*
X0235962Y0198189D02*
X0238085Y0198189D01*
X0238060Y0198151D02*
X0235987Y0198151D01*
X0236011Y0198113D02*
X0238035Y0198113D01*
X0238010Y0198075D02*
X0236036Y0198075D01*
X0236060Y0198037D02*
X0237986Y0198037D01*
X0237961Y0197999D02*
X0236085Y0197999D01*
X0236110Y0197961D02*
X0237936Y0197961D01*
X0237911Y0197923D02*
X0236134Y0197923D01*
X0236159Y0197886D02*
X0237887Y0197886D01*
X0237862Y0197848D02*
X0236183Y0197848D01*
X0236208Y0197810D02*
X0237837Y0197810D01*
X0237812Y0197772D02*
X0236232Y0197772D01*
X0236257Y0197734D02*
X0237788Y0197734D01*
X0237763Y0197696D02*
X0236281Y0197696D01*
X0236306Y0197658D02*
X0237738Y0197658D01*
X0237714Y0197620D02*
X0236331Y0197620D01*
X0236355Y0197582D02*
X0237689Y0197582D01*
X0237664Y0197545D02*
X0236380Y0197545D01*
X0236404Y0197507D02*
X0237639Y0197507D01*
X0237615Y0197469D02*
X0236429Y0197469D01*
X0236453Y0197431D02*
X0237590Y0197431D01*
X0237565Y0197393D02*
X0236478Y0197393D01*
X0236502Y0197355D02*
X0237540Y0197355D01*
X0237516Y0197317D02*
X0236527Y0197317D01*
X0236552Y0197279D02*
X0237491Y0197279D01*
X0237466Y0197242D02*
X0236576Y0197242D01*
X0236601Y0197204D02*
X0237441Y0197204D01*
X0237417Y0197166D02*
X0236625Y0197166D01*
X0236650Y0197128D02*
X0237392Y0197128D01*
X0237367Y0197090D02*
X0236674Y0197090D01*
X0236699Y0197052D02*
X0237343Y0197052D01*
X0237318Y0197014D02*
X0236724Y0197014D01*
X0236748Y0196976D02*
X0237293Y0196976D01*
X0237268Y0196938D02*
X0236773Y0196938D01*
X0236797Y0196901D02*
X0237244Y0196901D01*
X0237219Y0196863D02*
X0236822Y0196863D01*
X0236846Y0196825D02*
X0237194Y0196825D01*
X0237169Y0196787D02*
X0236871Y0196787D01*
X0236895Y0196749D02*
X0237145Y0196749D01*
X0237120Y0196711D02*
X0236920Y0196711D01*
X0236945Y0196673D02*
X0237095Y0196673D01*
X0237070Y0196635D02*
X0236969Y0196635D01*
X0236994Y0196598D02*
X0237046Y0196598D01*
X0237021Y0196560D02*
X0237018Y0196560D01*
X0235946Y0195158D02*
X0231971Y0195158D01*
X0231971Y0195120D02*
X0235920Y0195120D01*
X0235894Y0195082D02*
X0231971Y0195082D01*
X0231971Y0195044D02*
X0235868Y0195044D01*
X0235842Y0195007D02*
X0231971Y0195007D01*
X0231971Y0194969D02*
X0235816Y0194969D01*
X0235790Y0194931D02*
X0231971Y0194931D01*
X0231971Y0194893D02*
X0235764Y0194893D01*
X0235738Y0194855D02*
X0231971Y0194855D01*
X0231971Y0194817D02*
X0235712Y0194817D01*
X0235686Y0194779D02*
X0231971Y0194779D01*
X0231971Y0194741D02*
X0235660Y0194741D01*
X0235634Y0194703D02*
X0231971Y0194703D01*
X0231971Y0194666D02*
X0235608Y0194666D01*
X0235582Y0194628D02*
X0231971Y0194628D01*
X0231971Y0194590D02*
X0235556Y0194590D01*
X0235530Y0194552D02*
X0231971Y0194552D01*
X0231971Y0194514D02*
X0235504Y0194514D01*
X0235478Y0194476D02*
X0231971Y0194476D01*
X0231971Y0194438D02*
X0235452Y0194438D01*
X0235426Y0194400D02*
X0231971Y0194400D01*
X0231971Y0194363D02*
X0235400Y0194363D01*
X0235374Y0194325D02*
X0231971Y0194325D01*
X0231971Y0194287D02*
X0235348Y0194287D01*
X0235322Y0194249D02*
X0231971Y0194249D01*
X0231971Y0194211D02*
X0235296Y0194211D01*
X0235270Y0194173D02*
X0231971Y0194173D01*
X0231971Y0194135D02*
X0235244Y0194135D01*
X0235218Y0194097D02*
X0231971Y0194097D01*
X0231971Y0194060D02*
X0235192Y0194060D01*
X0235166Y0194022D02*
X0231971Y0194022D01*
X0231971Y0193984D02*
X0235140Y0193984D01*
X0235114Y0193946D02*
X0231971Y0193946D01*
X0231971Y0193908D02*
X0235088Y0193908D01*
X0235062Y0193870D02*
X0231971Y0193870D01*
X0231971Y0193832D02*
X0235036Y0193832D01*
X0235010Y0193794D02*
X0231971Y0193794D01*
X0231971Y0193756D02*
X0234984Y0193756D01*
X0234958Y0193719D02*
X0231971Y0193719D01*
X0231971Y0193681D02*
X0234932Y0193681D01*
X0234906Y0193643D02*
X0231971Y0193643D01*
X0231971Y0193605D02*
X0234880Y0193605D01*
X0234854Y0193567D02*
X0231971Y0193567D01*
X0231971Y0193529D02*
X0234828Y0193529D01*
X0234802Y0193491D02*
X0231971Y0193491D01*
X0231971Y0193453D02*
X0234776Y0193453D01*
X0234750Y0193416D02*
X0231971Y0193416D01*
X0231971Y0193378D02*
X0234724Y0193378D01*
X0234698Y0193340D02*
X0231971Y0193340D01*
X0231971Y0193302D02*
X0234672Y0193302D01*
X0234646Y0193264D02*
X0231971Y0193264D01*
X0231971Y0193226D02*
X0234620Y0193226D01*
X0234594Y0193188D02*
X0231971Y0193188D01*
X0231971Y0193150D02*
X0234568Y0193150D01*
X0234542Y0193112D02*
X0231971Y0193112D01*
X0231971Y0193075D02*
X0234516Y0193075D01*
X0234490Y0193037D02*
X0231971Y0193037D01*
X0231971Y0192999D02*
X0234464Y0192999D01*
X0234438Y0192961D02*
X0231971Y0192961D01*
X0231971Y0192923D02*
X0234412Y0192923D01*
X0234386Y0192885D02*
X0231971Y0192885D01*
X0231971Y0192847D02*
X0234360Y0192847D01*
X0234334Y0192809D02*
X0231971Y0192809D01*
X0231971Y0192772D02*
X0234308Y0192772D01*
X0234282Y0192734D02*
X0231971Y0192734D01*
X0231971Y0192696D02*
X0234256Y0192696D01*
X0234230Y0192658D02*
X0231971Y0192658D01*
X0231971Y0192620D02*
X0234204Y0192620D01*
X0234178Y0192582D02*
X0231971Y0192582D01*
X0231971Y0192544D02*
X0234152Y0192544D01*
X0234126Y0192506D02*
X0231971Y0192506D01*
X0231971Y0192468D02*
X0242024Y0192468D01*
X0242024Y0192431D02*
X0231971Y0192431D01*
X0231971Y0192393D02*
X0242024Y0192393D01*
X0242024Y0192355D02*
X0231971Y0192355D01*
X0231971Y0192317D02*
X0242024Y0192317D01*
X0242024Y0192279D02*
X0231971Y0192279D01*
X0231971Y0192241D02*
X0242024Y0192241D01*
X0242024Y0192203D02*
X0231971Y0192203D01*
X0231971Y0192165D02*
X0242024Y0192165D01*
X0242024Y0192128D02*
X0231971Y0192128D01*
X0231971Y0192090D02*
X0242024Y0192090D01*
X0242024Y0192052D02*
X0231971Y0192052D01*
X0231971Y0192014D02*
X0242024Y0192014D01*
X0242024Y0191976D02*
X0231971Y0191976D01*
X0231971Y0191938D02*
X0242024Y0191938D01*
X0242024Y0191900D02*
X0231971Y0191900D01*
X0231971Y0191862D02*
X0242024Y0191862D01*
X0242024Y0191825D02*
X0231971Y0191825D01*
X0231971Y0191787D02*
X0242024Y0191787D01*
X0242024Y0191749D02*
X0231971Y0191749D01*
X0231971Y0191711D02*
X0242024Y0191711D01*
X0242024Y0191673D02*
X0231971Y0191673D01*
X0231971Y0191635D02*
X0242024Y0191635D01*
X0242024Y0191597D02*
X0231971Y0191597D01*
X0231971Y0191559D02*
X0242024Y0191559D01*
X0242024Y0191521D02*
X0231971Y0191521D01*
X0231971Y0191484D02*
X0242024Y0191484D01*
X0242024Y0191446D02*
X0231971Y0191446D01*
X0231971Y0191408D02*
X0242024Y0191408D01*
X0242024Y0191370D02*
X0231971Y0191370D01*
X0231971Y0191332D02*
X0242024Y0191332D01*
X0242024Y0191294D02*
X0231971Y0191294D01*
X0231971Y0191256D02*
X0242024Y0191256D01*
X0242024Y0191218D02*
X0231971Y0191218D01*
X0231971Y0191181D02*
X0242024Y0191181D01*
X0242024Y0191143D02*
X0231971Y0191143D01*
X0231971Y0191105D02*
X0242024Y0191105D01*
X0242024Y0191067D02*
X0231971Y0191067D01*
X0231971Y0191029D02*
X0242024Y0191029D01*
X0242024Y0190991D02*
X0231971Y0190991D01*
X0231971Y0190953D02*
X0242024Y0190953D01*
X0242024Y0190915D02*
X0231971Y0190915D01*
X0231971Y0190877D02*
X0242024Y0190877D01*
X0242024Y0190840D02*
X0231971Y0190840D01*
X0231971Y0190802D02*
X0242024Y0190802D01*
X0242024Y0190764D02*
X0231971Y0190764D01*
X0231971Y0190726D02*
X0242024Y0190726D01*
X0242024Y0190688D02*
X0231971Y0190688D01*
X0231971Y0190650D02*
X0242024Y0190650D01*
X0242024Y0190612D02*
X0231971Y0190612D01*
X0231971Y0190574D02*
X0242024Y0190574D01*
X0242024Y0190537D02*
X0231971Y0190537D01*
X0231971Y0190499D02*
X0242024Y0190499D01*
X0242024Y0190461D02*
X0231971Y0190461D01*
X0231566Y0190423D02*
X0242024Y0190423D01*
X0242024Y0190385D02*
X0231566Y0190385D01*
X0197024Y0190385D01*
X0197024Y0190347D02*
X0231566Y0190347D01*
X0242024Y0190347D01*
X0242024Y0190309D02*
X0231566Y0190309D01*
X0197024Y0190309D01*
X0197024Y0190271D02*
X0231566Y0190271D01*
X0242024Y0190271D01*
X0242024Y0190233D02*
X0231566Y0190233D01*
X0197024Y0190233D01*
X0197024Y0190196D02*
X0231566Y0190196D01*
X0242024Y0190196D01*
X0242024Y0190158D02*
X0231566Y0190158D01*
X0197024Y0190158D01*
X0197024Y0190120D02*
X0231566Y0190120D01*
X0242024Y0190120D01*
X0242024Y0190082D02*
X0231566Y0190082D01*
X0197024Y0190082D01*
X0197024Y0190044D02*
X0231566Y0190044D01*
X0242024Y0190044D01*
X0242024Y0190006D02*
X0231566Y0190006D01*
X0197024Y0190006D01*
X0197024Y0189968D02*
X0231566Y0189968D01*
X0242024Y0189968D01*
X0242024Y0189930D02*
X0231566Y0189930D01*
X0197024Y0189930D01*
X0197024Y0189893D02*
X0231566Y0189893D01*
X0242024Y0189893D01*
X0242024Y0189855D02*
X0231566Y0189855D01*
X0197024Y0189855D01*
X0197024Y0189817D02*
X0231566Y0189817D01*
X0242024Y0189817D01*
X0242024Y0189779D02*
X0231566Y0189779D01*
X0197024Y0189779D01*
X0197024Y0189741D02*
X0231566Y0189741D01*
X0242024Y0189741D01*
X0242024Y0189703D02*
X0231566Y0189703D01*
X0197024Y0189703D01*
X0197024Y0189665D02*
X0231566Y0189665D01*
X0242024Y0189665D01*
X0242024Y0189627D02*
X0231566Y0189627D01*
X0197024Y0189627D01*
X0197024Y0189590D02*
X0231566Y0189590D01*
X0242024Y0189590D01*
X0242024Y0189552D02*
X0231566Y0189552D01*
X0197024Y0189552D01*
X0197024Y0189514D02*
X0231566Y0189514D01*
X0242024Y0189514D01*
X0242024Y0189476D02*
X0231566Y0189476D01*
X0197024Y0189476D01*
X0197024Y0189438D02*
X0231566Y0189438D01*
X0242024Y0189438D01*
X0242024Y0189400D02*
X0231566Y0189400D01*
X0197024Y0189400D01*
X0197024Y0189362D02*
X0231566Y0189362D01*
X0242024Y0189362D01*
X0242024Y0189324D02*
X0231566Y0189324D01*
X0197024Y0189324D01*
X0197024Y0189286D02*
X0231566Y0189286D01*
X0242024Y0189286D01*
X0231566Y0190423D02*
X0197024Y0190423D01*
X0197024Y0190461D02*
X0198180Y0190461D01*
X0198180Y0190499D02*
X0197024Y0190499D01*
X0197024Y0190537D02*
X0198180Y0190537D01*
X0198180Y0190574D02*
X0197024Y0190574D01*
X0197024Y0190612D02*
X0198180Y0190612D01*
X0198180Y0190650D02*
X0197024Y0190650D01*
X0197024Y0190688D02*
X0198180Y0190688D01*
X0198180Y0190726D02*
X0197024Y0190726D01*
X0197024Y0190764D02*
X0198180Y0190764D01*
X0198180Y0190802D02*
X0197024Y0190802D01*
X0197024Y0190840D02*
X0198180Y0190840D01*
X0198180Y0190877D02*
X0197024Y0190877D01*
X0197024Y0190915D02*
X0198180Y0190915D01*
X0198180Y0190953D02*
X0197024Y0190953D01*
X0197024Y0190991D02*
X0198180Y0190991D01*
X0198180Y0191029D02*
X0197024Y0191029D01*
X0197024Y0191067D02*
X0198180Y0191067D01*
X0198180Y0191105D02*
X0197024Y0191105D01*
X0197024Y0191143D02*
X0198180Y0191143D01*
X0198180Y0191181D02*
X0197024Y0191181D01*
X0197024Y0191218D02*
X0198180Y0191218D01*
X0198180Y0191256D02*
X0197024Y0191256D01*
X0197024Y0191294D02*
X0198180Y0191294D01*
X0198180Y0191332D02*
X0197024Y0191332D01*
X0197024Y0191370D02*
X0198180Y0191370D01*
X0198180Y0191408D02*
X0197024Y0191408D01*
X0197024Y0191446D02*
X0198180Y0191446D01*
X0198180Y0191484D02*
X0197024Y0191484D01*
X0197024Y0191521D02*
X0198180Y0191521D01*
X0198180Y0191559D02*
X0197024Y0191559D01*
X0197024Y0191597D02*
X0198180Y0191597D01*
X0198180Y0191635D02*
X0197024Y0191635D01*
X0197024Y0191673D02*
X0198180Y0191673D01*
X0198180Y0191711D02*
X0197024Y0191711D01*
X0197024Y0191749D02*
X0198180Y0191749D01*
X0198180Y0191787D02*
X0197024Y0191787D01*
X0197024Y0191825D02*
X0198180Y0191825D01*
X0198180Y0191862D02*
X0197024Y0191862D01*
X0197024Y0191900D02*
X0198180Y0191900D01*
X0198180Y0191938D02*
X0197024Y0191938D01*
X0197024Y0191976D02*
X0198180Y0191976D01*
X0198180Y0192014D02*
X0197024Y0192014D01*
X0197024Y0192052D02*
X0198180Y0192052D01*
X0198180Y0192090D02*
X0197024Y0192090D01*
X0197024Y0192128D02*
X0198180Y0192128D01*
X0198180Y0192165D02*
X0197024Y0192165D01*
X0197024Y0192203D02*
X0198180Y0192203D01*
X0198180Y0192241D02*
X0197024Y0192241D01*
X0197024Y0192279D02*
X0198180Y0192279D01*
X0198180Y0192317D02*
X0197024Y0192317D01*
X0197024Y0192355D02*
X0198180Y0192355D01*
X0198180Y0192393D02*
X0197024Y0192393D01*
X0197024Y0192431D02*
X0198180Y0192431D01*
X0198180Y0192468D02*
X0197024Y0192468D01*
X0197024Y0192506D02*
X0198180Y0192506D01*
X0198180Y0192544D02*
X0197024Y0192544D01*
X0197024Y0192582D02*
X0198180Y0192582D01*
X0198180Y0192620D02*
X0197024Y0192620D01*
X0197024Y0192658D02*
X0198180Y0192658D01*
X0198180Y0192696D02*
X0197024Y0192696D01*
X0197024Y0192734D02*
X0198180Y0192734D01*
X0198180Y0192772D02*
X0197024Y0192772D01*
X0197024Y0192809D02*
X0198180Y0192809D01*
X0198180Y0192847D02*
X0197024Y0192847D01*
X0197024Y0192885D02*
X0198180Y0192885D01*
X0198180Y0192923D02*
X0197024Y0192923D01*
X0197024Y0192961D02*
X0198180Y0192961D01*
X0198180Y0192999D02*
X0197024Y0192999D01*
X0197024Y0193037D02*
X0198180Y0193037D01*
X0198180Y0193075D02*
X0197024Y0193075D01*
X0197024Y0193112D02*
X0198180Y0193112D01*
X0198180Y0193150D02*
X0197024Y0193150D01*
X0197024Y0193188D02*
X0198180Y0193188D01*
X0198180Y0193226D02*
X0197024Y0193226D01*
X0197024Y0193264D02*
X0198180Y0193264D01*
X0198180Y0193302D02*
X0197024Y0193302D01*
X0197024Y0193340D02*
X0198180Y0193340D01*
X0198180Y0193378D02*
X0197024Y0193378D01*
X0197024Y0193416D02*
X0198180Y0193416D01*
X0198180Y0193453D02*
X0197024Y0193453D01*
X0197024Y0193491D02*
X0198180Y0193491D01*
X0198180Y0193529D02*
X0197024Y0193529D01*
X0197024Y0193567D02*
X0198180Y0193567D01*
X0198180Y0193605D02*
X0197024Y0193605D01*
X0197024Y0193643D02*
X0198180Y0193643D01*
X0198180Y0193681D02*
X0197024Y0193681D01*
X0197024Y0193719D02*
X0198180Y0193719D01*
X0198180Y0193756D02*
X0197024Y0193756D01*
X0197024Y0193794D02*
X0198180Y0193794D01*
X0198180Y0193832D02*
X0197024Y0193832D01*
X0197024Y0193870D02*
X0198180Y0193870D01*
X0198180Y0193908D02*
X0197024Y0193908D01*
X0197024Y0193946D02*
X0198180Y0193946D01*
X0198180Y0193984D02*
X0197024Y0193984D01*
X0197024Y0194022D02*
X0198180Y0194022D01*
X0198180Y0194060D02*
X0197024Y0194060D01*
X0197024Y0194097D02*
X0198180Y0194097D01*
X0198180Y0194135D02*
X0197024Y0194135D01*
X0197024Y0194173D02*
X0198180Y0194173D01*
X0198180Y0194211D02*
X0197024Y0194211D01*
X0197024Y0194249D02*
X0198180Y0194249D01*
X0198180Y0194287D02*
X0197024Y0194287D01*
X0197024Y0194325D02*
X0198180Y0194325D01*
X0198180Y0194363D02*
X0197024Y0194363D01*
X0197024Y0194400D02*
X0198180Y0194400D01*
X0198180Y0194438D02*
X0197024Y0194438D01*
X0197024Y0194476D02*
X0198180Y0194476D01*
X0198180Y0194514D02*
X0197024Y0194514D01*
X0197024Y0194552D02*
X0198180Y0194552D01*
X0198180Y0194590D02*
X0197024Y0194590D01*
X0197024Y0194628D02*
X0198180Y0194628D01*
X0198180Y0194666D02*
X0197024Y0194666D01*
X0197024Y0194703D02*
X0198180Y0194703D01*
X0198180Y0194741D02*
X0197024Y0194741D01*
X0197024Y0194779D02*
X0198180Y0194779D01*
X0198180Y0194817D02*
X0197024Y0194817D01*
X0197024Y0194855D02*
X0198180Y0194855D01*
X0198180Y0194893D02*
X0197024Y0194893D01*
X0197024Y0194931D02*
X0198180Y0194931D01*
X0198180Y0194969D02*
X0197024Y0194969D01*
X0197024Y0195007D02*
X0198180Y0195007D01*
X0198180Y0195044D02*
X0197024Y0195044D01*
X0197024Y0195082D02*
X0198180Y0195082D01*
X0198180Y0195120D02*
X0197024Y0195120D01*
X0197024Y0195158D02*
X0198180Y0195158D01*
X0198180Y0195196D02*
X0197024Y0195196D01*
X0197024Y0195234D02*
X0198180Y0195234D01*
X0198180Y0195272D02*
X0197024Y0195272D01*
X0197024Y0195310D02*
X0198180Y0195310D01*
X0198180Y0195347D02*
X0197024Y0195347D01*
X0197024Y0195385D02*
X0198180Y0195385D01*
X0198180Y0195423D02*
X0197024Y0195423D01*
X0197024Y0195461D02*
X0198180Y0195461D01*
X0198180Y0195499D02*
X0197024Y0195499D01*
X0197024Y0195537D02*
X0198180Y0195537D01*
X0198180Y0195575D02*
X0197024Y0195575D01*
X0197024Y0195613D02*
X0198180Y0195613D01*
X0198180Y0195651D02*
X0197024Y0195651D01*
X0197024Y0195688D02*
X0198180Y0195688D01*
X0198180Y0195726D02*
X0197024Y0195726D01*
X0197024Y0195764D02*
X0198180Y0195764D01*
X0198180Y0195802D02*
X0197024Y0195802D01*
X0197024Y0195840D02*
X0198180Y0195840D01*
X0198180Y0195878D02*
X0197024Y0195878D01*
X0197024Y0195916D02*
X0198180Y0195916D01*
X0198180Y0195954D02*
X0197024Y0195954D01*
X0197024Y0195991D02*
X0198180Y0195991D01*
X0198180Y0196029D02*
X0197024Y0196029D01*
X0197024Y0196067D02*
X0198180Y0196067D01*
X0198180Y0196105D02*
X0197024Y0196105D01*
X0197024Y0196143D02*
X0198180Y0196143D01*
X0198180Y0196181D02*
X0197024Y0196181D01*
X0197024Y0196219D02*
X0198180Y0196219D01*
X0198180Y0196257D02*
X0197024Y0196257D01*
X0197024Y0196295D02*
X0198180Y0196295D01*
X0198180Y0196332D02*
X0197024Y0196332D01*
X0197024Y0196370D02*
X0198180Y0196370D01*
X0198180Y0196408D02*
X0197024Y0196408D01*
X0197024Y0196446D02*
X0198180Y0196446D01*
X0198180Y0196484D02*
X0197024Y0196484D01*
X0197024Y0196522D02*
X0198180Y0196522D01*
X0198180Y0196560D02*
X0197024Y0196560D01*
X0197024Y0196598D02*
X0198180Y0196598D01*
X0198180Y0196635D02*
X0197024Y0196635D01*
X0197024Y0196673D02*
X0198180Y0196673D01*
X0198180Y0196711D02*
X0197024Y0196711D01*
X0197024Y0196749D02*
X0198180Y0196749D01*
X0198180Y0196787D02*
X0197024Y0196787D01*
X0197024Y0196825D02*
X0198180Y0196825D01*
X0198180Y0196863D02*
X0197024Y0196863D01*
X0197024Y0196901D02*
X0198180Y0196901D01*
X0198180Y0196938D02*
X0197024Y0196938D01*
X0197024Y0196976D02*
X0198180Y0196976D01*
X0198180Y0197014D02*
X0197024Y0197014D01*
X0197024Y0197052D02*
X0198180Y0197052D01*
X0198180Y0197090D02*
X0197024Y0197090D01*
X0197024Y0197128D02*
X0198180Y0197128D01*
X0198180Y0197166D02*
X0197024Y0197166D01*
X0197024Y0197204D02*
X0198180Y0197204D01*
X0198180Y0197242D02*
X0197024Y0197242D01*
X0197024Y0197279D02*
X0198180Y0197279D01*
X0198180Y0197317D02*
X0197024Y0197317D01*
X0197024Y0197355D02*
X0198180Y0197355D01*
X0198180Y0197393D02*
X0197024Y0197393D01*
X0197024Y0197431D02*
X0198180Y0197431D01*
X0198180Y0197469D02*
X0197024Y0197469D01*
X0197024Y0197507D02*
X0198180Y0197507D01*
X0198180Y0197545D02*
X0197024Y0197545D01*
X0197024Y0197582D02*
X0198180Y0197582D01*
X0198180Y0197620D02*
X0197024Y0197620D01*
X0197024Y0197658D02*
X0198180Y0197658D01*
X0198180Y0197696D02*
X0197024Y0197696D01*
X0197024Y0197734D02*
X0198180Y0197734D01*
X0198180Y0197772D02*
X0197024Y0197772D01*
X0197024Y0197810D02*
X0198180Y0197810D01*
X0198180Y0197848D02*
X0197024Y0197848D01*
X0197024Y0197886D02*
X0198180Y0197886D01*
X0198180Y0197923D02*
X0197024Y0197923D01*
X0197024Y0197961D02*
X0198180Y0197961D01*
X0198180Y0197999D02*
X0197024Y0197999D01*
X0197024Y0198037D02*
X0198180Y0198037D01*
X0198180Y0198075D02*
X0197024Y0198075D01*
X0197024Y0198113D02*
X0198180Y0198113D01*
X0198180Y0198151D02*
X0197024Y0198151D01*
X0197024Y0198189D02*
X0198180Y0198189D01*
X0198180Y0198226D02*
X0197024Y0198226D01*
X0197024Y0198264D02*
X0198180Y0198264D01*
X0198180Y0198302D02*
X0197024Y0198302D01*
X0197024Y0198340D02*
X0198180Y0198340D01*
X0198180Y0198378D02*
X0197024Y0198378D01*
X0197024Y0198416D02*
X0198180Y0198416D01*
X0198180Y0198454D02*
X0197024Y0198454D01*
X0197024Y0198492D02*
X0198180Y0198492D01*
X0198180Y0198530D02*
X0197024Y0198530D01*
X0197024Y0198567D02*
X0198180Y0198567D01*
X0198180Y0198605D02*
X0197024Y0198605D01*
X0197024Y0198643D02*
X0198180Y0198643D01*
X0198180Y0198681D02*
X0197024Y0198681D01*
X0197024Y0198719D02*
X0198180Y0198719D01*
X0198180Y0198757D02*
X0197024Y0198757D01*
X0197024Y0198795D02*
X0198180Y0198795D01*
X0198180Y0198833D02*
X0197024Y0198833D01*
X0197024Y0198870D02*
X0198180Y0198870D01*
X0198180Y0198908D02*
X0197024Y0198908D01*
X0197024Y0198946D02*
X0198180Y0198946D01*
X0198180Y0198984D02*
X0197024Y0198984D01*
X0197024Y0199022D02*
X0198180Y0199022D01*
X0198180Y0199060D02*
X0197024Y0199060D01*
X0197024Y0199098D02*
X0198180Y0199098D01*
X0198180Y0199136D02*
X0197024Y0199136D01*
X0197024Y0199173D02*
X0198180Y0199173D01*
X0198180Y0199211D02*
X0197024Y0199211D01*
X0197024Y0199249D02*
X0198180Y0199249D01*
X0198180Y0199287D02*
X0197024Y0199287D01*
X0197024Y0199325D02*
X0198180Y0199325D01*
X0198180Y0199363D02*
X0197024Y0199363D01*
X0197024Y0199401D02*
X0198180Y0199401D01*
X0198180Y0199439D02*
X0197024Y0199439D01*
X0197024Y0199477D02*
X0198180Y0199477D01*
X0198180Y0199514D02*
X0197024Y0199514D01*
X0197024Y0199552D02*
X0198180Y0199552D01*
X0198180Y0199590D02*
X0197024Y0199590D01*
X0197024Y0199628D02*
X0198180Y0199628D01*
X0198180Y0199666D02*
X0197024Y0199666D01*
X0197024Y0199704D02*
X0198180Y0199704D01*
X0198180Y0199742D02*
X0197024Y0199742D01*
X0197024Y0199780D02*
X0198180Y0199780D01*
X0198180Y0199817D02*
X0197024Y0199817D01*
X0197024Y0199855D02*
X0198180Y0199855D01*
X0198180Y0199893D02*
X0197024Y0199893D01*
X0197024Y0199931D02*
X0198180Y0199931D01*
X0198180Y0199969D02*
X0197024Y0199969D01*
X0197024Y0200007D02*
X0198180Y0200007D01*
X0198180Y0200045D02*
X0197024Y0200045D01*
X0197024Y0200083D02*
X0198180Y0200083D01*
X0198180Y0200121D02*
X0197024Y0200121D01*
X0197024Y0200158D02*
X0198180Y0200158D01*
X0198180Y0200196D02*
X0197024Y0200196D01*
X0197024Y0200234D02*
X0198180Y0200234D01*
X0198180Y0200272D02*
X0197024Y0200272D01*
X0197024Y0200310D02*
X0198180Y0200310D01*
X0198180Y0200348D02*
X0197024Y0200348D01*
X0197024Y0200386D02*
X0198180Y0200386D01*
X0198180Y0200424D02*
X0197024Y0200424D01*
X0197024Y0200461D02*
X0198180Y0200461D01*
X0198180Y0200499D02*
X0197024Y0200499D01*
X0197024Y0200537D02*
X0198180Y0200537D01*
X0200820Y0198037D02*
X0204325Y0198037D01*
X0204269Y0198075D02*
X0200855Y0198075D01*
X0200876Y0198097D02*
X0200629Y0197833D01*
X0200444Y0197525D01*
X0200328Y0197173D01*
X0200310Y0196980D01*
X0200291Y0196778D01*
X0200291Y0196760D01*
X0200327Y0196349D01*
X0200435Y0196009D01*
X0200606Y0195731D01*
X0200835Y0195505D01*
X0201465Y0195162D01*
X0202298Y0194910D01*
X0202914Y0194730D01*
X0203288Y0194559D01*
X0203468Y0194375D01*
X0203517Y0194145D01*
X0203517Y0194127D01*
X0203460Y0193888D01*
X0203288Y0193709D01*
X0203013Y0193595D01*
X0202644Y0193556D01*
X0202147Y0193606D01*
X0201690Y0193754D01*
X0201260Y0193987D01*
X0200840Y0194290D01*
X0200057Y0193349D01*
X0200629Y0192920D01*
X0201263Y0192620D01*
X0201933Y0192441D01*
X0202617Y0192381D01*
X0203087Y0192412D01*
X0203513Y0192508D01*
X0203888Y0192660D01*
X0204210Y0192867D01*
X0204470Y0193133D01*
X0204665Y0193452D01*
X0204786Y0193827D01*
X0204827Y0194249D01*
X0204827Y0194285D01*
X0204796Y0194653D01*
X0204701Y0194965D01*
X0204544Y0195230D01*
X0204327Y0195459D01*
X0203724Y0195820D01*
X0202905Y0196090D01*
X0202262Y0196270D01*
X0201861Y0196431D01*
X0201659Y0196625D01*
X0201605Y0196881D01*
X0201605Y0196899D01*
X0201623Y0196980D01*
X0200310Y0196980D01*
X0201623Y0196980D01*
X0201653Y0197105D01*
X0201798Y0197273D01*
X0202041Y0197387D01*
X0202379Y0197426D01*
X0202766Y0197386D01*
X0203153Y0197269D01*
X0203677Y0196980D01*
X0203945Y0196832D01*
X0204046Y0196980D01*
X0203677Y0196980D01*
X0204046Y0196980D01*
X0204633Y0197831D01*
X0204144Y0198159D01*
X0203612Y0198398D01*
X0203029Y0198546D01*
X0202392Y0198596D01*
X0201947Y0198563D01*
X0201542Y0198466D01*
X0201182Y0198308D01*
X0200876Y0198097D01*
X0200899Y0198113D02*
X0204212Y0198113D01*
X0204156Y0198151D02*
X0200954Y0198151D01*
X0201009Y0198189D02*
X0204077Y0198189D01*
X0203993Y0198226D02*
X0201064Y0198226D01*
X0201118Y0198264D02*
X0203909Y0198264D01*
X0203825Y0198302D02*
X0201173Y0198302D01*
X0201255Y0198340D02*
X0203740Y0198340D01*
X0203656Y0198378D02*
X0201342Y0198378D01*
X0201428Y0198416D02*
X0203541Y0198416D01*
X0203392Y0198454D02*
X0201515Y0198454D01*
X0201650Y0198492D02*
X0203243Y0198492D01*
X0203094Y0198530D02*
X0201808Y0198530D01*
X0202006Y0198567D02*
X0202757Y0198567D01*
X0202697Y0197393D02*
X0204331Y0197393D01*
X0204305Y0197355D02*
X0202867Y0197355D01*
X0202992Y0197317D02*
X0204279Y0197317D01*
X0204253Y0197279D02*
X0203117Y0197279D01*
X0203202Y0197242D02*
X0204227Y0197242D01*
X0204201Y0197204D02*
X0203270Y0197204D01*
X0203339Y0197166D02*
X0204175Y0197166D01*
X0204148Y0197128D02*
X0203408Y0197128D01*
X0203477Y0197090D02*
X0204122Y0197090D01*
X0204096Y0197052D02*
X0203545Y0197052D01*
X0203614Y0197014D02*
X0204070Y0197014D01*
X0204044Y0196976D02*
X0203683Y0196976D01*
X0203751Y0196938D02*
X0204018Y0196938D01*
X0203992Y0196901D02*
X0203820Y0196901D01*
X0203889Y0196863D02*
X0203966Y0196863D01*
X0204357Y0197431D02*
X0200413Y0197431D01*
X0200425Y0197469D02*
X0204383Y0197469D01*
X0204410Y0197507D02*
X0200438Y0197507D01*
X0200455Y0197545D02*
X0204436Y0197545D01*
X0204462Y0197582D02*
X0200478Y0197582D01*
X0200501Y0197620D02*
X0204488Y0197620D01*
X0204514Y0197658D02*
X0200524Y0197658D01*
X0200547Y0197696D02*
X0204540Y0197696D01*
X0204566Y0197734D02*
X0200570Y0197734D01*
X0200593Y0197772D02*
X0204592Y0197772D01*
X0204618Y0197810D02*
X0200615Y0197810D01*
X0200643Y0197848D02*
X0204608Y0197848D01*
X0204552Y0197886D02*
X0200679Y0197886D01*
X0200714Y0197923D02*
X0204495Y0197923D01*
X0204439Y0197961D02*
X0200749Y0197961D01*
X0200785Y0197999D02*
X0204382Y0197999D01*
X0205979Y0197999D02*
X0210066Y0197999D01*
X0210117Y0197961D02*
X0205979Y0197961D01*
X0205979Y0197923D02*
X0210159Y0197923D01*
X0210141Y0197944D02*
X0209811Y0198187D01*
X0209417Y0198371D01*
X0208961Y0198484D01*
X0208445Y0198524D01*
X0205979Y0198524D01*
X0205979Y0196980D01*
X0207311Y0196980D01*
X0207311Y0197318D01*
X0208337Y0197318D01*
X0208784Y0197260D01*
X0209124Y0197084D01*
X0209203Y0196980D01*
X0210688Y0196980D01*
X0210600Y0197282D01*
X0210406Y0197640D01*
X0210141Y0197944D01*
X0210192Y0197886D02*
X0205979Y0197886D01*
X0205979Y0197848D02*
X0210225Y0197848D01*
X0210258Y0197810D02*
X0205979Y0197810D01*
X0205979Y0197772D02*
X0210291Y0197772D01*
X0210324Y0197734D02*
X0205979Y0197734D01*
X0205979Y0197696D02*
X0210357Y0197696D01*
X0210390Y0197658D02*
X0205979Y0197658D01*
X0205979Y0197620D02*
X0210417Y0197620D01*
X0210437Y0197582D02*
X0205979Y0197582D01*
X0205979Y0197545D02*
X0210458Y0197545D01*
X0210478Y0197507D02*
X0205979Y0197507D01*
X0205979Y0197469D02*
X0210499Y0197469D01*
X0210519Y0197431D02*
X0205979Y0197431D01*
X0205979Y0197393D02*
X0210540Y0197393D01*
X0210560Y0197355D02*
X0205979Y0197355D01*
X0205979Y0197317D02*
X0207311Y0197317D01*
X0207311Y0197279D02*
X0205979Y0197279D01*
X0205979Y0197242D02*
X0207311Y0197242D01*
X0207311Y0197204D02*
X0205979Y0197204D01*
X0205979Y0197166D02*
X0207311Y0197166D01*
X0207311Y0197128D02*
X0205979Y0197128D01*
X0205979Y0197090D02*
X0207311Y0197090D01*
X0207311Y0197052D02*
X0205979Y0197052D01*
X0205979Y0197014D02*
X0207311Y0197014D01*
X0207311Y0196980D02*
X0205979Y0196980D01*
X0205979Y0192490D01*
X0207306Y0192490D01*
X0207306Y0194298D01*
X0208314Y0194298D01*
X0208806Y0194333D01*
X0209268Y0194434D01*
X0209684Y0194602D01*
X0210042Y0194834D01*
X0210339Y0195135D01*
X0210564Y0195500D01*
X0210706Y0195929D01*
X0210753Y0196423D01*
X0210758Y0196413D01*
X0210758Y0196431D01*
X0210718Y0196877D01*
X0210688Y0196980D01*
X0209203Y0196980D01*
X0209341Y0196798D01*
X0209412Y0196405D01*
X0209412Y0196387D01*
X0209344Y0196030D01*
X0209138Y0195734D01*
X0208806Y0195537D01*
X0208364Y0195473D01*
X0207311Y0195473D01*
X0207311Y0196980D01*
X0207311Y0196976D02*
X0205979Y0196976D01*
X0205979Y0196938D02*
X0207311Y0196938D01*
X0207311Y0196901D02*
X0205979Y0196901D01*
X0205979Y0196863D02*
X0207311Y0196863D01*
X0207311Y0196825D02*
X0205979Y0196825D01*
X0205979Y0196787D02*
X0207311Y0196787D01*
X0207311Y0196749D02*
X0205979Y0196749D01*
X0205979Y0196711D02*
X0207311Y0196711D01*
X0207311Y0196673D02*
X0205979Y0196673D01*
X0205979Y0196635D02*
X0207311Y0196635D01*
X0207311Y0196598D02*
X0205979Y0196598D01*
X0205979Y0196560D02*
X0207311Y0196560D01*
X0207311Y0196522D02*
X0205979Y0196522D01*
X0205979Y0196484D02*
X0207311Y0196484D01*
X0207311Y0196446D02*
X0205979Y0196446D01*
X0205979Y0196408D02*
X0207311Y0196408D01*
X0207311Y0196370D02*
X0205979Y0196370D01*
X0205979Y0196332D02*
X0207311Y0196332D01*
X0207311Y0196295D02*
X0205979Y0196295D01*
X0205979Y0196257D02*
X0207311Y0196257D01*
X0207311Y0196219D02*
X0205979Y0196219D01*
X0205979Y0196181D02*
X0207311Y0196181D01*
X0207311Y0196143D02*
X0205979Y0196143D01*
X0205979Y0196105D02*
X0207311Y0196105D01*
X0207311Y0196067D02*
X0205979Y0196067D01*
X0205979Y0196029D02*
X0207311Y0196029D01*
X0207311Y0195991D02*
X0205979Y0195991D01*
X0205979Y0195954D02*
X0207311Y0195954D01*
X0207311Y0195916D02*
X0205979Y0195916D01*
X0205979Y0195878D02*
X0207311Y0195878D01*
X0207311Y0195840D02*
X0205979Y0195840D01*
X0205979Y0195802D02*
X0207311Y0195802D01*
X0207311Y0195764D02*
X0205979Y0195764D01*
X0205979Y0195726D02*
X0207311Y0195726D01*
X0207311Y0195688D02*
X0205979Y0195688D01*
X0205979Y0195651D02*
X0207311Y0195651D01*
X0207311Y0195613D02*
X0205979Y0195613D01*
X0205979Y0195575D02*
X0207311Y0195575D01*
X0207311Y0195537D02*
X0205979Y0195537D01*
X0205979Y0195499D02*
X0207311Y0195499D01*
X0207306Y0194287D02*
X0205979Y0194287D01*
X0205979Y0194325D02*
X0208693Y0194325D01*
X0208944Y0194363D02*
X0205979Y0194363D01*
X0205979Y0194400D02*
X0209117Y0194400D01*
X0209280Y0194438D02*
X0205979Y0194438D01*
X0205979Y0194476D02*
X0209374Y0194476D01*
X0209467Y0194514D02*
X0205979Y0194514D01*
X0205979Y0194552D02*
X0209561Y0194552D01*
X0209655Y0194590D02*
X0205979Y0194590D01*
X0205979Y0194628D02*
X0209724Y0194628D01*
X0209782Y0194666D02*
X0205979Y0194666D01*
X0205979Y0194703D02*
X0209841Y0194703D01*
X0209899Y0194741D02*
X0205979Y0194741D01*
X0205979Y0194779D02*
X0209958Y0194779D01*
X0210016Y0194817D02*
X0205979Y0194817D01*
X0205979Y0194855D02*
X0210063Y0194855D01*
X0210100Y0194893D02*
X0205979Y0194893D01*
X0205979Y0194931D02*
X0210137Y0194931D01*
X0210175Y0194969D02*
X0205979Y0194969D01*
X0205979Y0195007D02*
X0210212Y0195007D01*
X0210249Y0195044D02*
X0205979Y0195044D01*
X0205979Y0195082D02*
X0210287Y0195082D01*
X0210324Y0195120D02*
X0205979Y0195120D01*
X0205979Y0195158D02*
X0210353Y0195158D01*
X0210376Y0195196D02*
X0205979Y0195196D01*
X0205979Y0195234D02*
X0210400Y0195234D01*
X0210423Y0195272D02*
X0205979Y0195272D01*
X0205979Y0195310D02*
X0210446Y0195310D01*
X0210470Y0195347D02*
X0205979Y0195347D01*
X0205979Y0195385D02*
X0210493Y0195385D01*
X0210517Y0195423D02*
X0205979Y0195423D01*
X0205979Y0195461D02*
X0210540Y0195461D01*
X0210563Y0195499D02*
X0208542Y0195499D01*
X0208802Y0195537D02*
X0210576Y0195537D01*
X0210589Y0195575D02*
X0208869Y0195575D01*
X0208933Y0195613D02*
X0210601Y0195613D01*
X0210614Y0195651D02*
X0208997Y0195651D01*
X0209061Y0195688D02*
X0210626Y0195688D01*
X0210639Y0195726D02*
X0209125Y0195726D01*
X0209159Y0195764D02*
X0210651Y0195764D01*
X0210664Y0195802D02*
X0209185Y0195802D01*
X0209212Y0195840D02*
X0210676Y0195840D01*
X0210689Y0195878D02*
X0209238Y0195878D01*
X0209264Y0195916D02*
X0210701Y0195916D01*
X0210708Y0195954D02*
X0209291Y0195954D01*
X0209317Y0195991D02*
X0210712Y0195991D01*
X0210715Y0196029D02*
X0209344Y0196029D01*
X0209351Y0196067D02*
X0210719Y0196067D01*
X0210723Y0196105D02*
X0209358Y0196105D01*
X0209366Y0196143D02*
X0210726Y0196143D01*
X0210730Y0196181D02*
X0209373Y0196181D01*
X0209380Y0196219D02*
X0210734Y0196219D01*
X0210737Y0196257D02*
X0209387Y0196257D01*
X0209395Y0196295D02*
X0210741Y0196295D01*
X0210744Y0196332D02*
X0209402Y0196332D01*
X0209409Y0196370D02*
X0210748Y0196370D01*
X0210752Y0196408D02*
X0209411Y0196408D01*
X0209405Y0196446D02*
X0210756Y0196446D01*
X0210753Y0196484D02*
X0209398Y0196484D01*
X0209391Y0196522D02*
X0210750Y0196522D01*
X0210746Y0196560D02*
X0209384Y0196560D01*
X0209377Y0196598D02*
X0210743Y0196598D01*
X0210739Y0196635D02*
X0209370Y0196635D01*
X0209363Y0196673D02*
X0210736Y0196673D01*
X0210733Y0196711D02*
X0209356Y0196711D01*
X0209350Y0196749D02*
X0210729Y0196749D01*
X0210726Y0196787D02*
X0209343Y0196787D01*
X0209320Y0196825D02*
X0210722Y0196825D01*
X0210719Y0196863D02*
X0209292Y0196863D01*
X0209263Y0196901D02*
X0210711Y0196901D01*
X0210700Y0196938D02*
X0209234Y0196938D01*
X0209205Y0196976D02*
X0210689Y0196976D01*
X0210678Y0197014D02*
X0209177Y0197014D01*
X0209148Y0197052D02*
X0210667Y0197052D01*
X0210656Y0197090D02*
X0209112Y0197090D01*
X0209039Y0197128D02*
X0210645Y0197128D01*
X0210634Y0197166D02*
X0208966Y0197166D01*
X0208893Y0197204D02*
X0210623Y0197204D01*
X0210612Y0197242D02*
X0208820Y0197242D01*
X0208634Y0197279D02*
X0210601Y0197279D01*
X0210581Y0197317D02*
X0208342Y0197317D01*
X0208868Y0198492D02*
X0205979Y0198492D01*
X0205979Y0198454D02*
X0209085Y0198454D01*
X0209237Y0198416D02*
X0205979Y0198416D01*
X0205979Y0198378D02*
X0209389Y0198378D01*
X0209483Y0198340D02*
X0205979Y0198340D01*
X0205979Y0198302D02*
X0209564Y0198302D01*
X0209646Y0198264D02*
X0205979Y0198264D01*
X0205979Y0198226D02*
X0209727Y0198226D01*
X0209809Y0198189D02*
X0205979Y0198189D01*
X0205979Y0198151D02*
X0209861Y0198151D01*
X0209912Y0198113D02*
X0205979Y0198113D01*
X0205979Y0198075D02*
X0209963Y0198075D01*
X0210015Y0198037D02*
X0205979Y0198037D01*
X0204324Y0195461D02*
X0200915Y0195461D01*
X0200985Y0195423D02*
X0204361Y0195423D01*
X0204397Y0195385D02*
X0201055Y0195385D01*
X0201124Y0195347D02*
X0204433Y0195347D01*
X0204469Y0195310D02*
X0201194Y0195310D01*
X0201264Y0195272D02*
X0204505Y0195272D01*
X0204541Y0195234D02*
X0201334Y0195234D01*
X0201403Y0195196D02*
X0204564Y0195196D01*
X0204587Y0195158D02*
X0201480Y0195158D01*
X0201605Y0195120D02*
X0204609Y0195120D01*
X0204631Y0195082D02*
X0201730Y0195082D01*
X0201855Y0195044D02*
X0204654Y0195044D01*
X0204676Y0195007D02*
X0201980Y0195007D01*
X0202105Y0194969D02*
X0204698Y0194969D01*
X0204711Y0194931D02*
X0202231Y0194931D01*
X0202358Y0194893D02*
X0204723Y0194893D01*
X0204734Y0194855D02*
X0202488Y0194855D01*
X0202617Y0194817D02*
X0204746Y0194817D01*
X0204757Y0194779D02*
X0202747Y0194779D01*
X0202877Y0194741D02*
X0204769Y0194741D01*
X0204780Y0194703D02*
X0202973Y0194703D01*
X0203056Y0194666D02*
X0204792Y0194666D01*
X0204798Y0194628D02*
X0203139Y0194628D01*
X0203221Y0194590D02*
X0204801Y0194590D01*
X0204804Y0194552D02*
X0203295Y0194552D01*
X0203332Y0194514D02*
X0204807Y0194514D01*
X0204811Y0194476D02*
X0203369Y0194476D01*
X0203406Y0194438D02*
X0204814Y0194438D01*
X0204817Y0194400D02*
X0203443Y0194400D01*
X0203470Y0194363D02*
X0204820Y0194363D01*
X0204823Y0194325D02*
X0203478Y0194325D01*
X0203487Y0194287D02*
X0204826Y0194287D01*
X0204827Y0194249D02*
X0203495Y0194249D01*
X0203503Y0194211D02*
X0204823Y0194211D01*
X0204819Y0194173D02*
X0203511Y0194173D01*
X0203517Y0194135D02*
X0204816Y0194135D01*
X0204812Y0194097D02*
X0203510Y0194097D01*
X0203501Y0194060D02*
X0204808Y0194060D01*
X0204805Y0194022D02*
X0203492Y0194022D01*
X0203483Y0193984D02*
X0204801Y0193984D01*
X0204798Y0193946D02*
X0203474Y0193946D01*
X0203464Y0193908D02*
X0204794Y0193908D01*
X0204790Y0193870D02*
X0203442Y0193870D01*
X0203406Y0193832D02*
X0204787Y0193832D01*
X0204776Y0193794D02*
X0203370Y0193794D01*
X0203333Y0193756D02*
X0204763Y0193756D01*
X0204751Y0193719D02*
X0203297Y0193719D01*
X0203219Y0193681D02*
X0204739Y0193681D01*
X0204726Y0193643D02*
X0203128Y0193643D01*
X0203036Y0193605D02*
X0204714Y0193605D01*
X0204702Y0193567D02*
X0202747Y0193567D01*
X0202534Y0193567D02*
X0200238Y0193567D01*
X0200207Y0193529D02*
X0204689Y0193529D01*
X0204677Y0193491D02*
X0200175Y0193491D01*
X0200144Y0193453D02*
X0204665Y0193453D01*
X0204642Y0193416D02*
X0200112Y0193416D01*
X0200080Y0193378D02*
X0204619Y0193378D01*
X0204596Y0193340D02*
X0200069Y0193340D01*
X0200120Y0193302D02*
X0204573Y0193302D01*
X0204550Y0193264D02*
X0200170Y0193264D01*
X0200221Y0193226D02*
X0204526Y0193226D01*
X0204503Y0193188D02*
X0200271Y0193188D01*
X0200322Y0193150D02*
X0204480Y0193150D01*
X0204450Y0193112D02*
X0200373Y0193112D01*
X0200423Y0193075D02*
X0204413Y0193075D01*
X0204376Y0193037D02*
X0200474Y0193037D01*
X0200524Y0192999D02*
X0204338Y0192999D01*
X0204301Y0192961D02*
X0200575Y0192961D01*
X0200626Y0192923D02*
X0204264Y0192923D01*
X0204227Y0192885D02*
X0200704Y0192885D01*
X0200783Y0192847D02*
X0204179Y0192847D01*
X0204120Y0192809D02*
X0200863Y0192809D01*
X0200943Y0192772D02*
X0204061Y0192772D01*
X0204002Y0192734D02*
X0201023Y0192734D01*
X0201103Y0192696D02*
X0203943Y0192696D01*
X0203882Y0192658D02*
X0201183Y0192658D01*
X0201263Y0192620D02*
X0203789Y0192620D01*
X0203696Y0192582D02*
X0201405Y0192582D01*
X0201547Y0192544D02*
X0203603Y0192544D01*
X0203508Y0192506D02*
X0201689Y0192506D01*
X0201832Y0192468D02*
X0203338Y0192468D01*
X0203168Y0192431D02*
X0202057Y0192431D01*
X0202489Y0192393D02*
X0202787Y0192393D01*
X0202157Y0193605D02*
X0200270Y0193605D01*
X0200301Y0193643D02*
X0202033Y0193643D01*
X0201916Y0193681D02*
X0200333Y0193681D01*
X0200364Y0193719D02*
X0201799Y0193719D01*
X0201686Y0193756D02*
X0200396Y0193756D01*
X0200427Y0193794D02*
X0201615Y0193794D01*
X0201545Y0193832D02*
X0200459Y0193832D01*
X0200490Y0193870D02*
X0201475Y0193870D01*
X0201405Y0193908D02*
X0200522Y0193908D01*
X0200554Y0193946D02*
X0201335Y0193946D01*
X0201265Y0193984D02*
X0200585Y0193984D01*
X0200617Y0194022D02*
X0201211Y0194022D01*
X0201158Y0194060D02*
X0200648Y0194060D01*
X0200680Y0194097D02*
X0201106Y0194097D01*
X0201053Y0194135D02*
X0200711Y0194135D01*
X0200743Y0194173D02*
X0201001Y0194173D01*
X0200948Y0194211D02*
X0200774Y0194211D01*
X0200806Y0194249D02*
X0200896Y0194249D01*
X0200843Y0194287D02*
X0200837Y0194287D01*
X0200845Y0195499D02*
X0204261Y0195499D01*
X0204198Y0195537D02*
X0200802Y0195537D01*
X0200764Y0195575D02*
X0204134Y0195575D01*
X0204071Y0195613D02*
X0200726Y0195613D01*
X0200687Y0195651D02*
X0204007Y0195651D01*
X0203944Y0195688D02*
X0200649Y0195688D01*
X0200611Y0195726D02*
X0203880Y0195726D01*
X0203817Y0195764D02*
X0200586Y0195764D01*
X0200562Y0195802D02*
X0203753Y0195802D01*
X0203662Y0195840D02*
X0200539Y0195840D01*
X0200515Y0195878D02*
X0203547Y0195878D01*
X0203432Y0195916D02*
X0200492Y0195916D01*
X0200469Y0195954D02*
X0203317Y0195954D01*
X0203203Y0195991D02*
X0200445Y0195991D01*
X0200428Y0196029D02*
X0203088Y0196029D01*
X0202973Y0196067D02*
X0200416Y0196067D01*
X0200404Y0196105D02*
X0202849Y0196105D01*
X0202714Y0196143D02*
X0200392Y0196143D01*
X0200380Y0196181D02*
X0202578Y0196181D01*
X0202443Y0196219D02*
X0200368Y0196219D01*
X0200356Y0196257D02*
X0202308Y0196257D01*
X0202200Y0196295D02*
X0200344Y0196295D01*
X0200332Y0196332D02*
X0202106Y0196332D01*
X0202012Y0196370D02*
X0200325Y0196370D01*
X0200322Y0196408D02*
X0201919Y0196408D01*
X0201846Y0196446D02*
X0200318Y0196446D01*
X0200315Y0196484D02*
X0201806Y0196484D01*
X0201767Y0196522D02*
X0200312Y0196522D01*
X0200308Y0196560D02*
X0201727Y0196560D01*
X0201687Y0196598D02*
X0200305Y0196598D01*
X0200302Y0196635D02*
X0201656Y0196635D01*
X0201648Y0196673D02*
X0200298Y0196673D01*
X0200295Y0196711D02*
X0201640Y0196711D01*
X0201633Y0196749D02*
X0200292Y0196749D01*
X0200291Y0196787D02*
X0201625Y0196787D01*
X0201617Y0196825D02*
X0200295Y0196825D01*
X0200299Y0196863D02*
X0201609Y0196863D01*
X0201605Y0196901D02*
X0200302Y0196901D01*
X0200306Y0196938D02*
X0201614Y0196938D01*
X0201622Y0196976D02*
X0200309Y0196976D01*
X0200313Y0197014D02*
X0201631Y0197014D01*
X0201640Y0197052D02*
X0200317Y0197052D01*
X0200320Y0197090D02*
X0201649Y0197090D01*
X0201672Y0197128D02*
X0200324Y0197128D01*
X0200327Y0197166D02*
X0201705Y0197166D01*
X0201738Y0197204D02*
X0200338Y0197204D01*
X0200350Y0197242D02*
X0201771Y0197242D01*
X0201812Y0197279D02*
X0200363Y0197279D01*
X0200375Y0197317D02*
X0201893Y0197317D01*
X0201974Y0197355D02*
X0200388Y0197355D01*
X0200400Y0197393D02*
X0202097Y0197393D01*
X0205979Y0194249D02*
X0207306Y0194249D01*
X0207306Y0194211D02*
X0205979Y0194211D01*
X0205979Y0194173D02*
X0207306Y0194173D01*
X0207306Y0194135D02*
X0205979Y0194135D01*
X0205979Y0194097D02*
X0207306Y0194097D01*
X0207306Y0194060D02*
X0205979Y0194060D01*
X0205979Y0194022D02*
X0207306Y0194022D01*
X0207306Y0193984D02*
X0205979Y0193984D01*
X0205979Y0193946D02*
X0207306Y0193946D01*
X0207306Y0193908D02*
X0205979Y0193908D01*
X0205979Y0193870D02*
X0207306Y0193870D01*
X0207306Y0193832D02*
X0205979Y0193832D01*
X0205979Y0193794D02*
X0207306Y0193794D01*
X0207306Y0193756D02*
X0205979Y0193756D01*
X0205979Y0193719D02*
X0207306Y0193719D01*
X0207306Y0193681D02*
X0205979Y0193681D01*
X0205979Y0193643D02*
X0207306Y0193643D01*
X0207306Y0193605D02*
X0205979Y0193605D01*
X0205979Y0193567D02*
X0207306Y0193567D01*
X0207306Y0193529D02*
X0205979Y0193529D01*
X0205979Y0193491D02*
X0207306Y0193491D01*
X0207306Y0193453D02*
X0205979Y0193453D01*
X0205979Y0193416D02*
X0207306Y0193416D01*
X0207306Y0193378D02*
X0205979Y0193378D01*
X0205979Y0193340D02*
X0207306Y0193340D01*
X0207306Y0193302D02*
X0205979Y0193302D01*
X0205979Y0193264D02*
X0207306Y0193264D01*
X0207306Y0193226D02*
X0205979Y0193226D01*
X0205979Y0193188D02*
X0207306Y0193188D01*
X0207306Y0193150D02*
X0205979Y0193150D01*
X0205979Y0193112D02*
X0207306Y0193112D01*
X0207306Y0193075D02*
X0205979Y0193075D01*
X0205979Y0193037D02*
X0207306Y0193037D01*
X0207306Y0192999D02*
X0205979Y0192999D01*
X0205979Y0192961D02*
X0207306Y0192961D01*
X0207306Y0192923D02*
X0205979Y0192923D01*
X0205979Y0192885D02*
X0207306Y0192885D01*
X0207306Y0192847D02*
X0205979Y0192847D01*
X0205979Y0192809D02*
X0207306Y0192809D01*
X0207306Y0192772D02*
X0205979Y0192772D01*
X0205979Y0192734D02*
X0207306Y0192734D01*
X0207306Y0192696D02*
X0205979Y0192696D01*
X0205979Y0192658D02*
X0207306Y0192658D01*
X0207306Y0192620D02*
X0205979Y0192620D01*
X0205979Y0192582D02*
X0207306Y0192582D01*
X0207306Y0192544D02*
X0205979Y0192544D01*
X0205979Y0192506D02*
X0207306Y0192506D01*
X0211221Y0192480D02*
X0212576Y0192480D01*
X0214403Y0196962D01*
X0216230Y0192480D01*
X0217620Y0192480D01*
X0215705Y0196980D01*
X0213136Y0196980D01*
X0213809Y0198560D01*
X0215033Y0198560D01*
X0215705Y0196980D01*
X0213136Y0196980D01*
X0211221Y0192480D01*
X0211232Y0192506D02*
X0212586Y0192506D01*
X0212602Y0192544D02*
X0211248Y0192544D01*
X0211264Y0192582D02*
X0212617Y0192582D01*
X0212632Y0192620D02*
X0211280Y0192620D01*
X0211297Y0192658D02*
X0212648Y0192658D01*
X0212663Y0192696D02*
X0211313Y0192696D01*
X0211329Y0192734D02*
X0212679Y0192734D01*
X0212694Y0192772D02*
X0211345Y0192772D01*
X0211361Y0192809D02*
X0212710Y0192809D01*
X0212725Y0192847D02*
X0211377Y0192847D01*
X0211393Y0192885D02*
X0212741Y0192885D01*
X0212756Y0192923D02*
X0211409Y0192923D01*
X0211426Y0192961D02*
X0212771Y0192961D01*
X0212787Y0192999D02*
X0211442Y0192999D01*
X0211458Y0193037D02*
X0212802Y0193037D01*
X0212818Y0193075D02*
X0211474Y0193075D01*
X0211490Y0193112D02*
X0212833Y0193112D01*
X0212849Y0193150D02*
X0211506Y0193150D01*
X0211522Y0193188D02*
X0212864Y0193188D01*
X0212880Y0193226D02*
X0211538Y0193226D01*
X0211555Y0193264D02*
X0212895Y0193264D01*
X0212910Y0193302D02*
X0211571Y0193302D01*
X0211587Y0193340D02*
X0212926Y0193340D01*
X0212941Y0193378D02*
X0211603Y0193378D01*
X0211619Y0193416D02*
X0212957Y0193416D01*
X0212972Y0193453D02*
X0211635Y0193453D01*
X0211651Y0193491D02*
X0212988Y0193491D01*
X0213003Y0193529D02*
X0211667Y0193529D01*
X0211684Y0193567D02*
X0213019Y0193567D01*
X0213034Y0193605D02*
X0211700Y0193605D01*
X0211716Y0193643D02*
X0213049Y0193643D01*
X0213065Y0193681D02*
X0211732Y0193681D01*
X0211748Y0193719D02*
X0213080Y0193719D01*
X0213096Y0193756D02*
X0211764Y0193756D01*
X0211780Y0193794D02*
X0213111Y0193794D01*
X0213127Y0193832D02*
X0211796Y0193832D01*
X0211812Y0193870D02*
X0213142Y0193870D01*
X0213158Y0193908D02*
X0211829Y0193908D01*
X0211845Y0193946D02*
X0213173Y0193946D01*
X0213188Y0193984D02*
X0211861Y0193984D01*
X0211877Y0194022D02*
X0213204Y0194022D01*
X0213219Y0194060D02*
X0211893Y0194060D01*
X0211909Y0194097D02*
X0213235Y0194097D01*
X0213250Y0194135D02*
X0211925Y0194135D01*
X0211941Y0194173D02*
X0213266Y0194173D01*
X0213281Y0194211D02*
X0211958Y0194211D01*
X0211974Y0194249D02*
X0213296Y0194249D01*
X0213312Y0194287D02*
X0211990Y0194287D01*
X0212006Y0194325D02*
X0213327Y0194325D01*
X0213343Y0194363D02*
X0212022Y0194363D01*
X0212038Y0194400D02*
X0213358Y0194400D01*
X0213374Y0194438D02*
X0212054Y0194438D01*
X0212070Y0194476D02*
X0213389Y0194476D01*
X0213405Y0194514D02*
X0212087Y0194514D01*
X0212103Y0194552D02*
X0213420Y0194552D01*
X0213435Y0194590D02*
X0212119Y0194590D01*
X0212135Y0194628D02*
X0213451Y0194628D01*
X0213466Y0194666D02*
X0212151Y0194666D01*
X0212167Y0194703D02*
X0213482Y0194703D01*
X0213497Y0194741D02*
X0212183Y0194741D01*
X0212199Y0194779D02*
X0213513Y0194779D01*
X0213528Y0194817D02*
X0212215Y0194817D01*
X0212232Y0194855D02*
X0213544Y0194855D01*
X0213559Y0194893D02*
X0212248Y0194893D01*
X0212264Y0194931D02*
X0213574Y0194931D01*
X0213590Y0194969D02*
X0212280Y0194969D01*
X0212296Y0195007D02*
X0213605Y0195007D01*
X0213621Y0195044D02*
X0212312Y0195044D01*
X0212328Y0195082D02*
X0213636Y0195082D01*
X0213652Y0195120D02*
X0212344Y0195120D01*
X0212361Y0195158D02*
X0213667Y0195158D01*
X0213683Y0195196D02*
X0212377Y0195196D01*
X0212393Y0195234D02*
X0213698Y0195234D01*
X0213713Y0195272D02*
X0212409Y0195272D01*
X0212425Y0195310D02*
X0213729Y0195310D01*
X0213744Y0195347D02*
X0212441Y0195347D01*
X0212457Y0195385D02*
X0213760Y0195385D01*
X0213775Y0195423D02*
X0212473Y0195423D01*
X0212489Y0195461D02*
X0213791Y0195461D01*
X0213806Y0195499D02*
X0212506Y0195499D01*
X0212522Y0195537D02*
X0213821Y0195537D01*
X0213837Y0195575D02*
X0212538Y0195575D01*
X0212554Y0195613D02*
X0213852Y0195613D01*
X0213868Y0195651D02*
X0212570Y0195651D01*
X0212586Y0195688D02*
X0213883Y0195688D01*
X0213899Y0195726D02*
X0212602Y0195726D01*
X0212618Y0195764D02*
X0213914Y0195764D01*
X0213930Y0195802D02*
X0212635Y0195802D01*
X0212651Y0195840D02*
X0213945Y0195840D01*
X0213960Y0195878D02*
X0212667Y0195878D01*
X0212683Y0195916D02*
X0213976Y0195916D01*
X0213991Y0195954D02*
X0212699Y0195954D01*
X0212715Y0195991D02*
X0214007Y0195991D01*
X0214022Y0196029D02*
X0212731Y0196029D01*
X0212747Y0196067D02*
X0214038Y0196067D01*
X0214053Y0196105D02*
X0212764Y0196105D01*
X0212780Y0196143D02*
X0214069Y0196143D01*
X0214084Y0196181D02*
X0212796Y0196181D01*
X0212812Y0196219D02*
X0214099Y0196219D01*
X0214115Y0196257D02*
X0212828Y0196257D01*
X0212844Y0196295D02*
X0214130Y0196295D01*
X0214146Y0196332D02*
X0212860Y0196332D01*
X0212876Y0196370D02*
X0214161Y0196370D01*
X0214177Y0196408D02*
X0212892Y0196408D01*
X0212909Y0196446D02*
X0214192Y0196446D01*
X0214208Y0196484D02*
X0212925Y0196484D01*
X0212941Y0196522D02*
X0214223Y0196522D01*
X0214238Y0196560D02*
X0212957Y0196560D01*
X0212973Y0196598D02*
X0214254Y0196598D01*
X0214269Y0196635D02*
X0212989Y0196635D01*
X0213005Y0196673D02*
X0214285Y0196673D01*
X0214300Y0196711D02*
X0213021Y0196711D01*
X0213038Y0196749D02*
X0214316Y0196749D01*
X0214331Y0196787D02*
X0213054Y0196787D01*
X0213070Y0196825D02*
X0214347Y0196825D01*
X0214362Y0196863D02*
X0213086Y0196863D01*
X0213102Y0196901D02*
X0214377Y0196901D01*
X0214393Y0196938D02*
X0213118Y0196938D01*
X0213134Y0196976D02*
X0215706Y0196976D01*
X0215723Y0196938D02*
X0214412Y0196938D01*
X0214428Y0196901D02*
X0215739Y0196901D01*
X0215755Y0196863D02*
X0214443Y0196863D01*
X0214459Y0196825D02*
X0215771Y0196825D01*
X0215787Y0196787D02*
X0214474Y0196787D01*
X0214490Y0196749D02*
X0215803Y0196749D01*
X0215819Y0196711D02*
X0214505Y0196711D01*
X0214520Y0196673D02*
X0215835Y0196673D01*
X0215852Y0196635D02*
X0214536Y0196635D01*
X0214551Y0196598D02*
X0215868Y0196598D01*
X0215884Y0196560D02*
X0214567Y0196560D01*
X0214582Y0196522D02*
X0215900Y0196522D01*
X0215916Y0196484D02*
X0214598Y0196484D01*
X0214613Y0196446D02*
X0215932Y0196446D01*
X0215948Y0196408D02*
X0214629Y0196408D01*
X0214644Y0196370D02*
X0215964Y0196370D01*
X0215981Y0196332D02*
X0214659Y0196332D01*
X0214675Y0196295D02*
X0215997Y0196295D01*
X0216013Y0196257D02*
X0214690Y0196257D01*
X0214706Y0196219D02*
X0216029Y0196219D01*
X0216045Y0196181D02*
X0214721Y0196181D01*
X0214737Y0196143D02*
X0216061Y0196143D01*
X0216077Y0196105D02*
X0214752Y0196105D01*
X0214768Y0196067D02*
X0216093Y0196067D01*
X0216110Y0196029D02*
X0214783Y0196029D01*
X0214798Y0195991D02*
X0216126Y0195991D01*
X0216142Y0195954D02*
X0214814Y0195954D01*
X0214829Y0195916D02*
X0216158Y0195916D01*
X0216174Y0195878D02*
X0214845Y0195878D01*
X0214860Y0195840D02*
X0216190Y0195840D01*
X0216206Y0195802D02*
X0214876Y0195802D01*
X0214891Y0195764D02*
X0216222Y0195764D01*
X0216239Y0195726D02*
X0214907Y0195726D01*
X0214922Y0195688D02*
X0216255Y0195688D01*
X0216271Y0195651D02*
X0214937Y0195651D01*
X0214953Y0195613D02*
X0216287Y0195613D01*
X0216303Y0195575D02*
X0214968Y0195575D01*
X0214984Y0195537D02*
X0216319Y0195537D01*
X0216335Y0195499D02*
X0214999Y0195499D01*
X0215015Y0195461D02*
X0216351Y0195461D01*
X0216368Y0195423D02*
X0215030Y0195423D01*
X0215046Y0195385D02*
X0216384Y0195385D01*
X0216400Y0195347D02*
X0215061Y0195347D01*
X0215076Y0195310D02*
X0216416Y0195310D01*
X0216432Y0195272D02*
X0215092Y0195272D01*
X0215107Y0195234D02*
X0216448Y0195234D01*
X0216464Y0195196D02*
X0215123Y0195196D01*
X0215138Y0195158D02*
X0216480Y0195158D01*
X0216497Y0195120D02*
X0215154Y0195120D01*
X0215169Y0195082D02*
X0216513Y0195082D01*
X0216529Y0195044D02*
X0215184Y0195044D01*
X0215200Y0195007D02*
X0216545Y0195007D01*
X0216561Y0194969D02*
X0215215Y0194969D01*
X0215231Y0194931D02*
X0216577Y0194931D01*
X0216593Y0194893D02*
X0215246Y0194893D01*
X0215262Y0194855D02*
X0216609Y0194855D01*
X0216626Y0194817D02*
X0215277Y0194817D01*
X0215293Y0194779D02*
X0216642Y0194779D01*
X0216658Y0194741D02*
X0215308Y0194741D01*
X0215323Y0194703D02*
X0216674Y0194703D01*
X0216690Y0194666D02*
X0215339Y0194666D01*
X0215354Y0194628D02*
X0216706Y0194628D01*
X0216722Y0194590D02*
X0215370Y0194590D01*
X0215385Y0194552D02*
X0216738Y0194552D01*
X0216755Y0194514D02*
X0215401Y0194514D01*
X0215416Y0194476D02*
X0216771Y0194476D01*
X0216787Y0194438D02*
X0215432Y0194438D01*
X0215447Y0194400D02*
X0216803Y0194400D01*
X0216819Y0194363D02*
X0215462Y0194363D01*
X0215478Y0194325D02*
X0216835Y0194325D01*
X0216851Y0194287D02*
X0215493Y0194287D01*
X0215509Y0194249D02*
X0216867Y0194249D01*
X0216884Y0194211D02*
X0215524Y0194211D01*
X0215540Y0194173D02*
X0216900Y0194173D01*
X0216916Y0194135D02*
X0215555Y0194135D01*
X0215571Y0194097D02*
X0216932Y0194097D01*
X0216948Y0194060D02*
X0215586Y0194060D01*
X0215601Y0194022D02*
X0216964Y0194022D01*
X0216980Y0193984D02*
X0215617Y0193984D01*
X0215632Y0193946D02*
X0216996Y0193946D01*
X0217013Y0193908D02*
X0215648Y0193908D01*
X0215663Y0193870D02*
X0217029Y0193870D01*
X0217045Y0193832D02*
X0215679Y0193832D01*
X0215694Y0193794D02*
X0217061Y0193794D01*
X0217077Y0193756D02*
X0215709Y0193756D01*
X0215725Y0193719D02*
X0217093Y0193719D01*
X0217109Y0193681D02*
X0215740Y0193681D01*
X0215756Y0193643D02*
X0217125Y0193643D01*
X0217142Y0193605D02*
X0215771Y0193605D01*
X0215787Y0193567D02*
X0217158Y0193567D01*
X0217174Y0193529D02*
X0215802Y0193529D01*
X0215818Y0193491D02*
X0217190Y0193491D01*
X0217206Y0193453D02*
X0215833Y0193453D01*
X0215848Y0193416D02*
X0217222Y0193416D01*
X0217238Y0193378D02*
X0215864Y0193378D01*
X0215879Y0193340D02*
X0217254Y0193340D01*
X0217271Y0193302D02*
X0215895Y0193302D01*
X0215910Y0193264D02*
X0217287Y0193264D01*
X0217303Y0193226D02*
X0215926Y0193226D01*
X0215941Y0193188D02*
X0217319Y0193188D01*
X0217335Y0193150D02*
X0215957Y0193150D01*
X0215972Y0193112D02*
X0217351Y0193112D01*
X0217367Y0193075D02*
X0215987Y0193075D01*
X0216003Y0193037D02*
X0217383Y0193037D01*
X0217400Y0192999D02*
X0216018Y0192999D01*
X0216034Y0192961D02*
X0217416Y0192961D01*
X0217432Y0192923D02*
X0216049Y0192923D01*
X0216065Y0192885D02*
X0217448Y0192885D01*
X0217464Y0192847D02*
X0216080Y0192847D01*
X0216096Y0192809D02*
X0217480Y0192809D01*
X0217496Y0192772D02*
X0216111Y0192772D01*
X0216126Y0192734D02*
X0217512Y0192734D01*
X0217528Y0192696D02*
X0216142Y0192696D01*
X0216157Y0192658D02*
X0217545Y0192658D01*
X0217561Y0192620D02*
X0216173Y0192620D01*
X0216188Y0192582D02*
X0217577Y0192582D01*
X0217593Y0192544D02*
X0216204Y0192544D01*
X0216219Y0192506D02*
X0217609Y0192506D01*
X0218552Y0192506D02*
X0219879Y0192506D01*
X0219879Y0192480D02*
X0219879Y0194411D01*
X0220923Y0194411D01*
X0222215Y0192480D01*
X0223767Y0192480D01*
X0222291Y0194636D01*
X0222815Y0194913D01*
X0223227Y0195311D01*
X0223497Y0195840D01*
X0221995Y0195840D01*
X0221981Y0195820D02*
X0221660Y0195645D01*
X0221225Y0195585D01*
X0219879Y0195585D01*
X0219879Y0196980D01*
X0219879Y0197318D01*
X0221198Y0197318D01*
X0221637Y0197264D01*
X0221967Y0197102D01*
X0222061Y0196980D01*
X0223546Y0196980D01*
X0223438Y0197358D01*
X0223251Y0197699D01*
X0222989Y0197988D01*
X0222659Y0198219D01*
X0222269Y0198384D01*
X0221820Y0198482D01*
X0221310Y0198515D01*
X0218552Y0198515D01*
X0218552Y0196980D01*
X0219879Y0196980D01*
X0218552Y0196980D01*
X0218552Y0192480D01*
X0219879Y0192480D01*
X0219879Y0192544D02*
X0218552Y0192544D01*
X0218552Y0192582D02*
X0219879Y0192582D01*
X0219879Y0192620D02*
X0218552Y0192620D01*
X0218552Y0192658D02*
X0219879Y0192658D01*
X0219879Y0192696D02*
X0218552Y0192696D01*
X0218552Y0192734D02*
X0219879Y0192734D01*
X0219879Y0192772D02*
X0218552Y0192772D01*
X0218552Y0192809D02*
X0219879Y0192809D01*
X0219879Y0192847D02*
X0218552Y0192847D01*
X0218552Y0192885D02*
X0219879Y0192885D01*
X0219879Y0192923D02*
X0218552Y0192923D01*
X0218552Y0192961D02*
X0219879Y0192961D01*
X0219879Y0192999D02*
X0218552Y0192999D01*
X0218552Y0193037D02*
X0219879Y0193037D01*
X0219879Y0193075D02*
X0218552Y0193075D01*
X0218552Y0193112D02*
X0219879Y0193112D01*
X0219879Y0193150D02*
X0218552Y0193150D01*
X0218552Y0193188D02*
X0219879Y0193188D01*
X0219879Y0193226D02*
X0218552Y0193226D01*
X0218552Y0193264D02*
X0219879Y0193264D01*
X0219879Y0193302D02*
X0218552Y0193302D01*
X0218552Y0193340D02*
X0219879Y0193340D01*
X0219879Y0193378D02*
X0218552Y0193378D01*
X0218552Y0193416D02*
X0219879Y0193416D01*
X0219879Y0193453D02*
X0218552Y0193453D01*
X0218552Y0193491D02*
X0219879Y0193491D01*
X0219879Y0193529D02*
X0218552Y0193529D01*
X0218552Y0193567D02*
X0219879Y0193567D01*
X0219879Y0193605D02*
X0218552Y0193605D01*
X0218552Y0193643D02*
X0219879Y0193643D01*
X0219879Y0193681D02*
X0218552Y0193681D01*
X0218552Y0193719D02*
X0219879Y0193719D01*
X0219879Y0193756D02*
X0218552Y0193756D01*
X0218552Y0193794D02*
X0219879Y0193794D01*
X0219879Y0193832D02*
X0218552Y0193832D01*
X0218552Y0193870D02*
X0219879Y0193870D01*
X0219879Y0193908D02*
X0218552Y0193908D01*
X0218552Y0193946D02*
X0219879Y0193946D01*
X0219879Y0193984D02*
X0218552Y0193984D01*
X0218552Y0194022D02*
X0219879Y0194022D01*
X0219879Y0194060D02*
X0218552Y0194060D01*
X0218552Y0194097D02*
X0219879Y0194097D01*
X0219879Y0194135D02*
X0218552Y0194135D01*
X0218552Y0194173D02*
X0219879Y0194173D01*
X0219879Y0194211D02*
X0218552Y0194211D01*
X0218552Y0194249D02*
X0219879Y0194249D01*
X0219879Y0194287D02*
X0218552Y0194287D01*
X0218552Y0194325D02*
X0219879Y0194325D01*
X0219879Y0194363D02*
X0218552Y0194363D01*
X0218552Y0194400D02*
X0219879Y0194400D01*
X0220930Y0194400D02*
X0222452Y0194400D01*
X0222478Y0194363D02*
X0220956Y0194363D01*
X0220981Y0194325D02*
X0222504Y0194325D01*
X0222530Y0194287D02*
X0221006Y0194287D01*
X0221032Y0194249D02*
X0222556Y0194249D01*
X0222582Y0194211D02*
X0221057Y0194211D01*
X0221082Y0194173D02*
X0222608Y0194173D01*
X0222634Y0194135D02*
X0221108Y0194135D01*
X0221133Y0194097D02*
X0222660Y0194097D01*
X0222686Y0194060D02*
X0221158Y0194060D01*
X0221184Y0194022D02*
X0222712Y0194022D01*
X0222738Y0193984D02*
X0221209Y0193984D01*
X0221234Y0193946D02*
X0222764Y0193946D01*
X0222790Y0193908D02*
X0221260Y0193908D01*
X0221285Y0193870D02*
X0222816Y0193870D01*
X0222842Y0193832D02*
X0221310Y0193832D01*
X0221336Y0193794D02*
X0222867Y0193794D01*
X0222893Y0193756D02*
X0221361Y0193756D01*
X0221386Y0193719D02*
X0222919Y0193719D01*
X0222945Y0193681D02*
X0221412Y0193681D01*
X0221437Y0193643D02*
X0222971Y0193643D01*
X0222997Y0193605D02*
X0221462Y0193605D01*
X0221488Y0193567D02*
X0223023Y0193567D01*
X0223049Y0193529D02*
X0221513Y0193529D01*
X0221538Y0193491D02*
X0223075Y0193491D01*
X0223101Y0193453D02*
X0221564Y0193453D01*
X0221589Y0193416D02*
X0223127Y0193416D01*
X0223153Y0193378D02*
X0221614Y0193378D01*
X0221640Y0193340D02*
X0223179Y0193340D01*
X0223205Y0193302D02*
X0221665Y0193302D01*
X0221690Y0193264D02*
X0223231Y0193264D01*
X0223257Y0193226D02*
X0221716Y0193226D01*
X0221741Y0193188D02*
X0223282Y0193188D01*
X0223308Y0193150D02*
X0221766Y0193150D01*
X0221792Y0193112D02*
X0223334Y0193112D01*
X0223360Y0193075D02*
X0221817Y0193075D01*
X0221843Y0193037D02*
X0223386Y0193037D01*
X0223412Y0192999D02*
X0221868Y0192999D01*
X0221893Y0192961D02*
X0223438Y0192961D01*
X0223464Y0192923D02*
X0221919Y0192923D01*
X0221944Y0192885D02*
X0223490Y0192885D01*
X0223516Y0192847D02*
X0221969Y0192847D01*
X0221995Y0192809D02*
X0223542Y0192809D01*
X0223568Y0192772D02*
X0222020Y0192772D01*
X0222045Y0192734D02*
X0223594Y0192734D01*
X0223620Y0192696D02*
X0222071Y0192696D01*
X0222096Y0192658D02*
X0223646Y0192658D01*
X0223672Y0192620D02*
X0222121Y0192620D01*
X0222147Y0192582D02*
X0223698Y0192582D01*
X0223723Y0192544D02*
X0222172Y0192544D01*
X0222197Y0192506D02*
X0223749Y0192506D01*
X0224789Y0192506D02*
X0226116Y0192506D01*
X0226116Y0192480D02*
X0226116Y0194326D01*
X0226814Y0195050D01*
X0228686Y0192480D01*
X0230279Y0192480D01*
X0227709Y0195955D01*
X0228693Y0196980D01*
X0227139Y0196980D01*
X0228564Y0198515D01*
X0230166Y0198515D01*
X0228693Y0196980D01*
X0227139Y0196980D01*
X0226116Y0195878D01*
X0226116Y0196980D01*
X0224789Y0196980D01*
X0224789Y0198515D01*
X0226116Y0198515D01*
X0226116Y0196980D01*
X0224789Y0196980D01*
X0224789Y0192480D01*
X0226116Y0192480D01*
X0226116Y0192544D02*
X0224789Y0192544D01*
X0224789Y0192582D02*
X0226116Y0192582D01*
X0226116Y0192620D02*
X0224789Y0192620D01*
X0224789Y0192658D02*
X0226116Y0192658D01*
X0226116Y0192696D02*
X0224789Y0192696D01*
X0224789Y0192734D02*
X0226116Y0192734D01*
X0226116Y0192772D02*
X0224789Y0192772D01*
X0224789Y0192809D02*
X0226116Y0192809D01*
X0226116Y0192847D02*
X0224789Y0192847D01*
X0224789Y0192885D02*
X0226116Y0192885D01*
X0226116Y0192923D02*
X0224789Y0192923D01*
X0224789Y0192961D02*
X0226116Y0192961D01*
X0226116Y0192999D02*
X0224789Y0192999D01*
X0224789Y0193037D02*
X0226116Y0193037D01*
X0226116Y0193075D02*
X0224789Y0193075D01*
X0224789Y0193112D02*
X0226116Y0193112D01*
X0226116Y0193150D02*
X0224789Y0193150D01*
X0224789Y0193188D02*
X0226116Y0193188D01*
X0226116Y0193226D02*
X0224789Y0193226D01*
X0224789Y0193264D02*
X0226116Y0193264D01*
X0226116Y0193302D02*
X0224789Y0193302D01*
X0224789Y0193340D02*
X0226116Y0193340D01*
X0226116Y0193378D02*
X0224789Y0193378D01*
X0224789Y0193416D02*
X0226116Y0193416D01*
X0226116Y0193453D02*
X0224789Y0193453D01*
X0224789Y0193491D02*
X0226116Y0193491D01*
X0226116Y0193529D02*
X0224789Y0193529D01*
X0224789Y0193567D02*
X0226116Y0193567D01*
X0226116Y0193605D02*
X0224789Y0193605D01*
X0224789Y0193643D02*
X0226116Y0193643D01*
X0226116Y0193681D02*
X0224789Y0193681D01*
X0224789Y0193719D02*
X0226116Y0193719D01*
X0226116Y0193756D02*
X0224789Y0193756D01*
X0224789Y0193794D02*
X0226116Y0193794D01*
X0226116Y0193832D02*
X0224789Y0193832D01*
X0224789Y0193870D02*
X0226116Y0193870D01*
X0226116Y0193908D02*
X0224789Y0193908D01*
X0224789Y0193946D02*
X0226116Y0193946D01*
X0226116Y0193984D02*
X0224789Y0193984D01*
X0224789Y0194022D02*
X0226116Y0194022D01*
X0226116Y0194060D02*
X0224789Y0194060D01*
X0224789Y0194097D02*
X0226116Y0194097D01*
X0226116Y0194135D02*
X0224789Y0194135D01*
X0224789Y0194173D02*
X0226116Y0194173D01*
X0226116Y0194211D02*
X0224789Y0194211D01*
X0224789Y0194249D02*
X0226116Y0194249D01*
X0226116Y0194287D02*
X0224789Y0194287D01*
X0224789Y0194325D02*
X0226116Y0194325D01*
X0226152Y0194363D02*
X0224789Y0194363D01*
X0224789Y0194400D02*
X0226188Y0194400D01*
X0226225Y0194438D02*
X0224789Y0194438D01*
X0224789Y0194476D02*
X0226261Y0194476D01*
X0226298Y0194514D02*
X0224789Y0194514D01*
X0224789Y0194552D02*
X0226334Y0194552D01*
X0226371Y0194590D02*
X0224789Y0194590D01*
X0224789Y0194628D02*
X0226407Y0194628D01*
X0226444Y0194666D02*
X0224789Y0194666D01*
X0224789Y0194703D02*
X0226480Y0194703D01*
X0226516Y0194741D02*
X0224789Y0194741D01*
X0224789Y0194779D02*
X0226553Y0194779D01*
X0226589Y0194817D02*
X0224789Y0194817D01*
X0224789Y0194855D02*
X0226626Y0194855D01*
X0226662Y0194893D02*
X0224789Y0194893D01*
X0224789Y0194931D02*
X0226699Y0194931D01*
X0226735Y0194969D02*
X0224789Y0194969D01*
X0224789Y0195007D02*
X0226772Y0195007D01*
X0226808Y0195044D02*
X0224789Y0195044D01*
X0224789Y0195082D02*
X0228354Y0195082D01*
X0228382Y0195044D02*
X0226818Y0195044D01*
X0226845Y0195007D02*
X0228410Y0195007D01*
X0228438Y0194969D02*
X0226873Y0194969D01*
X0226900Y0194931D02*
X0228466Y0194931D01*
X0228494Y0194893D02*
X0226928Y0194893D01*
X0226956Y0194855D02*
X0228522Y0194855D01*
X0228550Y0194817D02*
X0226983Y0194817D01*
X0227011Y0194779D02*
X0228578Y0194779D01*
X0228606Y0194741D02*
X0227038Y0194741D01*
X0227066Y0194703D02*
X0228634Y0194703D01*
X0228662Y0194666D02*
X0227094Y0194666D01*
X0227121Y0194628D02*
X0228690Y0194628D01*
X0228718Y0194590D02*
X0227149Y0194590D01*
X0227176Y0194552D02*
X0228746Y0194552D01*
X0228775Y0194514D02*
X0227204Y0194514D01*
X0227232Y0194476D02*
X0228803Y0194476D01*
X0228831Y0194438D02*
X0227259Y0194438D01*
X0227287Y0194400D02*
X0228859Y0194400D01*
X0228887Y0194363D02*
X0227314Y0194363D01*
X0227342Y0194325D02*
X0228915Y0194325D01*
X0228943Y0194287D02*
X0227370Y0194287D01*
X0227397Y0194249D02*
X0228971Y0194249D01*
X0228999Y0194211D02*
X0227425Y0194211D01*
X0227452Y0194173D02*
X0229027Y0194173D01*
X0229055Y0194135D02*
X0227480Y0194135D01*
X0227508Y0194097D02*
X0229083Y0194097D01*
X0229111Y0194060D02*
X0227535Y0194060D01*
X0227563Y0194022D02*
X0229139Y0194022D01*
X0229167Y0193984D02*
X0227590Y0193984D01*
X0227618Y0193946D02*
X0229195Y0193946D01*
X0229223Y0193908D02*
X0227646Y0193908D01*
X0227673Y0193870D02*
X0229251Y0193870D01*
X0229279Y0193832D02*
X0227701Y0193832D01*
X0227728Y0193794D02*
X0229307Y0193794D01*
X0229335Y0193756D02*
X0227756Y0193756D01*
X0227784Y0193719D02*
X0229363Y0193719D01*
X0229391Y0193681D02*
X0227811Y0193681D01*
X0227839Y0193643D02*
X0229419Y0193643D01*
X0229447Y0193605D02*
X0227866Y0193605D01*
X0227894Y0193567D02*
X0229475Y0193567D01*
X0229503Y0193529D02*
X0227922Y0193529D01*
X0227949Y0193491D02*
X0229531Y0193491D01*
X0229559Y0193453D02*
X0227977Y0193453D01*
X0228004Y0193416D02*
X0229587Y0193416D01*
X0229615Y0193378D02*
X0228032Y0193378D01*
X0228060Y0193340D02*
X0229643Y0193340D01*
X0229671Y0193302D02*
X0228087Y0193302D01*
X0228115Y0193264D02*
X0229699Y0193264D01*
X0229727Y0193226D02*
X0228142Y0193226D01*
X0228170Y0193188D02*
X0229755Y0193188D01*
X0229783Y0193150D02*
X0228198Y0193150D01*
X0228225Y0193112D02*
X0229811Y0193112D01*
X0229839Y0193075D02*
X0228253Y0193075D01*
X0228280Y0193037D02*
X0229867Y0193037D01*
X0229895Y0192999D02*
X0228308Y0192999D01*
X0228336Y0192961D02*
X0229923Y0192961D01*
X0229951Y0192923D02*
X0228363Y0192923D01*
X0228391Y0192885D02*
X0229979Y0192885D01*
X0230007Y0192847D02*
X0228418Y0192847D01*
X0228446Y0192809D02*
X0230035Y0192809D01*
X0230063Y0192772D02*
X0228474Y0192772D01*
X0228501Y0192734D02*
X0230091Y0192734D01*
X0230119Y0192696D02*
X0228529Y0192696D01*
X0228556Y0192658D02*
X0230147Y0192658D01*
X0230175Y0192620D02*
X0228584Y0192620D01*
X0228612Y0192582D02*
X0230203Y0192582D01*
X0230231Y0192544D02*
X0228639Y0192544D01*
X0228667Y0192506D02*
X0230259Y0192506D01*
X0228326Y0195120D02*
X0224789Y0195120D01*
X0224789Y0195158D02*
X0228298Y0195158D01*
X0228270Y0195196D02*
X0224789Y0195196D01*
X0224789Y0195234D02*
X0228242Y0195234D01*
X0228214Y0195272D02*
X0224789Y0195272D01*
X0224789Y0195310D02*
X0228186Y0195310D01*
X0228158Y0195347D02*
X0224789Y0195347D01*
X0224789Y0195385D02*
X0228130Y0195385D01*
X0228102Y0195423D02*
X0224789Y0195423D01*
X0224789Y0195461D02*
X0228074Y0195461D01*
X0228046Y0195499D02*
X0224789Y0195499D01*
X0224789Y0195537D02*
X0228018Y0195537D01*
X0227990Y0195575D02*
X0224789Y0195575D01*
X0224789Y0195613D02*
X0227962Y0195613D01*
X0227934Y0195651D02*
X0224789Y0195651D01*
X0224789Y0195688D02*
X0227906Y0195688D01*
X0227878Y0195726D02*
X0224789Y0195726D01*
X0224789Y0195764D02*
X0227850Y0195764D01*
X0227822Y0195802D02*
X0224789Y0195802D01*
X0224789Y0195840D02*
X0227794Y0195840D01*
X0227766Y0195878D02*
X0224789Y0195878D01*
X0224789Y0195916D02*
X0226116Y0195916D01*
X0226151Y0195916D02*
X0227738Y0195916D01*
X0227710Y0195954D02*
X0226186Y0195954D01*
X0226221Y0195991D02*
X0227745Y0195991D01*
X0227781Y0196029D02*
X0226257Y0196029D01*
X0226292Y0196067D02*
X0227817Y0196067D01*
X0227854Y0196105D02*
X0226327Y0196105D01*
X0226362Y0196143D02*
X0227890Y0196143D01*
X0227926Y0196181D02*
X0226397Y0196181D01*
X0226432Y0196219D02*
X0227963Y0196219D01*
X0227999Y0196257D02*
X0226468Y0196257D01*
X0226503Y0196295D02*
X0228035Y0196295D01*
X0228072Y0196332D02*
X0226538Y0196332D01*
X0226573Y0196370D02*
X0228108Y0196370D01*
X0228144Y0196408D02*
X0226608Y0196408D01*
X0226643Y0196446D02*
X0228181Y0196446D01*
X0228217Y0196484D02*
X0226679Y0196484D01*
X0226714Y0196522D02*
X0228253Y0196522D01*
X0228290Y0196560D02*
X0226749Y0196560D01*
X0226784Y0196598D02*
X0228326Y0196598D01*
X0228362Y0196635D02*
X0226819Y0196635D01*
X0226854Y0196673D02*
X0228399Y0196673D01*
X0228435Y0196711D02*
X0226890Y0196711D01*
X0226925Y0196749D02*
X0228472Y0196749D01*
X0228508Y0196787D02*
X0226960Y0196787D01*
X0226995Y0196825D02*
X0228544Y0196825D01*
X0228581Y0196863D02*
X0227030Y0196863D01*
X0227065Y0196901D02*
X0228617Y0196901D01*
X0228653Y0196938D02*
X0227101Y0196938D01*
X0227136Y0196976D02*
X0228690Y0196976D01*
X0228726Y0197014D02*
X0227171Y0197014D01*
X0227206Y0197052D02*
X0228762Y0197052D01*
X0228799Y0197090D02*
X0227241Y0197090D01*
X0227276Y0197128D02*
X0228835Y0197128D01*
X0228871Y0197166D02*
X0227312Y0197166D01*
X0227347Y0197204D02*
X0228908Y0197204D01*
X0228944Y0197242D02*
X0227382Y0197242D01*
X0227417Y0197279D02*
X0228980Y0197279D01*
X0229017Y0197317D02*
X0227452Y0197317D01*
X0227487Y0197355D02*
X0229053Y0197355D01*
X0229089Y0197393D02*
X0227523Y0197393D01*
X0227558Y0197431D02*
X0229126Y0197431D01*
X0229162Y0197469D02*
X0227593Y0197469D01*
X0227628Y0197507D02*
X0229199Y0197507D01*
X0229235Y0197545D02*
X0227663Y0197545D01*
X0227698Y0197582D02*
X0229271Y0197582D01*
X0229308Y0197620D02*
X0227734Y0197620D01*
X0227769Y0197658D02*
X0229344Y0197658D01*
X0229380Y0197696D02*
X0227804Y0197696D01*
X0227839Y0197734D02*
X0229417Y0197734D01*
X0229453Y0197772D02*
X0227874Y0197772D01*
X0227909Y0197810D02*
X0229489Y0197810D01*
X0229526Y0197848D02*
X0227945Y0197848D01*
X0227980Y0197886D02*
X0229562Y0197886D01*
X0229598Y0197923D02*
X0228015Y0197923D01*
X0228050Y0197961D02*
X0229635Y0197961D01*
X0229671Y0197999D02*
X0228085Y0197999D01*
X0228120Y0198037D02*
X0229707Y0198037D01*
X0229744Y0198075D02*
X0228156Y0198075D01*
X0228191Y0198113D02*
X0229780Y0198113D01*
X0229817Y0198151D02*
X0228226Y0198151D01*
X0228261Y0198189D02*
X0229853Y0198189D01*
X0229889Y0198226D02*
X0228296Y0198226D01*
X0228331Y0198264D02*
X0229926Y0198264D01*
X0229962Y0198302D02*
X0228367Y0198302D01*
X0228402Y0198340D02*
X0229998Y0198340D01*
X0230035Y0198378D02*
X0228437Y0198378D01*
X0228472Y0198416D02*
X0230071Y0198416D01*
X0230107Y0198454D02*
X0228507Y0198454D01*
X0228542Y0198492D02*
X0230144Y0198492D01*
X0226116Y0198492D02*
X0224789Y0198492D01*
X0224789Y0198454D02*
X0226116Y0198454D01*
X0226116Y0198416D02*
X0224789Y0198416D01*
X0224789Y0198378D02*
X0226116Y0198378D01*
X0226116Y0198340D02*
X0224789Y0198340D01*
X0224789Y0198302D02*
X0226116Y0198302D01*
X0226116Y0198264D02*
X0224789Y0198264D01*
X0224789Y0198226D02*
X0226116Y0198226D01*
X0226116Y0198189D02*
X0224789Y0198189D01*
X0224789Y0198151D02*
X0226116Y0198151D01*
X0226116Y0198113D02*
X0224789Y0198113D01*
X0224789Y0198075D02*
X0226116Y0198075D01*
X0226116Y0198037D02*
X0224789Y0198037D01*
X0224789Y0197999D02*
X0226116Y0197999D01*
X0226116Y0197961D02*
X0224789Y0197961D01*
X0224789Y0197923D02*
X0226116Y0197923D01*
X0226116Y0197886D02*
X0224789Y0197886D01*
X0224789Y0197848D02*
X0226116Y0197848D01*
X0226116Y0197810D02*
X0224789Y0197810D01*
X0224789Y0197772D02*
X0226116Y0197772D01*
X0226116Y0197734D02*
X0224789Y0197734D01*
X0224789Y0197696D02*
X0226116Y0197696D01*
X0226116Y0197658D02*
X0224789Y0197658D01*
X0224789Y0197620D02*
X0226116Y0197620D01*
X0226116Y0197582D02*
X0224789Y0197582D01*
X0224789Y0197545D02*
X0226116Y0197545D01*
X0226116Y0197507D02*
X0224789Y0197507D01*
X0224789Y0197469D02*
X0226116Y0197469D01*
X0226116Y0197431D02*
X0224789Y0197431D01*
X0224789Y0197393D02*
X0226116Y0197393D01*
X0226116Y0197355D02*
X0224789Y0197355D01*
X0224789Y0197317D02*
X0226116Y0197317D01*
X0226116Y0197279D02*
X0224789Y0197279D01*
X0224789Y0197242D02*
X0226116Y0197242D01*
X0226116Y0197204D02*
X0224789Y0197204D01*
X0224789Y0197166D02*
X0226116Y0197166D01*
X0226116Y0197128D02*
X0224789Y0197128D01*
X0224789Y0197090D02*
X0226116Y0197090D01*
X0226116Y0197052D02*
X0224789Y0197052D01*
X0224789Y0197014D02*
X0226116Y0197014D01*
X0226116Y0196976D02*
X0224789Y0196976D01*
X0224789Y0196938D02*
X0226116Y0196938D01*
X0226116Y0196901D02*
X0224789Y0196901D01*
X0224789Y0196863D02*
X0226116Y0196863D01*
X0226116Y0196825D02*
X0224789Y0196825D01*
X0224789Y0196787D02*
X0226116Y0196787D01*
X0226116Y0196749D02*
X0224789Y0196749D01*
X0224789Y0196711D02*
X0226116Y0196711D01*
X0226116Y0196673D02*
X0224789Y0196673D01*
X0224789Y0196635D02*
X0226116Y0196635D01*
X0226116Y0196598D02*
X0224789Y0196598D01*
X0224789Y0196560D02*
X0226116Y0196560D01*
X0226116Y0196522D02*
X0224789Y0196522D01*
X0224789Y0196484D02*
X0226116Y0196484D01*
X0226116Y0196446D02*
X0224789Y0196446D01*
X0224789Y0196408D02*
X0226116Y0196408D01*
X0226116Y0196370D02*
X0224789Y0196370D01*
X0224789Y0196332D02*
X0226116Y0196332D01*
X0226116Y0196295D02*
X0224789Y0196295D01*
X0224789Y0196257D02*
X0226116Y0196257D01*
X0226116Y0196219D02*
X0224789Y0196219D01*
X0224789Y0196181D02*
X0226116Y0196181D01*
X0226116Y0196143D02*
X0224789Y0196143D01*
X0224789Y0196105D02*
X0226116Y0196105D01*
X0226116Y0196067D02*
X0224789Y0196067D01*
X0224789Y0196029D02*
X0226116Y0196029D01*
X0226116Y0195991D02*
X0224789Y0195991D01*
X0224789Y0195954D02*
X0226116Y0195954D01*
X0223559Y0196295D02*
X0222215Y0196295D01*
X0222222Y0196332D02*
X0223564Y0196332D01*
X0223569Y0196370D02*
X0222229Y0196370D01*
X0222236Y0196408D02*
X0223574Y0196408D01*
X0223579Y0196446D02*
X0222242Y0196446D01*
X0222242Y0196441D02*
X0222177Y0196093D01*
X0221981Y0195820D01*
X0221949Y0195802D02*
X0223478Y0195802D01*
X0223497Y0195840D02*
X0223587Y0196503D01*
X0223587Y0196522D01*
X0222229Y0196522D01*
X0222223Y0196560D02*
X0223584Y0196560D01*
X0223581Y0196598D02*
X0222216Y0196598D01*
X0222209Y0196635D02*
X0223578Y0196635D01*
X0223574Y0196673D02*
X0222202Y0196673D01*
X0222195Y0196711D02*
X0223571Y0196711D01*
X0223568Y0196749D02*
X0222189Y0196749D01*
X0222182Y0196787D02*
X0223565Y0196787D01*
X0223562Y0196825D02*
X0222175Y0196825D01*
X0222174Y0196832D02*
X0222242Y0196454D01*
X0222242Y0196441D01*
X0222236Y0196484D02*
X0223584Y0196484D01*
X0223587Y0196522D02*
X0223550Y0196965D01*
X0223546Y0196980D01*
X0222061Y0196980D01*
X0222174Y0196832D01*
X0222150Y0196863D02*
X0223559Y0196863D01*
X0223555Y0196901D02*
X0222121Y0196901D01*
X0222092Y0196938D02*
X0223552Y0196938D01*
X0223547Y0196976D02*
X0222063Y0196976D01*
X0222034Y0197014D02*
X0223536Y0197014D01*
X0223525Y0197052D02*
X0222005Y0197052D01*
X0221976Y0197090D02*
X0223514Y0197090D01*
X0223503Y0197128D02*
X0221914Y0197128D01*
X0221837Y0197166D02*
X0223493Y0197166D01*
X0223482Y0197204D02*
X0221760Y0197204D01*
X0221682Y0197242D02*
X0223471Y0197242D01*
X0223460Y0197279D02*
X0221511Y0197279D01*
X0221203Y0197317D02*
X0223450Y0197317D01*
X0223439Y0197355D02*
X0218552Y0197355D01*
X0218552Y0197317D02*
X0219879Y0197317D01*
X0219879Y0197279D02*
X0218552Y0197279D01*
X0218552Y0197242D02*
X0219879Y0197242D01*
X0219879Y0197204D02*
X0218552Y0197204D01*
X0218552Y0197166D02*
X0219879Y0197166D01*
X0219879Y0197128D02*
X0218552Y0197128D01*
X0218552Y0197090D02*
X0219879Y0197090D01*
X0219879Y0197052D02*
X0218552Y0197052D01*
X0218552Y0197014D02*
X0219879Y0197014D01*
X0219879Y0196976D02*
X0218552Y0196976D01*
X0218552Y0196938D02*
X0219879Y0196938D01*
X0219879Y0196901D02*
X0218552Y0196901D01*
X0218552Y0196863D02*
X0219879Y0196863D01*
X0219879Y0196825D02*
X0218552Y0196825D01*
X0218552Y0196787D02*
X0219879Y0196787D01*
X0219879Y0196749D02*
X0218552Y0196749D01*
X0218552Y0196711D02*
X0219879Y0196711D01*
X0219879Y0196673D02*
X0218552Y0196673D01*
X0218552Y0196635D02*
X0219879Y0196635D01*
X0219879Y0196598D02*
X0218552Y0196598D01*
X0218552Y0196560D02*
X0219879Y0196560D01*
X0219879Y0196522D02*
X0218552Y0196522D01*
X0218552Y0196484D02*
X0219879Y0196484D01*
X0219879Y0196446D02*
X0218552Y0196446D01*
X0218552Y0196408D02*
X0219879Y0196408D01*
X0219879Y0196370D02*
X0218552Y0196370D01*
X0218552Y0196332D02*
X0219879Y0196332D01*
X0219879Y0196295D02*
X0218552Y0196295D01*
X0218552Y0196257D02*
X0219879Y0196257D01*
X0219879Y0196219D02*
X0218552Y0196219D01*
X0218552Y0196181D02*
X0219879Y0196181D01*
X0219879Y0196143D02*
X0218552Y0196143D01*
X0218552Y0196105D02*
X0219879Y0196105D01*
X0219879Y0196067D02*
X0218552Y0196067D01*
X0218552Y0196029D02*
X0219879Y0196029D01*
X0219879Y0195991D02*
X0218552Y0195991D01*
X0218552Y0195954D02*
X0219879Y0195954D01*
X0219879Y0195916D02*
X0218552Y0195916D01*
X0218552Y0195878D02*
X0219879Y0195878D01*
X0219879Y0195840D02*
X0218552Y0195840D01*
X0218552Y0195802D02*
X0219879Y0195802D01*
X0219879Y0195764D02*
X0218552Y0195764D01*
X0218552Y0195726D02*
X0219879Y0195726D01*
X0219879Y0195688D02*
X0218552Y0195688D01*
X0218552Y0195651D02*
X0219879Y0195651D01*
X0219879Y0195613D02*
X0218552Y0195613D01*
X0218552Y0195575D02*
X0223362Y0195575D01*
X0223381Y0195613D02*
X0221423Y0195613D01*
X0221670Y0195651D02*
X0223400Y0195651D01*
X0223420Y0195688D02*
X0221740Y0195688D01*
X0221809Y0195726D02*
X0223439Y0195726D01*
X0223458Y0195764D02*
X0221879Y0195764D01*
X0222023Y0195878D02*
X0223502Y0195878D01*
X0223507Y0195916D02*
X0222050Y0195916D01*
X0222077Y0195954D02*
X0223512Y0195954D01*
X0223517Y0195991D02*
X0222104Y0195991D01*
X0222131Y0196029D02*
X0223522Y0196029D01*
X0223528Y0196067D02*
X0222159Y0196067D01*
X0222179Y0196105D02*
X0223533Y0196105D01*
X0223538Y0196143D02*
X0222186Y0196143D01*
X0222193Y0196181D02*
X0223543Y0196181D01*
X0223548Y0196219D02*
X0222200Y0196219D01*
X0222207Y0196257D02*
X0223553Y0196257D01*
X0223342Y0195537D02*
X0218552Y0195537D01*
X0218552Y0195499D02*
X0223323Y0195499D01*
X0223304Y0195461D02*
X0218552Y0195461D01*
X0218552Y0195423D02*
X0223284Y0195423D01*
X0223265Y0195385D02*
X0218552Y0195385D01*
X0218552Y0195347D02*
X0223246Y0195347D01*
X0223226Y0195310D02*
X0218552Y0195310D01*
X0218552Y0195272D02*
X0223186Y0195272D01*
X0223147Y0195234D02*
X0218552Y0195234D01*
X0218552Y0195196D02*
X0223108Y0195196D01*
X0223069Y0195158D02*
X0218552Y0195158D01*
X0218552Y0195120D02*
X0223029Y0195120D01*
X0222990Y0195082D02*
X0218552Y0195082D01*
X0218552Y0195044D02*
X0222951Y0195044D01*
X0222912Y0195007D02*
X0218552Y0195007D01*
X0218552Y0194969D02*
X0222872Y0194969D01*
X0222833Y0194931D02*
X0218552Y0194931D01*
X0218552Y0194893D02*
X0222777Y0194893D01*
X0222705Y0194855D02*
X0218552Y0194855D01*
X0218552Y0194817D02*
X0222633Y0194817D01*
X0222562Y0194779D02*
X0218552Y0194779D01*
X0218552Y0194741D02*
X0222490Y0194741D01*
X0222419Y0194703D02*
X0218552Y0194703D01*
X0218552Y0194666D02*
X0222347Y0194666D01*
X0222297Y0194628D02*
X0218552Y0194628D01*
X0218552Y0194590D02*
X0222323Y0194590D01*
X0222349Y0194552D02*
X0218552Y0194552D01*
X0218552Y0194514D02*
X0222375Y0194514D01*
X0222401Y0194476D02*
X0218552Y0194476D01*
X0218552Y0194438D02*
X0222426Y0194438D01*
X0223419Y0197393D02*
X0218552Y0197393D01*
X0218552Y0197431D02*
X0223398Y0197431D01*
X0223377Y0197469D02*
X0218552Y0197469D01*
X0218552Y0197507D02*
X0223357Y0197507D01*
X0223336Y0197545D02*
X0218552Y0197545D01*
X0218552Y0197582D02*
X0223315Y0197582D01*
X0223294Y0197620D02*
X0218552Y0197620D01*
X0218552Y0197658D02*
X0223273Y0197658D01*
X0223253Y0197696D02*
X0218552Y0197696D01*
X0218552Y0197734D02*
X0223219Y0197734D01*
X0223185Y0197772D02*
X0218552Y0197772D01*
X0218552Y0197810D02*
X0223151Y0197810D01*
X0223116Y0197848D02*
X0218552Y0197848D01*
X0218552Y0197886D02*
X0223082Y0197886D01*
X0223048Y0197923D02*
X0218552Y0197923D01*
X0218552Y0197961D02*
X0223013Y0197961D01*
X0222973Y0197999D02*
X0218552Y0197999D01*
X0218552Y0198037D02*
X0222919Y0198037D01*
X0222865Y0198075D02*
X0218552Y0198075D01*
X0218552Y0198113D02*
X0222811Y0198113D01*
X0222756Y0198151D02*
X0218552Y0198151D01*
X0218552Y0198189D02*
X0222702Y0198189D01*
X0222641Y0198226D02*
X0218552Y0198226D01*
X0218552Y0198264D02*
X0222551Y0198264D01*
X0222462Y0198302D02*
X0218552Y0198302D01*
X0218552Y0198340D02*
X0222372Y0198340D01*
X0222282Y0198378D02*
X0218552Y0198378D01*
X0218552Y0198416D02*
X0222121Y0198416D01*
X0221949Y0198454D02*
X0218552Y0198454D01*
X0218552Y0198492D02*
X0221671Y0198492D01*
X0215690Y0197014D02*
X0213150Y0197014D01*
X0213167Y0197052D02*
X0215674Y0197052D01*
X0215658Y0197090D02*
X0213183Y0197090D01*
X0213199Y0197128D02*
X0215642Y0197128D01*
X0215626Y0197166D02*
X0213215Y0197166D01*
X0213231Y0197204D02*
X0215610Y0197204D01*
X0215594Y0197242D02*
X0213247Y0197242D01*
X0213263Y0197279D02*
X0215578Y0197279D01*
X0215561Y0197317D02*
X0213279Y0197317D01*
X0213296Y0197355D02*
X0215545Y0197355D01*
X0215529Y0197393D02*
X0213312Y0197393D01*
X0213328Y0197431D02*
X0215513Y0197431D01*
X0215497Y0197469D02*
X0213344Y0197469D01*
X0213360Y0197507D02*
X0215481Y0197507D01*
X0215465Y0197545D02*
X0213376Y0197545D01*
X0213392Y0197582D02*
X0215449Y0197582D01*
X0215432Y0197620D02*
X0213409Y0197620D01*
X0213425Y0197658D02*
X0215416Y0197658D01*
X0215400Y0197696D02*
X0213441Y0197696D01*
X0213457Y0197734D02*
X0215384Y0197734D01*
X0215368Y0197772D02*
X0213473Y0197772D01*
X0213489Y0197810D02*
X0215352Y0197810D01*
X0215336Y0197848D02*
X0213505Y0197848D01*
X0213521Y0197886D02*
X0215320Y0197886D01*
X0215303Y0197923D02*
X0213538Y0197923D01*
X0213554Y0197961D02*
X0215287Y0197961D01*
X0215271Y0197999D02*
X0213570Y0197999D01*
X0213586Y0198037D02*
X0215255Y0198037D01*
X0215239Y0198075D02*
X0213602Y0198075D01*
X0213618Y0198113D02*
X0215223Y0198113D01*
X0215207Y0198151D02*
X0213634Y0198151D01*
X0213650Y0198189D02*
X0215191Y0198189D01*
X0215175Y0198226D02*
X0213667Y0198226D01*
X0213683Y0198264D02*
X0215158Y0198264D01*
X0215142Y0198302D02*
X0213699Y0198302D01*
X0213715Y0198340D02*
X0215126Y0198340D01*
X0215110Y0198378D02*
X0213731Y0198378D01*
X0213747Y0198416D02*
X0215094Y0198416D01*
X0215078Y0198454D02*
X0213763Y0198454D01*
X0213780Y0198492D02*
X0215062Y0198492D01*
X0215046Y0198530D02*
X0213796Y0198530D01*
D15*
X0090333Y0279671D02*
X0089793Y0280391D01*
X0089794Y0280390D02*
X0090027Y0280571D01*
X0090255Y0280757D01*
X0090479Y0280949D01*
X0090698Y0281146D01*
X0090912Y0281348D01*
X0091121Y0281556D01*
X0091324Y0281769D01*
X0091523Y0281986D01*
X0091716Y0282209D01*
X0091904Y0282436D01*
X0092086Y0282667D01*
X0092263Y0282903D01*
X0092433Y0283144D01*
X0092598Y0283388D01*
X0092756Y0283636D01*
X0092909Y0283888D01*
X0093055Y0284144D01*
X0093195Y0284403D01*
X0093329Y0284666D01*
X0093456Y0284931D01*
X0093577Y0285200D01*
X0093691Y0285472D01*
X0093798Y0285746D01*
X0093899Y0286023D01*
X0093993Y0286302D01*
X0094080Y0286584D01*
X0094160Y0286867D01*
X0094233Y0287153D01*
X0094299Y0287440D01*
X0094358Y0287729D01*
X0094410Y0288019D01*
X0094455Y0288310D01*
X0094493Y0288602D01*
X0094523Y0288895D01*
X0094547Y0289189D01*
X0094563Y0289483D01*
X0094572Y0289777D01*
X0094574Y0290072D01*
X0094568Y0290367D01*
X0094556Y0290661D01*
X0094536Y0290955D01*
X0094509Y0291248D01*
X0094475Y0291541D01*
X0094434Y0291833D01*
X0094385Y0292123D01*
X0094330Y0292413D01*
X0094268Y0292700D01*
X0094198Y0292987D01*
X0094121Y0293271D01*
X0094038Y0293554D01*
X0093948Y0293834D01*
X0093851Y0294112D01*
X0093747Y0294388D01*
X0093636Y0294661D01*
X0093519Y0294931D01*
X0093395Y0295199D01*
X0093265Y0295463D01*
X0093128Y0295724D01*
X0092985Y0295981D01*
X0092835Y0296235D01*
X0092680Y0296486D01*
X0092518Y0296732D01*
X0092351Y0296974D01*
X0092177Y0297212D01*
X0091998Y0297446D01*
X0091813Y0297676D01*
X0091623Y0297900D01*
X0091427Y0298121D01*
X0091226Y0298336D01*
X0091019Y0298546D01*
X0090808Y0298751D01*
X0090591Y0298951D01*
X0090370Y0299146D01*
X0090144Y0299335D01*
X0089914Y0299518D01*
X0089679Y0299696D01*
X0089439Y0299868D01*
X0089196Y0300034D01*
X0088949Y0300194D01*
X0088698Y0300348D01*
X0088443Y0300496D01*
X0088184Y0300638D01*
X0087923Y0300773D01*
X0087658Y0300902D01*
X0087390Y0301024D01*
X0087119Y0301140D01*
X0086845Y0301249D01*
X0086569Y0301351D01*
X0086290Y0301446D01*
X0086009Y0301535D01*
X0085726Y0301617D01*
X0085441Y0301692D01*
X0085154Y0301759D01*
X0084866Y0301820D01*
X0084576Y0301874D01*
X0084285Y0301921D01*
X0083993Y0301960D01*
X0083701Y0301992D01*
X0083407Y0302018D01*
X0083113Y0302036D01*
X0082819Y0302046D01*
X0082524Y0302050D01*
X0082229Y0302046D01*
X0081935Y0302036D01*
X0081641Y0302018D01*
X0081347Y0301992D01*
X0081055Y0301960D01*
X0080763Y0301921D01*
X0080472Y0301874D01*
X0080182Y0301820D01*
X0079894Y0301759D01*
X0079607Y0301692D01*
X0079322Y0301617D01*
X0079039Y0301535D01*
X0078758Y0301446D01*
X0078479Y0301351D01*
X0078203Y0301249D01*
X0077929Y0301140D01*
X0077658Y0301024D01*
X0077390Y0300902D01*
X0077125Y0300773D01*
X0076864Y0300638D01*
X0076605Y0300496D01*
X0076350Y0300348D01*
X0076099Y0300194D01*
X0075852Y0300034D01*
X0075609Y0299868D01*
X0075369Y0299696D01*
X0075134Y0299518D01*
X0074904Y0299335D01*
X0074678Y0299146D01*
X0074457Y0298951D01*
X0074240Y0298751D01*
X0074029Y0298546D01*
X0073822Y0298336D01*
X0073621Y0298121D01*
X0073425Y0297900D01*
X0073235Y0297676D01*
X0073050Y0297446D01*
X0072871Y0297212D01*
X0072697Y0296974D01*
X0072530Y0296732D01*
X0072368Y0296486D01*
X0072213Y0296235D01*
X0072063Y0295981D01*
X0071920Y0295724D01*
X0071783Y0295463D01*
X0071653Y0295199D01*
X0071529Y0294931D01*
X0071412Y0294661D01*
X0071301Y0294388D01*
X0071197Y0294112D01*
X0071100Y0293834D01*
X0071010Y0293554D01*
X0070927Y0293271D01*
X0070850Y0292987D01*
X0070780Y0292700D01*
X0070718Y0292413D01*
X0070663Y0292123D01*
X0070614Y0291833D01*
X0070573Y0291541D01*
X0070539Y0291248D01*
X0070512Y0290955D01*
X0070492Y0290661D01*
X0070480Y0290367D01*
X0070474Y0290072D01*
X0070476Y0289777D01*
X0070485Y0289483D01*
X0070501Y0289189D01*
X0070525Y0288895D01*
X0070555Y0288602D01*
X0070593Y0288310D01*
X0070638Y0288019D01*
X0070690Y0287729D01*
X0070749Y0287440D01*
X0070815Y0287153D01*
X0070888Y0286867D01*
X0070968Y0286584D01*
X0071055Y0286302D01*
X0071149Y0286023D01*
X0071250Y0285746D01*
X0071357Y0285472D01*
X0071471Y0285200D01*
X0071592Y0284931D01*
X0071719Y0284666D01*
X0071853Y0284403D01*
X0071993Y0284144D01*
X0072139Y0283888D01*
X0072292Y0283636D01*
X0072450Y0283388D01*
X0072615Y0283144D01*
X0072785Y0282903D01*
X0072962Y0282667D01*
X0073144Y0282436D01*
X0073332Y0282209D01*
X0073525Y0281986D01*
X0073724Y0281769D01*
X0073927Y0281556D01*
X0074136Y0281348D01*
X0074350Y0281146D01*
X0074569Y0280949D01*
X0074793Y0280757D01*
X0075021Y0280571D01*
X0075254Y0280390D01*
X0074715Y0279671D01*
X0074714Y0279670D01*
X0074464Y0279864D01*
X0074218Y0280064D01*
X0073978Y0280270D01*
X0073743Y0280482D01*
X0073513Y0280700D01*
X0073288Y0280923D01*
X0073069Y0281151D01*
X0072855Y0281385D01*
X0072647Y0281624D01*
X0072445Y0281868D01*
X0072250Y0282117D01*
X0072060Y0282371D01*
X0071877Y0282629D01*
X0071700Y0282891D01*
X0071529Y0283158D01*
X0071365Y0283429D01*
X0071208Y0283704D01*
X0071057Y0283982D01*
X0070913Y0284265D01*
X0070777Y0284550D01*
X0070647Y0284839D01*
X0070524Y0285131D01*
X0070409Y0285426D01*
X0070301Y0285723D01*
X0070200Y0286024D01*
X0070106Y0286326D01*
X0070020Y0286631D01*
X0069941Y0286938D01*
X0069870Y0287246D01*
X0069807Y0287556D01*
X0069751Y0287868D01*
X0069702Y0288181D01*
X0069662Y0288495D01*
X0069629Y0288810D01*
X0069604Y0289126D01*
X0069586Y0289442D01*
X0069576Y0289758D01*
X0069574Y0290075D01*
X0069580Y0290392D01*
X0069593Y0290708D01*
X0069615Y0291024D01*
X0069643Y0291339D01*
X0069680Y0291654D01*
X0069724Y0291967D01*
X0069776Y0292280D01*
X0069836Y0292591D01*
X0069903Y0292900D01*
X0069978Y0293208D01*
X0070060Y0293514D01*
X0070149Y0293817D01*
X0070246Y0294119D01*
X0070351Y0294418D01*
X0070463Y0294714D01*
X0070581Y0295008D01*
X0070707Y0295298D01*
X0070840Y0295585D01*
X0070981Y0295870D01*
X0071128Y0296150D01*
X0071281Y0296427D01*
X0071442Y0296700D01*
X0071609Y0296969D01*
X0071783Y0297234D01*
X0071963Y0297494D01*
X0072149Y0297750D01*
X0072342Y0298001D01*
X0072540Y0298248D01*
X0072745Y0298490D01*
X0072955Y0298726D01*
X0073172Y0298958D01*
X0073394Y0299183D01*
X0073621Y0299404D01*
X0073853Y0299619D01*
X0074091Y0299828D01*
X0074334Y0300031D01*
X0074582Y0300229D01*
X0074834Y0300420D01*
X0075091Y0300605D01*
X0075353Y0300783D01*
X0075619Y0300955D01*
X0075888Y0301121D01*
X0076162Y0301280D01*
X0076440Y0301432D01*
X0076721Y0301577D01*
X0077006Y0301716D01*
X0077294Y0301847D01*
X0077586Y0301971D01*
X0077880Y0302089D01*
X0078177Y0302199D01*
X0078476Y0302301D01*
X0078778Y0302396D01*
X0079082Y0302484D01*
X0079389Y0302565D01*
X0079697Y0302638D01*
X0080007Y0302703D01*
X0080318Y0302761D01*
X0080631Y0302811D01*
X0080945Y0302853D01*
X0081259Y0302888D01*
X0081575Y0302915D01*
X0081891Y0302935D01*
X0082207Y0302946D01*
X0082524Y0302950D01*
X0082841Y0302946D01*
X0083157Y0302935D01*
X0083473Y0302915D01*
X0083789Y0302888D01*
X0084103Y0302853D01*
X0084417Y0302811D01*
X0084730Y0302761D01*
X0085041Y0302703D01*
X0085351Y0302638D01*
X0085659Y0302565D01*
X0085966Y0302484D01*
X0086270Y0302396D01*
X0086572Y0302301D01*
X0086871Y0302199D01*
X0087168Y0302089D01*
X0087462Y0301971D01*
X0087754Y0301847D01*
X0088042Y0301716D01*
X0088327Y0301577D01*
X0088608Y0301432D01*
X0088886Y0301280D01*
X0089160Y0301121D01*
X0089429Y0300955D01*
X0089695Y0300783D01*
X0089957Y0300605D01*
X0090214Y0300420D01*
X0090466Y0300229D01*
X0090714Y0300031D01*
X0090957Y0299828D01*
X0091195Y0299619D01*
X0091427Y0299404D01*
X0091654Y0299183D01*
X0091876Y0298958D01*
X0092093Y0298726D01*
X0092303Y0298490D01*
X0092508Y0298248D01*
X0092706Y0298001D01*
X0092899Y0297750D01*
X0093085Y0297494D01*
X0093265Y0297234D01*
X0093439Y0296969D01*
X0093606Y0296700D01*
X0093767Y0296427D01*
X0093920Y0296150D01*
X0094067Y0295870D01*
X0094208Y0295585D01*
X0094341Y0295298D01*
X0094467Y0295008D01*
X0094585Y0294714D01*
X0094697Y0294418D01*
X0094802Y0294119D01*
X0094899Y0293817D01*
X0094988Y0293514D01*
X0095070Y0293208D01*
X0095145Y0292900D01*
X0095212Y0292591D01*
X0095272Y0292280D01*
X0095324Y0291967D01*
X0095368Y0291654D01*
X0095405Y0291339D01*
X0095433Y0291024D01*
X0095455Y0290708D01*
X0095468Y0290392D01*
X0095474Y0290075D01*
X0095472Y0289758D01*
X0095462Y0289442D01*
X0095444Y0289126D01*
X0095419Y0288810D01*
X0095386Y0288495D01*
X0095346Y0288181D01*
X0095297Y0287868D01*
X0095241Y0287556D01*
X0095178Y0287246D01*
X0095107Y0286938D01*
X0095028Y0286631D01*
X0094942Y0286326D01*
X0094848Y0286024D01*
X0094747Y0285723D01*
X0094639Y0285426D01*
X0094524Y0285131D01*
X0094401Y0284839D01*
X0094271Y0284550D01*
X0094135Y0284265D01*
X0093991Y0283982D01*
X0093840Y0283704D01*
X0093683Y0283429D01*
X0093519Y0283158D01*
X0093348Y0282891D01*
X0093171Y0282629D01*
X0092988Y0282371D01*
X0092798Y0282117D01*
X0092603Y0281868D01*
X0092401Y0281624D01*
X0092193Y0281385D01*
X0091979Y0281151D01*
X0091760Y0280923D01*
X0091535Y0280700D01*
X0091305Y0280482D01*
X0091070Y0280270D01*
X0090830Y0280064D01*
X0090584Y0279864D01*
X0090334Y0279670D01*
X0090278Y0279745D01*
X0090526Y0279938D01*
X0090770Y0280137D01*
X0091008Y0280341D01*
X0091242Y0280551D01*
X0091470Y0280767D01*
X0091693Y0280989D01*
X0091911Y0281216D01*
X0092123Y0281448D01*
X0092329Y0281685D01*
X0092530Y0281927D01*
X0092724Y0282175D01*
X0092912Y0282426D01*
X0093094Y0282683D01*
X0093270Y0282943D01*
X0093439Y0283208D01*
X0093602Y0283477D01*
X0093758Y0283750D01*
X0093908Y0284026D01*
X0094050Y0284306D01*
X0094186Y0284590D01*
X0094315Y0284877D01*
X0094437Y0285167D01*
X0094551Y0285459D01*
X0094659Y0285755D01*
X0094759Y0286053D01*
X0094852Y0286353D01*
X0094937Y0286656D01*
X0095015Y0286960D01*
X0095086Y0287266D01*
X0095149Y0287574D01*
X0095205Y0287884D01*
X0095253Y0288194D01*
X0095293Y0288506D01*
X0095326Y0288819D01*
X0095351Y0289132D01*
X0095368Y0289446D01*
X0095378Y0289760D01*
X0095380Y0290075D01*
X0095374Y0290389D01*
X0095361Y0290703D01*
X0095340Y0291017D01*
X0095311Y0291330D01*
X0095275Y0291642D01*
X0095231Y0291953D01*
X0095179Y0292263D01*
X0095120Y0292572D01*
X0095053Y0292879D01*
X0094979Y0293185D01*
X0094898Y0293488D01*
X0094809Y0293790D01*
X0094712Y0294089D01*
X0094609Y0294386D01*
X0094498Y0294680D01*
X0094380Y0294971D01*
X0094255Y0295260D01*
X0094123Y0295545D01*
X0093984Y0295827D01*
X0093838Y0296105D01*
X0093685Y0296380D01*
X0093526Y0296651D01*
X0093360Y0296918D01*
X0093187Y0297181D01*
X0093009Y0297440D01*
X0092824Y0297694D01*
X0092632Y0297943D01*
X0092435Y0298188D01*
X0092232Y0298428D01*
X0092023Y0298663D01*
X0091808Y0298893D01*
X0091588Y0299117D01*
X0091363Y0299336D01*
X0091132Y0299549D01*
X0090896Y0299757D01*
X0090654Y0299959D01*
X0090409Y0300154D01*
X0090158Y0300344D01*
X0089903Y0300528D01*
X0089643Y0300705D01*
X0089379Y0300876D01*
X0089111Y0301040D01*
X0088839Y0301198D01*
X0088564Y0301349D01*
X0088284Y0301493D01*
X0088002Y0301631D01*
X0087716Y0301761D01*
X0087427Y0301885D01*
X0087134Y0302001D01*
X0086840Y0302110D01*
X0086542Y0302212D01*
X0086243Y0302306D01*
X0085940Y0302394D01*
X0085636Y0302474D01*
X0085331Y0302546D01*
X0085023Y0302611D01*
X0084714Y0302668D01*
X0084403Y0302718D01*
X0084092Y0302760D01*
X0083779Y0302795D01*
X0083466Y0302821D01*
X0083152Y0302841D01*
X0082838Y0302852D01*
X0082524Y0302856D01*
X0082210Y0302852D01*
X0081896Y0302841D01*
X0081582Y0302821D01*
X0081269Y0302795D01*
X0080956Y0302760D01*
X0080645Y0302718D01*
X0080334Y0302668D01*
X0080025Y0302611D01*
X0079717Y0302546D01*
X0079412Y0302474D01*
X0079108Y0302394D01*
X0078805Y0302306D01*
X0078506Y0302212D01*
X0078208Y0302110D01*
X0077914Y0302001D01*
X0077621Y0301885D01*
X0077332Y0301761D01*
X0077046Y0301631D01*
X0076764Y0301493D01*
X0076484Y0301349D01*
X0076209Y0301198D01*
X0075937Y0301040D01*
X0075669Y0300876D01*
X0075405Y0300705D01*
X0075145Y0300528D01*
X0074890Y0300344D01*
X0074639Y0300154D01*
X0074394Y0299959D01*
X0074152Y0299757D01*
X0073916Y0299549D01*
X0073685Y0299336D01*
X0073460Y0299117D01*
X0073240Y0298893D01*
X0073025Y0298663D01*
X0072816Y0298428D01*
X0072613Y0298188D01*
X0072416Y0297943D01*
X0072224Y0297694D01*
X0072039Y0297440D01*
X0071861Y0297181D01*
X0071688Y0296918D01*
X0071522Y0296651D01*
X0071363Y0296380D01*
X0071210Y0296105D01*
X0071064Y0295827D01*
X0070925Y0295545D01*
X0070793Y0295260D01*
X0070668Y0294971D01*
X0070550Y0294680D01*
X0070439Y0294386D01*
X0070336Y0294089D01*
X0070239Y0293790D01*
X0070150Y0293488D01*
X0070069Y0293185D01*
X0069995Y0292879D01*
X0069928Y0292572D01*
X0069869Y0292263D01*
X0069817Y0291953D01*
X0069773Y0291642D01*
X0069737Y0291330D01*
X0069708Y0291017D01*
X0069687Y0290703D01*
X0069674Y0290389D01*
X0069668Y0290075D01*
X0069670Y0289760D01*
X0069680Y0289446D01*
X0069697Y0289132D01*
X0069722Y0288819D01*
X0069755Y0288506D01*
X0069795Y0288194D01*
X0069843Y0287884D01*
X0069899Y0287574D01*
X0069962Y0287266D01*
X0070033Y0286960D01*
X0070111Y0286656D01*
X0070196Y0286353D01*
X0070289Y0286053D01*
X0070389Y0285755D01*
X0070497Y0285459D01*
X0070611Y0285167D01*
X0070733Y0284877D01*
X0070862Y0284590D01*
X0070998Y0284306D01*
X0071140Y0284026D01*
X0071290Y0283750D01*
X0071446Y0283477D01*
X0071609Y0283208D01*
X0071778Y0282943D01*
X0071954Y0282683D01*
X0072136Y0282426D01*
X0072324Y0282175D01*
X0072518Y0281927D01*
X0072719Y0281685D01*
X0072925Y0281448D01*
X0073137Y0281216D01*
X0073355Y0280989D01*
X0073578Y0280767D01*
X0073806Y0280551D01*
X0074040Y0280341D01*
X0074278Y0280137D01*
X0074522Y0279938D01*
X0074770Y0279745D01*
X0074827Y0279820D01*
X0074580Y0280012D01*
X0074338Y0280209D01*
X0074101Y0280412D01*
X0073870Y0280621D01*
X0073643Y0280835D01*
X0073421Y0281055D01*
X0073205Y0281280D01*
X0072995Y0281511D01*
X0072790Y0281746D01*
X0072591Y0281987D01*
X0072398Y0282232D01*
X0072212Y0282482D01*
X0072031Y0282736D01*
X0071856Y0282995D01*
X0071688Y0283258D01*
X0071527Y0283525D01*
X0071372Y0283796D01*
X0071223Y0284070D01*
X0071082Y0284348D01*
X0070947Y0284630D01*
X0070819Y0284914D01*
X0070698Y0285202D01*
X0070584Y0285493D01*
X0070478Y0285786D01*
X0070378Y0286082D01*
X0070286Y0286380D01*
X0070201Y0286680D01*
X0070124Y0286983D01*
X0070054Y0287287D01*
X0069991Y0287592D01*
X0069936Y0287899D01*
X0069888Y0288208D01*
X0069848Y0288517D01*
X0069816Y0288828D01*
X0069791Y0289139D01*
X0069774Y0289450D01*
X0069764Y0289762D01*
X0069762Y0290074D01*
X0069768Y0290386D01*
X0069781Y0290698D01*
X0069802Y0291009D01*
X0069830Y0291320D01*
X0069867Y0291630D01*
X0069910Y0291939D01*
X0069961Y0292247D01*
X0070020Y0292554D01*
X0070086Y0292858D01*
X0070160Y0293162D01*
X0070241Y0293463D01*
X0070329Y0293762D01*
X0070425Y0294059D01*
X0070528Y0294354D01*
X0070638Y0294646D01*
X0070755Y0294935D01*
X0070879Y0295222D01*
X0071010Y0295505D01*
X0071148Y0295785D01*
X0071293Y0296061D01*
X0071445Y0296334D01*
X0071603Y0296603D01*
X0071768Y0296868D01*
X0071939Y0297129D01*
X0072116Y0297385D01*
X0072300Y0297638D01*
X0072490Y0297885D01*
X0072685Y0298128D01*
X0072887Y0298367D01*
X0073095Y0298600D01*
X0073308Y0298828D01*
X0073526Y0299050D01*
X0073750Y0299268D01*
X0073979Y0299479D01*
X0074214Y0299685D01*
X0074453Y0299886D01*
X0074697Y0300080D01*
X0074946Y0300268D01*
X0075199Y0300451D01*
X0075457Y0300627D01*
X0075719Y0300796D01*
X0075985Y0300959D01*
X0076255Y0301116D01*
X0076529Y0301266D01*
X0076806Y0301409D01*
X0077086Y0301546D01*
X0077370Y0301675D01*
X0077657Y0301798D01*
X0077947Y0301913D01*
X0078240Y0302021D01*
X0078535Y0302123D01*
X0078833Y0302217D01*
X0079133Y0302303D01*
X0079434Y0302382D01*
X0079738Y0302454D01*
X0080043Y0302519D01*
X0080350Y0302576D01*
X0080658Y0302625D01*
X0080968Y0302667D01*
X0081278Y0302701D01*
X0081589Y0302728D01*
X0081900Y0302747D01*
X0082212Y0302758D01*
X0082524Y0302762D01*
X0082836Y0302758D01*
X0083148Y0302747D01*
X0083459Y0302728D01*
X0083770Y0302701D01*
X0084080Y0302667D01*
X0084390Y0302625D01*
X0084698Y0302576D01*
X0085005Y0302519D01*
X0085310Y0302454D01*
X0085614Y0302382D01*
X0085915Y0302303D01*
X0086215Y0302217D01*
X0086513Y0302123D01*
X0086808Y0302021D01*
X0087101Y0301913D01*
X0087391Y0301798D01*
X0087678Y0301675D01*
X0087962Y0301546D01*
X0088242Y0301409D01*
X0088519Y0301266D01*
X0088793Y0301116D01*
X0089063Y0300959D01*
X0089329Y0300796D01*
X0089591Y0300627D01*
X0089849Y0300451D01*
X0090102Y0300268D01*
X0090351Y0300080D01*
X0090595Y0299886D01*
X0090834Y0299685D01*
X0091069Y0299479D01*
X0091298Y0299268D01*
X0091522Y0299050D01*
X0091740Y0298828D01*
X0091953Y0298600D01*
X0092161Y0298367D01*
X0092363Y0298128D01*
X0092558Y0297885D01*
X0092748Y0297638D01*
X0092932Y0297385D01*
X0093109Y0297129D01*
X0093280Y0296868D01*
X0093445Y0296603D01*
X0093603Y0296334D01*
X0093755Y0296061D01*
X0093900Y0295785D01*
X0094038Y0295505D01*
X0094169Y0295222D01*
X0094293Y0294935D01*
X0094410Y0294646D01*
X0094520Y0294354D01*
X0094623Y0294059D01*
X0094719Y0293762D01*
X0094807Y0293463D01*
X0094888Y0293162D01*
X0094962Y0292858D01*
X0095028Y0292554D01*
X0095087Y0292247D01*
X0095138Y0291939D01*
X0095181Y0291630D01*
X0095218Y0291320D01*
X0095246Y0291009D01*
X0095267Y0290698D01*
X0095280Y0290386D01*
X0095286Y0290074D01*
X0095284Y0289762D01*
X0095274Y0289450D01*
X0095257Y0289139D01*
X0095232Y0288828D01*
X0095200Y0288517D01*
X0095160Y0288208D01*
X0095112Y0287899D01*
X0095057Y0287592D01*
X0094994Y0287287D01*
X0094924Y0286983D01*
X0094847Y0286680D01*
X0094762Y0286380D01*
X0094670Y0286082D01*
X0094570Y0285786D01*
X0094464Y0285493D01*
X0094350Y0285202D01*
X0094229Y0284914D01*
X0094101Y0284630D01*
X0093966Y0284348D01*
X0093825Y0284070D01*
X0093676Y0283796D01*
X0093521Y0283525D01*
X0093360Y0283258D01*
X0093192Y0282995D01*
X0093017Y0282736D01*
X0092836Y0282482D01*
X0092650Y0282232D01*
X0092457Y0281987D01*
X0092258Y0281746D01*
X0092053Y0281511D01*
X0091843Y0281280D01*
X0091627Y0281055D01*
X0091405Y0280835D01*
X0091178Y0280621D01*
X0090947Y0280412D01*
X0090710Y0280209D01*
X0090468Y0280012D01*
X0090221Y0279820D01*
X0090165Y0279896D01*
X0090410Y0280086D01*
X0090650Y0280281D01*
X0090885Y0280483D01*
X0091115Y0280690D01*
X0091340Y0280903D01*
X0091560Y0281121D01*
X0091774Y0281345D01*
X0091983Y0281574D01*
X0092186Y0281807D01*
X0092384Y0282046D01*
X0092575Y0282289D01*
X0092761Y0282538D01*
X0092940Y0282790D01*
X0093113Y0283047D01*
X0093280Y0283308D01*
X0093441Y0283573D01*
X0093594Y0283842D01*
X0093742Y0284114D01*
X0093882Y0284390D01*
X0094016Y0284670D01*
X0094143Y0284952D01*
X0094263Y0285238D01*
X0094376Y0285526D01*
X0094482Y0285817D01*
X0094580Y0286111D01*
X0094672Y0286407D01*
X0094756Y0286705D01*
X0094833Y0287005D01*
X0094902Y0287307D01*
X0094965Y0287610D01*
X0095019Y0287915D01*
X0095067Y0288221D01*
X0095106Y0288529D01*
X0095138Y0288837D01*
X0095163Y0289145D01*
X0095180Y0289455D01*
X0095190Y0289764D01*
X0095192Y0290074D01*
X0095186Y0290384D01*
X0095173Y0290693D01*
X0095152Y0291002D01*
X0095124Y0291311D01*
X0095088Y0291618D01*
X0095045Y0291925D01*
X0094994Y0292231D01*
X0094936Y0292535D01*
X0094870Y0292838D01*
X0094797Y0293139D01*
X0094717Y0293438D01*
X0094629Y0293735D01*
X0094534Y0294030D01*
X0094432Y0294322D01*
X0094323Y0294612D01*
X0094206Y0294899D01*
X0094083Y0295183D01*
X0093953Y0295464D01*
X0093816Y0295742D01*
X0093672Y0296016D01*
X0093522Y0296287D01*
X0093365Y0296554D01*
X0093201Y0296817D01*
X0093031Y0297076D01*
X0092855Y0297331D01*
X0092673Y0297582D01*
X0092484Y0297827D01*
X0092290Y0298069D01*
X0092090Y0298305D01*
X0091884Y0298536D01*
X0091672Y0298763D01*
X0091455Y0298984D01*
X0091233Y0299199D01*
X0091006Y0299410D01*
X0090773Y0299614D01*
X0090535Y0299813D01*
X0090293Y0300006D01*
X0090046Y0300193D01*
X0089795Y0300374D01*
X0089539Y0300548D01*
X0089279Y0300717D01*
X0089015Y0300879D01*
X0088747Y0301034D01*
X0088475Y0301183D01*
X0088200Y0301325D01*
X0087921Y0301461D01*
X0087640Y0301589D01*
X0087355Y0301711D01*
X0087067Y0301825D01*
X0086776Y0301933D01*
X0086483Y0302033D01*
X0086188Y0302127D01*
X0085890Y0302213D01*
X0085591Y0302291D01*
X0085289Y0302362D01*
X0084986Y0302426D01*
X0084682Y0302483D01*
X0084376Y0302532D01*
X0084069Y0302573D01*
X0083761Y0302607D01*
X0083452Y0302634D01*
X0083143Y0302653D01*
X0082834Y0302664D01*
X0082524Y0302668D01*
X0082214Y0302664D01*
X0081905Y0302653D01*
X0081596Y0302634D01*
X0081287Y0302607D01*
X0080979Y0302573D01*
X0080672Y0302532D01*
X0080366Y0302483D01*
X0080062Y0302426D01*
X0079759Y0302362D01*
X0079457Y0302291D01*
X0079158Y0302213D01*
X0078860Y0302127D01*
X0078565Y0302033D01*
X0078272Y0301933D01*
X0077981Y0301825D01*
X0077693Y0301711D01*
X0077408Y0301589D01*
X0077127Y0301461D01*
X0076848Y0301325D01*
X0076573Y0301183D01*
X0076301Y0301034D01*
X0076033Y0300879D01*
X0075769Y0300717D01*
X0075509Y0300548D01*
X0075253Y0300374D01*
X0075002Y0300193D01*
X0074755Y0300006D01*
X0074513Y0299813D01*
X0074275Y0299614D01*
X0074042Y0299410D01*
X0073815Y0299199D01*
X0073593Y0298984D01*
X0073376Y0298763D01*
X0073164Y0298536D01*
X0072958Y0298305D01*
X0072758Y0298069D01*
X0072564Y0297827D01*
X0072375Y0297582D01*
X0072193Y0297331D01*
X0072017Y0297076D01*
X0071847Y0296817D01*
X0071683Y0296554D01*
X0071526Y0296287D01*
X0071376Y0296016D01*
X0071232Y0295742D01*
X0071095Y0295464D01*
X0070965Y0295183D01*
X0070842Y0294899D01*
X0070725Y0294612D01*
X0070616Y0294322D01*
X0070514Y0294030D01*
X0070419Y0293735D01*
X0070331Y0293438D01*
X0070251Y0293139D01*
X0070178Y0292838D01*
X0070112Y0292535D01*
X0070054Y0292231D01*
X0070003Y0291925D01*
X0069960Y0291618D01*
X0069924Y0291311D01*
X0069896Y0291002D01*
X0069875Y0290693D01*
X0069862Y0290384D01*
X0069856Y0290074D01*
X0069858Y0289764D01*
X0069868Y0289455D01*
X0069885Y0289145D01*
X0069910Y0288837D01*
X0069942Y0288529D01*
X0069981Y0288221D01*
X0070029Y0287915D01*
X0070083Y0287610D01*
X0070146Y0287307D01*
X0070215Y0287005D01*
X0070292Y0286705D01*
X0070376Y0286407D01*
X0070468Y0286111D01*
X0070566Y0285817D01*
X0070672Y0285526D01*
X0070785Y0285238D01*
X0070905Y0284952D01*
X0071032Y0284670D01*
X0071166Y0284390D01*
X0071306Y0284114D01*
X0071454Y0283842D01*
X0071607Y0283573D01*
X0071768Y0283308D01*
X0071935Y0283047D01*
X0072108Y0282790D01*
X0072287Y0282538D01*
X0072473Y0282289D01*
X0072664Y0282046D01*
X0072862Y0281807D01*
X0073065Y0281574D01*
X0073274Y0281345D01*
X0073488Y0281121D01*
X0073708Y0280903D01*
X0073933Y0280690D01*
X0074163Y0280483D01*
X0074398Y0280281D01*
X0074638Y0280086D01*
X0074883Y0279896D01*
X0074940Y0279971D01*
X0074697Y0280159D01*
X0074458Y0280354D01*
X0074225Y0280554D01*
X0073997Y0280759D01*
X0073773Y0280971D01*
X0073555Y0281187D01*
X0073342Y0281409D01*
X0073135Y0281636D01*
X0072933Y0281868D01*
X0072737Y0282105D01*
X0072547Y0282347D01*
X0072363Y0282593D01*
X0072185Y0282844D01*
X0072013Y0283099D01*
X0071848Y0283358D01*
X0071688Y0283621D01*
X0071536Y0283888D01*
X0071389Y0284158D01*
X0071250Y0284432D01*
X0071117Y0284709D01*
X0070991Y0284990D01*
X0070872Y0285273D01*
X0070760Y0285560D01*
X0070655Y0285849D01*
X0070557Y0286140D01*
X0070466Y0286434D01*
X0070383Y0286730D01*
X0070306Y0287027D01*
X0070237Y0287327D01*
X0070176Y0287628D01*
X0070121Y0287931D01*
X0070075Y0288235D01*
X0070035Y0288540D01*
X0070003Y0288845D01*
X0069979Y0289152D01*
X0069962Y0289459D01*
X0069952Y0289766D01*
X0069950Y0290074D01*
X0069956Y0290381D01*
X0069969Y0290688D01*
X0069989Y0290995D01*
X0070018Y0291301D01*
X0070053Y0291607D01*
X0070096Y0291911D01*
X0070147Y0292214D01*
X0070204Y0292516D01*
X0070270Y0292817D01*
X0070342Y0293116D01*
X0070422Y0293412D01*
X0070509Y0293707D01*
X0070603Y0294000D01*
X0070705Y0294290D01*
X0070813Y0294578D01*
X0070928Y0294863D01*
X0071051Y0295145D01*
X0071180Y0295424D01*
X0071316Y0295700D01*
X0071459Y0295972D01*
X0071608Y0296241D01*
X0071764Y0296506D01*
X0071926Y0296767D01*
X0072095Y0297024D01*
X0072270Y0297277D01*
X0072451Y0297525D01*
X0072638Y0297769D01*
X0072831Y0298009D01*
X0073029Y0298243D01*
X0073234Y0298473D01*
X0073444Y0298698D01*
X0073659Y0298917D01*
X0073880Y0299131D01*
X0074105Y0299340D01*
X0074336Y0299543D01*
X0074572Y0299740D01*
X0074813Y0299932D01*
X0075058Y0300117D01*
X0075307Y0300297D01*
X0075561Y0300470D01*
X0075819Y0300637D01*
X0076081Y0300798D01*
X0076347Y0300952D01*
X0076617Y0301100D01*
X0076890Y0301241D01*
X0077167Y0301376D01*
X0077446Y0301503D01*
X0077729Y0301624D01*
X0078015Y0301738D01*
X0078303Y0301844D01*
X0078594Y0301944D01*
X0078887Y0302037D01*
X0079183Y0302122D01*
X0079480Y0302200D01*
X0079779Y0302271D01*
X0080080Y0302334D01*
X0080382Y0302390D01*
X0080686Y0302439D01*
X0080991Y0302480D01*
X0081296Y0302514D01*
X0081602Y0302540D01*
X0081909Y0302559D01*
X0082217Y0302570D01*
X0082524Y0302574D01*
X0082831Y0302570D01*
X0083139Y0302559D01*
X0083446Y0302540D01*
X0083752Y0302514D01*
X0084057Y0302480D01*
X0084362Y0302439D01*
X0084666Y0302390D01*
X0084968Y0302334D01*
X0085269Y0302271D01*
X0085568Y0302200D01*
X0085865Y0302122D01*
X0086161Y0302037D01*
X0086454Y0301944D01*
X0086745Y0301844D01*
X0087033Y0301738D01*
X0087319Y0301624D01*
X0087602Y0301503D01*
X0087881Y0301376D01*
X0088158Y0301241D01*
X0088431Y0301100D01*
X0088701Y0300952D01*
X0088967Y0300798D01*
X0089229Y0300637D01*
X0089487Y0300470D01*
X0089741Y0300297D01*
X0089990Y0300117D01*
X0090235Y0299932D01*
X0090476Y0299740D01*
X0090712Y0299543D01*
X0090943Y0299340D01*
X0091168Y0299131D01*
X0091389Y0298917D01*
X0091604Y0298698D01*
X0091814Y0298473D01*
X0092019Y0298243D01*
X0092217Y0298009D01*
X0092410Y0297769D01*
X0092597Y0297525D01*
X0092778Y0297277D01*
X0092953Y0297024D01*
X0093122Y0296767D01*
X0093284Y0296506D01*
X0093440Y0296241D01*
X0093589Y0295972D01*
X0093732Y0295700D01*
X0093868Y0295424D01*
X0093997Y0295145D01*
X0094120Y0294863D01*
X0094235Y0294578D01*
X0094343Y0294290D01*
X0094445Y0294000D01*
X0094539Y0293707D01*
X0094626Y0293412D01*
X0094706Y0293116D01*
X0094778Y0292817D01*
X0094844Y0292516D01*
X0094901Y0292214D01*
X0094952Y0291911D01*
X0094995Y0291607D01*
X0095030Y0291301D01*
X0095059Y0290995D01*
X0095079Y0290688D01*
X0095092Y0290381D01*
X0095098Y0290074D01*
X0095096Y0289766D01*
X0095086Y0289459D01*
X0095069Y0289152D01*
X0095045Y0288845D01*
X0095013Y0288540D01*
X0094973Y0288235D01*
X0094927Y0287931D01*
X0094872Y0287628D01*
X0094811Y0287327D01*
X0094742Y0287027D01*
X0094665Y0286730D01*
X0094582Y0286434D01*
X0094491Y0286140D01*
X0094393Y0285849D01*
X0094288Y0285560D01*
X0094176Y0285273D01*
X0094057Y0284990D01*
X0093931Y0284709D01*
X0093798Y0284432D01*
X0093659Y0284158D01*
X0093512Y0283888D01*
X0093360Y0283621D01*
X0093200Y0283358D01*
X0093035Y0283099D01*
X0092863Y0282844D01*
X0092685Y0282593D01*
X0092501Y0282347D01*
X0092311Y0282105D01*
X0092115Y0281868D01*
X0091913Y0281636D01*
X0091706Y0281409D01*
X0091493Y0281187D01*
X0091275Y0280971D01*
X0091051Y0280759D01*
X0090823Y0280554D01*
X0090590Y0280354D01*
X0090351Y0280159D01*
X0090108Y0279971D01*
X0090052Y0280046D01*
X0090293Y0280233D01*
X0090530Y0280426D01*
X0090761Y0280625D01*
X0090988Y0280829D01*
X0091210Y0281038D01*
X0091426Y0281253D01*
X0091637Y0281474D01*
X0091843Y0281699D01*
X0092043Y0281929D01*
X0092238Y0282165D01*
X0092426Y0282404D01*
X0092609Y0282649D01*
X0092786Y0282898D01*
X0092956Y0283151D01*
X0093121Y0283408D01*
X0093279Y0283669D01*
X0093430Y0283934D01*
X0093575Y0284202D01*
X0093714Y0284474D01*
X0093846Y0284749D01*
X0093971Y0285028D01*
X0094089Y0285309D01*
X0094200Y0285593D01*
X0094304Y0285880D01*
X0094402Y0286169D01*
X0094492Y0286461D01*
X0094575Y0286754D01*
X0094650Y0287050D01*
X0094719Y0287347D01*
X0094780Y0287646D01*
X0094834Y0287947D01*
X0094880Y0288248D01*
X0094920Y0288551D01*
X0094951Y0288854D01*
X0094976Y0289159D01*
X0094992Y0289463D01*
X0095002Y0289768D01*
X0095004Y0290073D01*
X0094998Y0290378D01*
X0094985Y0290683D01*
X0094965Y0290988D01*
X0094937Y0291292D01*
X0094902Y0291595D01*
X0094859Y0291897D01*
X0094809Y0292198D01*
X0094752Y0292498D01*
X0094687Y0292796D01*
X0094615Y0293092D01*
X0094536Y0293387D01*
X0094449Y0293680D01*
X0094356Y0293970D01*
X0094255Y0294258D01*
X0094147Y0294544D01*
X0094033Y0294827D01*
X0093911Y0295107D01*
X0093783Y0295384D01*
X0093648Y0295657D01*
X0093507Y0295927D01*
X0093358Y0296194D01*
X0093204Y0296457D01*
X0093043Y0296716D01*
X0092875Y0296972D01*
X0092702Y0297223D01*
X0092522Y0297469D01*
X0092336Y0297711D01*
X0092145Y0297949D01*
X0091948Y0298182D01*
X0091745Y0298410D01*
X0091536Y0298633D01*
X0091323Y0298851D01*
X0091104Y0299063D01*
X0090880Y0299270D01*
X0090650Y0299472D01*
X0090416Y0299668D01*
X0090178Y0299858D01*
X0089934Y0300042D01*
X0089687Y0300220D01*
X0089435Y0300392D01*
X0089178Y0300558D01*
X0088918Y0300717D01*
X0088654Y0300871D01*
X0088387Y0301017D01*
X0088116Y0301157D01*
X0087841Y0301291D01*
X0087564Y0301417D01*
X0087283Y0301537D01*
X0086999Y0301650D01*
X0086713Y0301756D01*
X0086425Y0301855D01*
X0086134Y0301947D01*
X0085840Y0302031D01*
X0085545Y0302109D01*
X0085248Y0302179D01*
X0084950Y0302242D01*
X0084650Y0302298D01*
X0084348Y0302346D01*
X0084046Y0302387D01*
X0083743Y0302420D01*
X0083439Y0302446D01*
X0083134Y0302465D01*
X0082829Y0302476D01*
X0082524Y0302480D01*
X0082219Y0302476D01*
X0081914Y0302465D01*
X0081609Y0302446D01*
X0081305Y0302420D01*
X0081002Y0302387D01*
X0080700Y0302346D01*
X0080398Y0302298D01*
X0080098Y0302242D01*
X0079800Y0302179D01*
X0079503Y0302109D01*
X0079208Y0302031D01*
X0078914Y0301947D01*
X0078623Y0301855D01*
X0078335Y0301756D01*
X0078049Y0301650D01*
X0077765Y0301537D01*
X0077484Y0301417D01*
X0077207Y0301291D01*
X0076932Y0301157D01*
X0076661Y0301017D01*
X0076394Y0300871D01*
X0076130Y0300717D01*
X0075870Y0300558D01*
X0075613Y0300392D01*
X0075361Y0300220D01*
X0075114Y0300042D01*
X0074870Y0299858D01*
X0074632Y0299668D01*
X0074398Y0299472D01*
X0074168Y0299270D01*
X0073944Y0299063D01*
X0073725Y0298851D01*
X0073512Y0298633D01*
X0073303Y0298410D01*
X0073100Y0298182D01*
X0072903Y0297949D01*
X0072712Y0297711D01*
X0072526Y0297469D01*
X0072346Y0297223D01*
X0072173Y0296972D01*
X0072005Y0296716D01*
X0071844Y0296457D01*
X0071690Y0296194D01*
X0071541Y0295927D01*
X0071400Y0295657D01*
X0071265Y0295384D01*
X0071137Y0295107D01*
X0071015Y0294827D01*
X0070901Y0294544D01*
X0070793Y0294258D01*
X0070692Y0293970D01*
X0070599Y0293680D01*
X0070512Y0293387D01*
X0070433Y0293092D01*
X0070361Y0292796D01*
X0070296Y0292498D01*
X0070239Y0292198D01*
X0070189Y0291897D01*
X0070146Y0291595D01*
X0070111Y0291292D01*
X0070083Y0290988D01*
X0070063Y0290683D01*
X0070050Y0290378D01*
X0070044Y0290073D01*
X0070046Y0289768D01*
X0070056Y0289463D01*
X0070072Y0289159D01*
X0070097Y0288854D01*
X0070128Y0288551D01*
X0070168Y0288248D01*
X0070214Y0287947D01*
X0070268Y0287646D01*
X0070329Y0287347D01*
X0070398Y0287050D01*
X0070473Y0286754D01*
X0070556Y0286461D01*
X0070646Y0286169D01*
X0070744Y0285880D01*
X0070848Y0285593D01*
X0070959Y0285309D01*
X0071077Y0285028D01*
X0071202Y0284749D01*
X0071334Y0284474D01*
X0071473Y0284202D01*
X0071618Y0283934D01*
X0071769Y0283669D01*
X0071927Y0283408D01*
X0072092Y0283151D01*
X0072262Y0282898D01*
X0072439Y0282649D01*
X0072622Y0282404D01*
X0072810Y0282165D01*
X0073005Y0281929D01*
X0073205Y0281699D01*
X0073411Y0281474D01*
X0073622Y0281253D01*
X0073838Y0281038D01*
X0074060Y0280829D01*
X0074287Y0280625D01*
X0074518Y0280426D01*
X0074755Y0280233D01*
X0074996Y0280046D01*
X0075052Y0280121D01*
X0074813Y0280307D01*
X0074578Y0280498D01*
X0074349Y0280695D01*
X0074124Y0280898D01*
X0073903Y0281106D01*
X0073689Y0281320D01*
X0073479Y0281538D01*
X0073275Y0281762D01*
X0073076Y0281990D01*
X0072883Y0282224D01*
X0072696Y0282462D01*
X0072515Y0282704D01*
X0072339Y0282951D01*
X0072170Y0283202D01*
X0072007Y0283458D01*
X0071850Y0283717D01*
X0071700Y0283980D01*
X0071556Y0284246D01*
X0071418Y0284516D01*
X0071287Y0284789D01*
X0071163Y0285065D01*
X0071046Y0285345D01*
X0070936Y0285627D01*
X0070832Y0285911D01*
X0070736Y0286198D01*
X0070646Y0286488D01*
X0070564Y0286779D01*
X0070489Y0287072D01*
X0070421Y0287368D01*
X0070360Y0287664D01*
X0070307Y0287962D01*
X0070261Y0288262D01*
X0070222Y0288562D01*
X0070190Y0288863D01*
X0070166Y0289165D01*
X0070149Y0289468D01*
X0070140Y0289770D01*
X0070138Y0290073D01*
X0070144Y0290376D01*
X0070157Y0290678D01*
X0070177Y0290981D01*
X0070205Y0291282D01*
X0070240Y0291583D01*
X0070282Y0291883D01*
X0070332Y0292182D01*
X0070389Y0292479D01*
X0070453Y0292775D01*
X0070524Y0293069D01*
X0070603Y0293362D01*
X0070689Y0293652D01*
X0070782Y0293941D01*
X0070881Y0294226D01*
X0070988Y0294510D01*
X0071102Y0294790D01*
X0071222Y0295068D01*
X0071350Y0295343D01*
X0071484Y0295615D01*
X0071624Y0295883D01*
X0071771Y0296148D01*
X0071925Y0296409D01*
X0072085Y0296666D01*
X0072251Y0296919D01*
X0072423Y0297168D01*
X0072601Y0297413D01*
X0072786Y0297654D01*
X0072976Y0297889D01*
X0073171Y0298120D01*
X0073373Y0298347D01*
X0073579Y0298568D01*
X0073792Y0298784D01*
X0074009Y0298995D01*
X0074231Y0299200D01*
X0074459Y0299400D01*
X0074691Y0299595D01*
X0074928Y0299783D01*
X0075170Y0299966D01*
X0075415Y0300143D01*
X0075666Y0300314D01*
X0075920Y0300478D01*
X0076178Y0300637D01*
X0076440Y0300789D01*
X0076705Y0300934D01*
X0076974Y0301073D01*
X0077247Y0301206D01*
X0077522Y0301331D01*
X0077801Y0301450D01*
X0078082Y0301562D01*
X0078366Y0301667D01*
X0078653Y0301766D01*
X0078942Y0301857D01*
X0079233Y0301941D01*
X0079526Y0302018D01*
X0079820Y0302087D01*
X0080117Y0302150D01*
X0080414Y0302205D01*
X0080713Y0302253D01*
X0081013Y0302294D01*
X0081315Y0302327D01*
X0081616Y0302353D01*
X0081919Y0302371D01*
X0082221Y0302382D01*
X0082524Y0302386D01*
X0082827Y0302382D01*
X0083129Y0302371D01*
X0083432Y0302353D01*
X0083733Y0302327D01*
X0084035Y0302294D01*
X0084335Y0302253D01*
X0084634Y0302205D01*
X0084931Y0302150D01*
X0085228Y0302087D01*
X0085522Y0302018D01*
X0085815Y0301941D01*
X0086106Y0301857D01*
X0086395Y0301766D01*
X0086682Y0301667D01*
X0086966Y0301562D01*
X0087247Y0301450D01*
X0087526Y0301331D01*
X0087801Y0301206D01*
X0088074Y0301073D01*
X0088343Y0300934D01*
X0088608Y0300789D01*
X0088870Y0300637D01*
X0089128Y0300478D01*
X0089382Y0300314D01*
X0089633Y0300143D01*
X0089878Y0299966D01*
X0090120Y0299783D01*
X0090357Y0299595D01*
X0090589Y0299400D01*
X0090817Y0299200D01*
X0091039Y0298995D01*
X0091256Y0298784D01*
X0091469Y0298568D01*
X0091675Y0298347D01*
X0091877Y0298120D01*
X0092072Y0297889D01*
X0092262Y0297654D01*
X0092447Y0297413D01*
X0092625Y0297168D01*
X0092797Y0296919D01*
X0092963Y0296666D01*
X0093123Y0296409D01*
X0093277Y0296148D01*
X0093424Y0295883D01*
X0093564Y0295615D01*
X0093698Y0295343D01*
X0093826Y0295068D01*
X0093946Y0294790D01*
X0094060Y0294510D01*
X0094167Y0294226D01*
X0094266Y0293941D01*
X0094359Y0293652D01*
X0094445Y0293362D01*
X0094524Y0293069D01*
X0094595Y0292775D01*
X0094659Y0292479D01*
X0094716Y0292182D01*
X0094766Y0291883D01*
X0094808Y0291583D01*
X0094843Y0291282D01*
X0094871Y0290981D01*
X0094891Y0290678D01*
X0094904Y0290376D01*
X0094910Y0290073D01*
X0094908Y0289770D01*
X0094899Y0289468D01*
X0094882Y0289165D01*
X0094858Y0288863D01*
X0094826Y0288562D01*
X0094787Y0288262D01*
X0094741Y0287962D01*
X0094688Y0287664D01*
X0094627Y0287368D01*
X0094559Y0287072D01*
X0094484Y0286779D01*
X0094402Y0286488D01*
X0094312Y0286198D01*
X0094216Y0285911D01*
X0094112Y0285627D01*
X0094002Y0285345D01*
X0093885Y0285065D01*
X0093761Y0284789D01*
X0093630Y0284516D01*
X0093492Y0284246D01*
X0093348Y0283980D01*
X0093198Y0283717D01*
X0093041Y0283458D01*
X0092878Y0283202D01*
X0092709Y0282951D01*
X0092533Y0282704D01*
X0092352Y0282462D01*
X0092165Y0282224D01*
X0091972Y0281990D01*
X0091773Y0281762D01*
X0091569Y0281538D01*
X0091359Y0281320D01*
X0091145Y0281106D01*
X0090924Y0280898D01*
X0090699Y0280695D01*
X0090470Y0280498D01*
X0090235Y0280307D01*
X0089996Y0280121D01*
X0089939Y0280196D01*
X0090177Y0280381D01*
X0090409Y0280571D01*
X0090638Y0280766D01*
X0090861Y0280967D01*
X0091079Y0281174D01*
X0091293Y0281386D01*
X0091501Y0281603D01*
X0091703Y0281825D01*
X0091900Y0282052D01*
X0092092Y0282283D01*
X0092278Y0282519D01*
X0092458Y0282760D01*
X0092632Y0283005D01*
X0092800Y0283254D01*
X0092962Y0283508D01*
X0093117Y0283765D01*
X0093266Y0284026D01*
X0093409Y0284290D01*
X0093546Y0284558D01*
X0093675Y0284829D01*
X0093798Y0285103D01*
X0093915Y0285380D01*
X0094024Y0285660D01*
X0094127Y0285943D01*
X0094223Y0286227D01*
X0094311Y0286515D01*
X0094393Y0286804D01*
X0094468Y0287095D01*
X0094535Y0287388D01*
X0094596Y0287682D01*
X0094649Y0287978D01*
X0094694Y0288275D01*
X0094733Y0288573D01*
X0094764Y0288872D01*
X0094788Y0289172D01*
X0094805Y0289472D01*
X0094814Y0289772D01*
X0094816Y0290073D01*
X0094810Y0290373D01*
X0094798Y0290674D01*
X0094777Y0290973D01*
X0094750Y0291273D01*
X0094715Y0291571D01*
X0094673Y0291869D01*
X0094624Y0292165D01*
X0094567Y0292460D01*
X0094503Y0292754D01*
X0094433Y0293046D01*
X0094355Y0293336D01*
X0094269Y0293625D01*
X0094177Y0293911D01*
X0094078Y0294195D01*
X0093972Y0294476D01*
X0093859Y0294754D01*
X0093740Y0295030D01*
X0093613Y0295303D01*
X0093480Y0295572D01*
X0093341Y0295838D01*
X0093195Y0296101D01*
X0093043Y0296360D01*
X0092884Y0296616D01*
X0092719Y0296867D01*
X0092548Y0297114D01*
X0092371Y0297357D01*
X0092188Y0297596D01*
X0092000Y0297830D01*
X0091806Y0298059D01*
X0091606Y0298283D01*
X0091401Y0298503D01*
X0091190Y0298717D01*
X0090974Y0298927D01*
X0090754Y0299131D01*
X0090528Y0299329D01*
X0090297Y0299522D01*
X0090062Y0299709D01*
X0089823Y0299891D01*
X0089579Y0300066D01*
X0089330Y0300236D01*
X0089078Y0300399D01*
X0088822Y0300556D01*
X0088562Y0300707D01*
X0088298Y0300851D01*
X0088031Y0300989D01*
X0087761Y0301121D01*
X0087488Y0301245D01*
X0087211Y0301363D01*
X0086932Y0301474D01*
X0086650Y0301579D01*
X0086366Y0301676D01*
X0086079Y0301767D01*
X0085790Y0301850D01*
X0085500Y0301926D01*
X0085207Y0301996D01*
X0084913Y0302058D01*
X0084618Y0302112D01*
X0084321Y0302160D01*
X0084023Y0302200D01*
X0083724Y0302233D01*
X0083425Y0302259D01*
X0083125Y0302277D01*
X0082825Y0302288D01*
X0082524Y0302292D01*
X0082223Y0302288D01*
X0081923Y0302277D01*
X0081623Y0302259D01*
X0081324Y0302233D01*
X0081025Y0302200D01*
X0080727Y0302160D01*
X0080430Y0302112D01*
X0080135Y0302058D01*
X0079841Y0301996D01*
X0079548Y0301926D01*
X0079258Y0301850D01*
X0078969Y0301767D01*
X0078682Y0301676D01*
X0078398Y0301579D01*
X0078116Y0301474D01*
X0077837Y0301363D01*
X0077560Y0301245D01*
X0077287Y0301121D01*
X0077017Y0300989D01*
X0076750Y0300851D01*
X0076486Y0300707D01*
X0076226Y0300556D01*
X0075970Y0300399D01*
X0075718Y0300236D01*
X0075469Y0300066D01*
X0075225Y0299891D01*
X0074986Y0299709D01*
X0074751Y0299522D01*
X0074520Y0299329D01*
X0074294Y0299131D01*
X0074074Y0298927D01*
X0073858Y0298717D01*
X0073647Y0298503D01*
X0073442Y0298283D01*
X0073242Y0298059D01*
X0073048Y0297830D01*
X0072860Y0297596D01*
X0072677Y0297357D01*
X0072500Y0297114D01*
X0072329Y0296867D01*
X0072164Y0296616D01*
X0072005Y0296360D01*
X0071853Y0296101D01*
X0071707Y0295838D01*
X0071568Y0295572D01*
X0071435Y0295303D01*
X0071308Y0295030D01*
X0071189Y0294754D01*
X0071076Y0294476D01*
X0070970Y0294195D01*
X0070871Y0293911D01*
X0070779Y0293625D01*
X0070693Y0293336D01*
X0070615Y0293046D01*
X0070545Y0292754D01*
X0070481Y0292460D01*
X0070424Y0292165D01*
X0070375Y0291869D01*
X0070333Y0291571D01*
X0070298Y0291273D01*
X0070271Y0290973D01*
X0070250Y0290674D01*
X0070238Y0290373D01*
X0070232Y0290073D01*
X0070234Y0289772D01*
X0070243Y0289472D01*
X0070260Y0289172D01*
X0070284Y0288872D01*
X0070315Y0288573D01*
X0070354Y0288275D01*
X0070399Y0287978D01*
X0070452Y0287682D01*
X0070513Y0287388D01*
X0070580Y0287095D01*
X0070655Y0286804D01*
X0070737Y0286515D01*
X0070825Y0286227D01*
X0070921Y0285943D01*
X0071024Y0285660D01*
X0071133Y0285380D01*
X0071250Y0285103D01*
X0071373Y0284829D01*
X0071502Y0284558D01*
X0071639Y0284290D01*
X0071782Y0284026D01*
X0071931Y0283765D01*
X0072086Y0283508D01*
X0072248Y0283254D01*
X0072416Y0283005D01*
X0072590Y0282760D01*
X0072770Y0282519D01*
X0072956Y0282283D01*
X0073148Y0282052D01*
X0073345Y0281825D01*
X0073547Y0281603D01*
X0073755Y0281386D01*
X0073969Y0281174D01*
X0074187Y0280967D01*
X0074410Y0280766D01*
X0074639Y0280571D01*
X0074871Y0280381D01*
X0075109Y0280196D01*
X0075165Y0280272D01*
X0074930Y0280454D01*
X0074699Y0280643D01*
X0074472Y0280837D01*
X0074250Y0281037D01*
X0074034Y0281242D01*
X0073822Y0281452D01*
X0073616Y0281667D01*
X0073415Y0281887D01*
X0073219Y0282113D01*
X0073029Y0282342D01*
X0072845Y0282577D01*
X0072666Y0282816D01*
X0072493Y0283059D01*
X0072327Y0283306D01*
X0072166Y0283558D01*
X0072012Y0283813D01*
X0071864Y0284072D01*
X0071722Y0284334D01*
X0071587Y0284600D01*
X0071458Y0284869D01*
X0071336Y0285141D01*
X0071220Y0285416D01*
X0071111Y0285694D01*
X0071010Y0285974D01*
X0070915Y0286257D01*
X0070827Y0286542D01*
X0070746Y0286829D01*
X0070671Y0287117D01*
X0070605Y0287408D01*
X0070545Y0287700D01*
X0070492Y0287994D01*
X0070447Y0288289D01*
X0070408Y0288584D01*
X0070377Y0288881D01*
X0070354Y0289178D01*
X0070337Y0289476D01*
X0070328Y0289774D01*
X0070326Y0290072D01*
X0070332Y0290371D01*
X0070344Y0290669D01*
X0070364Y0290966D01*
X0070392Y0291263D01*
X0070426Y0291559D01*
X0070468Y0291855D01*
X0070517Y0292149D01*
X0070573Y0292442D01*
X0070636Y0292733D01*
X0070707Y0293023D01*
X0070784Y0293311D01*
X0070868Y0293597D01*
X0070960Y0293881D01*
X0071058Y0294163D01*
X0071163Y0294442D01*
X0071275Y0294718D01*
X0071394Y0294992D01*
X0071519Y0295262D01*
X0071651Y0295530D01*
X0071790Y0295794D01*
X0071935Y0296055D01*
X0072086Y0296312D01*
X0072243Y0296565D01*
X0072407Y0296814D01*
X0072577Y0297060D01*
X0072752Y0297301D01*
X0072934Y0297538D01*
X0073121Y0297770D01*
X0073313Y0297997D01*
X0073512Y0298220D01*
X0073715Y0298438D01*
X0073924Y0298651D01*
X0074138Y0298859D01*
X0074358Y0299061D01*
X0074581Y0299258D01*
X0074810Y0299449D01*
X0075044Y0299635D01*
X0075281Y0299815D01*
X0075523Y0299989D01*
X0075770Y0300157D01*
X0076020Y0300319D01*
X0076274Y0300475D01*
X0076532Y0300625D01*
X0076794Y0300768D01*
X0077059Y0300905D01*
X0077327Y0301036D01*
X0077598Y0301159D01*
X0077873Y0301276D01*
X0078150Y0301387D01*
X0078430Y0301490D01*
X0078712Y0301587D01*
X0078996Y0301677D01*
X0079283Y0301759D01*
X0079571Y0301835D01*
X0079861Y0301904D01*
X0080153Y0301965D01*
X0080446Y0302020D01*
X0080741Y0302067D01*
X0081036Y0302107D01*
X0081333Y0302140D01*
X0081630Y0302165D01*
X0081928Y0302183D01*
X0082226Y0302194D01*
X0082524Y0302198D01*
X0082822Y0302194D01*
X0083120Y0302183D01*
X0083418Y0302165D01*
X0083715Y0302140D01*
X0084012Y0302107D01*
X0084307Y0302067D01*
X0084602Y0302020D01*
X0084895Y0301965D01*
X0085187Y0301904D01*
X0085477Y0301835D01*
X0085765Y0301759D01*
X0086052Y0301677D01*
X0086336Y0301587D01*
X0086618Y0301490D01*
X0086898Y0301387D01*
X0087175Y0301276D01*
X0087450Y0301159D01*
X0087721Y0301036D01*
X0087989Y0300905D01*
X0088254Y0300768D01*
X0088516Y0300625D01*
X0088774Y0300475D01*
X0089028Y0300319D01*
X0089278Y0300157D01*
X0089525Y0299989D01*
X0089767Y0299815D01*
X0090004Y0299635D01*
X0090238Y0299449D01*
X0090467Y0299258D01*
X0090690Y0299061D01*
X0090910Y0298859D01*
X0091124Y0298651D01*
X0091333Y0298438D01*
X0091536Y0298220D01*
X0091735Y0297997D01*
X0091927Y0297770D01*
X0092114Y0297538D01*
X0092296Y0297301D01*
X0092471Y0297060D01*
X0092641Y0296814D01*
X0092805Y0296565D01*
X0092962Y0296312D01*
X0093113Y0296055D01*
X0093258Y0295794D01*
X0093397Y0295530D01*
X0093529Y0295262D01*
X0093654Y0294992D01*
X0093773Y0294718D01*
X0093885Y0294442D01*
X0093990Y0294163D01*
X0094088Y0293881D01*
X0094180Y0293597D01*
X0094264Y0293311D01*
X0094341Y0293023D01*
X0094412Y0292733D01*
X0094475Y0292442D01*
X0094531Y0292149D01*
X0094580Y0291855D01*
X0094622Y0291559D01*
X0094656Y0291263D01*
X0094684Y0290966D01*
X0094704Y0290669D01*
X0094716Y0290371D01*
X0094722Y0290072D01*
X0094720Y0289774D01*
X0094711Y0289476D01*
X0094694Y0289178D01*
X0094671Y0288881D01*
X0094640Y0288584D01*
X0094601Y0288289D01*
X0094556Y0287994D01*
X0094503Y0287700D01*
X0094443Y0287408D01*
X0094377Y0287117D01*
X0094302Y0286829D01*
X0094221Y0286542D01*
X0094133Y0286257D01*
X0094038Y0285974D01*
X0093937Y0285694D01*
X0093828Y0285416D01*
X0093712Y0285141D01*
X0093590Y0284869D01*
X0093461Y0284600D01*
X0093326Y0284334D01*
X0093184Y0284072D01*
X0093036Y0283813D01*
X0092882Y0283558D01*
X0092721Y0283306D01*
X0092555Y0283059D01*
X0092382Y0282816D01*
X0092203Y0282577D01*
X0092019Y0282342D01*
X0091829Y0282113D01*
X0091633Y0281887D01*
X0091432Y0281667D01*
X0091226Y0281452D01*
X0091014Y0281242D01*
X0090798Y0281037D01*
X0090576Y0280837D01*
X0090349Y0280643D01*
X0090118Y0280454D01*
X0089883Y0280272D01*
X0089826Y0280347D01*
X0090060Y0280528D01*
X0090289Y0280715D01*
X0090514Y0280908D01*
X0090734Y0281106D01*
X0090949Y0281309D01*
X0091159Y0281518D01*
X0091364Y0281732D01*
X0091563Y0281950D01*
X0091757Y0282174D01*
X0091946Y0282402D01*
X0092129Y0282634D01*
X0092306Y0282871D01*
X0092477Y0283113D01*
X0092643Y0283358D01*
X0092802Y0283607D01*
X0092955Y0283861D01*
X0093102Y0284117D01*
X0093243Y0284378D01*
X0093377Y0284642D01*
X0093505Y0284909D01*
X0093626Y0285179D01*
X0093741Y0285451D01*
X0093849Y0285727D01*
X0093950Y0286005D01*
X0094044Y0286286D01*
X0094131Y0286568D01*
X0094212Y0286853D01*
X0094285Y0287140D01*
X0094352Y0287428D01*
X0094411Y0287718D01*
X0094463Y0288010D01*
X0094508Y0288302D01*
X0094546Y0288596D01*
X0094577Y0288890D01*
X0094601Y0289185D01*
X0094617Y0289480D01*
X0094626Y0289776D01*
X0094628Y0290072D01*
X0094622Y0290368D01*
X0094610Y0290664D01*
X0094590Y0290959D01*
X0094563Y0291254D01*
X0094529Y0291548D01*
X0094487Y0291841D01*
X0094439Y0292133D01*
X0094383Y0292423D01*
X0094320Y0292712D01*
X0094250Y0293000D01*
X0094173Y0293286D01*
X0094090Y0293570D01*
X0093999Y0293851D01*
X0093901Y0294131D01*
X0093797Y0294408D01*
X0093686Y0294682D01*
X0093568Y0294953D01*
X0093444Y0295222D01*
X0093313Y0295487D01*
X0093175Y0295749D01*
X0093032Y0296008D01*
X0092882Y0296263D01*
X0092725Y0296515D01*
X0092563Y0296762D01*
X0092395Y0297005D01*
X0092220Y0297245D01*
X0092040Y0297480D01*
X0091855Y0297710D01*
X0091663Y0297936D01*
X0091467Y0298157D01*
X0091265Y0298373D01*
X0091057Y0298584D01*
X0090845Y0298790D01*
X0090627Y0298991D01*
X0090405Y0299187D01*
X0090178Y0299377D01*
X0089947Y0299561D01*
X0089711Y0299739D01*
X0089471Y0299912D01*
X0089226Y0300079D01*
X0088978Y0300240D01*
X0088725Y0300395D01*
X0088469Y0300543D01*
X0088210Y0300685D01*
X0087947Y0300821D01*
X0087681Y0300951D01*
X0087412Y0301073D01*
X0087139Y0301190D01*
X0086864Y0301299D01*
X0086587Y0301402D01*
X0086307Y0301498D01*
X0086025Y0301587D01*
X0085740Y0301669D01*
X0085454Y0301744D01*
X0085166Y0301812D01*
X0084877Y0301873D01*
X0084586Y0301927D01*
X0084293Y0301974D01*
X0084000Y0302014D01*
X0083706Y0302046D01*
X0083411Y0302071D01*
X0083116Y0302090D01*
X0082820Y0302100D01*
X0082524Y0302104D01*
X0082228Y0302100D01*
X0081932Y0302090D01*
X0081637Y0302071D01*
X0081342Y0302046D01*
X0081048Y0302014D01*
X0080755Y0301974D01*
X0080462Y0301927D01*
X0080171Y0301873D01*
X0079882Y0301812D01*
X0079594Y0301744D01*
X0079308Y0301669D01*
X0079023Y0301587D01*
X0078741Y0301498D01*
X0078461Y0301402D01*
X0078184Y0301299D01*
X0077909Y0301190D01*
X0077636Y0301073D01*
X0077367Y0300951D01*
X0077101Y0300821D01*
X0076838Y0300685D01*
X0076579Y0300543D01*
X0076323Y0300395D01*
X0076070Y0300240D01*
X0075822Y0300079D01*
X0075577Y0299912D01*
X0075337Y0299739D01*
X0075101Y0299561D01*
X0074870Y0299377D01*
X0074643Y0299187D01*
X0074421Y0298991D01*
X0074203Y0298790D01*
X0073991Y0298584D01*
X0073783Y0298373D01*
X0073581Y0298157D01*
X0073385Y0297936D01*
X0073193Y0297710D01*
X0073008Y0297480D01*
X0072828Y0297245D01*
X0072653Y0297005D01*
X0072485Y0296762D01*
X0072323Y0296515D01*
X0072166Y0296263D01*
X0072016Y0296008D01*
X0071873Y0295749D01*
X0071735Y0295487D01*
X0071604Y0295222D01*
X0071480Y0294953D01*
X0071362Y0294682D01*
X0071251Y0294408D01*
X0071147Y0294131D01*
X0071049Y0293851D01*
X0070958Y0293570D01*
X0070875Y0293286D01*
X0070798Y0293000D01*
X0070728Y0292712D01*
X0070665Y0292423D01*
X0070609Y0292133D01*
X0070561Y0291841D01*
X0070519Y0291548D01*
X0070485Y0291254D01*
X0070458Y0290959D01*
X0070438Y0290664D01*
X0070426Y0290368D01*
X0070420Y0290072D01*
X0070422Y0289776D01*
X0070431Y0289480D01*
X0070447Y0289185D01*
X0070471Y0288890D01*
X0070502Y0288596D01*
X0070540Y0288302D01*
X0070585Y0288010D01*
X0070637Y0287718D01*
X0070696Y0287428D01*
X0070763Y0287140D01*
X0070836Y0286853D01*
X0070917Y0286568D01*
X0071004Y0286286D01*
X0071098Y0286005D01*
X0071199Y0285727D01*
X0071307Y0285451D01*
X0071422Y0285179D01*
X0071543Y0284909D01*
X0071671Y0284642D01*
X0071805Y0284378D01*
X0071946Y0284117D01*
X0072093Y0283861D01*
X0072246Y0283607D01*
X0072405Y0283358D01*
X0072571Y0283113D01*
X0072742Y0282871D01*
X0072919Y0282634D01*
X0073102Y0282402D01*
X0073291Y0282174D01*
X0073485Y0281950D01*
X0073684Y0281732D01*
X0073889Y0281518D01*
X0074099Y0281309D01*
X0074314Y0281106D01*
X0074534Y0280908D01*
X0074759Y0280715D01*
X0074988Y0280528D01*
X0075222Y0280347D01*
D16*
X0072524Y0290000D02*
X0072527Y0290245D01*
X0072536Y0290491D01*
X0072551Y0290736D01*
X0072572Y0290980D01*
X0072599Y0291224D01*
X0072632Y0291467D01*
X0072671Y0291710D01*
X0072716Y0291951D01*
X0072767Y0292191D01*
X0072824Y0292430D01*
X0072886Y0292667D01*
X0072955Y0292903D01*
X0073029Y0293137D01*
X0073109Y0293369D01*
X0073194Y0293599D01*
X0073285Y0293827D01*
X0073382Y0294052D01*
X0073484Y0294276D01*
X0073592Y0294496D01*
X0073705Y0294714D01*
X0073823Y0294929D01*
X0073947Y0295141D01*
X0074075Y0295350D01*
X0074209Y0295556D01*
X0074348Y0295758D01*
X0074492Y0295957D01*
X0074641Y0296152D01*
X0074794Y0296344D01*
X0074952Y0296532D01*
X0075114Y0296716D01*
X0075282Y0296895D01*
X0075453Y0297071D01*
X0075629Y0297242D01*
X0075808Y0297410D01*
X0075992Y0297572D01*
X0076180Y0297730D01*
X0076372Y0297883D01*
X0076567Y0298032D01*
X0076766Y0298176D01*
X0076968Y0298315D01*
X0077174Y0298449D01*
X0077383Y0298577D01*
X0077595Y0298701D01*
X0077810Y0298819D01*
X0078028Y0298932D01*
X0078248Y0299040D01*
X0078472Y0299142D01*
X0078697Y0299239D01*
X0078925Y0299330D01*
X0079155Y0299415D01*
X0079387Y0299495D01*
X0079621Y0299569D01*
X0079857Y0299638D01*
X0080094Y0299700D01*
X0080333Y0299757D01*
X0080573Y0299808D01*
X0080814Y0299853D01*
X0081057Y0299892D01*
X0081300Y0299925D01*
X0081544Y0299952D01*
X0081788Y0299973D01*
X0082033Y0299988D01*
X0082279Y0299997D01*
X0082524Y0300000D01*
X0082769Y0299997D01*
X0083015Y0299988D01*
X0083260Y0299973D01*
X0083504Y0299952D01*
X0083748Y0299925D01*
X0083991Y0299892D01*
X0084234Y0299853D01*
X0084475Y0299808D01*
X0084715Y0299757D01*
X0084954Y0299700D01*
X0085191Y0299638D01*
X0085427Y0299569D01*
X0085661Y0299495D01*
X0085893Y0299415D01*
X0086123Y0299330D01*
X0086351Y0299239D01*
X0086576Y0299142D01*
X0086800Y0299040D01*
X0087020Y0298932D01*
X0087238Y0298819D01*
X0087453Y0298701D01*
X0087665Y0298577D01*
X0087874Y0298449D01*
X0088080Y0298315D01*
X0088282Y0298176D01*
X0088481Y0298032D01*
X0088676Y0297883D01*
X0088868Y0297730D01*
X0089056Y0297572D01*
X0089240Y0297410D01*
X0089419Y0297242D01*
X0089595Y0297071D01*
X0089766Y0296895D01*
X0089934Y0296716D01*
X0090096Y0296532D01*
X0090254Y0296344D01*
X0090407Y0296152D01*
X0090556Y0295957D01*
X0090700Y0295758D01*
X0090839Y0295556D01*
X0090973Y0295350D01*
X0091101Y0295141D01*
X0091225Y0294929D01*
X0091343Y0294714D01*
X0091456Y0294496D01*
X0091564Y0294276D01*
X0091666Y0294052D01*
X0091763Y0293827D01*
X0091854Y0293599D01*
X0091939Y0293369D01*
X0092019Y0293137D01*
X0092093Y0292903D01*
X0092162Y0292667D01*
X0092224Y0292430D01*
X0092281Y0292191D01*
X0092332Y0291951D01*
X0092377Y0291710D01*
X0092416Y0291467D01*
X0092449Y0291224D01*
X0092476Y0290980D01*
X0092497Y0290736D01*
X0092512Y0290491D01*
X0092521Y0290245D01*
X0092524Y0290000D01*
X0092521Y0289755D01*
X0092512Y0289509D01*
X0092497Y0289264D01*
X0092476Y0289020D01*
X0092449Y0288776D01*
X0092416Y0288533D01*
X0092377Y0288290D01*
X0092332Y0288049D01*
X0092281Y0287809D01*
X0092224Y0287570D01*
X0092162Y0287333D01*
X0092093Y0287097D01*
X0092019Y0286863D01*
X0091939Y0286631D01*
X0091854Y0286401D01*
X0091763Y0286173D01*
X0091666Y0285948D01*
X0091564Y0285724D01*
X0091456Y0285504D01*
X0091343Y0285286D01*
X0091225Y0285071D01*
X0091101Y0284859D01*
X0090973Y0284650D01*
X0090839Y0284444D01*
X0090700Y0284242D01*
X0090556Y0284043D01*
X0090407Y0283848D01*
X0090254Y0283656D01*
X0090096Y0283468D01*
X0089934Y0283284D01*
X0089766Y0283105D01*
X0089595Y0282929D01*
X0089419Y0282758D01*
X0089240Y0282590D01*
X0089056Y0282428D01*
X0088868Y0282270D01*
X0088676Y0282117D01*
X0088481Y0281968D01*
X0088282Y0281824D01*
X0088080Y0281685D01*
X0087874Y0281551D01*
X0087665Y0281423D01*
X0087453Y0281299D01*
X0087238Y0281181D01*
X0087020Y0281068D01*
X0086800Y0280960D01*
X0086576Y0280858D01*
X0086351Y0280761D01*
X0086123Y0280670D01*
X0085893Y0280585D01*
X0085661Y0280505D01*
X0085427Y0280431D01*
X0085191Y0280362D01*
X0084954Y0280300D01*
X0084715Y0280243D01*
X0084475Y0280192D01*
X0084234Y0280147D01*
X0083991Y0280108D01*
X0083748Y0280075D01*
X0083504Y0280048D01*
X0083260Y0280027D01*
X0083015Y0280012D01*
X0082769Y0280003D01*
X0082524Y0280000D01*
X0082279Y0280003D01*
X0082033Y0280012D01*
X0081788Y0280027D01*
X0081544Y0280048D01*
X0081300Y0280075D01*
X0081057Y0280108D01*
X0080814Y0280147D01*
X0080573Y0280192D01*
X0080333Y0280243D01*
X0080094Y0280300D01*
X0079857Y0280362D01*
X0079621Y0280431D01*
X0079387Y0280505D01*
X0079155Y0280585D01*
X0078925Y0280670D01*
X0078697Y0280761D01*
X0078472Y0280858D01*
X0078248Y0280960D01*
X0078028Y0281068D01*
X0077810Y0281181D01*
X0077595Y0281299D01*
X0077383Y0281423D01*
X0077174Y0281551D01*
X0076968Y0281685D01*
X0076766Y0281824D01*
X0076567Y0281968D01*
X0076372Y0282117D01*
X0076180Y0282270D01*
X0075992Y0282428D01*
X0075808Y0282590D01*
X0075629Y0282758D01*
X0075453Y0282929D01*
X0075282Y0283105D01*
X0075114Y0283284D01*
X0074952Y0283468D01*
X0074794Y0283656D01*
X0074641Y0283848D01*
X0074492Y0284043D01*
X0074348Y0284242D01*
X0074209Y0284444D01*
X0074075Y0284650D01*
X0073947Y0284859D01*
X0073823Y0285071D01*
X0073705Y0285286D01*
X0073592Y0285504D01*
X0073484Y0285724D01*
X0073382Y0285948D01*
X0073285Y0286173D01*
X0073194Y0286401D01*
X0073109Y0286631D01*
X0073029Y0286863D01*
X0072955Y0287097D01*
X0072886Y0287333D01*
X0072824Y0287570D01*
X0072767Y0287809D01*
X0072716Y0288049D01*
X0072671Y0288290D01*
X0072632Y0288533D01*
X0072599Y0288776D01*
X0072572Y0289020D01*
X0072551Y0289264D01*
X0072536Y0289509D01*
X0072527Y0289755D01*
X0072524Y0290000D01*
M02*
