%
M48
M72
T01C0.0150
T02C0.0276
T03C0.0320
T04C0.0354
T05C0.0400
T06C0.0600
T07C0.1000
T08C0.1570
%
T01
X19752Y29000
T02
X22465Y14717
X23252Y14717
X24040Y14717
T03
X8252Y28500
X8252Y29500
T04
X7973Y25000
X10532Y25000
T05
X8752Y11000
X9752Y11000
X10752Y11000
X11752Y11000
X13752Y11000
X14752Y11000
X15752Y11000
X16752Y11000
X17752Y11000
X18752Y11000
X19752Y11000
X20752Y11000
X22752Y11000
X23752Y11000
X24752Y11000
X25752Y11000
X26752Y11000
X27752Y11000
X28752Y13000
X28752Y14000
X28752Y15000
X28752Y16000
X28752Y17000
X28752Y18000
X21752Y24500
X21752Y25500
X21752Y26500
X21752Y27500
X21752Y28500
X21752Y30000
X22752Y30000
X23752Y30000
X24752Y30000
X25752Y30000
X26752Y30000
X27752Y30000
X20752Y30000
X19252Y30000
X18252Y30000
X17252Y30000
X16252Y30000
X15252Y30000
X14252Y30000
X13252Y30000
X12252Y30000
X11252Y30000
X10252Y30000
X7752Y20500
X7752Y19500
X7752Y18500
X7752Y17500
X7752Y16500
X7752Y15500
X7752Y14500
X7752Y13500
X18752Y13500
X18752Y14500
X18752Y15500
X18752Y16500
X18752Y17500
X18752Y18500
X18752Y19500
X18752Y20500
T06
X24752Y21000
X24752Y23000
X24752Y25000
X24752Y27000
T07
X25752Y28000
X25752Y20000
T08
X28752Y22000
X28752Y26000
M30
