G75*
%MOIN*%
%OFA0B0*%
%FSLAX25Y25*%
%IPPOS*%
%LPD*%
%AMOC8*
5,1,8,0,0,1.08239X$1,22.5*
%
%ADD10C,0.01100*%
%ADD11C,0.07400*%
%ADD12C,0.12000*%
%ADD13C,0.07000*%
%ADD14C,0.06299*%
%ADD15C,0.02000*%
%ADD16C,0.01000*%
%ADD17C,0.03500*%
D10*
X0088405Y0137050D02*
X0092342Y0142955D01*
X0094851Y0140987D02*
X0096819Y0142955D01*
X0096819Y0137050D01*
X0094851Y0137050D02*
X0098788Y0137050D01*
X0101296Y0138034D02*
X0101296Y0141971D01*
X0102281Y0142955D01*
X0104249Y0142955D01*
X0105233Y0141971D01*
X0101296Y0138034D01*
X0102281Y0137050D01*
X0104249Y0137050D01*
X0105233Y0138034D01*
X0105233Y0141971D01*
X0092342Y0137050D02*
X0088405Y0142955D01*
D11*
X0087524Y0110000D03*
X0097524Y0110000D03*
X0107524Y0110000D03*
X0117524Y0110000D03*
X0137524Y0110000D03*
X0147524Y0110000D03*
X0157524Y0110000D03*
X0167524Y0110000D03*
X0177524Y0110000D03*
X0187524Y0110000D03*
X0197524Y0110000D03*
X0207524Y0110000D03*
X0227524Y0110000D03*
X0237524Y0110000D03*
X0247524Y0110000D03*
X0257524Y0110000D03*
X0267524Y0110000D03*
X0277524Y0110000D03*
X0277524Y0120000D03*
X0267524Y0120000D03*
X0257524Y0120000D03*
X0247524Y0120000D03*
X0237524Y0120000D03*
X0227524Y0120000D03*
X0187524Y0135000D03*
X0187524Y0145000D03*
X0187524Y0155000D03*
X0187524Y0165000D03*
X0187524Y0175000D03*
X0187524Y0185000D03*
X0187524Y0195000D03*
X0187524Y0205000D03*
X0217524Y0245000D03*
X0217524Y0255000D03*
X0217524Y0265000D03*
X0217524Y0275000D03*
X0217524Y0285000D03*
X0217524Y0300000D03*
X0227524Y0300000D03*
X0237524Y0300000D03*
X0247524Y0300000D03*
X0257524Y0300000D03*
X0267524Y0300000D03*
X0277524Y0300000D03*
X0207524Y0300000D03*
X0192524Y0300000D03*
X0182524Y0300000D03*
X0172524Y0300000D03*
X0162524Y0300000D03*
X0152524Y0300000D03*
X0142524Y0300000D03*
X0132524Y0300000D03*
X0122524Y0300000D03*
X0112524Y0300000D03*
X0102524Y0300000D03*
X0082524Y0295000D03*
X0082524Y0285000D03*
X0077524Y0205000D03*
X0077524Y0195000D03*
X0077524Y0185000D03*
X0077524Y0175000D03*
X0077524Y0165000D03*
X0077524Y0155000D03*
X0077524Y0145000D03*
X0077524Y0135000D03*
X0287524Y0130000D03*
X0287524Y0140000D03*
X0287524Y0150000D03*
X0287524Y0160000D03*
X0287524Y0170000D03*
X0287524Y0180000D03*
D12*
X0247524Y0210000D03*
X0247524Y0230000D03*
X0247524Y0250000D03*
X0247524Y0270000D03*
D13*
X0105319Y0250000D03*
X0079728Y0250000D03*
D14*
X0203587Y0147835D03*
X0211461Y0147835D03*
X0234650Y0147835D03*
X0242524Y0147835D03*
X0250398Y0147835D03*
D15*
X0267524Y0130000D02*
X0267524Y0205000D01*
X0262524Y0210000D01*
X0247524Y0210000D01*
X0187524Y0205000D02*
X0187524Y0280000D01*
X0182524Y0285000D01*
X0137524Y0285000D01*
X0132524Y0290000D01*
X0132524Y0300000D01*
X0287524Y0150000D02*
X0292524Y0150000D01*
X0297524Y0145000D01*
X0297524Y0110000D01*
X0290524Y0103000D01*
X0179024Y0103000D01*
X0177524Y0104500D01*
X0177524Y0110000D01*
X0267524Y0130000D02*
X0277524Y0120000D01*
D16*
X0267524Y0110000D02*
X0257524Y0120000D01*
X0247524Y0120000D02*
X0257524Y0110000D01*
X0247524Y0110000D02*
X0237524Y0120000D01*
X0227524Y0110000D02*
X0222524Y0115000D01*
X0222524Y0185000D01*
X0207524Y0200000D01*
X0207524Y0270000D01*
X0212524Y0275000D01*
X0217524Y0275000D01*
X0207524Y0290000D02*
X0197524Y0280000D01*
X0197524Y0200000D01*
X0211461Y0186063D01*
X0211461Y0147835D01*
X0203587Y0147835D02*
X0203587Y0126063D01*
X0197524Y0120000D01*
X0197524Y0110000D01*
X0250398Y0147835D02*
X0250398Y0177126D01*
X0227524Y0200000D01*
X0227524Y0300000D01*
X0247524Y0300000D02*
X0256024Y0291500D01*
X0262524Y0291500D01*
X0272524Y0281500D01*
X0272524Y0135000D01*
X0277524Y0130000D01*
X0287524Y0130000D01*
X0287524Y0140000D02*
X0282524Y0140000D01*
X0277524Y0145000D01*
X0277524Y0280000D01*
X0257524Y0300000D01*
X0207524Y0300000D02*
X0207524Y0290000D01*
X0197524Y0290000D02*
X0187524Y0290000D01*
X0182524Y0295000D01*
X0182524Y0300000D01*
D17*
X0197524Y0290000D03*
M02*
