G75*
%MOIN*%
%OFA0B0*%
%FSLAX25Y25*%
%IPPOS*%
%LPD*%
%AMOC8*
5,1,8,0,0,1.08239X$1,22.5*
%
%ADD10C,0.08200*%
%ADD11C,0.10800*%
%ADD12C,0.16500*%
%ADD13C,0.12800*%
%ADD14C,0.07800*%
%ADD15C,0.07099*%
D10*
X0087524Y0110000D03*
X0097524Y0110000D03*
X0107524Y0110000D03*
X0117524Y0110000D03*
X0137524Y0110000D03*
X0147524Y0110000D03*
X0157524Y0110000D03*
X0167524Y0110000D03*
X0177524Y0110000D03*
X0187524Y0110000D03*
X0197524Y0110000D03*
X0207524Y0110000D03*
X0227524Y0110000D03*
X0237524Y0110000D03*
X0247524Y0110000D03*
X0257524Y0110000D03*
X0267524Y0110000D03*
X0277524Y0110000D03*
X0277524Y0120000D03*
X0267524Y0120000D03*
X0257524Y0120000D03*
X0247524Y0120000D03*
X0237524Y0120000D03*
X0227524Y0120000D03*
X0187524Y0135000D03*
X0187524Y0145000D03*
X0187524Y0155000D03*
X0187524Y0165000D03*
X0187524Y0175000D03*
X0187524Y0185000D03*
X0187524Y0195000D03*
X0187524Y0205000D03*
X0217524Y0245000D03*
X0217524Y0255000D03*
X0217524Y0265000D03*
X0217524Y0275000D03*
X0217524Y0285000D03*
X0217524Y0300000D03*
X0227524Y0300000D03*
X0237524Y0300000D03*
X0247524Y0300000D03*
X0257524Y0300000D03*
X0267524Y0300000D03*
X0277524Y0300000D03*
X0207524Y0300000D03*
X0192524Y0300000D03*
X0182524Y0300000D03*
X0172524Y0300000D03*
X0162524Y0300000D03*
X0152524Y0300000D03*
X0142524Y0300000D03*
X0132524Y0300000D03*
X0122524Y0300000D03*
X0112524Y0300000D03*
X0102524Y0300000D03*
X0082524Y0295000D03*
X0082524Y0285000D03*
X0077524Y0205000D03*
X0077524Y0195000D03*
X0077524Y0185000D03*
X0077524Y0175000D03*
X0077524Y0165000D03*
X0077524Y0155000D03*
X0077524Y0145000D03*
X0077524Y0135000D03*
X0287524Y0130000D03*
X0287524Y0140000D03*
X0287524Y0150000D03*
X0287524Y0160000D03*
X0287524Y0170000D03*
X0287524Y0180000D03*
D11*
X0257524Y0200000D03*
X0257524Y0280000D03*
D12*
X0287524Y0260000D03*
X0287524Y0220000D03*
D13*
X0247524Y0210000D03*
X0247524Y0230000D03*
X0247524Y0250000D03*
X0247524Y0270000D03*
D14*
X0105319Y0250000D03*
X0079728Y0250000D03*
D15*
X0203587Y0147835D03*
X0211461Y0147835D03*
X0234650Y0147835D03*
X0242524Y0147835D03*
X0250398Y0147835D03*
M02*
