G75*
%MOIN*%
%OFA0B0*%
%FSLAX25Y25*%
%IPPOS*%
%LPD*%
%AMOC8*
5,1,8,0,0,1.08239X$1,22.5*
%
%ADD10C,0.07400*%
%ADD11C,0.12000*%
%ADD12C,0.07000*%
%ADD13C,0.06299*%
%ADD14C,0.05000*%
%ADD15C,0.02000*%
%ADD16C,0.01000*%
%ADD17C,0.03500*%
D10*
X0087524Y0110000D03*
X0097524Y0110000D03*
X0107524Y0110000D03*
X0117524Y0110000D03*
X0137524Y0110000D03*
X0147524Y0110000D03*
X0157524Y0110000D03*
X0167524Y0110000D03*
X0177524Y0110000D03*
X0187524Y0110000D03*
X0197524Y0110000D03*
X0207524Y0110000D03*
X0227524Y0110000D03*
X0237524Y0110000D03*
X0247524Y0110000D03*
X0257524Y0110000D03*
X0267524Y0110000D03*
X0277524Y0110000D03*
X0287524Y0130000D03*
X0287524Y0140000D03*
X0287524Y0150000D03*
X0287524Y0160000D03*
X0287524Y0170000D03*
X0287524Y0180000D03*
X0217524Y0245000D03*
X0217524Y0255000D03*
X0217524Y0265000D03*
X0217524Y0275000D03*
X0217524Y0285000D03*
X0217524Y0300000D03*
X0227524Y0300000D03*
X0237524Y0300000D03*
X0247524Y0300000D03*
X0257524Y0300000D03*
X0267524Y0300000D03*
X0277524Y0300000D03*
X0207524Y0300000D03*
X0192524Y0300000D03*
X0182524Y0300000D03*
X0172524Y0300000D03*
X0162524Y0300000D03*
X0152524Y0300000D03*
X0142524Y0300000D03*
X0132524Y0300000D03*
X0122524Y0300000D03*
X0112524Y0300000D03*
X0102524Y0300000D03*
X0082524Y0295000D03*
X0082524Y0285000D03*
X0077524Y0205000D03*
X0077524Y0195000D03*
X0077524Y0185000D03*
X0077524Y0175000D03*
X0077524Y0165000D03*
X0077524Y0155000D03*
X0077524Y0145000D03*
X0077524Y0135000D03*
X0187524Y0135000D03*
X0187524Y0145000D03*
X0187524Y0155000D03*
X0187524Y0165000D03*
X0187524Y0175000D03*
X0187524Y0185000D03*
X0187524Y0195000D03*
X0187524Y0205000D03*
D11*
X0247524Y0210000D03*
X0247524Y0230000D03*
X0247524Y0250000D03*
X0247524Y0270000D03*
D12*
X0105319Y0250000D03*
X0079728Y0250000D03*
D13*
X0224650Y0147165D03*
X0232524Y0147165D03*
X0240398Y0147165D03*
D14*
X0232524Y0147165D02*
X0232524Y0155000D01*
X0237524Y0160000D01*
X0287524Y0160000D01*
X0292524Y0160000D01*
X0297524Y0165000D01*
X0297524Y0190000D01*
X0292524Y0195000D01*
X0272524Y0195000D01*
X0267524Y0190000D01*
X0237524Y0190000D01*
X0232524Y0195000D01*
X0232524Y0245000D01*
X0217524Y0245000D01*
X0197524Y0245000D01*
X0187524Y0235000D01*
X0187524Y0205000D01*
X0187524Y0195000D01*
X0187524Y0185000D02*
X0187524Y0175000D01*
X0187524Y0165000D02*
X0187524Y0155000D01*
X0187524Y0145000D02*
X0177524Y0145000D01*
X0172524Y0150000D01*
X0172524Y0235000D01*
X0202524Y0265000D01*
X0217524Y0265000D01*
X0217524Y0255000D02*
X0227524Y0255000D01*
X0232524Y0260000D01*
X0257524Y0260000D01*
X0262524Y0255000D01*
X0262524Y0215000D01*
X0257524Y0210000D01*
X0247524Y0210000D01*
X0287524Y0180000D02*
X0202524Y0180000D01*
X0197524Y0185000D01*
X0187524Y0185000D01*
X0202524Y0170000D02*
X0287524Y0170000D01*
X0232524Y0147165D02*
X0232524Y0135000D01*
X0222524Y0125000D01*
X0202524Y0125000D01*
X0197524Y0120000D01*
X0197524Y0110000D01*
X0187524Y0135000D02*
X0187524Y0145000D01*
X0187524Y0165000D02*
X0197524Y0165000D01*
X0202524Y0170000D01*
X0232524Y0245000D02*
X0237524Y0250000D01*
X0247524Y0250000D01*
D15*
X0247524Y0270000D02*
X0237524Y0270000D01*
X0232524Y0275000D01*
X0232524Y0280000D01*
X0227524Y0285000D01*
X0217524Y0285000D01*
X0202524Y0285000D01*
X0177524Y0260000D01*
X0162524Y0260000D01*
X0157524Y0255000D01*
X0157524Y0125000D01*
X0177524Y0125000D01*
X0192524Y0125000D01*
X0214689Y0147165D01*
X0224650Y0147165D01*
X0177524Y0125000D02*
X0177524Y0110000D01*
X0187524Y0110000D02*
X0197524Y0110000D01*
X0157524Y0125000D02*
X0102524Y0125000D01*
X0097524Y0120000D01*
X0097524Y0110000D01*
X0087524Y0110000D02*
X0072524Y0110000D01*
X0067524Y0115000D01*
X0067524Y0200000D01*
X0072524Y0205000D01*
X0077524Y0205000D01*
X0077524Y0220000D01*
X0079728Y0222205D01*
X0079728Y0250000D01*
X0079728Y0267205D01*
X0082524Y0270000D01*
X0082524Y0285000D01*
X0077524Y0285000D01*
X0072524Y0290000D01*
X0072524Y0300000D01*
X0079024Y0306500D01*
X0129524Y0306500D01*
X0132524Y0303500D01*
X0132524Y0300000D01*
D16*
X0105024Y0102500D02*
X0095024Y0102500D01*
X0092524Y0105000D01*
X0092524Y0125000D01*
X0097524Y0130000D01*
X0122524Y0130000D01*
X0127524Y0135000D01*
X0127524Y0260000D01*
X0132524Y0265000D01*
X0172524Y0265000D01*
X0197524Y0290000D01*
X0192524Y0295000D02*
X0192524Y0300000D01*
X0192524Y0295000D02*
X0167524Y0270000D01*
X0127524Y0270000D01*
X0122524Y0265000D01*
X0122524Y0180000D01*
X0117524Y0175000D01*
X0077524Y0175000D01*
X0077524Y0185000D02*
X0112524Y0185000D01*
X0117524Y0190000D01*
X0117524Y0270000D01*
X0122524Y0275000D01*
X0162024Y0275000D01*
X0177524Y0290500D01*
X0177524Y0303500D01*
X0181024Y0307000D01*
X0215024Y0307000D01*
X0217524Y0304500D01*
X0217524Y0300000D01*
X0172524Y0300000D02*
X0172524Y0295000D01*
X0157524Y0280000D01*
X0117524Y0280000D01*
X0112524Y0275000D01*
X0112524Y0200000D01*
X0107524Y0195000D01*
X0077524Y0195000D01*
X0105319Y0250000D02*
X0105319Y0277795D01*
X0112524Y0285000D01*
X0157524Y0285000D01*
X0162524Y0290000D01*
X0162524Y0300000D01*
X0142524Y0300000D02*
X0142524Y0295000D01*
X0137524Y0290000D01*
X0087524Y0290000D01*
X0082524Y0295000D01*
X0107524Y0110000D02*
X0107524Y0105000D01*
X0105024Y0102500D01*
X0117524Y0105500D02*
X0120024Y0103000D01*
X0234524Y0103000D01*
X0237524Y0106000D01*
X0237524Y0110000D01*
X0117524Y0110000D02*
X0117524Y0105500D01*
D17*
X0197524Y0290000D03*
M02*
